<?xml version="1.0" encoding="UTF-8" standalone="no"?>
<!-- Created with Inkscape (http://www.inkscape.org/) -->

<svg
   xmlns:dc="http://purl.org/dc/elements/1.1/"
   xmlns:cc="http://creativecommons.org/ns#"
   xmlns:rdf="http://www.w3.org/1999/02/22-rdf-syntax-ns#"
   xmlns:svg="http://www.w3.org/2000/svg"
   xmlns="http://www.w3.org/2000/svg"
   xmlns:sodipodi="http://sodipodi.sourceforge.net/DTD/sodipodi-0.dtd"
   xmlns:inkscape="http://www.inkscape.org/namespaces/inkscape"
   width="126.0mm"
   height="112.0mm"
   viewBox="0 0 126.0 112.0"
   version="1.1"
   id="svg2367"
   inkscape:version="0.92.2 (5c3e80d, 2017-08-06)"
   sodipodi:docname="Kuerbis10funkt.svg">
  <sodipodi:namedview
     id="base"
     pagecolor="#ffffff"
     bordercolor="#666666"
     borderopacity="1.0"
     inkscape:pageopacity="0.0"
     inkscape:pageshadow="2"
     inkscape:zoom="1.3366797"
     inkscape:cx="335.06937"
     inkscape:cy="131.14011"
     inkscape:document-units="mm"
     inkscape:current-layer="g2964"
     showgrid="true"
     inkscape:window-width="1920"
     inkscape:window-height="1017"
     inkscape:window-x="-8"
     inkscape:window-y="-8"
     inkscape:window-maximized="1"
     borderlayer="true"
     inkscape:snap-global="false">
    <inkscape:grid
       spacingx="2.54"
       spacingy="2.54"
       empspacing="1"
       type="xygrid"
       units="mm"
       id="grid2935" />
  </sodipodi:namedview>
  <defs
     id="defs2361" />
  <metadata
     id="metadata2364">
    <rdf:RDF>
      <cc:Work
         rdf:about="">
        <dc:format>image/svg+xml</dc:format>
        <dc:type
           rdf:resource="http://purl.org/dc/dcmitype/StillImage" />
        <dc:title></dc:title>
      </cc:Work>
    </rdf:RDF>
  </metadata>
  <g
     inkscape:label="[fixed] BG"
     inkscape:groupmode="layer"
     id="g2948"
     sodipodi:insensitive="true">
    <rect
       x="0"
       y="0"
       width="126"
       height="112"
       style="fill:#ffffff;fill-opacity:1;stroke:none"
       id="rect2946" />
    <g
       style="display:none"
       inkscape:label="cut"
       id="layer2"
       transform="translate(166.12129,49.281542)">
      <path
         inkscape:connector-curvature="0"
         sodipodi:nodetypes="cccccccccccccccccccc"
         id="path842"
         d="M 72.969241,98.939872 102.55639,86.634668 c 0.30074,-12.304408 3.21818,-24.157472 12.69853,-34.308646 5.54007,-6.586584 14.65205,-9.894993 27.90526,-10.482467 18.03256,0.116401 29.21854,6.474687 38.79523,13.989974 3.85202,2.376306 6.28572,8.077263 -2.10105,7.76126 -6.46727,-0.218029 -15.27734,-4.068734 -19.56255,-1.377342 -1.02017,1.790019 -0.3224,2.892864 -0.39289,4.303009 1.54711,6.243724 4.42539,12.620564 8.11251,19.078289 11.21649,3.63374 21.91712,7.624623 30.37375,13.169037 6.0281,4.066388 4.649,6.997948 0,8.501828 -0.33933,0.82973 -6.43389,0.52602 -9.77057,0.63154 2.82325,9.60068 1.73758,19.31304 -2.93929,29.12801 -6.93629,9.98799 -18.30392,16.28924 -34.12234,20.41944 -11.69662,4.27923 -24.09948,1.34223 -36.2177,-1.75659 -15.932646,-4.33226 -21.870096,-8.83686 -25.488459,-13.38144 -4.199965,-4.01976 -6.405954,-10.53198 -6.320432,-19.9086 -0.497045,-5.30891 1.099363,-9.36053 2.709568,-12.77291 -4.260434,0.1697 -8.321871,0.28199 -12.1587,-0.18372 -6.774932,-1.68915 -5.271277,-7.07654 -1.108016,-10.505468 z"
         style="fill:none;fill-opacity:1;stroke:#ff0000;stroke-width:0.2;stroke-linecap:square;stroke-linejoin:round;stroke-miterlimit:4;stroke-dasharray:none;stroke-opacity:1;paint-order:markers stroke fill" />
      <path
         inkscape:connector-curvature="0"
         sodipodi:nodetypes="cccc"
         id="path844"
         d="m 108.88116,115.3309 c 2.73653,-6.27481 7.26676,-9.95872 12.2784,-12.94725 1.24395,5.94773 3.23517,10.94631 6.59306,15.28827 -4.38163,1.73015 -12.63693,3.90974 -18.87146,-2.34102 z"
         style="fill:none;fill-opacity:1;stroke:#ff0000;stroke-width:0.2;stroke-linecap:square;stroke-linejoin:round;stroke-miterlimit:4;stroke-dasharray:none;stroke-opacity:1;paint-order:markers stroke fill" />
      <path
         inkscape:connector-curvature="0"
         sodipodi:nodetypes="ccccc"
         id="path846"
         d="m 144.95193,118.19745 c 2.9339,-4.89629 5.08704,-10.13958 5.7331,-16.05268 4.75286,3.14608 8.84577,6.95212 11.94397,11.75286 0.57616,0.88691 0.28715,1.44939 -0.14333,1.95881 -7.48105,5.28064 -14.04128,3.21517 -17.53374,2.34101 z"
         style="fill:none;fill-opacity:1;stroke:#ff0000;stroke-width:0.2;stroke-linecap:square;stroke-linejoin:round;stroke-miterlimit:4;stroke-dasharray:none;stroke-opacity:1;paint-order:markers stroke fill" />
      <path
         inkscape:connector-curvature="0"
         sodipodi:nodetypes="cccc"
         id="path848"
         d="m 129.13812,128.32593 c 2.30644,-5.09012 4.74849,-8.89205 7.30971,-11.56175 2.50611,3.67874 4.23951,7.35748 5.7331,11.03622 -4.39038,0.1324 -8.77712,0.26844 -13.04281,0.52553 z"
         style="fill:none;fill-opacity:1;stroke:#ff0000;stroke-width:0.2;stroke-linecap:square;stroke-linejoin:round;stroke-miterlimit:4;stroke-dasharray:none;stroke-opacity:1;paint-order:markers stroke fill" />
    </g>
  </g>
  <g
     inkscape:label="F.Cu"
     inkscape:groupmode="layer"
     id="g2950" />
  <g
     inkscape:label="B.Cu-disabled"
     inkscape:groupmode="layer"
     id="g2952" />
  <g
     inkscape:label="B.Adhes-disabled"
     inkscape:groupmode="layer"
     id="g2954" />
  <g
     inkscape:label="F.Adhes-disabled"
     inkscape:groupmode="layer"
     id="g2956" />
  <g
     inkscape:label="B.Paste-disabled"
     inkscape:groupmode="layer"
     id="g2958" />
  <g
     inkscape:label="F.Paste-disabled"
     inkscape:groupmode="layer"
     id="g2960" />
  <g
     inkscape:label="B.SilkS-disabled"
     inkscape:groupmode="layer"
     id="g2962" />
  <g
     inkscape:label="F.SilkS"
     inkscape:groupmode="layer"
     id="g2964"
     style="display:inline">
    <path
       style="fill:#000000;fill-opacity:1;stroke:#000000;stroke-width:0.09559425;stroke-miterlimit:4;stroke-dasharray:none;stroke-opacity:1"
       d="m 59.086399,110.53684 c -0.533253,-0.11536 -3.696438,-0.734 -7.029303,-1.37461 -3.332865,-0.64063 -7.75083,-1.73333 -9.817721,-2.42825 -2.066862,-0.69492 -3.957057,-1.14046 -4.200421,-0.99004 -0.243344,0.15032 -0.515616,0.10623 -0.605054,-0.0981 -0.08948,-0.20431 -2.296136,-1.20986 -4.903803,-2.23454 C 25.309882,100.57412 20.58397,96.65517 16.76498,90.338101 14.615065,86.78188 13.67198,82.558306 13.588325,76.11164 c -0.03919,-3.019191 0.04942,-5.489404 0.196924,-5.489366 -0.04741,-0.304429 1.920432,-6.705478 2.398126,-6.975723 0.173532,-0.09817 -1.690661,-0.216157 -3.757036,-0.03728 C 8.0707111,63.986312 3.4144872,63.277462 1.6399807,61.967142 -0.28226672,60.54773 -0.28474261,57.617996 1.634245,55.432099 3.8793907,52.87502 6.3821916,51.606532 19.487762,46.38352 l 11.965943,-4.768834 0.253612,-2.09988 1.118546,-5.091026 -0.07977,5.230195 c 0.213797,1.290924 0.606118,2.340932 0.519452,2.42147 -0.201857,0.187575 -10.135277,4.174329 -18.436242,7.486326 -7.6166822,3.03896 -10.1012054,4.420469 -12.1535184,6.757921 -1.80339505,2.053967 -1.9042661,3.108295 -0.4298682,4.493408 1.6459609,1.546313 5.2798521,2.186422 10.3779036,1.828106 2.441763,-0.171611 4.548116,-0.136451 4.680791,0.07829 0.132647,0.214696 -0.319313,2.02613 -1.004428,4.025398 -1.088857,3.177448 -1.248929,4.458994 -1.271432,10.179612 -0.0283,7.214899 0.314438,8.66624 3.161254,13.383109 2.808569,4.653499 6.59151,8.087978 11.653369,10.579965 9.470857,4.66253 29.423165,9.47329 36.742109,8.85902 3.277488,-0.27509 12.93157,-2.53029 18.436394,-4.30679 8.398299,-2.71025 16.488573,-7.48506 20.550993,-12.129016 2.6942,-3.079884 5.83865,-9.218746 6.89541,-13.461764 0.76847,-3.085524 0.72269,-10.50945 -0.10528,-17.079251 l -0.28706,-2.277638 3.80854,0.02485 c 8.84842,0.05793 11.28518,-2.560903 5.85742,-6.295302 -3.78931,-2.607122 -7.95972,-4.454147 -16.19773,-7.173794 -4.44636,-1.467888 -8.939534,-3.105207 -9.984834,-3.638489 C 93.816689,42.52038 92.756166,42.443713 82.795829,42.48674 L 71.932861,42.53368 V 38.619975 34.70625 l 8.68578,0.14234 c 5.751332,0.09426 8.549759,-0.02151 8.283146,-0.342437 -0.915238,-1.101877 -3.496804,-9.394952 -3.744527,-12.094754 -0.902041,-3.072516 0.606594,-5.726875 1.309804,-5.412913 0.303136,0.135341 0.235807,0.260261 -0.205724,0.890629 -0.763416,3.046172 -1.099439,2.975442 1.521048,10.31491 1.571455,4.401293 2.474151,6.399959 3.831609,8.483627 0.607941,0.933219 1.255114,2.311516 1.43812,3.062897 0.41484,1.703317 2.832033,2.841003 13.204633,6.214974 7.37274,2.398182 14.73431,5.775193 17.07384,7.832391 2.3078,2.029303 2.86675,3.194329 2.30527,4.804968 -0.72307,2.074204 -2.84568,2.80854 -8.11814,2.80854 -3.18038,0 -4.37859,0.165904 -4.37859,0.606154 0,0.333394 0.32345,2.133137 0.71876,3.999443 2.04177,9.639399 -0.94469,20.965779 -7.35325,27.887806 -1.40409,1.516565 -2.39452,2.91574 -2.201,3.109258 0.19351,0.193521 0.1336,0.281095 -0.13303,0.194582 -0.26663,-0.08651 -1.90275,0.850435 -3.63585,2.082052 -5.788522,4.113663 -12.251898,6.728143 -23.696805,9.585533 -6.607274,1.64963 -8.684097,1.97327 -12.361875,1.92648 -2.43123,-0.031 -4.856733,-0.15069 -5.389987,-0.26608 z M 91.32426,40.922488 c 0,-0.822387 -1.921368,-4.386074 -2.605861,-4.833188 -0.299869,-0.195891 -4.090134,-0.359501 -8.422867,-0.363583 l -7.877683,-0.0076 v 2.58549 c 0,1.422021 0.14538,2.730927 0.323204,2.908675 0.177691,0.17769 4.431683,0.323185 9.453182,0.323185 7.037849,0 9.130025,-0.140438 9.130025,-0.613151 z m -44.593561,57.324801 -1.373565,1.682975 -1.756659,-0.837683 c -3.103468,-1.479971 -3.61938,-1.002181 -1.238978,1.147449 1.199822,1.0835 1.745207,1.75153 1.211953,1.48449 -0.533253,-0.26707 -1.868906,-1.35652 -2.968086,-2.421001 -2.063355,-1.998225 -5.704215,-4.136847 -6.558168,-3.852168 -0.266975,0.0889 0.823908,1.410637 2.424127,2.936987 1.600238,1.526373 2.804994,2.775212 2.677242,2.775212 -0.694254,0 -7.183574,-5.663924 -7.973421,-6.959264 -1.135842,-1.86273 -1.179232,-2.449727 -0.152033,-2.055544 0.595361,0.228489 0.702006,0.09673 0.448413,-0.554083 -0.183006,-0.469636 -0.647259,-2.162763 -1.031691,-3.762533 -0.384413,-1.599808 -0.910124,-3.672243 -1.168219,-4.605425 -0.306122,-1.106933 -0.303292,-1.752902 0.0076,-1.858314 0.262578,-0.0889 0.477417,-0.494815 0.477417,-0.902065 0,-0.525884 0.273696,-0.408819 0.944433,0.403981 l 0.944423,1.144454 -0.288838,-1.211953 c -0.158877,-0.666589 -0.152415,-1.089622 0.01329,-0.940112 0.166668,0.149557 0.374414,0.739679 0.461682,1.311553 0.275636,1.806129 1.741259,2.922641 4.298262,3.274313 2.705976,0.372177 3.056377,0.834959 3.562568,4.705398 0.164766,1.260276 0.538865,2.439221 0.831163,2.619875 0.767899,0.474568 5.393447,-4.512947 5.039872,-5.434304 -0.187565,-0.488754 -0.08852,-0.618648 0.292261,-0.383314 0.316761,0.195758 1.02326,0.394126 1.569973,0.440757 0.546732,0.04655 4.187726,0.868569 8.091135,1.826433 8.218678,2.016809 7.823902,2.057007 16.21485,-1.651534 2.956281,-1.306592 5.653846,-2.375613 5.994582,-2.375613 0.340745,0 1.679113,1.11092 2.97409,2.468712 1.295015,1.357821 2.629415,2.377133 2.965295,2.265154 0.336291,-0.112123 0.878196,-1.8009 1.205922,-3.758269 0.327324,-1.955122 0.784456,-3.744025 1.015813,-3.975383 0.231386,-0.231347 1.797076,-0.642316 3.479382,-0.91324 3.195333,-0.514594 5.446234,-1.347067 6.988949,-2.584764 1.814838,-1.456005 0.86552,-8.000531 -2.124397,-14.645469 -0.733532,-1.630216 -1.524412,-3.078068 -1.757557,-3.217425 -0.233078,-0.1393 -2.485585,-0.413789 -5.005487,-0.609815 l -4.581641,-0.356404 2.288698,2.288698 c 2.83176,2.831808 5.177882,6.187855 5.177882,7.40692 0,1.395772 -1.961948,2.949685 -5.569044,4.410834 -2.905693,1.177023 -3.629045,1.283276 -6.724052,0.987622 -5.128306,-0.489844 -7.58288,-1.250449 -7.58288,-2.349726 0,-0.500761 0.185482,-0.983196 0.412336,-1.07208 0.800927,-0.313883 2.95782,-4.24362 3.956847,-7.209078 0.955149,-2.835373 0.965483,-3.054226 0.18529,-3.916429 -0.762326,-0.842338 -1.66421,-0.913202 -11.624251,-0.913202 -13.806802,0 -13.454671,-0.232017 -10.297365,6.785213 0.779342,1.732167 1.958449,3.714544 2.620248,4.405269 1.771964,1.849539 1.150075,2.618805 -2.8528,3.528738 -6.524757,1.483202 -9.917865,1.079039 -14.473256,-1.723937 -2.095331,-1.289261 -2.379408,-1.647749 -2.121122,-2.676802 0.77113,-3.072475 5.529994,-8.66645 10.219197,-12.012603 3.146036,-2.244973 4.098948,-2.417177 4.098948,-0.740798 0,1.886295 0.470534,2.334995 2.090015,1.992959 0.850206,-0.179584 6.216208,-0.273983 11.924456,-0.209801 7.893303,0.08871 10.474463,0.267788 10.77893,0.747786 0.262904,0.414544 0.405396,0.132083 0.415166,-0.823181 0.0076,-0.799904 0.214045,-1.769144 0.457486,-2.15392 0.481776,-0.761523 1.069212,-0.557076 4.287172,1.49193 1.28428,0.81777 2.601588,1.057769 6.786924,1.236425 4.89694,0.209084 5.254577,0.295042 6.266796,1.50669 0.994639,1.19055 1.052789,1.205826 0.791827,0.20787 -0.274557,-1.049903 -0.179402,-1.07687 3.774305,-1.069633 2.230801,0.0038 4.303311,0.167615 4.605611,0.363593 1.22069,0.791004 2.73374,7.986842 2.72578,12.963335 -0.0152,9.276667 -3.24472,16.770568 -10.226191,23.726856 -2.346437,2.337937 -4.687435,4.477349 -5.202258,4.754219 -0.514804,0.27688 -0.753512,0.30764 -0.530481,0.0684 0.22305,-0.2393 2.404988,-2.507517 4.848769,-5.040504 4.780579,-4.955051 7.233151,-8.93442 9.157151,-14.857765 1.55309,-4.78128 1.51248,-13.220494 -0.0837,-17.380086 -0.61386,-1.59978 -1.25277,-3.044553 -1.41982,-3.210629 -0.16704,-0.166095 -1.93954,-0.430614 -3.938882,-0.587876 -1.999354,-0.157348 -3.376538,-0.125993 -3.060427,0.0694 0.781641,0.483085 2.428769,4.425851 3.571215,8.548554 1.757324,6.341522 1.002488,14.434005 -1.999631,21.437689 -1.48532,3.46512 -1.419245,2.384561 0.130745,-2.139237 2.153117,-6.283802 2.557978,-15.746036 0.840875,-19.653145 -0.341634,-0.777344 -0.368601,-0.539266 -0.09825,0.867938 0.204849,1.066507 0.372444,4.338775 0.372444,7.271693 0,5.080719 -0.0694,5.447056 -1.469226,7.756479 -0.808054,1.333138 -1.981196,3.405574 -2.606947,4.605406 -0.922781,1.769392 -2.055181,2.776783 -5.994237,5.332572 -2.671104,1.733095 -6.163468,3.859108 -7.76082,4.724475 -1.59736,0.865377 -3.217912,1.956116 -3.601226,2.423906 -0.383314,0.46776 -0.558739,0.57772 -0.389872,0.24435 0.268285,-0.52958 -3.016524,-5.086051 -4.35578,-6.042051 -0.792286,-0.565545 -1.690174,0.738685 -2.079797,3.021005 -0.332056,1.945096 -0.516562,2.169746 -2.051223,2.497356 -0.927475,0.198 -4.476134,0.44871 -7.885876,0.5571 -6.915393,0.21983 -6.717388,0.30904 -7.336333,-3.305496 -0.673222,-3.931502 -1.094506,-4.365471 -2.767797,-2.851192 -0.855836,1.237095 -2.052858,2.132562 -2.83762,3.08578 z m 19.57385,1.555166 c 1.768561,-0.314802 1.922439,-0.480916 2.479973,-2.677127 0.743255,-2.927523 1.630408,-3.874403 3.249363,-3.468061 1.044186,0.262053 2.903666,2.242699 4.219282,4.49417 0.779399,1.333807 9.272929,-3.553408 13.921611,-8.010518 2.44163,-2.341027 5.638298,-7.426985 6.264306,-9.966638 l 0.334188,-1.355718 -1.876138,0.969097 c -1.031883,0.533014 -3.268463,1.190158 -4.970223,1.460317 -1.701721,0.270139 -3.132652,0.553213 -3.179818,0.628981 -0.04713,0.07581 -0.327783,1.621164 -0.62359,3.434157 -0.902295,5.529745 -2.315475,6.050819 -6.112459,2.253835 l -2.448685,-2.448704 -3.178213,1.652652 c -3.761786,1.956079 -8.542235,3.654779 -11.34588,4.031669 -1.321811,0.17769 -3.344059,-0.09502 -5.890987,-0.794694 -2.133023,-0.585878 -5.234463,-1.40927 -6.892096,-1.829751 l -3.013867,-0.764544 -2.924123,2.789163 c -3.917338,3.736493 -4.823323,3.632983 -5.880825,-0.671893 -0.758091,-3.086117 -0.818373,-3.166063 -2.923654,-3.878259 -1.182281,-0.399947 -2.687107,-1.112316 -3.344059,-1.583108 -0.695946,-0.498725 -1.263947,-0.647412 -1.360976,-0.35627 -0.246604,0.739756 1.299423,5.378945 2.504933,7.516566 1.208923,2.14373 5.455965,4.917321 9.412363,6.146928 l 2.544986,0.790947 0.99571,-1.288513 c 1.364455,-1.765807 4.328737,-3.954858 5.35542,-3.954858 0.848494,0 1.254282,0.893653 2.36654,5.211385 l 0.53073,2.060334 4.95031,-0.0279 c 2.722658,-0.0152 5.798824,-0.17902 6.835878,-0.363593 z M 52.582578,72.268942 c 1.577381,-0.442601 2.86797,-0.897849 2.86797,-1.011664 0,-0.113834 -0.643913,-1.012209 -1.430931,-1.996419 -2.035804,-2.545942 -3.752934,-6.66486 -4.13121,-9.909587 -0.178637,-1.533102 -0.483832,-2.787461 -0.677955,-2.787461 -0.462963,0 -6.35435,4.752468 -7.479734,6.033746 -1.317862,1.500419 -4.217016,5.974402 -4.217016,6.507713 0,0.599204 3.023436,2.473769 5.19268,3.21949 2.522474,0.867221 6.670127,0.843744 9.876196,-0.05583 z m 33.18736,-0.908221 c 3.828464,-1.873084 3.995266,-2.243664 2.238884,-4.974123 -1.668856,-2.594457 -5.05771,-5.980443 -8.319252,-8.312264 l -2.181547,-1.559649 -0.398379,2.084863 c -0.756571,3.959227 -2.3377,8.394838 -3.817002,10.708181 -0.816356,1.276594 -1.40168,2.400142 -1.300732,2.496721 0.100909,0.09654 1.165217,0.405817 2.365078,0.68717 3.444175,0.807714 8.468102,0.309878 11.41295,-1.130899 z m 10.591896,-7.101114 c -0.451214,-1.16646 -1.021315,-2.338972 -1.266906,-2.605603 -0.245592,-0.266651 0.0057,0.668586 0.557693,2.078257 0.552334,1.409662 1.004217,2.700385 1.004217,2.868287 0,0.167806 0.118203,0.187001 0.262693,0.04254 0.144434,-0.144424 -0.106425,-1.217058 -0.557697,-2.383509 z M 80.659116,104.3721 c 0,-0.13493 0.850377,-0.75228 1.889735,-1.37208 4.261841,-2.54145 9.656062,-8.907646 12.236217,-14.440995 0.435136,-0.933201 1.154154,-2.460262 1.597749,-3.393453 l 0.806605,-1.696731 -0.322974,1.696731 c -0.763617,4.011594 -4.778084,10.520626 -8.87815,14.394991 -2.337805,2.208957 -7.329182,5.485737 -7.329182,4.811357 z M 91.57423,96.921314 c 1.28123,-1.666438 2.530982,-3.029889 2.777242,-3.029889 0.539276,0 -1.919093,3.155917 -3.776346,4.847802 -0.770948,0.702292 -0.350764,-0.06214 0.999104,-1.817913 z m 6.269793,-0.08116 c 0.178446,-0.288656 0.08059,-0.524841 -0.217333,-0.524841 -0.297968,0 0.406801,-1.254369 1.566149,-2.787461 1.159371,-1.533103 2.436511,-3.332875 2.838131,-3.999444 1.01617,-1.686589 3.18291,-7.080226 3.8949,-9.69558 0.85167,-3.128398 0.68251,-12.250183 -0.28768,-15.512968 -1.57771,-5.305968 -1.65863,-4.925714 1.01191,-4.755699 2.01132,0.128086 2.45278,0.342696 2.98096,1.449476 1.98203,4.153446 2.31766,14.821353 0.62252,19.788727 -1.65909,4.86179 -3.8719,8.651796 -7.01611,12.016914 -2.49034,2.665273 -6.3203,5.520546 -5.393447,4.020876 z m 6.114647,-6.191429 c 2.83937,-3.238361 5.75237,-9.877467 6.37355,-14.526254 0.50374,-3.769893 -0.0392,-10.07377 -1.16241,-13.499352 -0.54581,-1.664515 -0.85521,-1.960351 -2.18483,-2.089049 l -1.54893,-0.14994 0.97729,2.78055 c 1.43449,4.081435 1.39363,14.157709 -0.0754,18.607258 -1.61176,4.881664 -3.72928,9.00647 -6.1737,12.02613 l -2.233894,2.759643 1.911407,-1.69674 c 1.051277,-0.933182 2.903917,-2.828711 4.116997,-4.212246 z M 56.084434,81.040977 c 0.636409,-3.921821 6.017084,-11.873313 8.034486,-11.873313 0.595457,0 1.707046,1.823824 3.855077,6.325099 1.660071,3.478799 2.897959,6.519901 2.750811,6.757978 -0.153171,0.247819 -0.909723,0.20895 -1.769775,-0.09081 -1.467104,-0.511439 -7.188028,-0.306485 -11.277483,0.404029 l -1.893645,0.329016 z m 2.467574,0.326454 c 0.137398,-0.222457 1.186573,-0.435967 2.331305,-0.474491 1.144732,-0.03862 2.844866,-0.189095 3.778057,-0.334475 0.93322,-0.14538 2.424356,-0.05095 3.313622,0.210126 1.590105,0.466748 1.605295,0.456883 0.917303,-0.594157 -1.301286,-1.988102 -3.479306,-6.391909 -3.977753,-8.042736 -0.272549,-0.902735 -0.695315,-1.666284 -0.939481,-1.69675 -0.645577,-0.08059 -3.399533,3.802978 -5.36669,7.567843 -0.93692,1.79308 -1.703471,3.374697 -1.703471,3.514647 0,0.414764 1.375458,0.289507 1.647108,-0.149949 z m -27.455452,-3.3525 c -0.129989,-0.733198 -0.08135,-2.532941 0.107945,-3.999415 0.325393,-2.52038 0.344827,-2.447442 0.355285,1.333158 0.0057,2.199671 -0.04254,3.999443 -0.108136,3.999443 -0.06558,0 -0.225373,-0.59993 -0.355286,-1.333186 z m -2.069253,-3.499935 c -0.01711,-1.333138 1.030516,-5.311637 1.25608,-5.667486 0.239961,-0.378582 -0.08317,2.685299 -0.208118,4.19848 -0.284603,4.404534 -0.939405,11.31747 -1.047962,1.469006 z m 2.528564,-4.377729 c 0.139491,-0.533253 0.505799,-1.306764 0.608008,-1.306764 0.102238,0 0.01721,0.773511 0.01721,1.306764 0,0.533263 -0.197737,0.969555 -0.439389,0.969555 -0.241682,0 -0.325317,-0.436292 -0.185864,-0.969555 z m 0.635902,-2.066881 c -0.0057,-0.470219 0.191562,-1.233749 0.438692,-1.69675 0.24714,-0.462973 1.104553,-2.306317 1.905365,-4.096338 1.581713,-3.535525 1.733411,-3.630335 6.204545,-3.878441 3.52023,-0.195337 2.735621,0.443863 -1.041327,0.848351 l -3.137011,0.335938 -1.295685,2.731969 c -0.712617,1.502579 -1.693538,3.604572 -2.179788,4.671079 -0.486278,1.066516 -0.88894,1.55441 -0.894791,1.084192 z m -1.500409,0.08976 c -0.956325,-1.392034 3.113046,-8.968452 3.97067,-8.675332 0.220249,0 -0.286983,-0.490245 -2.151922,4.67715 -0.359482,0.799885 -1.808519,4.398129 -1.818748,3.998182 z M 53.515721,44.303523 c -1.338932,-0.677438 -1.83606,-2.099852 -1.019303,-2.916619 0.383802,-0.383801 0.530233,-0.2404 0.530233,0.519211 0,1.72041 1.475383,2.053135 9.103813,2.053135 6.567058,0 7.307234,-0.08709 8.089559,-0.951497 0.473583,-0.523321 0.7351,-1.279873 0.581069,-1.681207 -0.153935,-0.401324 -0.07141,-0.858637 0.183579,-1.016224 0.261269,-0.161535 0.463623,0.45456 0.463623,1.411325 0,2.864415 -1.014398,3.208296 -9.439875,3.200027 -4.884914,-0.0057 -7.68291,-0.208453 -8.492717,-0.618151 z m 7.2674,-1.296612 -6.544516,-0.259614 v -4.362998 -4.363027 h 7.71609 c 5.744182,0 7.767721,0.154882 7.918177,0.606306 0.116118,0.348327 -0.07294,0.500742 -0.444389,0.358192 -0.498782,-0.191427 -0.625311,0.389929 -0.553806,2.544767 0.157166,4.735194 0.548539,4.489603 -7.154647,4.489603 h -6.754259 v -3.620929 -3.620928 l 5.696165,-0.158496 5.696165,-0.158495 -5.81735,0.02246 -5.817378,0.02246 v 3.87825 3.878201 l 6.992174,0.135122 c 5.268677,0.101675 7.089088,-0.01711 7.385478,-0.484777 0.28793,-0.453757 0.395301,-0.392529 0.400731,0.228566 0.0038,0.466586 -0.192909,0.848361 -0.437716,0.848361 -0.244817,0 -0.735675,0.06233 -1.09074,0.138353 -0.355114,0.07619 -3.590683,0.0217 -7.190179,-0.121252 z m 7.271721,-4.380252 v -2.908685 h -6.302147 -6.302147 v 2.908685 2.908675 h 6.302147 6.302147 z m -35.083903,1.88878 c -0.167806,-0.838869 -0.305041,-2.043308 -0.305041,-2.676544 -0.458384,-3.168557 0.367709,-3.389049 0.580856,-3.494269 l 0.493958,-0.206481 8.309884,0.294737 c 4.570409,0.162108 8.70117,0.299429 9.179447,0.305165 0.768654,0.0096 0.853074,0.418473 0.727166,3.525095 l -0.142531,3.514666 -9.269353,0.1315 -9.269373,0.131509 z m 18.128599,-0.223605 c 0.260035,-0.683939 0.47278,-1.961757 0.47278,-2.839618 0,-1.58977 -0.01138,-1.597141 -2.78748,-1.856077 -4.559129,-0.425174 -13.89082,-0.412441 -14.54327,0.01979 -0.720484,0.477379 -0.962137,4.302879 -0.312822,4.952184 0.249443,0.249472 3.503233,0.521266 7.230624,0.604031 3.727411,0.08269 7.3824,0.198311 8.122233,0.256786 1.047904,0.08288 1.44962,-0.16838 1.817935,-1.13717 z m 1.436877,-3.178365 c -0.310557,-3.572013 -0.178828,-4.064582 1.262752,-4.7214 1.713183,-0.780575 14.617461,-0.722291 16.194785,0.07313 1.105672,0.557573 1.218482,0.907687 1.286574,3.992284 l 0.07466,3.381101 -0.43417,-2.908674 c -0.264958,-1.775042 -0.755261,-3.14486 -1.25803,-3.514657 -0.57064,-0.419726 -3.007194,-0.605972 -7.927765,-0.605972 -8.316202,0 -8.556679,0.11935 -8.805827,4.368762 l -0.156019,2.660541 z m -19.606773,-3.61354 c 1.977798,-8.636003 3.349021,-12.929753 5.040006,-15.782069 2.690185,-4.537745 4.449569,-6.797717 7.121351,-9.1475567 10.51533,-9.24826003 25.466672,-11.5358056 42.355041,-6.4803286 4.530202,1.3561145 13.15174,5.7909889 16.96727,8.7278733 5.57091,4.288033 6.29202,5.519057 4.36302,7.448054 -1.33792,1.337927 -14.688862,-0.323945 -21.41004,-1.194957 -2.560932,-0.672878 0.456979,0.10757 -0.905183,-0.07448 -0.829451,-0.776981 10.932961,-0.115983 14.316373,0.582978 4.54242,0.917839 7.22041,0.914168 6.866,-0.0096 -0.1469,-0.382712 -0.006,-0.789092 0.31175,-0.90306 C 109.62279,16.069767 101.54749,9.8144242 94.960111,6.6004882 86.56858,2.5062973 79.4702,0.80858349 70.799668,0.82207566 62.279056,0.83538238 56.107749,2.4806035 50.169415,6.3220967 42.243448,11.449372 37.29373,18.924852 34.421104,30.106534 c -0.405874,1.57981 -0.642002,3.027604 -0.524746,3.21734 0.117256,0.189668 -0.125238,0.625922 -0.539103,0.969325 -0.659448,0.547287 -0.712245,0.449312 -0.427613,-0.793442 z"
       id="path1780-9"
       inkscape:connector-curvature="0"
       sodipodi:nodetypes="cccccccccscccscccccscsccsccccccccccscscccccccscsccsccssccsccccccccccscscccccssccssccccccscccccccscccccsscscscccccssccscccsccccccsccccccccscccccccccccccccccsccssccccccscccccsccccsccsccsccccccccccccscccccccsssccccccccccscccccccccccscccccccsccscssccscccccscccccccccsscsccccccssccccscccssccccsccccccccccccccccccccsccssccscccccsscccsccccccccccccscccccssccccccssccsccccccsccscccccccscccscccccsccccsccccccccccccsccc" />
    <path
       style="fill:#000000;fill-opacity:1;stroke:#000000;stroke-width:0.09559425;stroke-linecap:square;stroke-linejoin:round;stroke-miterlimit:4;stroke-dasharray:none;stroke-opacity:1;paint-order:markers stroke fill"
       d="M 31.837478,99.738273 C 17.350666,92.036017 12.259298,79.370496 19.810029,61.877226 20.779756,59.699704 22.71642,60.558331 24.129742,60.776124 19.725247,72.96896 22.946926,83.346031 27.941257,93.301045 23.288905,88.425078 18.561262,71.520612 23.02864,61.707824 c -0.373305,-0.156852 -0.692093,-0.761543 -1.482256,-0.0847 -3.663382,4.569443 -4.559827,10.906826 -4.277365,17.956462 0.888492,10.839824 8.007778,15.209208 14.568459,20.158684 z"
       id="path850"
       sodipodi:nodetypes="cccccccc"
       inkscape:connector-curvature="0" />
    <path
       style="fill:#000000;fill-opacity:1;stroke:#000000;stroke-width:0.09559425;stroke-linecap:square;stroke-linejoin:round;stroke-miterlimit:4;stroke-dasharray:none;stroke-opacity:1;paint-order:markers stroke fill"
       d="m 27.348362,87.287325 c -2.566868,-5.743494 -6.632854,-8.947641 -2.371616,-26.257102 0.540117,-1.061832 1.377494,-1.231895 2.202214,-1.439908 l 6.013719,-0.762307 c 0.784275,-0.103519 0.990959,0.554715 0.338806,0.677611 l -5.674924,1.101102 c -0.697083,0.114044 -1.39279,0.232227 -1.803845,1.204354 -3.544644,8.50416 -2.624081,17.411173 1.295646,25.47625 z"
       id="path852"
       sodipodi:nodetypes="cccccccc"
       inkscape:connector-curvature="0" />
    <g
       inkscape:label="fill"
       id="layer3"
       transform="matrix(0.95594252,0,0,0.95594252,-66.584306,-41.203078)">
      <path
         inkscape:connector-curvature="0"
         sodipodi:nodetypes="cccccccccccscccccccccccc"
         id="path854"
         d="m 104.19491,87.251929 19.73195,-0.347511 c 0.28187,0.796628 0.38728,1.654486 1.12106,2.195478 1.61453,1.659539 17.61033,1.298722 18.41732,0.141296 0.95223,-0.779971 0.83224,-1.047373 0.93614,-1.569639 l 0.69016,0.04425 21.43124,-0.0088 c 1.68,0.386029 2.74988,0.585077 3.84349,1.277534 7.30333,2.580507 14.73679,4.76501 21.29559,7.841869 2.51708,1.354644 5.46761,2.604516 7.05932,4.355744 1.8468,2.17206 1.42892,4.18915 -1.12063,4.57519 -2.00835,0.35301 -6.11408,1.20419 -10.14015,0.60043 -8.26257,-1.23907 -21.95105,-1.93591 -32.02287,-2.45435 -1.70501,-1.21094 -3.28046,-2.28048 -5.4453,-3.2615 -0.57491,0.17974 -0.44205,0.37634 -0.7166,0.79347 l -0.47183,2.81112 c -8.28228,-0.70667 -16.40994,-0.51761 -24.69222,-0.30416 -1.49986,0.12345 -1.75418,-1.41362 -1.87785,-3.08271 0,0 -0.11395,-0.59833 -0.892,-0.17394 -1.85969,0.97556 -3.60918,2.17152 -5.33269,3.41947 -7.75997,0.0416 -13.40131,0.65289 -19.281343,1.63447 -4.2914,0.70617 -7.381619,1.5725 -9.612691,2.55337 -4.594178,-0.20136 -9.984349,1.62066 -13.844791,-0.65962 -11.539962,-6.24395 22.810801,-16.452304 30.924695,-20.381461 z"
         style="display:inline;fill:#000000;fill-opacity:0.38605897;stroke:#000000;stroke-width:0.1;stroke-linecap:square;stroke-linejoin:round;stroke-miterlimit:4;stroke-dasharray:none;stroke-opacity:1;paint-order:markers stroke fill" />
      <path
         inkscape:connector-curvature="0"
         sodipodi:nodetypes="cscccccccccccccccc"
         id="path858"
         d="m 105.0514,78.830703 c 0.16565,-0.723257 0.21988,-1.931025 0.35083,-2.626944 0.93901,-4.990276 1.74043,-9.757173 9.09199,-19.799758 5.23348,-5.583725 11.47285,-10.027431 20.066,-11.803528 10.95946,-1.561476 19.19166,-0.03206 26.81087,2.192084 7.85562,2.854778 13.73841,6.595986 19.13783,10.567218 2.12036,1.676411 4.14857,5.094608 0.0851,4.86168 -6.37953,-0.754299 -12.16888,-1.463144 -18.46409,-1.77053 -2.0449,-0.128611 -2.41253,0.581414 -3.00685,1.178097 -0.67477,1.549844 -0.8211,2.426413 -0.67372,3.823098 1.00222,4.259586 1.60781,8.598861 4.10212,14.137382 l -18.29547,-0.168622 -0.3559,-1.389521 c -0.3613,-0.771264 -1.23229,-1.262204 -1.81623,-1.287188 -1.78788,-0.334732 -15.55878,-0.299523 -16.03902,0.106193 -0.53337,0.08016 -1.74385,1.007385 -1.60191,1.980339 l -0.59018,0.843111 z"
         style="fill:#000000;fill-opacity:0.38605897;stroke:#000000;stroke-width:0.1;stroke-linecap:square;stroke-linejoin:round;stroke-miterlimit:4;stroke-dasharray:none;stroke-opacity:1;paint-order:markers stroke fill" />
      <path
         inkscape:connector-curvature="0"
         sodipodi:nodetypes="ccccc"
         id="path860"
         d="m 127.70765,80.473028 13.06174,0.04247 0.0637,6.053 -13.12545,-0.08496 z"
         style="fill:#000000;fill-opacity:0.38605897;stroke:#000000;stroke-width:0.1;stroke-linecap:square;stroke-linejoin:round;stroke-miterlimit:4;stroke-dasharray:none;stroke-opacity:1;paint-order:markers stroke fill" />
    </g>
  </g>
  <g
     inkscape:label="B.Mask-disabled"
     inkscape:groupmode="layer"
     id="g2966" />
  <g
     inkscape:label="F.Mask-disabled"
     inkscape:groupmode="layer"
     id="g2968" />
  <g
     inkscape:label="Dwgs.User-disabled"
     inkscape:groupmode="layer"
     id="g2970" />
  <g
     inkscape:label="Cmts.User-disabled"
     inkscape:groupmode="layer"
     id="g2972" />
  <g
     inkscape:label="Eco1.User-disabled"
     inkscape:groupmode="layer"
     id="g2974" />
  <g
     inkscape:label="Eco2.User-disabled"
     inkscape:groupmode="layer"
     id="g2976" />
  <g
     inkscape:label="Edge.Cuts"
     inkscape:groupmode="layer"
     id="g2978"
     style="display:none">
    <path
       style="opacity:1;fill:none;fill-opacity:1;stroke:#000000;stroke-width:0.40000001;stroke-linecap:square;stroke-linejoin:round;stroke-miterlimit:4;stroke-dasharray:none;stroke-opacity:1;paint-order:markers stroke fill"
       d="M2.947901 55.732261L3.4233286 55.368067L3.956965 54.989433L4.5461214 54.597562L5.1881093 54.193659L5.8802401 53.778926L6.619825 53.354568L8.2306028 52.481786L9.9989338 51.58494L11.903309 50.673659L13.922219 49.757568L16.034155 48.846295L18.217608 47.949468L20.451068 47.076714L22.713028 46.23766L24.981976 45.441932L27.236406 44.699159L29.454807 44.018967L31.61567 43.410984L32.667804 43.137079L33.697487 42.884837L33.4476 42.056366L33.216989 41.222754L33.117059 40.801849L33.031719 40.377053L32.964229 39.947497L32.917839 39.512313L32.895819 39.070631L32.901419 38.621584L32.937899 38.164302L33.008519 37.697918L33.116529 37.221561L33.265191 36.734364L33.457762 36.235458L33.6975 35.723974L33.73012 35.126092L33.78304 34.512153L33.85538 33.883528L33.94627 33.241591L34.180203 31.923274L34.477824 30.568184L34.832129 29.187305L35.23611 27.791621L35.682761 26.392115L36.165077 24.999772L36.67605 23.625574L37.208675 22.280505L37.755944 20.975549L38.310853 19.721689L38.866394 18.52991L39.415562 17.411194L39.951349 16.376526L40.46675 15.436889L40.871168 14.706109L41.271306 14.057799L41.705537 13.446762L42.212233 12.827799L42.829766 12.155714L43.59651 11.385308L44.550836 10.471384L45.731118 9.3687426L46.411941 8.7616307L47.083403 8.1836454L47.74632 7.633972L48.401509 7.1117958L49.049784 6.6163023L49.691963 6.1466767L50.32886 5.7021043L50.961291 5.2817704L51.590072 4.8848605L52.216019 4.5105598L52.839948 4.1580536L53.462675 3.8265273L54.085014 3.5151662L54.707783 3.2231556L55.331797 2.9496809L55.957871 2.6939273L56.586823 2.4550803L57.219466 2.2323251L57.856617 2.024847L58.499093 1.8318315L59.803278 1.4859291L61.138549 1.1881006L62.511431 0.93182861L63.928451 0.71059568L65.396136 0.51788447L66.921011 0.34717758L70.060838 0.45461624L72.906826 0.59569046L75.477081 0.76707792L77.78971 0.96545627L79.862821 1.1875032L81.71452 1.4298964L83.362915 1.6893134L84.826113 1.9624321L86.122222 2.24593L87.269347 2.5364848L88.285597 2.8307742L89.189078 3.1254759L89.997898 3.4172675L90.730164 3.7028267L92.037461 4.2419586L93.140476 4.7534831L94.22179 5.2818871L95.282368 5.8264185L96.323177 6.3863254L97.345185 6.9608558L98.349358 7.5492577L99.336663 8.1507792L100.30806 8.7646682L101.26453 9.3901727L102.20704 10.026541L104.054 11.32886L105.8567 12.66561L107.62287 14.030774L107.91757 14.272906L108.23265 14.591983L108.55343 14.972873L108.86526 15.400445L109.15346 15.859565L109.40337 16.335102L109.60033 16.811923L109.67433 17.046086L109.72963 17.274896L109.76433 17.49646L109.77663 17.708888L109.76473 17.910288L109.72673 18.098768L109.66083 18.272437L109.56523 18.429403L109.43802 18.567775L109.2774 18.685661L109.08153 18.781171L108.8486 18.852411L108.57676 18.897491L108.26418 18.914521L107.90903 18.901601L107.50948 18.856851L107.06368 18.778371L106.56981 18.664275L103.30864 18.246382L101.65761 18.017002L99.989383 17.770412L98.30125 17.503922L96.590525 17.21484L94.854519 16.900476L93.090541 16.558139L92.423917 16.451512L91.800316 16.369582L91.218333 16.311542L90.676568 16.276592L90.173616 16.263922L89.708076 16.272722L89.278544 16.302202L88.883619 16.351552L88.521897 16.419962L88.191975 16.506622L87.892452 16.610739L87.621924 16.7315L87.378989 16.868102L87.162243 17.019739L86.970285 17.185606L86.801712 17.364897L86.655121 17.556808L86.529109 17.760532L86.422274 17.975266L86.333214 18.200203L86.260524 18.434539L86.202804 18.677468L86.126654 19.185884L86.093554 19.71901L86.092254 20.270404L86.140274 21.402228L86.461009 23.13979L86.810547 24.877352L87.192604 26.614914L87.610895 28.352476L88.069136 30.090038L88.57104 31.8276L89.120325 33.565162L89.720704 35.302724L90.297473 35.904936L90.806664 36.476174L91.252294 37.018281L91.638385 37.533098L91.968956 38.022469L92.248026 38.488236L92.479616 38.93224L92.667744 39.356325L92.816431 39.762333L92.929695 40.152105L93.011555 40.527485L93.066035 40.890314L93.097155 41.242435L93.108925 41.585691L93.090525 42.252974L98.183931 43.971057L102.97593 45.624837L107.40107 47.200357L109.45563 47.954406L111.39394 48.683656L113.20782 49.386362L114.88909 50.060778L116.42958 50.70516L117.82111 51.317762L119.05549 51.896842L120.12455 52.440652L121.0201 52.947449L121.40026 53.186422L121.73398 53.415488L122.25899 53.765198L122.7456 54.117333L123.19449 54.471008L123.60632 54.825338L123.98174 55.179438L124.32143 55.532422L124.62605 55.883405L124.89626 56.231503L125.13274 56.57583L125.33613 56.915501L125.50711 57.249631L125.64635 57.577335L125.75449 57.897728L125.83219 58.209924L125.88019 58.513038L125.89909 58.806185L125.88909 59.088481L125.85179 59.35904L125.78739 59.616977L125.69659 59.861406L125.57999 60.091443L125.43828 60.306203L125.27213 60.5048L125.08221 60.686349L124.86918 60.849965L124.6337 60.994764L124.37643 61.119859L124.09805 61.224366L123.79922 61.307396L123.4806 61.368066L123.14285 61.405496L122.78664 61.418796L120.3834 61.432076L119.19324 61.439476L117.99508 61.434776L116.77718 61.408406L115.52783 61.350896L114.23527 61.252746L112.8878 61.104457L113.28156 62.487499L113.63242 63.867311L113.93887 65.243997L114.19945 66.617663L114.41267 67.988415L114.57704 69.356358L114.6911 70.721598L114.7533 72.084241L114.7623 73.444391L114.7165 74.802155L114.61443 76.157639L114.45463 77.510947L114.23562 78.862185L114.10344 79.537061L113.9559 80.211459L113.79282 80.885392L113.61401 81.558874L113.41928 82.231918L113.20845 82.904537L112.70541 84.325609L112.16829 85.701572L111.58998 87.036463L111.28316 87.689767L110.96338 88.334316L110.62975 88.970614L110.28138 89.599166L109.91739 90.220477L109.53689 90.83505L109.13899 91.44339L108.7228 92.046002L108.28743 92.643389L107.832 93.236057L107.35561 93.824509L106.85739 94.409251L106.33644 94.990785L105.79187 95.569618L105.22279 96.146253L104.62833 96.721195L104.00759 97.294947L103.35968 97.868015L102.68371 98.440903L101.9788 99.014116L101.24405 99.588157L100.47859 100.16353L99.681518 100.74075L98.851953 101.3203L97.989005 101.9027L97.091785 102.48845L95.491972 103.18967L93.882786 103.87422L92.263428 104.54069L90.633099 105.18766L88.991 105.8137L87.336333 106.4174L85.668298 106.99733L83.986096 107.55208L82.28893 108.08022L80.575999 108.58034L78.846506 109.05102L77.09965 109.49082L75.334635 109.89835L73.550659 110.27216L71.746926 110.61085L69.922635 110.913L68.576321 111.12072L67.223927 111.27981L65.865254 111.38866L64.500102 111.44566L63.128272 111.44966L61.749565 111.39826L60.363782 111.29024L58.970723 111.12401L57.257287 110.89988L55.592574 110.64534L53.973351 110.3624L52.396388 110.05307L50.858451 109.71938L49.356309 109.36332L47.886731 108.98692L46.446484 108.59219L45.032337 108.18115L43.641057 107.75581L42.269413 107.31818L40.914172 106.87027L38.239976 105.95171L35.592613 105.01622L34.381889 104.54219L33.220581 104.04345L32.106364 103.52116L31.036916 102.97649L30.009912 102.4106L29.023028 101.82465L28.073943 101.21979L27.160331 100.5972L26.279869 99.958036L25.430234 99.303459L24.609102 98.63463L23.814149 97.952712L23.043053 97.258865L22.293488 96.554253L21.563133 95.840036L20.849662 95.117377L20.057399 94.079474L19.355066 93.105807L18.73437 92.190452L18.187016 91.327484L17.704711 90.510981L17.279162 89.735017L16.902075 88.993669L16.565157 88.281013L16.260113 87.591125L15.978651 86.91808L15.453295 85.598827L14.922741 84.275859L14.634781 83.598173L14.32064 82.901787L14.29229 81.506472L14.28609 80.111157L14.31002 78.715842L14.37214 77.320527L14.480476 75.925212L14.643065 74.529897L14.747214 73.832239L14.867937 73.134582L15.00624 72.436925L15.163126 71.739267L17.69049 63.314727L14.430147 63.415864L12.796151 63.470254L11.17513 63.511674L9.5787286 63.528474L8.0189517 63.508648L6.5067192 63.44128L5.7722066 63.385992L5.054037 63.314361L4.552995 63.234387L4.0853917 63.142353L3.6506912 63.038452L3.2483575 62.922879L2.8778547 62.795825L2.5386468 62.657484L2.2301977 62.508051L1.9519716 62.347717L1.7034324 62.176676L1.4840442 61.995122L1.2932711 61.803247L1.130577 61.601246L0.99542596 61.389311L0.88728204 61.167636L0.80560924 60.936414L0.74987164 60.695838L0.71953324 60.446102L0.71405824 60.187399L0.73291034 59.919922L0.77555374 59.643865L0.84145244 59.35942L0.93007044 59.066782L1.0408718 58.766143L1.1733206 58.457697L1.3268809 58.141636L1.5010166 57.818155L1.9088705 57.149705L2.3925946 56.453891L2.9479012 55.732261L2.9479012 55.732261"
       id="path2924"
       inkscape:connector-curvature="0"
       sodipodi:nodetypes="ccccccccccccccccccccccccccc" />
    <path
       style="opacity:1;fill:none;fill-opacity:1;stroke:#000000;stroke-width:0.40000001;stroke-linecap:square;stroke-linejoin:round;stroke-miterlimit:4;stroke-dasharray:none;stroke-opacity:1;paint-order:markers stroke fill"
       d="M37.054735 69.835781L37.318723 69.237894L37.596336 68.654072L37.887175 68.083902L38.190839 67.526971L38.506929 66.982866L38.835043 66.451174L39.174782 65.931482L39.525745 65.423376L40.259743 64.44027L41.033835 63.498552L41.844819 62.594916L42.689493 61.726057L43.564655 60.88867L44.467103 60.079448L45.393635 59.295088L46.341049 58.532283L47.306142 57.787728L48.285714 57.058118L50.275482 55.630511L50.395245 56.36409L50.486485 57.062409L50.63835 58.421207L50.72646 59.11566L50.841011 59.842796L50.995745 60.619602L51.204403 61.463063L51.480726 62.390167L51.838456 63.4179L52.291336 64.563246L52.853105 65.843193L53.537507 67.274727L54.358282 68.874834L55.329172 70.6605L56.463919 72.648711L55.705096 72.889424L54.956746 73.107538L54.218803 73.303194L53.491203 73.476532L52.773881 73.62769L52.066773 73.75681L51.369812 73.86403L50.682936 73.94949L50.006079 74.01333L49.339176 74.05569L48.682163 74.07671L48.034974 74.076527L47.397546 74.055287L46.769813 74.013127L46.151711 73.950177L45.543174 73.866587L44.944139 73.762494L44.354541 73.638039L43.774314 73.49336L43.203394 73.328598L42.641716 73.143892L42.089216 72.939383L41.545829 72.715208L41.01149 72.471509L40.486134 72.208425L39.969696 71.926095L39.462113 71.62466L38.963318 71.304259L38.473248 70.965032L37.991838 70.607118L37.519022 70.230657L37.054737 69.835789L37.054737 69.835789"
       id="path2926"
       inkscape:connector-curvature="0"
       sodipodi:nodetypes="cccc" />
    <path
       style="opacity:1;fill:none;fill-opacity:1;stroke:#000000;stroke-width:0.40000001;stroke-linecap:square;stroke-linejoin:round;stroke-miterlimit:4;stroke-dasharray:none;stroke-opacity:1;paint-order:markers stroke fill"
       d="M77.138919 56.052451L76.938994 57.320777L76.710819 58.574983L76.4553 59.811538L76.173346 61.026915L75.865862 62.217583L75.533757 63.380015L75.177937 64.510682L74.799309 65.606054L74.398781 66.662602L73.977259 67.676797L73.535652 68.645112L73.074865 69.564016L72.595806 70.429981L72.099382 71.239478L71.586501 71.988977L71.058069 72.674951L71.926287 72.962222L72.776539 73.215203L73.609013 73.434788L74.423898 73.621875L75.221383 73.777361L76.001656 73.90214L76.764905 73.99711L77.51132 74.06317L78.241089 74.10121L78.954399 74.11213L79.651441 74.09683L80.332402 74.0562L80.997471 73.99114L81.646836 73.90254L82.280686 73.791305L82.89921 73.658328L83.502596 73.504505L84.091033 73.330734L84.664709 73.137909L85.223812 72.926928L85.768532 72.698686L86.299057 72.454081L86.815575 72.194008L87.318275 71.919364L87.807345 71.631045L88.282975 71.329947L88.745352 71.016968L89.194665 70.693003L89.631102 70.358949L90.054853 70.015701L90.865049 69.305213L90.616672 68.722743L90.350425 68.156264L90.06693 67.60526L89.766809 67.069218L89.450684 66.547625L89.119177 66.039969L88.772909 65.545737L88.412505 65.064415L88.038584 64.595492L87.65177 64.138453L87.252685 63.692787L86.84195 63.25798L85.988021 62.418891L85.094959 61.617086L84.167742 60.84846L83.211346 60.108911L82.230749 59.394335L81.230926 58.700629L80.216855 58.023691L79.193512 57.359417L77.138919 56.052451L77.138919 56.052451"
       id="path2928"
       inkscape:connector-curvature="0"
       sodipodi:nodetypes="cccc" />
    <path
       style="opacity:1;fill:none;fill-opacity:1;stroke:#000000;stroke-width:0.40000001;stroke-linecap:square;stroke-linejoin:round;stroke-miterlimit:4;stroke-dasharray:none;stroke-opacity:1;paint-order:markers stroke fill"
       d="M64.762049 69.695141L63.620928 71.120813L62.50988 72.576558L61.969495 73.31957L61.441262 74.074733L60.926726 74.843594L60.427432 75.627697L59.944924 76.428587L59.480747 77.247807L59.036447 78.086904L58.613567 78.947421L58.213652 79.830903L57.838248 80.738896L57.488898 81.672944L57.167148 82.634591L58.541105 82.300428L59.247018 82.148617L59.969338 82.010037L60.710906 81.88698L61.47456 81.781734L62.26314 81.696594L63.079485 81.633844L63.926434 81.595774L64.806826 81.584674L65.7235 81.602834L66.679296 81.652544L67.677053 81.736094L68.71961 81.85577L69.809805 82.013865L70.950479 82.212668L70.74608 81.420724L70.505676 80.630675L70.231771 79.84239L69.926869 79.055736L69.593476 78.270582L69.234097 77.486796L68.851235 76.704245L68.447395 75.922799L68.025083 75.142325L67.586803 74.362692L66.672356 72.805419L65.724092 71.249926L64.762049 69.695158L64.762049 69.695158"
       id="path2930"
       inkscape:connector-curvature="0"
       sodipodi:nodetypes="cccc" />
    <path
       style="opacity:1;fill:none;fill-opacity:1;stroke:#000000;stroke-width:0.40000001;stroke-linecap:square;stroke-linejoin:round;stroke-miterlimit:4;stroke-dasharray:none;stroke-opacity:1;paint-order:markers stroke fill"
       d="M30.022422 81.931361L30.943417 82.742066L31.879461 83.521125L32.357535 83.889515L32.844662 84.238869L33.342606 84.565477L33.85313 84.86563L34.377997 85.13562L34.918973 85.371737L35.477819 85.570275L36.0563 85.727523L36.656179 85.839773L37.27922 85.903313L37.927187 85.914443L38.601843 85.869443L40.570891 93.183053L48.025143 87.697843L49.626793 88.224856L51.230812 88.728186L52.838268 89.19713L54.450234 89.620984L55.258243 89.812657L56.06778 89.989044L56.878979 90.148807L57.691975 90.290607L58.506901 90.413106L59.32389 90.514967L60.143077 90.594847L60.964596 90.651417L61.407337 90.715567L61.848088 90.761807L62.286933 90.790887L62.723953 90.803557L63.159233 90.800557L63.592855 90.782647L64.455462 90.705087L65.31244 90.576863L66.164454 90.403971L67.012172 90.192409L67.856259 89.948171L68.622914 89.705632L69.36913 89.451413L70.096469 89.186408L70.806496 88.91151L72.180862 88.335608L73.504734 87.730852L74.790617 87.104388L76.051015 86.463361L78.545379 85.166201L85.015109 90.932701L86.702859 82.212631L87.498923 82.152161L88.281073 82.063871L89.04989 81.94891L89.805953 81.808443L90.549844 81.643631L91.282142 81.455634L92.003427 81.245612L92.714281 81.014727L93.415284 80.764139L94.107015 80.495009L94.790056 80.208496L95.464986 79.905763L96.132386 79.58797L96.792836 79.256276L98.095209 78.555832L97.88936 79.430373L97.660443 80.295477L97.407925 81.150926L97.131272 81.996501L96.82995 82.831985L96.503427 83.657159L96.151168 84.471805L95.772641 85.275705L95.36731 86.06864L94.934645 86.850392L94.474109 87.620743L93.985171 88.379474L93.467296 89.126368L92.919952 89.861206L92.342604 90.58377L91.734719 91.293842L91.095764 91.991203L90.425205 92.675635L89.722508 93.34692L88.987141 94.004839L88.218569 94.649175L87.416259 95.279709L86.579678 95.896223L85.708292 96.498499L84.801568 97.086318L83.858972 97.659462L82.87997 98.217713L81.86403 98.760852L80.810617 99.288662L79.719198 99.800924L78.58924 100.29742L77.420209 100.77793L72.075649 95.011442L69.262729 100.91858L67.40094 101.20638L65.526295 101.44704L63.637434 101.63557L62.687248 101.70877L61.732997 101.76707L60.774513 101.80977L59.811624 101.83637L58.844162 101.84637L57.871955 101.83837L56.894834 101.81277L55.912629 101.76857L54.92517 101.70507L53.932286 101.62167L52.666469 94.167422L46.337387 99.652632L45.582487 99.554462L44.826468 99.439652L44.069286 99.30726L43.310902 99.156816L42.551271 98.98769L41.790354 98.799256L41.028107 98.590885L40.26449 98.361947L39.499459 98.111816L38.732974 97.839863L37.964992 97.545459L37.195471 97.227976L36.42437 96.886786L35.651646 96.521261L34.877259 96.130772L34.101165 95.714691L33.606952 94.869185L33.170491 94.01983L32.786244 93.166993L32.448672 92.311046L32.152236 91.452355L31.891399 90.591292L31.66062 89.728224L31.454363 88.863522L31.267088 87.997555L31.093256 87.130691L30.763769 85.395751L30.421594 83.661656L30.231902 82.795849L30.022422 81.931361L30.022422 81.931361"
       id="path2932"
       inkscape:connector-curvature="0"
       sodipodi:nodetypes="cccccccccccccccccc" />
  </g>
  <g
     inkscape:label="Margin-disabled"
     inkscape:groupmode="layer"
     id="g2980" />
  <g
     inkscape:label="B.CrtYd-disabled"
     inkscape:groupmode="layer"
     id="g2982" />
  <g
     inkscape:label="F.CrtYd-disabled"
     inkscape:groupmode="layer"
     id="g2984" />
  <g
     inkscape:label="B.Fab-disabled"
     inkscape:groupmode="layer"
     id="g2986" />
  <g
     inkscape:label="F.Fab-disabled"
     inkscape:groupmode="layer"
     id="g2988" />
  <g
     inkscape:label="Drill"
     inkscape:groupmode="layer"
     id="g2990" />
</svg>
