<?xml version="1.0" encoding="UTF-8" standalone="no"?>
<!-- Created with Inkscape (http://www.inkscape.org/) -->

<svg
   xmlns:dc="http://purl.org/dc/elements/1.1/"
   xmlns:cc="http://creativecommons.org/ns#"
   xmlns:rdf="http://www.w3.org/1999/02/22-rdf-syntax-ns#"
   xmlns:svg="http://www.w3.org/2000/svg"
   xmlns="http://www.w3.org/2000/svg"
   xmlns:xlink="http://www.w3.org/1999/xlink"
   xmlns:sodipodi="http://sodipodi.sourceforge.net/DTD/sodipodi-0.dtd"
   xmlns:inkscape="http://www.inkscape.org/namespaces/inkscape"
   width="65.0mm"
   height="100.0mm"
   viewBox="0 0 65.0 100.0"
   version="1.1"
   id="svg6124"
   inkscape:version="0.92.2 (5c3e80d, 2017-08-06)"
   sodipodi:docname="Hexe3_kl.svg">
  <sodipodi:namedview
     id="base"
     pagecolor="#ffffff"
     bordercolor="#666666"
     borderopacity="1.0"
     inkscape:pageopacity="0.0"
     inkscape:pageshadow="2"
     inkscape:zoom="1.290967"
     inkscape:cx="185.73021"
     inkscape:cy="172.2944"
     inkscape:document-units="mm"
     inkscape:current-layer="g7412"
     showgrid="true"
     inkscape:window-width="1920"
     inkscape:window-height="1017"
     inkscape:window-x="-8"
     inkscape:window-y="-8"
     inkscape:window-maximized="1"
     inkscape:snap-global="false"
     borderlayer="true">
    <inkscape:grid
       spacingx="2.54"
       spacingy="2.54"
       empspacing="1"
       type="xygrid"
       units="mm"
       id="grid7337" />
  </sodipodi:namedview>
  <defs
     id="defs6118">
    <linearGradient
       inkscape:collect="always"
       id="linearGradient1097">
      <stop
         style="stop-color:#000000;stop-opacity:1;"
         offset="0"
         id="stop1093" />
      <stop
         style="stop-color:#000000;stop-opacity:0;"
         offset="1"
         id="stop1095" />
    </linearGradient>
    <linearGradient
       inkscape:collect="always"
       xlink:href="#linearGradient1097"
       id="linearGradient1123"
       x1="-150.66534"
       y1="10.40581"
       x2="-140.53424"
       y2="10.40581"
       gradientUnits="userSpaceOnUse" />
  </defs>
  <metadata
     id="metadata6121">
    <rdf:RDF>
      <cc:Work
         rdf:about="">
        <dc:format>image/svg+xml</dc:format>
        <dc:type
           rdf:resource="http://purl.org/dc/dcmitype/StillImage" />
        <dc:title />
      </cc:Work>
    </rdf:RDF>
  </metadata>
  <g
     inkscape:label="Ebene 1"
     inkscape:groupmode="layer"
     id="layer1" />
  <g
     inkscape:label="[fixed] BG"
     inkscape:groupmode="layer"
     sodipodi:insensitive="true"
     id="g7396">
    <rect
       x="0"
       y="0"
       width="65.0"
       height="100.0"
       style="stroke:none;fill-opacity:1;fill:#FFFFFF"
       id="rect7394" />
  </g>
  <g
     inkscape:label="F.Cu"
     inkscape:groupmode="layer"
     id="g7398" />
  <g
     inkscape:label="B.Cu-disabled"
     inkscape:groupmode="layer"
     id="g7400" />
  <g
     inkscape:label="B.Adhes-disabled"
     inkscape:groupmode="layer"
     id="g7402" />
  <g
     inkscape:label="F.Adhes-disabled"
     inkscape:groupmode="layer"
     id="g7404" />
  <g
     inkscape:label="B.Paste-disabled"
     inkscape:groupmode="layer"
     id="g7406" />
  <g
     inkscape:label="F.Paste-disabled"
     inkscape:groupmode="layer"
     id="g7408" />
  <g
     inkscape:label="B.SilkS-disabled"
     inkscape:groupmode="layer"
     id="g7410" />
  <g
     style="display:inline"
     inkscape:label="F.SilkS"
     inkscape:groupmode="layer"
     id="g7412">
    <g
       style="display:inline;opacity:1;fill:#000001;fill-opacity:1"
       id="g1705"
       transform="matrix(0.38948101,0,0,0.39514412,83.152576,33.144534)">
      <path
         sodipodi:nodetypes="ccccccccccc"
         inkscape:connector-curvature="0"
         id="path1038"
         d="m -163.93639,-17.410278 28.05757,1.336074 -0.80164,-4.275439 11.75746,-0.133607 c 1.1854,-18.70359 -8.0806,-29.437623 -22.49193,-35.065651 -0.70289,-0.220951 -1.60318,-0.385068 -1.2902,-1.810016 6.11651,-16.867933 -8.13398,-22.239055 -13.54525,-22.566867 4.90131,3.903771 5.66937,8.659711 7.20529,13.615164 l -8.8913,19.506694 6.27955,19.239479 z"
         style="opacity:1;fill:#000001;fill-opacity:1;stroke:none;stroke-width:0.5;stroke-linejoin:bevel;stroke-miterlimit:4;stroke-dasharray:none;stroke-opacity:1;paint-order:markers stroke fill" />
      <path
         sodipodi:nodetypes="ccccc"
         inkscape:connector-curvature="0"
         id="path1040"
         d="m -165.91731,-15.125878 c 10.08105,0.320383 20.05809,0.496759 30.00134,1.35188 0.53714,1.63808 0.88311,3.562896 1.1439,5.615503 -9.5325,1.1071112 -23.99362,2.7804352 -36.29278,0.7279357 1.19921,-2.7717607 3.30673,-5.1801987 5.14754,-7.6953187 z"
         style="opacity:1;fill:#000001;fill-opacity:1;stroke:none;stroke-width:0.1;stroke-linejoin:bevel;stroke-miterlimit:4;stroke-dasharray:none;stroke-opacity:1;paint-order:markers stroke fill" />
      <path
         sodipodi:nodetypes="cccccscccccs"
         inkscape:connector-curvature="0"
         id="path1042"
         transform="scale(0.26458333)"
         d="m -507.21289,-68.958984 c 0.85878,14.1493 4.39482,29.083124 7.86133,43.232422 l 27.51172,-1.572266 9.43359,-39.892578 z m 22.85684,7.32904 c 5.11817,-0.0783 9.15995,-0.222069 14.48105,1.120178 -2.4445,10.284443 -2.2447,18.603024 -4.91211,29.083985 -6.22908,0.637066 -12.90589,-0.06729 -19.65234,-0.982422 -2.07765,-7.583622 -2.09343,-16.403983 -1.57227,-25.546875 l 1.375,-3.53711 c 2.99615,-0.570261 7.20977,-0.09077 10.28067,-0.137756 z"
         style="opacity:1;fill:#000001;fill-opacity:1;stroke:none;stroke-width:0.37795275;stroke-linejoin:bevel;stroke-miterlimit:4;stroke-dasharray:none;stroke-opacity:1;paint-order:markers stroke fill" />
      <path
         sodipodi:nodetypes="cccccc"
         inkscape:connector-curvature="0"
         id="path1047"
         d="m -128.94858,-14.08597 2.39179,0.103991 -0.72794,3.483692 -1.71585,-0.155986 -0.15599,-3.587684 z"
         style="opacity:1;fill:#000001;fill-opacity:1;stroke:none;stroke-width:0.1;stroke-linejoin:bevel;stroke-miterlimit:4;stroke-dasharray:none;stroke-opacity:1;paint-order:markers stroke fill" />
      <path
         sodipodi:nodetypes="ccccccccccscsc"
         inkscape:connector-curvature="0"
         id="path1049"
         transform="scale(0.26458333)"
         d="m -553.22266,-2.7011719 c -0.006,2.11770182 -0.909,4.0686269 -2.67461,6.1863287 -3.49542,5.2462724 -5.47647,11.0820402 -7.18867,17.2199212 -0.74057,5.683303 -0.10052,9.484989 3.00977,12.873047 3.48716,4.117539 8.39522,7.210389 13.20703,7.357422 7.70449,2.605168 14.30697,1.901812 20.23047,-0.835938 5.02128,-1.953298 8.42852,-6.5127 11.70312,-11.537109 3.12542,-6.843373 -1.27835,-7.42077 -3.00976,-9.697266 -10.96978,-10.7281008 -23.01972,-16.3873266 -35.27735,-21.5664059 z m 11.78789,14.2121059 c 2.81624,1.4e-5 3.26055,2.180199 3.26055,6.519926 0,4.339728 -0.9459,7.188661 -3.9293,7.857422 -3.12684,0.310628 -5.3853,-1.727298 -4.43085,-7.021487 0.76996,-4.270874 2.2834,-7.355847 5.0996,-7.355861 z"
         style="opacity:1;fill:#000001;fill-opacity:1;stroke:none;stroke-width:0.37795275;stroke-linejoin:bevel;stroke-miterlimit:4;stroke-dasharray:none;stroke-opacity:1;paint-order:markers stroke fill" />
      <path
         sodipodi:nodetypes="ccccccccccc"
         inkscape:connector-curvature="0"
         id="path1055"
         d="m -129.12164,8.1765964 c 2.05257,-0.8045306 4.19935,-1.2593224 6.36982,-1.238577 0.28115,0.1163078 0.7467,-0.074736 0.70776,0.5750536 0.0789,1.4155167 0.36488,2.831033 -0.22117,4.24655 -0.4249,1.209926 -1.02247,2.178114 -2.03481,2.565623 -0.45709,0.520826 -0.91419,0.420602 -1.37128,0 -0.95349,-0.570144 -0.98022,-1.683122 -1.1501,-2.477153 1.10573,0.456829 1.38091,-1.278281 1.59245,-2.0790407 -0.0888,-1.3291871 -0.52238,-2.1255995 -1.9021,-1.4597512 -0.44003,0.5843579 -0.91114,1.1428214 -0.66353,2.3002139 -0.61574,-0.8357433 -1.48528,-1.7077437 -1.32704,-2.4329186 z"
         style="opacity:1;fill:#000001;fill-opacity:1;stroke:none;stroke-width:0.1;stroke-linejoin:bevel;stroke-miterlimit:4;stroke-dasharray:none;stroke-opacity:1;paint-order:markers stroke fill" />
      <path
         sodipodi:nodetypes="cccc"
         inkscape:connector-curvature="0"
         id="path1057"
         d="m -150.66403,7.114959 c 2.54578,5.068057 6.74524,5.055304 10.12979,5.352422 -1.0948,1.659834 -4.00719,1.465052 -6.41407,0.442348 -2.8834,-1.211288 -3.75587,-4.7443244 -3.71572,-5.79477 z"
         style="opacity:1;fill:#000001;fill-opacity:1;stroke:url(#linearGradient1123);stroke-width:0.1;stroke-linejoin:bevel;stroke-miterlimit:4;stroke-dasharray:none;stroke-opacity:1;paint-order:markers stroke fill" />
      <path
         sodipodi:nodetypes="cccccc"
         inkscape:connector-curvature="0"
         id="path1059"
         d="m -144.20523,-1.2263601 c 4.32936,-0.8392717 9.15868,-1.1048469 14.36822,-0.5505067 -1.83542,2.9162903 3.78682,7.4620416 4.98209,7.6795685 -0.41369,-0.2056305 -5.88286,1.3703806 -5.36744,1.6515201 -0.8745,-1.0079604 -1.96292,-1.9186849 -4.43158,-2.2020266 -4.55195,-3.8244615 -6.77103,-4.79835663 -9.55129,-6.5785553 z"
         style="opacity:1;fill:#000001;fill-opacity:1;stroke:none;stroke-width:0.1;stroke-linejoin:bevel;stroke-miterlimit:4;stroke-dasharray:none;stroke-opacity:1;paint-order:markers stroke fill" />
      <path
         sodipodi:nodetypes="cccccccc"
         inkscape:connector-curvature="0"
         id="path1125"
         d="m -207.46468,-1.192667 c 9.7469,-5.5006252 21.0815,-4.6560739 31.62763,-7.2261801 1.22182,1.5026512 2.44363,2.5459937 3.66545,2.932363 13.55055,3.1938132 25.51443,-0.1907298 38.12072,-0.5236363 l 0.83782,1.7803632 -63.0458,5.3410897 -9.00654,-0.62836352 c -2.96797,-0.5702395 -2.48107,-1.37620997 -2.19928,-1.67563598 z"
         style="opacity:1;fill:#000001;fill-opacity:1;stroke:none;stroke-width:0.2;stroke-linejoin:bevel;stroke-miterlimit:4;stroke-dasharray:none;stroke-opacity:1;paint-order:markers stroke fill" />
      <path
         sodipodi:nodetypes="ccccccccccccccccccc"
         inkscape:connector-curvature="0"
         id="path1135"
         d="m -87.761433,15.458965 3.665452,-8.7970885 1.780366,-9.2159977 4.084362,-9.0065428 2.827634,-5.655272 c 0.672257,-1.482093 1.564206,-1.646033 2.513454,-1.466181 1.692344,1.113661 3.378252,2.235365 3.979635,4.712726 1.146913,1.919999 0.518354,3.839999 -0.837816,5.7599984 -2.81267,2.7358763 -4.760732,5.8175962 -6.178907,9.11127057 l -5.236364,9.63490703 -3.665452,10.367997 -7.016727,14.871268 -4.398544,-2.094544 5.550543,-9.215997 1.152001,-4.293817 0.523637,-1.152 2.618179,0.837818 c 2.099939,0.231245 0.971094,-0.972524 0.733092,-1.780364 z"
         style="opacity:1;fill:#000001;fill-opacity:1;stroke:none;stroke-width:0.2;stroke-linejoin:bevel;stroke-miterlimit:4;stroke-dasharray:none;stroke-opacity:1;paint-order:markers stroke fill" />
      <path
         sodipodi:nodetypes="ccccc"
         inkscape:connector-curvature="0"
         id="path1145"
         d="m -131.64215,-4.543939 7.95927,-0.5236361 0.73309,-0.7330908 c 15.79162,5.51551107 21.41108,12.3832761 29.218904,18.6414499 C -106.11172,6.4167344 -118.47194,-0.4880533 -131.64215,-4.543939 Z"
         style="opacity:1;fill:#000001;fill-opacity:1;stroke:none;stroke-width:0.2;stroke-linejoin:bevel;stroke-miterlimit:4;stroke-dasharray:none;stroke-opacity:1;paint-order:markers stroke fill" />
      <path
         sodipodi:nodetypes="cccccccccc"
         inkscape:connector-curvature="0"
         id="path1155"
         d="m -141.17233,14.202238 c 2.23841,-1.322321 4.4087,-2.712751 5.55054,-5.1316347 l 1.04728,-1.3614543 2.40872,0.5236364 c 2.5928,2.3992026 3.84505,6.3484006 5.34109,9.8443606 0.37851,2.015155 0.77335,4.017251 -0.20945,7.121453 -0.21601,1.93195 -1.14953,1.352633 -1.88509,1.466183 -2.12649,-0.07722 -3.76518,-1.373966 -5.34109,-2.827637 -2.91165,-1.870897 -4.66371,-4.901381 -6.49309,-7.854543 z"
         style="opacity:1;fill:#000001;fill-opacity:1;stroke:none;stroke-width:0.2;stroke-linejoin:bevel;stroke-miterlimit:4;stroke-dasharray:none;stroke-opacity:1;paint-order:markers stroke fill" />
      <path
         sodipodi:nodetypes="cccccccccccccccccccccccc"
         inkscape:connector-curvature="0"
         id="path1180"
         d="m -192.6286,2.8783687 33.81659,-3.00376595 c -19.69359,8.01404505 -10.56922,20.39788225 -1.35654,28.87491125 0.56671,4.0931 0.60428,8.450771 2.61619,11.82127 -0.56281,2.120691 -1.33134,4.721375 -1.16275,5.135473 -1.00256,-1.611017 -1.31415,-5.294955 -1.84102,-8.333028 -0.44437,-3.706998 -1.60491,-2.162047 -2.80997,-0.290687 l -4.16652,10.561626 c -2.59283,-2.971662 -1.26,-8.691291 -1.55033,-13.274706 0.12412,-2.660099 -0.99269,-1.845615 -2.1317,-0.968957 l -7.75166,8.914402 c -1.17428,0.415229 -2.42253,1.422274 -3.10066,-2.131705 l 2.13171,-10.367836 c 0.76128,-2.171508 -0.0524,-3.725926 -2.13171,-1.841018 -4.81249,4.005021 -11.07127,11.481144 -14.43746,12.015062 -0.50106,-5.904634 4.31065,-11.145171 7.65476,-16.569159 0.59013,-1.186207 0.15195,-1.78481 -1.06585,-1.937913 -4.57416,2.555981 -8.84969,6.007884 -13.17781,9.301986 -0.2236,-4.782932 1.81804,-8.520968 5.81374,-12.015065 l 3.19756,-3.391349 c 0.71301,-1.84022 1.71174,-3.445949 -0.87207,-3.003765 -5.10317,2.325496 -10.72729,6.371173 -15.21261,7.460966 -0.36753,-0.322192 -0.54253,-0.94695 0.87206,-4.069618 5.2745,-4.787204 10.39945,-9.8361014 16.66605,-12.8871243 z"
         style="opacity:1;fill:#000001;fill-opacity:1;stroke:none;stroke-width:0.2;stroke-linejoin:bevel;stroke-miterlimit:4;stroke-dasharray:none;stroke-opacity:1;paint-order:markers stroke fill" />
      <path
         inkscape:connector-curvature="0"
         id="path1190"
         d="m -146.11867,21.385442 1.25964,0.872061 -0.96896,2.519288 -1.35654,-0.775166 z"
         style="opacity:1;fill:#000001;fill-opacity:1;stroke:none;stroke-width:0.2;stroke-linejoin:bevel;stroke-miterlimit:4;stroke-dasharray:none;stroke-opacity:1;paint-order:markers stroke fill" />
      <path
         sodipodi:nodetypes="ccscccccccccccccc"
         inkscape:connector-curvature="0"
         id="path1208"
         d="m -169.08294,11.79277 c 2.71123,-8.7424158 13.72131,-10.5250175 20.44498,-13.0809153 -0.44346,0.62411231 0.12287,1.24885672 -0.383,2.08616049 -3.19825,5.29361681 -3.90379,13.10974881 6.00295,13.99852081 -1.19072,1.432731 1.93765,5.546279 8.23613,11.627481 l -0.0969,3.391349 c -3.36611,-0.151432 -6.6724,-2.018325 -9.78646,-4.069619 l 1.64723,-4.166514 -3.97272,-2.034809 -1.35654,2.519288 c -3.45251,-3.617439 -3.90482,-7.041086 -5.23237,-10.658525 -0.61103,-2.5653946 -2.35312,-1.7697874 -2.4224,-0.484478 3.60119,11.462402 5.72329,19.753969 29.06871,21.70463 2.35668,4.433811 5.39104,9.207199 5.61995,15.406412 -7.71504,4.064014 -23.68756,5.75453 -33.5259,-7.170279 -2.31384,-4.776302 -2.61207,-8.88073 -3.48825,-13.177812 -4.80132,-4.118056 -11.1838,-8.535396 -10.75541,-15.89089 z"
         style="opacity:1;fill:#000001;fill-opacity:1;stroke:#000000;stroke-width:0.2;stroke-linejoin:bevel;stroke-miterlimit:4;stroke-dasharray:none;stroke-opacity:1;paint-order:markers stroke fill" />
      <path
         sodipodi:nodetypes="ccccccccccccccccccccccccccc"
         inkscape:connector-curvature="0"
         id="path1226"
         d="m -127.7085,-0.70677129 c 5.86847,1.17461878 12.82596,4.82855409 19.18535,8.23613209 l 4.06961,4.3603052 -4.3603,-1.841018 c -0.77298,-0.03482 -1.8981,-0.703503 -1.45344,1.453435 4.37045,3.584812 8.78569,7.096822 11.143006,13.952977 -3.391346,-2.696092 -6.685796,-6.488015 -10.077146,-7.751653 -1.69266,-0.04318 -1.98715,0.690394 -1.35654,1.937913 4.45211,6.59569 11.122306,7.892602 11.33679,24.611501 -3.64609,-7.810054 -7.53437,-11.74491 -11.43369,-15.503307 -1.34471,-1.044216 -2.04562,0.143777 -1.84102,1.065852 1.03047,6.36227 4.31442,8.832181 2.80998,19.572925 -2.42468,-6.047975 -5.41101,-10.130185 -8.33303,-14.437455 -0.13022,-0.867092 -2.15343,-1.107285 -1.64723,0.290687 -0.91386,2.478302 1.14907,6.232373 1.84102,9.398881 -3.39314,-1.346434 -4.39852,-10.647548 -7.94545,-13.952976 l -4.3603,-0.0969 c -1.31386,-0.718147 -2.76285,-1.397687 -2.32549,-2.616184 l 4.06961,0.968957 c 1.3073,-0.652316 2.71121,-0.531809 3.77894,-3.100662 0.64483,-5.743432 0.26461,-6.361608 0.19379,-8.526819 3.11472,-1.373503 6.39027,-2.571555 3.97272,-9.9802544 l 0.58137,-0.3875828 -0.0969,-0.9689568 -2.03481,-0.1937911 c -2.30128,-1.8756259 -4.94722,-3.8497252 -5.52306,-5.23236642 z"
         style="opacity:1;fill:#000001;fill-opacity:1;stroke:none;stroke-width:0.2;stroke-linejoin:bevel;stroke-miterlimit:4;stroke-dasharray:none;stroke-opacity:1;paint-order:markers stroke fill" />
      <path
         sodipodi:nodetypes="cccccccccccccccccccc"
         inkscape:connector-curvature="0"
         id="path1236"
         d="m -123.61453,56.111454 c 3.23826,-2.497948 6.59666,-4.112245 10.10993,-4.410199 0.55239,1.436212 0.39062,2.931937 0.12895,4.435988 1.16835,-1.295815 1.35393,-3.573491 1.9343,-5.029174 l 1.3669,1.521648 h 1.03163 c 0.85813,-0.545224 1.49603,-1.54495 1.59902,-2.708018 2.72746,-1.017212 9.110437,3.222287 9.542533,3.533317 0.679511,0.357945 0.77906,0.924703 0.644766,2.011672 -2.66282,-0.08837 -5.654179,-0.174161 -8.304579,-2.656437 -1.00975,-0.159047 -1.80995,-0.158517 -2.68224,0.438441 l 7.58245,3.5849 c 1.018723,0.571808 0.44392,2.873146 -1.3669,2.4759 -2.30477,-0.934106 -4.59782,-1.78617 -6.83452,-2.243784 -0.62796,-0.145293 -1.82347,0.161188 -0.69635,0.928463 l 3.50753,1.341112 c 1.57937,0.192188 3.03281,1.767781 -0.20632,2.243787 -3.94865,0.163256 -7.56966,-0.74334 -11.0384,-1.882717 -2.42755,0.847853 -4.83672,1.559359 -6.98926,2.682226 -0.28157,-1.893977 -0.66807,-4.418149 0.67056,-6.267125 z"
         style="opacity:1;fill:#000001;fill-opacity:1;stroke:none;stroke-width:0.2;stroke-linejoin:bevel;stroke-miterlimit:4;stroke-dasharray:none;stroke-opacity:1;paint-order:markers stroke fill" />
      <path
         sodipodi:nodetypes="cccccccc"
         inkscape:connector-curvature="0"
         id="path1254"
         d="m -103.34309,47.471588 c 0.0904,-0.880303 1.3703,-0.579788 1.62481,-0.335277 1.22827,0.332213 1.49181,0.71094 2.243785,1.315321 0.381638,0.456117 0.532881,0.927217 0.438441,1.315323 0.09848,1.284091 -0.324987,1.260228 -0.696347,1.134789 -1.144309,-0.04881 -2.133759,-0.562207 -3.146459,-1.005834 -0.62736,-0.318085 -0.55362,-0.63617 -0.74793,-0.954256 -0.10525,-0.633509 0.046,-1.248052 0.2837,-1.470066 z"
         style="opacity:1;fill:#000001;fill-opacity:1;stroke:none;stroke-width:0.2;stroke-linejoin:bevel;stroke-miterlimit:4;stroke-dasharray:none;stroke-opacity:1;paint-order:markers stroke fill" />
      <path
         sodipodi:nodetypes="ccccccccccc"
         inkscape:connector-curvature="0"
         id="path1272"
         d="m -101.76099,44.709624 c 0.62513,0.808027 1.2311,1.727452 2.188412,1.823674 0.891613,0.117784 1.081079,-0.179537 1.550122,-0.528864 0.243157,-0.335425 0.44984,-0.613971 0.692996,-0.893601 1.686706,0.117553 2.112164,2.742783 2.352538,4.012084 -0.661462,1.28237 -0.99706,1.673357 -1.7872,1.65954 -0.463936,0.115402 -0.597368,-0.154691 -0.674759,-0.474153 l -0.109423,-1.276571 c -0.237505,-0.966034 -1.009566,-1.290603 -1.714254,-1.696018 -0.652275,-0.279469 -1.306382,-0.555732 -1.768972,-1.167152 -0.78704,-0.667609 -0.49026,-0.973945 -0.72946,-1.458939 z"
         style="opacity:1;fill:#000001;fill-opacity:1;stroke:none;stroke-width:0.2;stroke-linejoin:bevel;stroke-miterlimit:4;stroke-dasharray:none;stroke-opacity:1;paint-order:markers stroke fill" />
      <path
         sodipodi:nodetypes="ccccc"
         inkscape:connector-curvature="0"
         id="path1282"
         d="m -96.946489,43.761315 c -0.167582,-1.45053 0.248112,-2.529077 2.060753,-2.771983 1.006165,1.022724 1.630188,2.29123 2.042514,3.537927 0.03831,0.94455 -0.117788,1.772453 -0.56534,2.425484 -1.100449,-1.182099 -2.073922,-2.554663 -3.537927,-3.191428 z"
         style="opacity:1;fill:#000001;fill-opacity:1;stroke:none;stroke-width:0.2;stroke-linejoin:bevel;stroke-miterlimit:4;stroke-dasharray:none;stroke-opacity:1;paint-order:markers stroke fill" />
      <path
         sodipodi:nodetypes="cccccc"
         inkscape:connector-curvature="0"
         id="path1292"
         d="m -96.87354,37.98027 c -0.195174,-0.547426 -0.375159,-1.087257 -0.474157,-1.586595 0.346498,-0.806935 0.711233,-0.742253 1.258336,-0.601814 2.84778,0.972837 4.146028,2.368711 5.616914,3.957374 0.473323,1.346486 0.600186,2.477929 -0.328262,2.95435 -2.142022,-1.425787 -4.02914,-3.046457 -6.072831,-4.723315 z"
         style="opacity:1;fill:#000001;fill-opacity:1;stroke:none;stroke-width:0.2;stroke-linejoin:bevel;stroke-miterlimit:4;stroke-dasharray:none;stroke-opacity:1;paint-order:markers stroke fill" />
      <path
         sodipodi:nodetypes="cccccccccccccc"
         inkscape:connector-curvature="0"
         id="path1302"
         d="m -126.90516,71.358471 0.983,0.04915 0.54065,-1.277898 0.93385,-1.671098 0.54065,-1.867699 0.49149,-1.720249 -0.0491,-1.179597 -0.8847,-0.04915 -0.49149,1.6711 -0.34405,1.818547 -0.63895,1.572799 -0.14745,0.491499 -0.5898,0.638951 z"
         style="opacity:1;fill:#000001;fill-opacity:1;stroke:none;stroke-width:0.2;stroke-linejoin:bevel;stroke-miterlimit:4;stroke-dasharray:none;stroke-opacity:1;paint-order:markers stroke fill" />
      <path
         sodipodi:nodetypes="cccccccc"
         inkscape:connector-curvature="0"
         id="path1312"
         d="m -123.61211,70.129722 c 0.5898,-1.469915 1.17959,-3.826854 1.76939,-5.897994 0.3102,-0.970392 0.75472,-1.470709 1.32705,-1.523648 1.26398,-0.521806 2.7534,-0.818166 4.27605,-1.081299 -0.18487,3.191507 0.0781,7.010007 -0.6881,9.387639 l -6.73355,0.73725 c -0.34048,-0.343654 -1.3223,-0.764029 -0.54064,-0.983001 z"
         style="opacity:1;fill:#000001;fill-opacity:1;stroke:none;stroke-width:0.2;stroke-linejoin:bevel;stroke-miterlimit:4;stroke-dasharray:none;stroke-opacity:1;paint-order:markers stroke fill" />
      <path
         sodipodi:nodetypes="ccccc"
         inkscape:connector-curvature="0"
         id="path1322"
         d="m -114.47023,62.56063 c 0.44874,-0.04675 0.72825,0.132141 0.983,0.344049 -0.10976,0.967512 -0.41457,1.899559 -0.8847,2.801548 -0.42985,0.07015 -0.42624,-0.09311 -0.44234,-0.24575 -0.27604,-0.986152 -0.0295,-1.946173 0.34404,-2.899847 z"
         style="opacity:1;fill:#000001;fill-opacity:1;stroke:none;stroke-width:0.2;stroke-linejoin:bevel;stroke-miterlimit:4;stroke-dasharray:none;stroke-opacity:1;paint-order:markers stroke fill" />
      <path
         sodipodi:nodetypes="ccccccc"
         inkscape:connector-curvature="0"
         id="path1332"
         d="m -131.03756,74.14438 c 3.67967,-1.384029 8.43685,-0.67087 12.64478,-0.866331 -0.36852,1.229049 -0.91261,2.194729 -1.47461,3.133545 l -4.58973,0.258056 -0.5714,0.40552 c -1.96024,-0.561363 -3.85181,-1.363087 -5.71412,-2.267215 -0.53513,-0.258154 -0.30335,-0.496014 -0.29492,-0.663575 z"
         style="opacity:1;fill:#000001;fill-opacity:1;stroke:none;stroke-width:0.2;stroke-linejoin:bevel;stroke-miterlimit:4;stroke-dasharray:none;stroke-opacity:1;paint-order:markers stroke fill" />
      <path
         inkscape:connector-curvature="0"
         id="path1342"
         d="m -123.2037,77.351659 2.06446,0.03686 0.27648,0.368655 -0.46081,0.331785 -0.9585,-0.129027 -1.16125,-0.239625 -0.0185,-0.27649 z"
         style="opacity:1;fill:#000001;fill-opacity:1;stroke:none;stroke-width:0.2;stroke-linejoin:bevel;stroke-miterlimit:4;stroke-dasharray:none;stroke-opacity:1;paint-order:markers stroke fill" />
      <path
         sodipodi:nodetypes="ccccccccccccccc"
         inkscape:connector-curvature="0"
         id="path1352"
         d="m -193.7554,148.50989 c 7.15458,0.0809 13.2787,-2.59638 18.73141,-4.81242 4.77096,0.86211 9.6654,4.60743 13.29116,7.40504 1.83925,0.55911 3.69581,0.99709 5.44026,2.2198 0.3534,0.63799 1.30802,1.53364 -0.29615,1.33267 -5.60215,0.0681 -11.2043,0.0424 -16.80645,-0.96249 -0.83541,-0.12707 -1.43722,-0.48774 -1.77689,-1.11055 l -1.55479,-2.59196 c -0.40827,-1.09481 -1.15923,-1.16151 -1.85092,-1.40605 -0.79517,-0.16414 -1.27673,-0.391 -3,-0.36953 -0.97341,0.12031 -1.3779,0.64698 -1.66435,1.25797 -0.51305,1.01445 -0.84598,2.11896 -0.96249,3.33168 -2.29515,-0.039 -4.59031,-0.30495 -6.88546,-0.74037 -1.39943,-0.24454 -1.99547,-0.84615 -2.51726,-1.48075 -0.44182,-0.75642 -0.2849,-1.41306 -0.14807,-2.07304 z"
         style="opacity:1;fill:#000001;fill-opacity:1;stroke:none;stroke-width:0.2;stroke-linejoin:bevel;stroke-miterlimit:4;stroke-dasharray:none;stroke-opacity:1;paint-order:markers stroke fill" />
      <path
         sodipodi:nodetypes="ccccccc"
         inkscape:connector-curvature="0"
         id="path1362"
         d="m -164.63625,146.99316 c 3.69609,-0.42691 7.41907,-0.90759 11.22334,-1.55086 1.3414,-0.50075 2.64437,-0.88621 3.87716,-1.06111 1.51372,1.00044 3.31741,2.58081 4.53015,2.97929 -0.22949,1.2703 -0.67288,2.46931 -0.61218,3.83634 -4.41535,-0.01 -8.51387,-0.17799 -12.7334,-0.28569 -3.03605,-1.11778 -4.22213,-2.60556 -6.28507,-3.91797 z"
         style="opacity:1;fill:#000001;fill-opacity:1;stroke:none;stroke-width:0.2;stroke-linejoin:bevel;stroke-miterlimit:4;stroke-dasharray:none;stroke-opacity:1;paint-order:markers stroke fill" />
      <path
         sodipodi:nodetypes="cccccc"
         inkscape:connector-curvature="0"
         id="path1372"
         d="m -147.49514,143.19763 c 0.59381,-1.10388 1.15571,-1.49884 2.20385,-1.83654 2.35741,0.63511 3.10756,1.91311 4.48934,2.93847 -0.78857,0.62594 -2.03498,1.09928 -2.24467,1.91818 -1.99663,-0.30246 -3.23693,-1.72855 -4.65258,-2.61199 z"
         style="opacity:1;fill:#000001;fill-opacity:1;stroke:none;stroke-width:0.2;stroke-linejoin:bevel;stroke-miterlimit:4;stroke-dasharray:none;stroke-opacity:1;paint-order:markers stroke fill" />
      <path
         sodipodi:nodetypes="cccccc"
         inkscape:connector-curvature="0"
         id="path1390"
         d="m -171.56457,142.34241 c 13.04953,-9.65048 18.47945,-20.1847 20.41583,-30.68344 l 4.05928,0.11939 c -1.27339,9.59629 -1.84996,19.15591 -0.11939,28.5941 -9.20817,6.86455 -23.29003,3.51062 -24.71389,2.38781 z"
         style="opacity:1;fill:#000001;fill-opacity:1;stroke:none;stroke-width:0.2;stroke-linejoin:bevel;stroke-miterlimit:4;stroke-dasharray:none;stroke-opacity:1;paint-order:markers stroke fill" />
      <path
         sodipodi:nodetypes="cccccccccc"
         inkscape:connector-curvature="0"
         id="path1400"
         d="m -145.29859,111.2411 2.20872,-0.23878 c -0.57566,7.36244 0.57691,14.72487 4.29807,22.0873 l -1.85055,-0.41787 c -0.60109,0.20927 -0.73149,0.60682 -0.53726,1.13422 1.6116,2.79367 3.87894,5.84964 4.77563,8.35735 0.0597,0.77603 -0.43776,1.07452 -1.49239,0.89543 -2.37119,-0.73325 -4.65291,-2.09272 -6.86497,-3.93989 -1.11521,-1.72424 -1.73536,-3.61349 -2.38781,-5.49198 -0.31526,-7.6117 -0.059,-15.40974 1.85056,-22.38578 z"
         style="opacity:1;fill:#000001;fill-opacity:1;stroke:none;stroke-width:0.2;stroke-linejoin:bevel;stroke-miterlimit:4;stroke-dasharray:none;stroke-opacity:1;paint-order:markers stroke fill" />
      <path
         sodipodi:nodetypes="ccccccccc"
         inkscape:connector-curvature="0"
         id="path1410"
         d="m -209.63756,142.34167 c 3.06773,-6.59877 2.51455,-16.5167 3.30758,-25.20061 1.69431,-8.66153 2.50898,-17.511547 9.84398,-24.964355 9.06068,6.543538 21.10171,10.702795 36.46213,12.206545 0.99213,2.08121 -0.58692,5.19089 3.22883,6.14265 l 3.22883,0.94502 c -1.5495,7.72997 -2.79053,15.46958 -10.86776,22.99556 -6.99241,7.14305 -15.82345,9.87337 -24.8856,12.04904 -7.72225,0.91486 -14.03304,-1.59811 -20.31799,-4.17385 z"
         style="opacity:1;fill:#000001;fill-opacity:1;stroke:none;stroke-width:0.2;stroke-linejoin:bevel;stroke-miterlimit:4;stroke-dasharray:none;stroke-opacity:1;paint-order:markers stroke fill" />
      <path
         sodipodi:nodetypes="cccccc"
         inkscape:connector-curvature="0"
         id="path1420"
         d="m -191.76088,76.741331 c 9.51835,9.11739 30.11982,15.176368 34.09957,14.254096 0.11791,1.025068 -0.77288,6.212312 -1.26003,10.867763 -8.01552,0.20713 -27.48646,-3.052478 -36.06837,-11.10402 -0.18503,-4.896379 1.0233,-9.096082 2.04755,-13.387824 z"
         style="opacity:1;fill:#000001;fill-opacity:1;stroke:none;stroke-width:0.2;stroke-linejoin:bevel;stroke-miterlimit:4;stroke-dasharray:none;stroke-opacity:1;paint-order:markers stroke fill" />
      <path
         sodipodi:nodetypes="cccccc"
         inkscape:connector-curvature="0"
         id="path1430"
         d="m -151.59741,89.892901 c 1.68625,2.382651 4.18618,2.722019 6.45765,2.677565 -0.19747,2.910829 -0.30069,6.074244 -1.10252,10.395244 0.026,0.83989 -0.32127,1.49316 -0.70877,2.12631 h -5.43388 c -0.44821,-4.17798 -0.4363,-8.931107 0.78752,-15.199119 z"
         style="opacity:1;fill:#000001;fill-opacity:1;stroke:none;stroke-width:0.2;stroke-linejoin:bevel;stroke-miterlimit:4;stroke-dasharray:none;stroke-opacity:1;paint-order:markers stroke fill" />
      <path
         sodipodi:nodetypes="cccccccccccc"
         inkscape:connector-curvature="0"
         id="path1440"
         d="m -155.45626,86.821575 2.12631,1.496288 c -0.64703,5.667542 -1.72321,11.048985 -1.8113,17.089157 2.78257,1.7075 5.56513,1.46619 8.3477,1.57504 1.21593,-0.11571 1.55472,-0.75771 1.73255,-1.49628 l 1.57504,-12.757812 c 0.47251,-1.080266 0.94502,-1.533534 1.41753,-0.315006 l -1.9688,15.750378 c -0.24354,0.95671 -0.75474,1.3781 -1.41754,1.49629 -3.77147,0.37672 -7.43521,0.3764 -10.789,-0.70877 -1.25587,-0.82186 -1.54265,-1.80467 -1.33878,-2.83507 0.74102,-6.939975 2.13708,-16.865123 2.12629,-19.294215 z"
         style="opacity:1;fill:#000001;fill-opacity:1;stroke:none;stroke-width:0.2;stroke-linejoin:bevel;stroke-miterlimit:4;stroke-dasharray:none;stroke-opacity:1;paint-order:markers stroke fill" />
      <path
         sodipodi:nodetypes="cccccccsccccccccccccccccccccccccccccccccccccccccccccccccccccccc"
         inkscape:connector-curvature="0"
         id="path1450"
         transform="scale(0.26458333)"
         d="m -668.86914,169.71289 c -0.78149,2.36434 -3.75088,5.18237 -7.01953,7.19141 l -7.32422,-2.49414 c -5.5403,4.49285 -6.53169,11.57327 -9.12891,17.70117 -5.76977,17.49088 -3.42972,34.98177 -4.37304,52.47265 -8.94182,8.0702 -17.68717,16.57261 -24.41407,29.51563 -1.30274,5.36311 -1.6075,10.49714 1.99112,10.51331 1.52467,5.71411 6.83613,9.74493 16.46787,15.02966 21.60726,11.85544 53.562,31.4829 87.57812,37.6582 7.00252,1.27125 12.58632,0.1055 19.59961,0.41406 l 3.18555,-14.82422 c -8.76552,-6.32166 -16.66958,-13.62323 -26.79297,-14.17382 -7.51619,7.16142 -16.97896,10.91781 -28.78711,10.56836 -2.07598,0.19212 -2.25775,-1.13177 -2.60547,-2.32227 12.77303,-2.59683 26.22518,-8.58706 22.82031,-10.31641 -5.93945,2.60336 -12.3749,3.96811 -19.74218,3.00196 -5.67852,-1.56976 -5.43854,-3.13923 -6.78125,-4.70899 4.60229,-1.70272 9.20435,-0.90378 13.80664,-0.98047 -2.70849,-6.03448 -9.28067,-12.06903 -13.96094,-18.10351 -1.17694,-2.11298 -1.03141,-6.29694 4.33594,-3.00977 3.96744,3.04384 7.45712,6.26512 12.33008,12.38868 l 17.52929,5.65624 c 18.46829,4.51792 36.89438,17.7138 56.07813,37.3418 4.99665,3.40004 10.72791,5.22399 18.21875,3.2793 17.40257,-6.54431 30.30058,-18.39057 41.65625,-32.04883 -3.38472,-7.89309 -4.96243,-16.88443 -5.58008,-24.43164 1.34423,-5.64793 3.06252,-9.89267 5.83008,-10.20313 7.10226,-2.81803 14.20438,-3.40664 21.30664,-3.75976 l 4.72265,-26.02734 2.24219,-23.35157 4.52344,-17.55273 c -23.06574,5.10881 -49.9682,10.88319 -79.07227,8.38086 -3.82983,7.86907 -6.67786,16.59734 -7.65234,26.96484 -0.64286,2.63648 -5.07591,5.27088 -5.37109,-0.59375 -1.69992,-8.40117 2.34167,-16.48105 4.64257,-24.54883 -4.80725,3.10499 -9.76539,5.92189 -11.43164,13.21485 -1.30779,5.37269 -2.58665,10.90669 -4.60156,15.57226 -1.29898,3.18566 -5.48773,5.83497 -3.85547,-3.64453 4.9716,-25.99744 16.62397,-26.4302 20.03907,-32.98828 -9.61799,-11.43334 -22.02887,-16.71929 -33.23438,-24.66016 -1.60263,1.75403 -1.97213,5.88618 -11.00781,1.89649 -0.005,3.31546 -2.34577,1.02604 -4.00781,0.36523 -3.76536,-5.39001 -7.53153,-10.24964 -11.29688,-14.21093 l -6.19531,13.48242 c 0.58231,5.17352 1.40712,10.83063 2.70312,17.43164 -10.52247,-1.82116 -22.16704,-11.64619 -32.58203,-18.16016 0.79998,-3.38163 -0.8447,-6.76485 -1.32617,-10.14648 -3.9258,0.0138 -10.2518,-0.29144 -13.46289,-2.7793 z m -3.85938,14.37109 c 3.82074,-0.38352 2.44132,4.47738 0.68555,6.4375 -3.92111,7.20448 -6.37777,14.40881 -7.59765,21.61329 0.22371,10.52486 -1.08531,20.16861 3.20703,31.91406 l 8.27539,13.67773 c 2.14269,5.7868 0.43919,6.07965 -3.71485,2.8711 -6.63477,-7.8487 -11.80354,-16.33044 -14.6914,-30.90039 0.55657,-10.69415 -0.95632,-21.38984 3.71484,-32.08399 l 6.58594,-12.32617 c 1.49476,-0.74726 2.65345,-1.11462 3.53515,-1.20313 z m -15.35546,60.97852 c 2.20758,3.23548 4.19522,6.98614 5.0664,13.33984 0.085,2.23138 -0.48228,2.99566 -2.19531,1.18164 -2.40423,-1.26627 -3.25763,-5.24877 -3.88477,-9.625 z"
         style="opacity:1;fill:#000001;fill-opacity:1;stroke:none;stroke-width:0.75590551;stroke-linejoin:bevel;stroke-miterlimit:4;stroke-dasharray:none;stroke-opacity:1;paint-order:markers stroke fill" />
      <path
         sodipodi:nodetypes="ccccccccccccc"
         inkscape:connector-curvature="0"
         id="path1481"
         d="m -118.76777,78.443446 7.34417,-15.207615 2.07713,0.445101 -0.81601,6.083046 -1.63204,3.264074 -0.66765,1.854587 -0.59347,0.964385 -0.22255,1.186936 -1.11275,2.299688 -1.03857,-0.07418 -2.59643,-0.07418 -0.29673,-0.148368 z"
         style="opacity:1;fill:#000001;fill-opacity:1;stroke:none;stroke-width:0.2;stroke-linejoin:bevel;stroke-miterlimit:4;stroke-dasharray:none;stroke-opacity:1;paint-order:markers stroke fill" />
      <path
         id="path1491"
         transform="scale(0.26458333)"
         d="m -395.50977,279.29688 c -6.55774,0.0181 -13.22577,0.13477 -20.01171,0.35937 l -4.48633,10.6543 c 6.48196,4.9518 20.44247,4.2958 32.52539,5.04687 -10.10196,0.76473 -17.8424,2.57922 -34.20703,0.56055 l -4.20508,7.00976 c 53.58106,8.05556 105.41164,6.48542 157.57226,6.72852 l -5.88867,-5.32617 13.17774,3.36328 c 12.57603,-2.14014 26.71745,-3.30118 33.64648,-8.9707 -51.55753,-10.53172 -104.73154,-19.601 -168.12305,-19.42578 z m 39.42969,14.3789 15.41992,4.20508 32.80469,1.96289 5.04688,-3.64453 11.21484,3.36328 14.85937,5.32812 -15.41992,-0.56054 -5.04687,-3.36524 -2.80469,-2.24218 -2.80273,1.96289 -1.40235,2.24218 -35.32812,-0.56054 -11.77539,-4.76563 -16.26172,0.56055 -11.4961,-0.56055 -1.96289,-1.68359 z"
         style="opacity:1;fill:#000001;fill-opacity:1;stroke:none;stroke-width:0.75590551;stroke-linejoin:bevel;stroke-miterlimit:4;stroke-dasharray:none;stroke-opacity:1;paint-order:markers stroke fill"
         inkscape:connector-curvature="0" />
      <path
         sodipodi:nodetypes="ccccccccc"
         inkscape:connector-curvature="0"
         id="path1512"
         d="m -143.0202,108.19652 c 2.39092,-9.071531 5.78379,-16.561072 10.70148,-21.982835 0.70513,-1.001989 0.22934,-2.026811 0.15815,-2.899414 -2.8141,2.312885 -6.28387,5.847635 -8.2238,7.538476 l 2.95213,-0.316296 c 0.84347,0.456878 0.84346,0.702887 0,0.738032 l -2.47768,0.263583 c -0.61712,0.0682 -1.25808,0.112547 -1.05433,1.001617 -1.46139,5.132715 -1.84375,10.385327 -2.05595,15.656837 z"
         style="opacity:1;fill:#000001;fill-opacity:1;stroke:none;stroke-width:0.2;stroke-linejoin:bevel;stroke-miterlimit:4;stroke-dasharray:none;stroke-opacity:1;paint-order:markers stroke fill" />
      <path
         sodipodi:nodetypes="cccccccc"
         inkscape:connector-curvature="0"
         id="path1522"
         d="m -143.54186,148.97584 c 0.49071,-0.81528 0.84315,-1.74118 1.85295,-2.14119 0.83951,-0.21837 1.42903,0.18823 2.05884,0.49412 3.17863,3.22739 3.1131,7.43063 2.14118,10.58241 -0.65526,0.68984 -1.10943,1.58078 -2.05883,1.97648 -0.98313,-1.73453 -1.70197,-3.73335 -2.55295,-5.60003 l -1.60589,-3.1706 c -0.0166,-0.78522 0.0741,-1.46313 0.1647,-2.14119 z"
         style="opacity:1;fill:#000001;fill-opacity:1;stroke:none;stroke-width:0.2;stroke-linejoin:bevel;stroke-miterlimit:4;stroke-dasharray:none;stroke-opacity:1;paint-order:markers stroke fill" />
      <path
         sodipodi:nodetypes="ccccccccccccccccccccccccccc"
         inkscape:connector-curvature="0"
         id="path1532"
         d="m -137.36535,159.55824 c 2.45368,-4.21032 2.02566,-8.2795 -0.3706,-12.39417 -0.45555,-0.83925 -0.67057,-1.42461 0.82354,-0.20588 l 2.59413,5.1059 c 0.83153,0.89343 0.85429,0.27043 0.82353,-0.45294 -0.63656,-2.15445 -1.98003,-3.77873 -3.0059,-5.6412 -0.36506,-0.46186 -0.82638,-1.27719 0.32942,-1.02942 1.99812,0.61139 2.99704,2.50747 4.28237,4.03531 0.53606,0.62282 0.63262,0.25675 0.74118,-0.0823 l -0.5353,-0.98824 c 2.82748,1.13923 7.05447,3.09484 8.4824,3.41766 -0.49146,0.92638 -1.25877,1.50792 -1.35884,2.92354 0.0972,0.79498 0.41395,1.37038 1.27648,1.40001 3.40198,0.0745 6.58844,-0.71303 9.8824,-1.07059 0.56736,0.30362 0.55814,0.71208 -0.0823,1.2353 -3.95296,0.85098 -8.08507,1.34367 -11.85888,2.55295 l -0.20588,-2.75884 c -0.0654,-0.99545 -0.33706,-0.65032 -0.61765,-0.24706 -0.26079,0.66643 -0.52157,1.35694 -0.78236,2.34707 -0.078,-1.87372 -0.51037,-2.80243 -0.90589,-3.82942 -0.33155,-0.81958 -0.55822,-0.48555 -0.78235,-0.12354 0.18472,1.32509 0.5851,2.43452 0.37058,4.15885 -0.41594,1.46843 -1.50097,1.69482 -2.22353,2.14119 l 0.49412,-3.04708 c 0.28917,-1.0398 -0.30457,-0.93046 -0.74119,-0.32941 -0.15961,0.94526 -0.58679,1.40887 -0.24705,3.25296 -2.3922,0.12184 -4.75613,-0.0548 -6.38243,-0.37065 z"
         style="opacity:1;fill:#000001;fill-opacity:1;stroke:none;stroke-width:0.2;stroke-linejoin:bevel;stroke-miterlimit:4;stroke-dasharray:none;stroke-opacity:1;paint-order:markers stroke fill" />
      <path
         sodipodi:nodetypes="cccccc"
         inkscape:connector-curvature="0"
         id="path1542"
         d="m -56.796196,161.85252 c 0.02317,1.62283 0.499433,1.88638 1.281118,1.23367 3.077993,-2.00824 5.286988,-5.39666 6.21579,-10.81832 -0.375752,-0.88476 -0.257441,-2.46121 -1.803053,-1.70816 -1.302188,1.47615 -2.61549,2.97176 -4.412737,5.31426 -0.558725,1.87998 -1.530776,3.40567 -1.281118,5.97855 z"
         style="opacity:1;fill:#000001;fill-opacity:1;stroke:none;stroke-width:0.2;stroke-linejoin:bevel;stroke-miterlimit:4;stroke-dasharray:none;stroke-opacity:1;paint-order:markers stroke fill" />
      <path
         sodipodi:nodetypes="cccccccccccccccccccccccccccccccccccccccc"
         inkscape:connector-curvature="0"
         id="path1552"
         transform="scale(0.26458333)"
         d="m -226.62109,558.30664 c -4.4953,0.013 -9.7097,1.37425 -15.48047,5.17774 l -15.0625,6.99414 c 8.47253,2.07496 15.73649,6.83225 23.3125,11.83593 1.67377,1.43467 0.71647,2.45264 -1.43555,4.84375 -3.79321,2.83129 -6.6539,4.40793 -11.0332,6.22071 -15.69383,6.4964 -28.5179,9.19588 -57.11328,-2.45508 -7.09233,3.17023 -13.07209,8.00893 -21.87891,8.60742 l -2.33008,2.68945 c 5.01723,4.79055 10.74532,8.16093 13.98828,16.5 5.60917,-7.05086 11.28608,-14.07508 8.9668,-24.39062 10.7238,1.48592 19.58742,8.32031 29.41992,14.28125 2.4829,2.02803 6.10603,3.04764 6.80469,2.03906 v -3.4082 c 0.36083,-0.89345 -0.24806,-1.89612 1.97247,0 l 3.40839,3.94531 c 1.60378,0.87621 4.11604,1.42084 3.40625,-2.33008 l -1.07617,-5.91797 c -0.19814,-2.97698 1.39419,-2.82106 5.02148,0.89649 l 2.15235,6.99414 24.74804,6.0957 1.07617,-13.26953 c 2.67586,-7.87971 2.86912,-3.34316 3.22852,0.35937 l -0.17969,14.5254 5.37891,-0.17969 c 0.39769,-12.96374 -0.67054,-26.46708 8.42969,-36.22461 4.01636,-3.30584 8.89837,-6.46815 10.22265,-10.22266 -1.9907,-0.493 -3.74173,-1.58803 -6.63672,0.17969 -4.11678,2.42717 -9.53195,8.75143 -14.52539,13.80859 -2.58282,2.20502 -4.10127,1.36008 -2.86914,-3.58789 4.90855,-6.5486 9.76481,-13.30293 15.60156,-16.13867 -1.21571,-1.3966 -7.62793,-7.89775 -17.51757,-7.86914 z m -3.28516,38.53516 0.35937,10.04297 -2.51171,4.30273 h -2.68946 l -0.71679,-1.61328 v -3.22852 l 1.97265,-7.53125 z"
         style="opacity:1;fill:#000001;fill-opacity:1;stroke:none;stroke-width:0.75590551;stroke-linejoin:bevel;stroke-miterlimit:4;stroke-dasharray:none;stroke-opacity:1;paint-order:markers stroke fill" />
      <path
         sodipodi:nodetypes="cccc"
         inkscape:connector-curvature="0"
         id="path1565"
         d="m -86.777832,160.63979 c 0.864296,1.50576 1.847552,2.97186 2.473788,4.55697 0.375832,0.34435 0.653389,0.34473 0.683546,-0.52079 -0.782162,-1.77785 -1.947721,-2.94226 -3.157334,-4.03618 z"
         style="opacity:1;fill:#000001;fill-opacity:1;stroke:none;stroke-width:0.2;stroke-linejoin:bevel;stroke-miterlimit:4;stroke-dasharray:none;stroke-opacity:1;paint-order:markers stroke fill" />
      <path
         id="path1575"
         transform="scale(0.26458333)"
         d="m -358.48828,593.24023 c -8.07191,3.04778 -17.26094,5.09319 -24.72852,9.34961 -0.20863,0.6663 0.40866,1.93221 -0.12304,3.56836 -0.48507,3.93105 -0.90152,7.92149 0.86132,13.7793 10.69191,13.57353 21.34436,15.82876 32.35547,17.5918 8.23033,0.30364 14.76353,-2.7886 21.77539,-4.92188 l 4.67383,-3.68945 0.61524,-3.81445 c -1.62226,-4.88508 -2.82689,-9.88813 -6.64258,-14.14649 l -3.9375,-3.81445 c -3.06776,-0.66928 -4.24775,-0.26015 -5.04297,0.36914 l -7.01367,1.10742 c -3.62578,0.28108 -4.24814,-1.17307 -5.53516,-1.47656 l -1.23047,-3.69141 c 0.6149,-3.03458 -0.79768,-6.06893 -2.09179,-9.10351 z m -1.10742,13.65625 2.95312,0.2461 6.27344,1.59961 4.18164,2.70703 c 0,0 4.06062,2.95129 4.42969,3.5664 0.36907,0.61509 3.6914,5.53711 3.6914,5.53711 l 2.08985,5.9043 c 0,0 -1.22855,2.58408 -1.35156,3.07617 -0.12303,0.49206 -2.95313,3.44336 -2.95313,3.44336 l -4.06055,1.59961 -4.30468,-0.86133 c 0,0 -2.58419,-1.10751 -3.56836,-1.59961 -0.98419,-0.49209 -3.56836,-2.33593 -3.56836,-2.33593 l 1.96875,-0.86133 6.27539,0.73828 4.18164,0.24609 2.83008,-1.59961 c 0,0 -5e-5,-3.07635 -0.2461,-4.06054 -0.24604,-0.98419 -1.10749,-3.68955 -1.47656,-4.18164 -0.36907,-0.4921 -2.21492,-3.32242 -2.58398,-3.9375 -0.36908,-0.61516 -4.0586,-3.07618 -4.0586,-3.07617 l -5.41406,-2.33594 -4.55078,-1.23047 h -2.21485 l -2.09179,2.82812 0.24609,3.56836 3.19922,4.06055 5.9043,2.82812 3.32226,0.73829 c 1.58245,0.70155 4.47085,1.0601 0.12305,3.32226 -2.92332,0.93184 -5.51475,-0.12569 -8.11914,-1.10742 0,0 -3.56846,-2.46107 -4.06055,-2.95313 -0.49209,-0.49213 -2.21494,-5.16616 -2.70703,-5.78124 -0.49209,-0.61516 0,-4.42979 0,-4.92188 0,-0.49209 1.47656,-3.8125 1.47656,-3.8125 z"
         style="opacity:1;fill:#000001;fill-opacity:1;stroke:#000000;stroke-width:0.75590551;stroke-linejoin:bevel;stroke-miterlimit:4;stroke-dasharray:none;stroke-opacity:1;paint-order:markers stroke fill"
         inkscape:connector-curvature="0" />
      <path
         id="path1588"
         transform="scale(0.26458333)"
         d="m -505.95117,429.93164 -0.59766,6.26953 c -5.7216,14.85003 -9.20238,30.81886 -10.14844,48.05664 l 5.07422,21.49219 c -2.11098,1.29354 -6.65684,3.18497 -11.93945,4.47852 10.42129,15.94019 17.49098,33.43386 31.29688,43.34375 10.46335,7.51063 23.93162,11.78206 38.25195,13.66796 0.45483,3.28063 -5.27813,9.03619 -8.35742,13.73047 l 37.01367,-4.77539 c 1.7478,1.80597 6.21582,-0.46819 5.07422,5.67188 l -1.79102,11.04492 c 0.64399,1.64447 -0.16038,4.73715 4.17969,2.68555 l 11.64062,-3.88086 8.65625,9.55273 7.46289,-1.79101 c 9.5229,-7.35039 20.90337,-9.12859 31.93946,-11.93946 4.92515,0.54739 10.09611,0.35565 11.93945,10.14844 -0.1359,2.84341 1.92704,4.22102 6.56641,3.88086 8.89125,-1.78469 10.98189,-7.45574 14.62695,-12.23828 l 12.83594,-0.29883 2.98437,-4.47852 c 0.44809,-2.23842 1.79972,-3.57043 7.75977,-0.29687 27.27215,9.87424 45.52955,11.07912 57.91015,-0.59766 -6.54975,-2.64533 -15.61613,-6.27084 -26.86523,-6.5664 -2.01435,-6.95173 0.64874,-6.88772 1.49219,-9.55274 4.58495,-3.51103 6.5457,-0.71997 11.58789,-3.05273 21.58608,-9.98676 47.92425,-20.79468 52.29101,-75.1543 -11.50207,10.02951 -17.84551,4.58163 -23.88086,-1.78906 l -12.23828,-24.47852 -1.19336,11.64258 c -1.80013,3.54032 -2.25034,7.35038 -7.76171,10.14844 -17.02742,18.87859 -37.44935,30.96672 -47.16211,64.47461 -4.52397,3.86517 -6.8179,2.89967 -6.56641,-3.58203 -0.43889,-23.12002 0.75106,-47.76625 -11.93945,-59.40039 -11.81838,36.20398 -28.67222,29.9691 -45.96875,20 l 0.89453,22.68554 c -7.32802,8.1058 -13.66748,18.09024 -28.65625,11.64063 -6.62646,3.56217 -12.36337,7.79117 -15.82032,13.73047 l -3.58007,-0.59571 c 1.57984,-14.15852 7.6226,-28.66025 -0.29883,-42.08789 l -16.41797,-23.2832 c -4.05592,9.20821 -4.33303,23.13908 -5.37305,36.11719 -3.90145,4.30461 -5.90808,9.2413 -11.93945,12.83593 -4.38146,1.86225 -4.8217,-1.53097 -4.47852,-5.96874 -0.24018,-14.82535 -3.65242,-29.65122 -8.65625,-44.47657 -15.66228,-20.75335 -29.72794,-44.43226 -49.84765,-57.01367 z m 30.21679,67.34961 c 1.27894,-0.15281 1.52031,1.49678 1.94922,2.52539 1.00377,3.10741 1.01139,7.0849 1.11914,11.98438 3.66214,8.54812 8.47078,16.52212 10.97657,25.64843 L -459,553.3457 c -0.59856,1.63136 -0.41669,4.62763 -3.24805,2.35157 l -1.56836,-4.03321 -11.42578,-8.28711 -9.74414,-8.28906 c -2.38983,-2.5107 -3.69448,-5.29245 -3.69531,-8.40039 0.95562,-9.1231 1.62205,-18.41533 7.50391,-24.64062 2.82595,-3.43696 4.44863,-4.64678 5.44335,-4.76563 z"
         style="opacity:1;fill:#000001;fill-opacity:1;stroke:none;stroke-width:0.75590551;stroke-linejoin:bevel;stroke-miterlimit:4;stroke-dasharray:none;stroke-opacity:1;paint-order:markers stroke fill"
         inkscape:connector-curvature="0" />
      <path
         sodipodi:nodetypes="ccccsccc"
         inkscape:connector-curvature="0"
         id="path1590"
         d="m -127.01524,135.23344 c 0.20744,-0.58817 0.56306,-0.22145 0.77051,0.0296 l 0.14817,0.53343 c 1.13672,2.57345 2.67345,4.92467 3.17094,7.85325 -0.20809,0.15423 -2.36875,-0.98649 -2.4597,-1.06686 -1.03773,-0.91707 -2.49626,-3.16583 -2.16336,-4.32669 -0.1391,-0.082 0.10979,-2.18019 0.23709,-2.22262 z"
         style="opacity:1;fill:#000001;fill-opacity:1;stroke:#000000;stroke-width:0.2;stroke-linejoin:bevel;stroke-miterlimit:4;stroke-dasharray:none;stroke-opacity:1;paint-order:markers stroke fill" />
      <path
         sodipodi:nodetypes="cccccc"
         inkscape:connector-curvature="0"
         id="path1620"
         d="m -117.41193,119.03202 0.39453,-5.4445 c -0.37731,-1.82904 -1.27557,-2.96346 -1.9332,-4.41873 1.14339,0.35767 2.0786,1.44402 2.80116,3.27459 0.49919,1.52867 0.69601,2.98174 0.35508,4.30037 -0.40899,1.08824 -1.00111,1.7187 -1.61757,2.28827 z"
         style="opacity:1;fill:#000001;fill-opacity:1;stroke:none;stroke-width:0.2;stroke-linejoin:bevel;stroke-miterlimit:4;stroke-dasharray:none;stroke-opacity:1;paint-order:markers stroke fill" />
      <path
         sodipodi:nodetypes="ccccc"
         inkscape:connector-curvature="0"
         id="path1630"
         d="m -76.223068,112.87737 c 1.692798,3.18506 2.383894,6.52037 1.972646,10.02104 -0.921943,-0.4489 -1.773473,-1.14423 -2.485533,-2.32772 -0.521911,-1.52964 -0.268944,-3.83417 -0.197265,-5.9574 0.03358,-0.78178 0.155977,-1.47474 0.710152,-1.73592 z"
         style="opacity:1;fill:#000001;fill-opacity:1;stroke:none;stroke-width:0.2;stroke-linejoin:bevel;stroke-miterlimit:4;stroke-dasharray:none;stroke-opacity:1;paint-order:markers stroke fill" />
      <path
         sodipodi:nodetypes="cccccccccccccccccccccccccccccccscccccccccccccccccccccccccccccccccccccccccccc"
         inkscape:connector-curvature="0"
         id="path1640"
         transform="scale(0.26458333)"
         d="m -502.93359,287.23633 2.6875,12.09375 c 2.1042,4.38049 0.66059,8.25415 8.39843,13.43945 0.68261,6.04753 10.0656,12.09505 16.46289,18.14258 -4.15842,11.48226 -7.07374,17.98733 -10.41601,26.20508 l 6.38476,-23.5176 -12.76757,23.18166 7.72663,-26.20515 -16.79695,25.53132 13.10157,-25.86719 c -0.4311,-3.23838 -2.59759,-3.58556 -5.71094,-2.35351 -11.02542,9.24476 -18.52702,22.01334 -24.18945,36.62109 -7.80148,15.97692 -13.24219,32.62837 -14.78125,50.39453 -3.20017,25.19713 -1.893,50.39272 10.07812,75.58985 2.32433,-15.45423 1.69773,-30.90711 9.74219,-46.36133 l 1.00781,-26.20508 c 0.9233,-4.39948 2.5575,-3.83429 4.36914,-2.01562 28.83916,32.08184 66.1551,55.68558 67.19141,115.57031 3.49961,-15.86479 5.20008,-36.52588 11.08593,-46.02735 l 8.73633,-12.09374 c 2.7693,-0.72314 5.44082,-1.25178 4.70313,5.03906 l -3.02344,4.36718 20.15625,34.26758 0.67188,20.49414 6.38476,-6.04687 6.04688,0.33594 5.71093,3.69531 11.75977,-7.05469 c 1.73363,0.0785 2.05924,-3.36392 2.01562,-7.72851 l -4.70507,-22.84375 c 3.23073,-3.38714 5.33534,-1.1366 7.72851,-0.33594 26.40491,21.05968 37.94663,4.37346 41.60547,-16.14453 0.64758,-3.63149 2.62162,-5.1157 3.74805,-8.7168 9.98901,17.27501 18.09683,36.16256 21.83789,58.79297 4.62118,-10.92495 12.68165,-23.32205 20.66406,-32.39844 8.81177,-10.01938 20.74207,-14.78379 24.35547,-27.40234 3.22608,-1.80151 0.62361,-13.80331 0.67187,-21.16602 1.36018,-3.98252 4.63799,-2.21046 7.72657,-1.00781 l 22.17383,35.94726 c 27.213,-55.87861 4.76183,-109.36389 -20.49415,-144.79882 l 9.07227,23.85351 -12.0957,-24.18945 8.0625,24.52539 -13.77344,-23.18164 10.07812,23.51758 -17.13281,-22.84571 6.04688,20.15821 -12.76758,-20.49414 7.05664,21.16601 c -4.0026,-11.13202 -9.33501,-17.61313 -15.11914,-22.50976 21.24031,-8.40988 46.33824,-14.73003 47.03515,-34.26758 -78.79456,17.77973 -189.58514,13.61694 -278.51171,-19.15039 z m 50.71679,118.02929 c 1.30799,-0.0198 2.65448,0.3619 3.9961,0.69532 7.81651,4.69863 13.42951,11.60029 16.71679,20.82812 0.36019,5.78669 2.02141,11.8104 0,17.16406 -3.21596,5.95922 -5.28509,6.56325 -7.86718,9.56446 l -1.33985,3.84375 c -2.44006,-0.72922 -4.85714,-1.76043 -7.0625,-5.54102 -1.32419,-3.38147 -0.59369,-6.07813 -0.62695,-9.02929 0.90773,0 1.41651,-10.98183 1.60937,-11.6211 0.43945,-1.45644 -5.51108,-12.42868 -6.16796,-11.44336 l -4.11133,-8.22265 0.0879,-3.21875 c 1.46455,-2.30538 3.08392,-2.99412 4.76562,-3.01954 z m 168.91992,7.23829 c 2.56526,-0.10178 3.19014,1.737 3.56055,3.83007 l -1.93945,1.93946 1.04492,7.30664 c 2.29011,8.49577 5.82394,15.44878 5.96484,26.09375 -1.09046,6.54262 1.9887,12.78818 -2.98242,19.68359 -1.78937,2.7834 -3.97786,2.78351 -6.5625,0 -5.54852,-5.41111 -10.0076,-12.78241 -13.56836,-21.77148 -1.12431,-5.11786 -1.35211,-10.49154 0.29883,-16.40235 2.62398,-7.88148 5.54618,-15.52419 12.07813,-20.27929 0.81951,-0.25102 1.51348,-0.37691 2.10546,-0.40039 z"
         style="opacity:1;fill:#000001;fill-opacity:1;stroke:none;stroke-width:0.75590551;stroke-linejoin:bevel;stroke-miterlimit:4;stroke-dasharray:none;stroke-opacity:1;paint-order:markers stroke fill" />
    </g>
  </g>
  <g
     inkscape:label="B.Mask-disabled"
     inkscape:groupmode="layer"
     id="g7414" />
  <g
     style="display:inline"
     inkscape:label="F.Mask-disabled"
     inkscape:groupmode="layer"
     id="g7416" />
  <g
     inkscape:label="Dwgs.User-disabled"
     inkscape:groupmode="layer"
     id="g7418" />
  <g
     inkscape:label="Cmts.User-disabled"
     inkscape:groupmode="layer"
     id="g7420" />
  <g
     inkscape:label="Eco1.User-disabled"
     inkscape:groupmode="layer"
     id="g7422" />
  <g
     inkscape:label="Eco2.User-disabled"
     inkscape:groupmode="layer"
     id="g7424" />
  <g
     inkscape:label="Edge.Cuts"
     inkscape:groupmode="layer"
     id="g7426"
     style="display:inline">
    <path
       style="display:inline;fill:none;fill-opacity:0.85324234;stroke:#000000;stroke-width:0.14674981;stroke-opacity:1"
       d="M46.371533 99.919249L46.059013 99.839759L45.755016 99.735585L45.461142 99.608437L45.178993 99.460017L44.91017 99.292032L44.656274 99.106183L44.418907 98.904177L44.199669 98.687717L44.000163 98.458507L43.82199 98.218252L43.66675 97.968655L43.536045 97.711422L43.431477 97.448255L43.354647 97.180861L43.307157 96.910942L43.290607 96.640203L43.275267 96.432863L43.252557 96.362143L43.216407 96.309963L43.164267 96.273763L43.093557 96.250963L42.886219 96.235293L42.671626 96.206363L42.385664 96.128383L42.065652 96.013282L41.748909 95.873003L41.368371 95.709417L40.989109 95.596401L40.595356 95.530301L40.171349 95.507471L39.771723 95.494691L39.511416 95.457861L39.427166 95.428811L39.370126 95.391821L39.337766 95.346241L39.327546 95.291421L39.315956 95.202151L39.284396 95.115411L39.237686 95.041111L39.180656 94.989181L39.094496 94.986081L38.904608 95.012381L38.261591 95.142573L37.347494 95.358471L36.258206 95.638764L35.029788 95.958814L33.950194 96.223022L33.004253 96.434062L32.176794 96.594605L31.452643 96.707323L30.816632 96.774893L30.253586 96.799983L29.748336 96.785263L29.371995 96.748913L29.055305 96.694933L28.792819 96.620133L28.579091 96.521333L28.408676 96.395336L28.276127 96.238958L28.175999 96.049013L28.102849 95.822313L27.903584 95.232396L27.562329 94.365616L27.119919 93.301679L25.152499 93.301679L23.762995 93.327359L23.340303 93.355159L23.225215 93.371539L23.185055 93.389099L23.258235 93.574713L23.434169 93.898207L23.521879 94.07098L23.576559 94.229679L23.593779 94.356708L23.586979 94.402848L23.569129 94.434468L23.517039 94.465018L23.426569 94.492328L23.140336 94.537518L22.730138 94.570638L22.215685 94.592288L20.952844 94.603568L19.509483 94.576178L18.043272 94.514918L16.711879 94.424588L16.146011 94.370028L15.672975 94.309998L15.312477 94.245108L15.084228 94.175948L14.943397 94.088388L14.798066 93.957493L14.655408 93.794223L14.522599 93.609542L14.406814 93.41441L14.315224 93.21979L14.255014 93.036643L14.233344 92.875932L14.206364 92.724167L14.128884 92.583258L14.00608 92.456097L13.843129 92.345572L13.645207 92.254572L13.417492 92.185992L13.16516 92.142722L12.893389 92.127662L12.140439 92.127662L12.220539 92.604601L12.305349 93.012782L12.396849 93.324414L12.420319 93.445535L12.406509 93.494395L12.374009 93.537015L12.247995 93.608215L12.032347 93.668495L11.84985 93.694805L11.61476 93.707085L11.020069 93.694115L10.314817 93.638685L9.5655458 93.549895L8.8387963 93.436844L8.2011105 93.308633L7.7190302 93.174361L7.5571364 93.107791L7.4590974 93.043121L7.3961594 92.932951L7.3294914 92.737644L7.2670364 92.4848L7.2167374 92.202018L7.1159774 91.502494L3.8950774 90.590503L2.6403105 90.223934L1.6048549 89.900021L0.8961255 89.65387L0.69785034 89.57093L0.62153734 89.52059L0.63084334 89.400531L0.69515244 89.190382L0.8038015 88.91975L0.94612744 88.618244L1.1753303 88.115401L1.3730426 87.566918L1.5420715 86.957162L1.6852237 86.270502L1.8053065 85.491307L1.9051265 84.603946L1.9874915 83.592786L2.0552075 82.442197L2.1948616 80.022842L2.2680336 79.079235L2.3477776 78.274568L2.4373476 77.580012L2.5400006 76.966735L2.6589919 76.405909L2.7975772 75.868702L2.9924065 75.215459L3.212981 74.554009L3.4538579 73.897379L3.7095947 73.258596L3.9747487 72.650686L4.2438772 72.086676L4.5115376 71.579592L4.7722872 71.142462L5.3480334 70.213524L5.8720372 69.319604L6.0823663 68.961022L6.2949172 68.627064L6.4849006 68.355049L6.6275272 68.182294L6.6935192 68.105854L6.7494792 68.017854L6.8328262 67.801426L6.8806062 67.521499L6.8958572 67.166572L6.9104592 66.700652L6.9534182 66.217416L7.0234632 65.720196L7.1193232 65.212325L7.2397265 64.697133L7.3834026 64.177954L7.5490805 63.658118L7.7354892 63.140957L7.9413578 62.629804L8.1654151 62.127989L8.4063903 61.638846L8.6630122 61.165705L8.93401 60.711899L9.2181125 60.280759L9.5140489 59.875617L9.820548 59.499805L10.145331 59.112133L10.401206 58.766302L10.59999 58.428212L10.753503 58.063763L10.873562 57.638852L10.971982 57.11938L11.060582 56.471246L11.151192 55.660348L11.268698 54.708821L11.411228 53.818099L11.573128 53.008545L11.748746 52.300521L11.932427 51.71439L12.118519 51.270515L12.210699 51.108286L12.301369 50.989257L12.389809 50.915977L12.475319 50.890987L12.556169 50.879117L12.604189 50.847007L12.621539 50.799907L12.610379 50.743077L12.572879 50.681777L12.511209 50.621257L12.427519 50.566777L12.323987 50.523597L12.177831 50.450747L12.04102 50.331752L11.916825 50.173371L11.808518 49.982362L11.719368 49.765483L11.652648 49.529492L11.611638 49.281149L11.599598 49.02721L11.623898 48.700699L11.684638 48.223882L11.878539 47.075487L12.056615 46.076759L12.100325 45.761948L12.103925 45.633268L12.042135 45.650938L11.902704 45.746528L11.408659 46.156023L10.657284 46.830847L9.684073 47.740096L9.2318198 48.157833L8.8068542 48.528163L8.4094368 48.851022L8.0398286 49.126342L7.6982903 49.354059L7.3850828 49.534108L7.1004667 49.666422L6.844703 49.750932L6.6180524 49.787582L6.4207757 49.776302L6.2531338 49.717022L6.1153874 49.609682L6.0077973 49.454216L5.9306243 49.250556L5.8841293 48.998638L5.8685733 48.698396L5.8855373 48.323628L5.9373073 47.934008L6.0252013 47.525488L6.1505353 47.094019L6.3146265 46.635551L6.5187919 46.146037L6.7643483 45.621426L7.0526128 45.057671L7.3198484 44.530604L7.5153428 44.098982L7.6205747 43.807345L7.6335547 43.727935L7.6170237 43.700225L7.4579962 43.781545L7.1399162 44.002957L6.7089124 44.330648L6.2111137 44.7308L5.2774074 45.47194L4.9150413 45.730808L4.6072062 45.923839L4.3425571 46.057508L4.1097487 46.138288L3.897436 46.172658L3.6942737 46.167058L3.5648372 46.149578L3.4675932 46.121728L3.3981502 46.069408L3.3521182 45.978528L3.3251062 45.834994L3.3127232 45.624717L3.3142832 44.947569L3.3385472 44.412856L3.4002522 43.909946L3.5023441 43.43081L3.6477678 42.967422L3.8394683 42.511754L4.0803909 42.055779L4.3734807 41.591469L4.7216828 41.110796L5.0007734 40.734407L5.2191928 40.416046L5.3551197 40.189285L5.3853297 40.120745L5.3867297 40.087695L5.3331937 40.093895L5.2059512 40.137785L4.763595 40.323956L4.1261563 40.616734L3.36013 40.986624L2.448877 41.42094L1.7600712 41.713544L1.4918031 41.809504L1.2704073 41.873384L1.0929707 41.906314L0.95657994 41.909414L0.70949978 41.868774L0.62899698 41.830334L0.57087618 41.770294L0.53040518 41.681504L0.50285188 41.556826L0.46756988 41.171225L0.46133088 40.908787L0.47814528 40.651764L0.52001258 40.397496L0.58893168 40.143322L0.68690168 39.886581L0.81592147 39.624612L0.9779901 39.354755L1.1751065 39.074348L1.4092698 38.78073L1.682479 38.471241L1.996733 38.14322L2.3540308 37.794006L3.2057539 37.021354L4.2536403 36.131999L4.9879069 35.512095L5.5778078 34.993049L5.9632775 34.629229L6.0605805 34.52252L6.0842505 34.47501L5.9222485 34.43743L5.5372067 34.39121L4.3284905 34.29631L3.5477269 34.22834L2.8958819 34.127045L2.6174979 34.063445L2.3703765 33.990975L2.1541952 33.909445L1.9686317 33.818685L1.8133637 33.718506L1.6880687 33.608729L1.5924247 33.489175L1.5261087 33.359663L1.4887987 33.220012L1.4801687 33.070043L1.4999037 32.909573L1.5476777 32.738423L1.5960617 32.630367L1.6656937 32.522277L1.7565307 32.414164L1.8685316 32.306041L2.1558556 32.089812L2.5273288 31.873686L2.9826147 31.65776L3.5213769 31.442131L4.1432789 31.226896L4.8479844 31.012151L5.6351568 30.797993L6.5044597 30.584519L7.4555566 30.371825L8.4881112 30.160009L9.6017869 29.949167L10.796248 29.739395L13.426177 29.323451L14.636101 29.132151L15.652321 28.94881L16.368172 28.794238L16.580125 28.734238L16.676985 28.689238L16.968124 28.308934L17.505798 27.546453L18.968945 25.398673L20.362814 23.293335L20.813891 22.583904L20.983795 22.277872L20.890815 21.921229L20.637654 21.078127L19.805445 18.436691L18.627085 14.768597L20.397095 10.944247L22.167095 7.1198981L21.929945 6.3041151L21.807705 5.9115373L21.672958 5.5302911L21.52709 5.1622909L21.371457 4.8094705L21.207414 4.4737636L21.036319 4.1571039L20.859528 3.8614249L20.678398 3.5886605L20.494284 3.3407441L20.308544 3.1196096L20.122534 2.9271906L19.937609 2.7654208L19.755128 2.6362338L19.576445 2.5415638L19.402918 2.4833438L19.235903 2.4635068L19.049929 2.4557568L18.880105 2.4334218L18.727199 2.3978928L18.591979 2.3505568L18.475214 2.2928018L18.377674 2.2260148L18.300124 2.1515838L18.243334 2.0708958L18.208074 1.9853388L18.195104 1.8962998L18.205204 1.8051668L18.239134 1.7133278L18.297664 1.6221698L18.381564 1.5330808L18.491602 1.4474468L18.628545 1.3666568L18.812518 1.2871248L19.02213 1.2243828L19.25467 1.1780958L19.507427 1.1479298L19.777689 1.1335518L20.062747 1.1346218L20.666405 1.1817928L21.296712 1.286764L21.931981 1.4468616L22.550524 1.6594118L22.846747 1.784521L23.130655 1.9217406L23.493619 2.1298859L23.884829 2.3897704L24.286925 2.6867624L24.682547 3.0062305L25.054336 3.3335431L25.38493 3.6540689L25.65697 3.9531762L25.853095 4.2162336L26.05213 4.564314L26.238735 4.9567839L26.408562 5.3795677L26.557261 5.8185898L26.680486 6.2597746L26.773886 6.6890467L26.833116 7.0923304L26.853826 7.4555502L26.836466 7.8201962L26.789186 8.2916031L26.719206 8.8088839L26.633726 9.3111518L26.478335 10.166603L26.413805 10.608122L26.430965 10.644582L26.480085 10.692082L26.66043 10.812211L26.927295 10.95247L27.25314 11.096824L27.63029 11.261269L28.012698 11.448884L28.398565 11.65821L28.78609 11.887785L29.173476 12.136148L29.558923 12.40184L30.316801 12.979364L31.045333 13.60867L31.394096 13.939089L31.730124 14.278072L32.051619 14.624157L32.356781 14.975885L32.643811 15.331793L32.91091 15.690422L33.222948 16.150224L33.518806 16.631721L33.797944 17.133142L34.059819 17.652719L34.303888 18.188681L34.529609 18.739257L34.73644 19.302678L34.923839 19.877174L35.091263 20.460974L35.238171 21.052308L35.36402 21.649407L35.468267 22.2505L35.550367 22.853818L35.609787 23.457589L35.645977 24.060045L35.658397 24.659414L35.668507 25.034193L35.685147 25.156909L35.713297 25.244269L35.755787 25.302089L35.815447 25.336189L35.895117 25.352379L35.997629 25.356479L36.148825 25.370959L36.310029 25.410369L36.461956 25.468699L36.585319 25.539919L36.659799 25.606649L36.708259 25.692729L36.728179 25.818587L36.717029 26.004663L36.672289 26.271394L36.591449 26.639218L36.311338 27.759892L36.11464 28.56708L35.965574 29.259399L35.878674 29.763188L35.863074 29.921365L35.868474 30.004785L35.934634 30.097925L36.055644 30.197495L36.214286 30.291575L36.393342 30.368235L36.898449 30.559328L37.442927 30.793315L38.022381 31.06738L38.632416 31.378707L39.268637 31.72448L39.92665 32.101884L40.602059 32.508103L41.290469 32.94032L42.688715 33.87149L44.086227 34.872867L44.773721 35.392844L45.447846 35.921925L46.104208 36.457294L46.738412 36.996137L47.809184 37.895881L48.161647 38.169636L48.322842 38.270238L48.378552 38.224378L48.469792 38.093848L48.738569 37.621666L49.088576 36.939485L49.479216 36.133098L49.86989 35.288301L50.220001 34.490888L50.488951 33.826656L50.636143 33.381398L50.76116 32.958615L50.968228 32.369889L51.228576 31.693154L51.513433 31.006339L52.898603 27.777843L53.164536 27.192967L53.437736 26.665645L53.713419 26.202174L53.9868 25.808852L54.253095 25.491973L54.507519 25.257836L54.628784 25.173766L54.745286 25.112736L54.856429 25.075546L54.961613 25.062976L55.042943 25.080336L55.148036 25.130226L55.416454 25.31444L55.740743 25.589319L56.094783 25.928562L56.45245 26.305868L56.787623 26.694938L57.074178 27.06947L57.285994 27.403165L57.452019 27.741381L57.560764 28.039679L57.611304 28.294828L57.614504 28.405212L57.602754 28.503602L57.450534 29.236887L57.412664 29.33826L57.332854 29.489618L57.067136 29.912801L56.692806 30.447448L56.249288 31.034573L55.840217 31.594399L55.377643 32.289883L54.886632 33.077538L54.392247 33.913877L53.919553 34.755414L53.493616 35.558661L53.139499 36.280133L52.882268 36.876342L51.945643 39.262877L51.256792 40.918688L50.988588 41.510703L50.762294 41.965793L50.571233 42.299211L50.408728 42.526209L50.299404 42.715895L50.138604 43.069642L49.947972 43.536891L49.749148 44.067082L49.263727 45.3378L48.762878 46.538265L48.251038 47.6887L48.632068 48.537739L48.79798 48.926809L48.913784 49.251438L48.978834 49.522901L48.992464 49.752477L48.954034 49.951439L48.862884 50.131066L48.718359 50.302632L48.519809 50.477414L48.321543 50.662868L48.146353 50.876862L48.013229 51.092914L47.941159 51.284538L47.875489 51.481979L47.75985 51.713869L47.610549 51.951306L47.443888 52.165386L47.073587 52.608593L46.761718 53.017943L46.628895 53.178128L46.46703 53.329492L46.29659 53.454985L46.138038 53.537555L46.021416 53.592675L45.923816 53.659065L45.848276 53.730985L45.797836 53.802695L45.775536 53.868465L45.784436 53.922545L45.827506 53.959205L45.907816 53.972695L45.967536 53.998745L46.039026 54.069685L46.113316 54.174675L46.181446 54.30288L46.242546 54.483624L46.261916 54.66196L46.241026 54.834913L46.181346 54.999509L46.084336 55.152776L45.951472 55.291739L45.784216 55.413425L45.584036 55.51486L45.356585 55.632028L45.182408 55.772223L45.058996 55.938028L44.983836 56.132027L44.919436 56.324747L44.825716 56.51476L44.709131 56.694979L44.576142 56.85832L44.433206 56.997697L44.286783 57.106025L44.143331 57.176215L44.009309 57.201185L43.875251 57.230135L43.699968 57.308955L43.506188 57.42561L43.316639 57.56806L42.969156 57.827165L42.832667 57.905985L42.745977 57.934935L42.661427 57.959265L42.563397 58.028835L42.454502 58.138542L42.337349 58.283274L42.088699 58.65737L41.838317 59.110237L41.60707 59.600991L41.415825 60.088748L41.285451 60.532621L41.249611 60.725325L41.236811 60.891727L41.234811 61.427145L42.225381 61.516715L47.471681 61.977679L49.781057 62.195624L52.038549 62.439272L54.176561 62.698842L56.127497 62.964553L57.823762 63.226622L59.19776 63.475269L59.742785 63.591502L60.181895 63.700711L60.50664 63.801674L60.708571 63.893164L60.845171 64.012422L60.978397 64.187451L61.092988 64.394711L61.173678 64.610657L61.236098 64.917134L61.247758 65.213209L61.205478 65.506336L61.106078 65.803969L60.946378 66.113562L60.723198 66.442568L60.433358 66.798441L60.073679 67.188636L59.131689 68.164371L59.644109 68.882955L60.236992 69.733998L60.743747 70.506703L61.172665 71.21748L61.532036 71.882741L61.830153 72.5189L62.075304 73.142366L62.275783 73.769553L62.439879 74.416871L62.872409 76.35203L62.961249 76.816238L63.033949 77.320795L63.082999 77.80482L63.100909 78.207434L63.070319 78.639192L62.985959 79.211878L62.858437 79.880638L62.698361 80.600616L62.51634 81.326958L62.322983 82.014808L62.128898 82.619311L61.944696 83.095612L61.787739 83.465314L61.729239 83.666002L61.735839 83.716592L61.765729 83.741292L61.818499 83.745592L61.893709 83.734862L61.952979 83.709452L62.024609 83.655322L62.194006 83.474331L62.38001 83.21877L62.560735 82.915527L62.757866 82.573293L62.918506 82.351501L62.985546 82.286231L63.043946 82.251631L63.093876 82.247831L63.135486 82.275111L63.168946 82.333611L63.194416 82.423521L63.222026 82.698284L63.219626 83.100882L63.188486 83.632793L63.089666 84.575229L63.020876 85.024499L62.938856 85.459959L62.843376 85.882228L62.734195 86.291923L62.61108 86.68966L62.473797 87.076058L62.322114 87.451733L62.155795 87.817303L61.974606 88.173386L61.778315 88.520598L61.566685 88.859557L61.339484 89.19088L61.096477 89.515185L60.837431 89.833089L60.047281 90.764498L61.243751 91.227782L61.795378 91.422796L62.30937 91.568048L62.765107 91.658528L63.141971 91.689218L63.456032 91.705838L63.79237 91.752548L64.110668 91.822168L64.370611 91.907508L64.897471 92.127647L64.835571 93.423558L64.788321 94.005235L64.702891 94.536663L64.57638 95.024366L64.405875 95.474868L64.188468 95.894692L63.921249 96.290362L63.601307 96.668402L63.225734 97.035334L62.824139 97.372728L62.442179 97.635421L62.251787 97.740301L62.058174 97.828361L61.858629 97.900221L61.650443 97.956491L61.430905 97.997801L61.197306 98.024761L60.677084 98.038121L60.068097 98.001511L59.348664 97.919881L58.165032 97.759276L57.21279 97.612974L56.445096 97.467123L55.815108 97.307869L55.275984 97.121358L54.780881 96.893737L54.282959 96.611153L53.735374 96.259751L53.336144 96.006822L53.077343 95.880245L52.987993 95.860095L52.918623 95.866495L52.864183 95.897655L52.819633 95.951925L52.724503 96.148402L52.683643 96.32398L52.660173 96.40691L52.597663 96.513924L52.505673 96.631208L52.393788 96.744949L52.234725 96.918751L52.014238 97.199567L51.505568 97.927086L51.280746 98.250218L51.044488 98.547535L50.797974 98.818L50.542387 99.060575L50.278905 99.274223L50.008709 99.457906L49.73298 99.610585L49.452898 99.731224L49.193242 99.800704L48.832785 99.861014L48.40399 99.910164L47.939321 99.946184L47.47124 99.967084L47.03221 99.970884L46.654695 99.955604L46.371158 99.919264L46.371618 99.919273"
       id="path7940"
       inkscape:connector-curvature="0" />
  </g>
  <g
     inkscape:label="Margin-disabled"
     inkscape:groupmode="layer"
     id="g7428" />
  <g
     inkscape:label="B.CrtYd-disabled"
     inkscape:groupmode="layer"
     id="g7430" />
  <g
     inkscape:label="F.CrtYd-disabled"
     inkscape:groupmode="layer"
     id="g7432" />
  <g
     inkscape:label="B.Fab-disabled"
     inkscape:groupmode="layer"
     id="g7434" />
  <g
     inkscape:label="F.Fab-disabled"
     inkscape:groupmode="layer"
     id="g7436" />
  <g
     inkscape:label="Drill"
     inkscape:groupmode="layer"
     id="g7438" />
</svg>
