M48
; DRILL file {KiCad (5.1.6)-1} date 11/22/20 17:26:48
; FORMAT={-:-/ absolute / metric / decimal}
; #@! TF.CreationDate,2020-11-22T17:26:48+01:00
; #@! TF.GenerationSoftware,Kicad,Pcbnew,(5.1.6)-1
; #@! TF.FileFunction,Plated,1,2,PTH
FMAT,2
METRIC
T1C0.400
T2C0.800
T3C0.900
T4C1.000
%
G90
G05
T1
X29.718Y-53.594
X37.084Y-33.274
X38.354Y-28.448
X42.418Y-49.53
X43.942Y-51.562
X60.96Y-34.798
X61.722Y-32.258
X76.2Y-62.484
X90.17Y-46.99
X90.17Y-51.054
X98.933Y-62.611
X100.076Y-32.512
X100.076Y-35.306
X100.076Y-57.912
X100.33Y-55.626
X101.709Y-46.373
X101.854Y-51.562
X101.981Y-62.611
X104.013Y-42.545
X107.297Y-46.373
X107.696Y-42.672
X110.744Y-62.484
X112.141Y-45.339
X112.522Y-41.656
X113.538Y-50.546
X113.792Y-47.244
X115.062Y-45.212
X119.126Y-55.626
X120.142Y-42.926
X120.65Y-34.798
X120.65Y-41.91
X122.391Y-41.947
X124.587Y-57.277
X124.968Y-59.944
X124.968Y-59.944
X124.968Y-63.246
X130.048Y-41.91
X132.405Y-34.727
X135.128Y-62.484
X136.398Y-48.514
X136.398Y-57.658
X136.779Y-55.499
X137.414Y-62.738
X137.414Y-65.532
X138.684Y-63.246
X140.208Y-65.786
X144.272Y-29.718
T2
X39.37Y-39.37
X46.99Y-39.37
X126.238Y-39.37
X133.858Y-39.37
X85.598Y-44.958
X85.598Y-47.498
X85.598Y-50.038
X85.598Y-52.578
X85.598Y-55.118
X85.598Y-57.658
X85.598Y-60.198
X93.218Y-44.958
X93.218Y-47.498
X93.218Y-50.038
X93.218Y-52.578
X93.218Y-55.118
X93.218Y-57.658
X93.218Y-60.198
X102.362Y-39.37
X109.982Y-39.37
X26.213Y-45.059
X26.213Y-47.599
X26.213Y-50.139
X26.213Y-52.679
X26.213Y-55.219
X26.213Y-57.759
X26.213Y-60.299
X33.833Y-45.059
X33.833Y-47.599
X33.833Y-50.139
X33.833Y-52.679
X33.833Y-55.219
X33.833Y-57.759
X33.833Y-60.299
X121.412Y-44.958
X121.412Y-47.498
X121.412Y-50.038
X121.412Y-52.578
X121.412Y-55.118
X121.412Y-57.658
X121.412Y-60.198
X129.032Y-44.958
X129.032Y-47.498
X129.032Y-50.038
X129.032Y-52.578
X129.032Y-55.118
X129.032Y-57.658
X129.032Y-60.198
X109.474Y-44.958
X109.474Y-47.498
X109.474Y-50.038
X109.474Y-52.578
X109.474Y-55.118
X109.474Y-57.658
X109.474Y-60.198
X117.094Y-44.958
X117.094Y-47.498
X117.094Y-50.038
X117.094Y-52.578
X117.094Y-55.118
X117.094Y-57.658
X117.094Y-60.198
X51.562Y-39.37
X59.182Y-39.37
X50.038Y-44.958
X50.038Y-47.498
X50.038Y-50.038
X50.038Y-52.578
X50.038Y-55.118
X50.038Y-57.658
X50.038Y-60.198
X57.658Y-44.958
X57.658Y-47.498
X57.658Y-50.038
X57.658Y-52.578
X57.658Y-55.118
X57.658Y-57.658
X57.658Y-60.198
X114.3Y-39.37
X121.92Y-39.37
X133.35Y-44.958
X133.35Y-47.498
X133.35Y-50.038
X133.35Y-52.578
X133.35Y-55.118
X133.35Y-57.658
X133.35Y-60.198
X140.97Y-44.958
X140.97Y-47.498
X140.97Y-50.038
X140.97Y-52.578
X140.97Y-55.118
X140.97Y-57.658
X140.97Y-60.198
X73.914Y-44.958
X73.914Y-47.498
X73.914Y-50.038
X73.914Y-52.578
X73.914Y-55.118
X73.914Y-57.658
X73.914Y-60.198
X81.534Y-44.958
X81.534Y-47.498
X81.534Y-50.038
X81.534Y-52.578
X81.534Y-55.118
X81.534Y-57.658
X81.534Y-60.198
X90.17Y-39.116
X97.79Y-39.116
X61.976Y-44.958
X61.976Y-47.498
X61.976Y-50.038
X61.976Y-52.578
X61.976Y-55.118
X61.976Y-57.658
X61.976Y-60.198
X69.596Y-44.958
X69.596Y-47.498
X69.596Y-50.038
X69.596Y-52.578
X69.596Y-55.118
X69.596Y-57.658
X69.596Y-60.198
X97.536Y-44.958
X97.536Y-47.498
X97.536Y-50.038
X97.536Y-52.578
X97.536Y-55.118
X97.536Y-57.658
X97.536Y-60.198
X105.156Y-44.958
X105.156Y-47.498
X105.156Y-50.038
X105.156Y-52.578
X105.156Y-55.118
X105.156Y-57.658
X105.156Y-60.198
X38.1Y-45.009
X38.1Y-47.549
X38.1Y-50.089
X38.1Y-52.629
X38.1Y-55.169
X38.1Y-57.709
X38.1Y-60.249
X45.72Y-45.009
X45.72Y-47.549
X45.72Y-50.089
X45.72Y-52.629
X45.72Y-55.169
X45.72Y-57.709
X45.72Y-60.249
X65.024Y-39.37
X72.644Y-39.37
X76.708Y-39.37
X84.328Y-39.37
T3
X118.11Y-30.988
X118.11Y-33.528
X44.196Y-30.988
X44.196Y-33.528
X81.026Y-30.988
X81.026Y-33.528
X56.388Y-30.988
X56.388Y-33.528
X130.048Y-30.988
X130.048Y-33.528
X106.172Y-30.988
X106.172Y-33.528
X93.98Y-30.988
X93.98Y-33.528
X69.088Y-30.988
X69.088Y-33.528
T4
X36.068Y-25.908
X71.374Y-25.654
X32.512Y-29.972
X79.248Y-25.654
X94.742Y-25.654
X118.618Y-25.654
X45.72Y-25.908
X131.572Y-25.654
X99.06Y-25.654
X54.102Y-25.908
X83.312Y-25.654
X90.678Y-25.654
X114.554Y-25.654
X127.254Y-25.654
X67.564Y-25.654
X75.184Y-25.654
X32.512Y-25.908
X36.068Y-29.972
X50.038Y-25.908
X41.656Y-25.908
X103.378Y-25.654
X107.442Y-25.654
X122.936Y-25.654
X58.166Y-25.908
T0
M30
