%TF.GenerationSoftware,KiCad,Pcbnew,(5.1.6)-1*%
%TF.CreationDate,2020-11-22T17:26:52+01:00*%
%TF.ProjectId,Addierer,41646469-6572-4657-922e-6b696361645f,rev?*%
%TF.SameCoordinates,Original*%
%TF.FileFunction,Legend,Top*%
%TF.FilePolarity,Positive*%
%FSLAX46Y46*%
G04 Gerber Fmt 4.6, Leading zero omitted, Abs format (unit mm)*
G04 Created by KiCad (PCBNEW (5.1.6)-1) date 2020-11-22 17:26:52*
%MOMM*%
%LPD*%
G01*
G04 APERTURE LIST*
%ADD10C,0.150000*%
%ADD11C,0.120000*%
G04 APERTURE END LIST*
D10*
X32893142Y-32524000D02*
X32750285Y-32452571D01*
X32536000Y-32452571D01*
X32321714Y-32524000D01*
X32178857Y-32666857D01*
X32107428Y-32809714D01*
X32036000Y-33095428D01*
X32036000Y-33309714D01*
X32107428Y-33595428D01*
X32178857Y-33738285D01*
X32321714Y-33881142D01*
X32536000Y-33952571D01*
X32678857Y-33952571D01*
X32893142Y-33881142D01*
X32964571Y-33809714D01*
X32964571Y-33309714D01*
X32678857Y-33309714D01*
X33607428Y-33952571D02*
X33607428Y-32452571D01*
X34464571Y-33952571D01*
X34464571Y-32452571D01*
X35178857Y-33952571D02*
X35178857Y-32452571D01*
X35536000Y-32452571D01*
X35750285Y-32524000D01*
X35893142Y-32666857D01*
X35964571Y-32809714D01*
X36036000Y-33095428D01*
X36036000Y-33309714D01*
X35964571Y-33595428D01*
X35893142Y-33738285D01*
X35750285Y-33881142D01*
X35536000Y-33952571D01*
X35178857Y-33952571D01*
X129270190Y-37480761D02*
X129270190Y-35480761D01*
X130413047Y-37480761D02*
X129555904Y-36337904D01*
X130413047Y-35480761D02*
X129270190Y-36623619D01*
X117840190Y-37480761D02*
X117840190Y-35480761D01*
X118983047Y-37480761D02*
X118125904Y-36337904D01*
X118983047Y-35480761D02*
X117840190Y-36623619D01*
X105648190Y-37480761D02*
X105648190Y-35480761D01*
X106791047Y-37480761D02*
X105933904Y-36337904D01*
X106791047Y-35480761D02*
X105648190Y-36623619D01*
X93456190Y-37480761D02*
X93456190Y-35480761D01*
X94599047Y-37480761D02*
X93741904Y-36337904D01*
X94599047Y-35480761D02*
X93456190Y-36623619D01*
X127706666Y-27646380D02*
X127706666Y-28455904D01*
X127754285Y-28551142D01*
X127801904Y-28598761D01*
X127897142Y-28646380D01*
X128087619Y-28646380D01*
X128182857Y-28598761D01*
X128230476Y-28551142D01*
X128278095Y-28455904D01*
X128278095Y-27646380D01*
X127801904Y-27313047D02*
X127849523Y-27360666D01*
X127801904Y-27408285D01*
X127754285Y-27360666D01*
X127801904Y-27313047D01*
X127801904Y-27408285D01*
X128182857Y-27313047D02*
X128230476Y-27360666D01*
X128182857Y-27408285D01*
X128135238Y-27360666D01*
X128182857Y-27313047D01*
X128182857Y-27408285D01*
X128754285Y-27979714D02*
X128754285Y-28646380D01*
X128754285Y-28074952D02*
X128801904Y-28027333D01*
X128897142Y-27979714D01*
X129040000Y-27979714D01*
X129135238Y-28027333D01*
X129182857Y-28122571D01*
X129182857Y-28646380D01*
X129659047Y-28265428D02*
X130420952Y-28265428D01*
X130040000Y-28646380D02*
X130040000Y-27884476D01*
X131325714Y-27979714D02*
X131325714Y-28646380D01*
X131087619Y-27598761D02*
X130849523Y-28313047D01*
X131468571Y-28313047D01*
X117348095Y-28852761D02*
X117490952Y-28900380D01*
X117729047Y-28900380D01*
X117824285Y-28852761D01*
X117871904Y-28805142D01*
X117919523Y-28709904D01*
X117919523Y-28614666D01*
X117871904Y-28519428D01*
X117824285Y-28471809D01*
X117729047Y-28424190D01*
X117538571Y-28376571D01*
X117443333Y-28328952D01*
X117395714Y-28281333D01*
X117348095Y-28186095D01*
X117348095Y-28090857D01*
X117395714Y-27995619D01*
X117443333Y-27948000D01*
X117538571Y-27900380D01*
X117776666Y-27900380D01*
X117919523Y-27948000D01*
X118776666Y-28233714D02*
X118776666Y-28900380D01*
X118538571Y-27852761D02*
X118300476Y-28567047D01*
X118919523Y-28567047D01*
X93472095Y-28852761D02*
X93614952Y-28900380D01*
X93853047Y-28900380D01*
X93948285Y-28852761D01*
X93995904Y-28805142D01*
X94043523Y-28709904D01*
X94043523Y-28614666D01*
X93995904Y-28519428D01*
X93948285Y-28471809D01*
X93853047Y-28424190D01*
X93662571Y-28376571D01*
X93567333Y-28328952D01*
X93519714Y-28281333D01*
X93472095Y-28186095D01*
X93472095Y-28090857D01*
X93519714Y-27995619D01*
X93567333Y-27948000D01*
X93662571Y-27900380D01*
X93900666Y-27900380D01*
X94043523Y-27948000D01*
X94376857Y-27900380D02*
X94995904Y-27900380D01*
X94662571Y-28281333D01*
X94805428Y-28281333D01*
X94900666Y-28328952D01*
X94948285Y-28376571D01*
X94995904Y-28471809D01*
X94995904Y-28709904D01*
X94948285Y-28805142D01*
X94900666Y-28852761D01*
X94805428Y-28900380D01*
X94519714Y-28900380D01*
X94424476Y-28852761D01*
X94376857Y-28805142D01*
X68326095Y-28852761D02*
X68468952Y-28900380D01*
X68707047Y-28900380D01*
X68802285Y-28852761D01*
X68849904Y-28805142D01*
X68897523Y-28709904D01*
X68897523Y-28614666D01*
X68849904Y-28519428D01*
X68802285Y-28471809D01*
X68707047Y-28424190D01*
X68516571Y-28376571D01*
X68421333Y-28328952D01*
X68373714Y-28281333D01*
X68326095Y-28186095D01*
X68326095Y-28090857D01*
X68373714Y-27995619D01*
X68421333Y-27948000D01*
X68516571Y-27900380D01*
X68754666Y-27900380D01*
X68897523Y-27948000D01*
X69278476Y-27995619D02*
X69326095Y-27948000D01*
X69421333Y-27900380D01*
X69659428Y-27900380D01*
X69754666Y-27948000D01*
X69802285Y-27995619D01*
X69849904Y-28090857D01*
X69849904Y-28186095D01*
X69802285Y-28328952D01*
X69230857Y-28900380D01*
X69849904Y-28900380D01*
X43434095Y-28852761D02*
X43576952Y-28900380D01*
X43815047Y-28900380D01*
X43910285Y-28852761D01*
X43957904Y-28805142D01*
X44005523Y-28709904D01*
X44005523Y-28614666D01*
X43957904Y-28519428D01*
X43910285Y-28471809D01*
X43815047Y-28424190D01*
X43624571Y-28376571D01*
X43529333Y-28328952D01*
X43481714Y-28281333D01*
X43434095Y-28186095D01*
X43434095Y-28090857D01*
X43481714Y-27995619D01*
X43529333Y-27948000D01*
X43624571Y-27900380D01*
X43862666Y-27900380D01*
X44005523Y-27948000D01*
X44957904Y-28900380D02*
X44386476Y-28900380D01*
X44672190Y-28900380D02*
X44672190Y-27900380D01*
X44576952Y-28043238D01*
X44481714Y-28138476D01*
X44386476Y-28186095D01*
X80756190Y-37480761D02*
X80756190Y-35480761D01*
X81899047Y-37480761D02*
X81041904Y-36337904D01*
X81899047Y-35480761D02*
X80756190Y-36623619D01*
X68564190Y-37480761D02*
X68564190Y-35480761D01*
X69707047Y-37480761D02*
X68849904Y-36337904D01*
X69707047Y-35480761D02*
X68564190Y-36623619D01*
X32250285Y-22292571D02*
X32750285Y-23792571D01*
X33250285Y-22292571D01*
X34393142Y-23721142D02*
X34250285Y-23792571D01*
X33964571Y-23792571D01*
X33821714Y-23721142D01*
X33750285Y-23649714D01*
X33678857Y-23506857D01*
X33678857Y-23078285D01*
X33750285Y-22935428D01*
X33821714Y-22864000D01*
X33964571Y-22792571D01*
X34250285Y-22792571D01*
X34393142Y-22864000D01*
X35678857Y-23721142D02*
X35536000Y-23792571D01*
X35250285Y-23792571D01*
X35107428Y-23721142D01*
X35036000Y-23649714D01*
X34964571Y-23506857D01*
X34964571Y-23078285D01*
X35036000Y-22935428D01*
X35107428Y-22864000D01*
X35250285Y-22792571D01*
X35536000Y-22792571D01*
X35678857Y-22864000D01*
X43672190Y-37480761D02*
X43672190Y-35480761D01*
X44815047Y-37480761D02*
X43957904Y-36337904D01*
X44815047Y-35480761D02*
X43672190Y-36623619D01*
X55864190Y-37480761D02*
X55864190Y-35480761D01*
X57007047Y-37480761D02*
X56149904Y-36337904D01*
X57007047Y-35480761D02*
X55864190Y-36623619D01*
D11*
%TO.C,U9*%
X124222000Y-43628000D02*
X122572000Y-43628000D01*
X122572000Y-43628000D02*
X122572000Y-61528000D01*
X122572000Y-61528000D02*
X127872000Y-61528000D01*
X127872000Y-61528000D02*
X127872000Y-43628000D01*
X127872000Y-43628000D02*
X126222000Y-43628000D01*
X120082000Y-43568000D02*
X120082000Y-61588000D01*
X120082000Y-61588000D02*
X130362000Y-61588000D01*
X130362000Y-61588000D02*
X130362000Y-43568000D01*
X130362000Y-43568000D02*
X120082000Y-43568000D01*
X126222000Y-43628000D02*
G75*
G02*
X124222000Y-43628000I-1000000J0D01*
G01*
%TO.C,D1*%
X42651000Y-34818000D02*
X45741000Y-34818000D01*
X46696000Y-32258000D02*
G75*
G03*
X46696000Y-32258000I-2500000J0D01*
G01*
X44196462Y-29268000D02*
G75*
G03*
X42651170Y-34818000I-462J-2990000D01*
G01*
X44195538Y-29268000D02*
G75*
G02*
X45740830Y-34818000I462J-2990000D01*
G01*
%TO.C,D2*%
X58888000Y-32258000D02*
G75*
G03*
X58888000Y-32258000I-2500000J0D01*
G01*
X54843000Y-34818000D02*
X57933000Y-34818000D01*
X56387538Y-29268000D02*
G75*
G02*
X57932830Y-34818000I462J-2990000D01*
G01*
X56388462Y-29268000D02*
G75*
G03*
X54843170Y-34818000I-462J-2990000D01*
G01*
%TO.C,R1*%
X39910000Y-38000000D02*
X39910000Y-38330000D01*
X46450000Y-38000000D02*
X39910000Y-38000000D01*
X46450000Y-38330000D02*
X46450000Y-38000000D01*
X39910000Y-40740000D02*
X39910000Y-40410000D01*
X46450000Y-40740000D02*
X39910000Y-40740000D01*
X46450000Y-40410000D02*
X46450000Y-40740000D01*
%TO.C,R2*%
X58642000Y-40410000D02*
X58642000Y-40740000D01*
X58642000Y-40740000D02*
X52102000Y-40740000D01*
X52102000Y-40740000D02*
X52102000Y-40410000D01*
X58642000Y-38330000D02*
X58642000Y-38000000D01*
X58642000Y-38000000D02*
X52102000Y-38000000D01*
X52102000Y-38000000D02*
X52102000Y-38330000D01*
%TO.C,U1*%
X35163001Y-43669001D02*
X24883001Y-43669001D01*
X35163001Y-61689001D02*
X35163001Y-43669001D01*
X24883001Y-61689001D02*
X35163001Y-61689001D01*
X24883001Y-43669001D02*
X24883001Y-61689001D01*
X32673001Y-43729001D02*
X31023001Y-43729001D01*
X32673001Y-61629001D02*
X32673001Y-43729001D01*
X27373001Y-61629001D02*
X32673001Y-61629001D01*
X27373001Y-43729001D02*
X27373001Y-61629001D01*
X29023001Y-43729001D02*
X27373001Y-43729001D01*
X31023001Y-43729001D02*
G75*
G02*
X29023001Y-43729001I-1000000J0D01*
G01*
%TO.C,U2*%
X47050000Y-43619001D02*
X36770000Y-43619001D01*
X47050000Y-61639001D02*
X47050000Y-43619001D01*
X36770000Y-61639001D02*
X47050000Y-61639001D01*
X36770000Y-43619001D02*
X36770000Y-61639001D01*
X44560000Y-43679001D02*
X42910000Y-43679001D01*
X44560000Y-61579001D02*
X44560000Y-43679001D01*
X39260000Y-61579001D02*
X44560000Y-61579001D01*
X39260000Y-43679001D02*
X39260000Y-61579001D01*
X40910000Y-43679001D02*
X39260000Y-43679001D01*
X42910000Y-43679001D02*
G75*
G02*
X40910000Y-43679001I-1000000J0D01*
G01*
%TO.C,D3*%
X71588000Y-32258000D02*
G75*
G03*
X71588000Y-32258000I-2500000J0D01*
G01*
X67543000Y-34818000D02*
X70633000Y-34818000D01*
X69087538Y-29268000D02*
G75*
G02*
X70632830Y-34818000I462J-2990000D01*
G01*
X69088462Y-29268000D02*
G75*
G03*
X67543170Y-34818000I-462J-2990000D01*
G01*
%TO.C,D4*%
X79481000Y-34818000D02*
X82571000Y-34818000D01*
X83526000Y-32258000D02*
G75*
G03*
X83526000Y-32258000I-2500000J0D01*
G01*
X81026462Y-29268000D02*
G75*
G03*
X79481170Y-34818000I-462J-2990000D01*
G01*
X81025538Y-29268000D02*
G75*
G02*
X82570830Y-34818000I462J-2990000D01*
G01*
%TO.C,R3*%
X65564000Y-38000000D02*
X65564000Y-38330000D01*
X72104000Y-38000000D02*
X65564000Y-38000000D01*
X72104000Y-38330000D02*
X72104000Y-38000000D01*
X65564000Y-40740000D02*
X65564000Y-40410000D01*
X72104000Y-40740000D02*
X65564000Y-40740000D01*
X72104000Y-40410000D02*
X72104000Y-40740000D01*
%TO.C,R4*%
X77248000Y-38330000D02*
X77248000Y-38000000D01*
X77248000Y-38000000D02*
X83788000Y-38000000D01*
X83788000Y-38000000D02*
X83788000Y-38330000D01*
X77248000Y-40410000D02*
X77248000Y-40740000D01*
X77248000Y-40740000D02*
X83788000Y-40740000D01*
X83788000Y-40740000D02*
X83788000Y-40410000D01*
%TO.C,U4*%
X70926000Y-43568000D02*
X60646000Y-43568000D01*
X70926000Y-61588000D02*
X70926000Y-43568000D01*
X60646000Y-61588000D02*
X70926000Y-61588000D01*
X60646000Y-43568000D02*
X60646000Y-61588000D01*
X68436000Y-43628000D02*
X66786000Y-43628000D01*
X68436000Y-61528000D02*
X68436000Y-43628000D01*
X63136000Y-61528000D02*
X68436000Y-61528000D01*
X63136000Y-43628000D02*
X63136000Y-61528000D01*
X64786000Y-43628000D02*
X63136000Y-43628000D01*
X66786000Y-43628000D02*
G75*
G02*
X64786000Y-43628000I-1000000J0D01*
G01*
%TO.C,U5*%
X76724000Y-43628000D02*
X75074000Y-43628000D01*
X75074000Y-43628000D02*
X75074000Y-61528000D01*
X75074000Y-61528000D02*
X80374000Y-61528000D01*
X80374000Y-61528000D02*
X80374000Y-43628000D01*
X80374000Y-43628000D02*
X78724000Y-43628000D01*
X72584000Y-43568000D02*
X72584000Y-61588000D01*
X72584000Y-61588000D02*
X82864000Y-61588000D01*
X82864000Y-61588000D02*
X82864000Y-43568000D01*
X82864000Y-43568000D02*
X72584000Y-43568000D01*
X78724000Y-43628000D02*
G75*
G02*
X76724000Y-43628000I-1000000J0D01*
G01*
%TO.C,D5*%
X92435000Y-34818000D02*
X95525000Y-34818000D01*
X96480000Y-32258000D02*
G75*
G03*
X96480000Y-32258000I-2500000J0D01*
G01*
X93980462Y-29268000D02*
G75*
G03*
X92435170Y-34818000I-462J-2990000D01*
G01*
X93979538Y-29268000D02*
G75*
G02*
X95524830Y-34818000I462J-2990000D01*
G01*
%TO.C,D6*%
X104627000Y-34818000D02*
X107717000Y-34818000D01*
X108672000Y-32258000D02*
G75*
G03*
X108672000Y-32258000I-2500000J0D01*
G01*
X106172462Y-29268000D02*
G75*
G03*
X104627170Y-34818000I-462J-2990000D01*
G01*
X106171538Y-29268000D02*
G75*
G02*
X107716830Y-34818000I462J-2990000D01*
G01*
%TO.C,D7*%
X120610000Y-32258000D02*
G75*
G03*
X120610000Y-32258000I-2500000J0D01*
G01*
X116565000Y-34818000D02*
X119655000Y-34818000D01*
X118109538Y-29268000D02*
G75*
G02*
X119654830Y-34818000I462J-2990000D01*
G01*
X118110462Y-29268000D02*
G75*
G03*
X116565170Y-34818000I-462J-2990000D01*
G01*
%TO.C,D8*%
X132548000Y-32258000D02*
G75*
G03*
X132548000Y-32258000I-2500000J0D01*
G01*
X128503000Y-34818000D02*
X131593000Y-34818000D01*
X130047538Y-29268000D02*
G75*
G02*
X131592830Y-34818000I462J-2990000D01*
G01*
X130048462Y-29268000D02*
G75*
G03*
X128503170Y-34818000I-462J-2990000D01*
G01*
%TO.C,R5*%
X97250000Y-40156000D02*
X97250000Y-40486000D01*
X97250000Y-40486000D02*
X90710000Y-40486000D01*
X90710000Y-40486000D02*
X90710000Y-40156000D01*
X97250000Y-38076000D02*
X97250000Y-37746000D01*
X97250000Y-37746000D02*
X90710000Y-37746000D01*
X90710000Y-37746000D02*
X90710000Y-38076000D01*
%TO.C,R6*%
X102902000Y-38000000D02*
X102902000Y-38330000D01*
X109442000Y-38000000D02*
X102902000Y-38000000D01*
X109442000Y-38330000D02*
X109442000Y-38000000D01*
X102902000Y-40740000D02*
X102902000Y-40410000D01*
X109442000Y-40740000D02*
X102902000Y-40740000D01*
X109442000Y-40410000D02*
X109442000Y-40740000D01*
%TO.C,R7*%
X121380000Y-40410000D02*
X121380000Y-40740000D01*
X121380000Y-40740000D02*
X114840000Y-40740000D01*
X114840000Y-40740000D02*
X114840000Y-40410000D01*
X121380000Y-38330000D02*
X121380000Y-38000000D01*
X121380000Y-38000000D02*
X114840000Y-38000000D01*
X114840000Y-38000000D02*
X114840000Y-38330000D01*
%TO.C,R8*%
X126778000Y-38000000D02*
X126778000Y-38330000D01*
X133318000Y-38000000D02*
X126778000Y-38000000D01*
X133318000Y-38330000D02*
X133318000Y-38000000D01*
X126778000Y-40740000D02*
X126778000Y-40410000D01*
X133318000Y-40740000D02*
X126778000Y-40740000D01*
X133318000Y-40410000D02*
X133318000Y-40740000D01*
%TO.C,U6*%
X94548000Y-43568000D02*
X84268000Y-43568000D01*
X94548000Y-61588000D02*
X94548000Y-43568000D01*
X84268000Y-61588000D02*
X94548000Y-61588000D01*
X84268000Y-43568000D02*
X84268000Y-61588000D01*
X92058000Y-43628000D02*
X90408000Y-43628000D01*
X92058000Y-61528000D02*
X92058000Y-43628000D01*
X86758000Y-61528000D02*
X92058000Y-61528000D01*
X86758000Y-43628000D02*
X86758000Y-61528000D01*
X88408000Y-43628000D02*
X86758000Y-43628000D01*
X90408000Y-43628000D02*
G75*
G02*
X88408000Y-43628000I-1000000J0D01*
G01*
%TO.C,U7*%
X100346000Y-43628000D02*
X98696000Y-43628000D01*
X98696000Y-43628000D02*
X98696000Y-61528000D01*
X98696000Y-61528000D02*
X103996000Y-61528000D01*
X103996000Y-61528000D02*
X103996000Y-43628000D01*
X103996000Y-43628000D02*
X102346000Y-43628000D01*
X96206000Y-43568000D02*
X96206000Y-61588000D01*
X96206000Y-61588000D02*
X106486000Y-61588000D01*
X106486000Y-61588000D02*
X106486000Y-43568000D01*
X106486000Y-43568000D02*
X96206000Y-43568000D01*
X102346000Y-43628000D02*
G75*
G02*
X100346000Y-43628000I-1000000J0D01*
G01*
%TO.C,U8*%
X142300000Y-43568000D02*
X132020000Y-43568000D01*
X142300000Y-61588000D02*
X142300000Y-43568000D01*
X132020000Y-61588000D02*
X142300000Y-61588000D01*
X132020000Y-43568000D02*
X132020000Y-61588000D01*
X139810000Y-43628000D02*
X138160000Y-43628000D01*
X139810000Y-61528000D02*
X139810000Y-43628000D01*
X134510000Y-61528000D02*
X139810000Y-61528000D01*
X134510000Y-43628000D02*
X134510000Y-61528000D01*
X136160000Y-43628000D02*
X134510000Y-43628000D01*
X138160000Y-43628000D02*
G75*
G02*
X136160000Y-43628000I-1000000J0D01*
G01*
%TO.C,U10*%
X118424000Y-43568000D02*
X108144000Y-43568000D01*
X118424000Y-61588000D02*
X118424000Y-43568000D01*
X108144000Y-61588000D02*
X118424000Y-61588000D01*
X108144000Y-43568000D02*
X108144000Y-61588000D01*
X115934000Y-43628000D02*
X114284000Y-43628000D01*
X115934000Y-61528000D02*
X115934000Y-43628000D01*
X110634000Y-61528000D02*
X115934000Y-61528000D01*
X110634000Y-43628000D02*
X110634000Y-61528000D01*
X112284000Y-43628000D02*
X110634000Y-43628000D01*
X114284000Y-43628000D02*
G75*
G02*
X112284000Y-43628000I-1000000J0D01*
G01*
%TO.C,U3*%
X52848000Y-43628000D02*
X51198000Y-43628000D01*
X51198000Y-43628000D02*
X51198000Y-61528000D01*
X51198000Y-61528000D02*
X56498000Y-61528000D01*
X56498000Y-61528000D02*
X56498000Y-43628000D01*
X56498000Y-43628000D02*
X54848000Y-43628000D01*
X48708000Y-43568000D02*
X48708000Y-61588000D01*
X48708000Y-61588000D02*
X58988000Y-61588000D01*
X58988000Y-61588000D02*
X58988000Y-43568000D01*
X58988000Y-43568000D02*
X48708000Y-43568000D01*
X54848000Y-43628000D02*
G75*
G02*
X52848000Y-43628000I-1000000J0D01*
G01*
%TO.C,U9*%
D10*
X124714095Y-62698380D02*
X124714095Y-63507904D01*
X124761714Y-63603142D01*
X124809333Y-63650761D01*
X124904571Y-63698380D01*
X125095047Y-63698380D01*
X125190285Y-63650761D01*
X125237904Y-63603142D01*
X125285523Y-63507904D01*
X125285523Y-62698380D01*
X125809333Y-63698380D02*
X125999809Y-63698380D01*
X126095047Y-63650761D01*
X126142666Y-63603142D01*
X126237904Y-63460285D01*
X126285523Y-63269809D01*
X126285523Y-62888857D01*
X126237904Y-62793619D01*
X126190285Y-62746000D01*
X126095047Y-62698380D01*
X125904571Y-62698380D01*
X125809333Y-62746000D01*
X125761714Y-62793619D01*
X125714095Y-62888857D01*
X125714095Y-63126952D01*
X125761714Y-63222190D01*
X125809333Y-63269809D01*
X125904571Y-63317428D01*
X126095047Y-63317428D01*
X126190285Y-63269809D01*
X126237904Y-63222190D01*
X126285523Y-63126952D01*
%TO.C,*%
X73152095Y-60094761D02*
X73294952Y-60142380D01*
X73533047Y-60142380D01*
X73628285Y-60094761D01*
X73675904Y-60047142D01*
X73723523Y-59951904D01*
X73723523Y-59856666D01*
X73675904Y-59761428D01*
X73628285Y-59713809D01*
X73533047Y-59666190D01*
X73342571Y-59618571D01*
X73247333Y-59570952D01*
X73199714Y-59523333D01*
X73152095Y-59428095D01*
X73152095Y-59332857D01*
X73199714Y-59237619D01*
X73247333Y-59190000D01*
X73342571Y-59142380D01*
X73580666Y-59142380D01*
X73723523Y-59190000D01*
X74675904Y-60142380D02*
X74104476Y-60142380D01*
X74390190Y-60142380D02*
X74390190Y-59142380D01*
X74294952Y-59285238D01*
X74199714Y-59380476D01*
X74104476Y-59428095D01*
X78994095Y-52728761D02*
X79136952Y-52776380D01*
X79375047Y-52776380D01*
X79470285Y-52728761D01*
X79517904Y-52681142D01*
X79565523Y-52585904D01*
X79565523Y-52490666D01*
X79517904Y-52395428D01*
X79470285Y-52347809D01*
X79375047Y-52300190D01*
X79184571Y-52252571D01*
X79089333Y-52204952D01*
X79041714Y-52157333D01*
X78994095Y-52062095D01*
X78994095Y-51966857D01*
X79041714Y-51871619D01*
X79089333Y-51824000D01*
X79184571Y-51776380D01*
X79422666Y-51776380D01*
X79565523Y-51824000D01*
X80517904Y-52776380D02*
X79946476Y-52776380D01*
X80232190Y-52776380D02*
X80232190Y-51776380D01*
X80136952Y-51919238D01*
X80041714Y-52014476D01*
X79946476Y-52062095D01*
%TO.C,a1*%
X45712095Y-23820380D02*
X45712095Y-23296571D01*
X45664476Y-23201333D01*
X45569238Y-23153714D01*
X45378761Y-23153714D01*
X45283523Y-23201333D01*
X45712095Y-23772761D02*
X45616857Y-23820380D01*
X45378761Y-23820380D01*
X45283523Y-23772761D01*
X45235904Y-23677523D01*
X45235904Y-23582285D01*
X45283523Y-23487047D01*
X45378761Y-23439428D01*
X45616857Y-23439428D01*
X45712095Y-23391809D01*
X46712095Y-23820380D02*
X46140666Y-23820380D01*
X46426380Y-23820380D02*
X46426380Y-22820380D01*
X46331142Y-22963238D01*
X46235904Y-23058476D01*
X46140666Y-23106095D01*
%TO.C,b1*%
X49601523Y-23820380D02*
X49601523Y-22820380D01*
X49601523Y-23201333D02*
X49696761Y-23153714D01*
X49887238Y-23153714D01*
X49982476Y-23201333D01*
X50030095Y-23248952D01*
X50077714Y-23344190D01*
X50077714Y-23629904D01*
X50030095Y-23725142D01*
X49982476Y-23772761D01*
X49887238Y-23820380D01*
X49696761Y-23820380D01*
X49601523Y-23772761D01*
X51030095Y-23820380D02*
X50458666Y-23820380D01*
X50744380Y-23820380D02*
X50744380Y-22820380D01*
X50649142Y-22963238D01*
X50553904Y-23058476D01*
X50458666Y-23106095D01*
%TO.C,D1*%
X40688380Y-32996095D02*
X39688380Y-32996095D01*
X39688380Y-32758000D01*
X39736000Y-32615142D01*
X39831238Y-32519904D01*
X39926476Y-32472285D01*
X40116952Y-32424666D01*
X40259809Y-32424666D01*
X40450285Y-32472285D01*
X40545523Y-32519904D01*
X40640761Y-32615142D01*
X40688380Y-32758000D01*
X40688380Y-32996095D01*
X40688380Y-31472285D02*
X40688380Y-32043714D01*
X40688380Y-31758000D02*
X39688380Y-31758000D01*
X39831238Y-31853238D01*
X39926476Y-31948476D01*
X39974095Y-32043714D01*
%TO.C,D2*%
X52880380Y-32996095D02*
X51880380Y-32996095D01*
X51880380Y-32758000D01*
X51928000Y-32615142D01*
X52023238Y-32519904D01*
X52118476Y-32472285D01*
X52308952Y-32424666D01*
X52451809Y-32424666D01*
X52642285Y-32472285D01*
X52737523Y-32519904D01*
X52832761Y-32615142D01*
X52880380Y-32758000D01*
X52880380Y-32996095D01*
X51975619Y-32043714D02*
X51928000Y-31996095D01*
X51880380Y-31900857D01*
X51880380Y-31662761D01*
X51928000Y-31567523D01*
X51975619Y-31519904D01*
X52070857Y-31472285D01*
X52166095Y-31472285D01*
X52308952Y-31519904D01*
X52880380Y-32091333D01*
X52880380Y-31472285D01*
%TO.C,R1*%
X43013333Y-42362380D02*
X42680000Y-41886190D01*
X42441904Y-42362380D02*
X42441904Y-41362380D01*
X42822857Y-41362380D01*
X42918095Y-41410000D01*
X42965714Y-41457619D01*
X43013333Y-41552857D01*
X43013333Y-41695714D01*
X42965714Y-41790952D01*
X42918095Y-41838571D01*
X42822857Y-41886190D01*
X42441904Y-41886190D01*
X43965714Y-42362380D02*
X43394285Y-42362380D01*
X43680000Y-42362380D02*
X43680000Y-41362380D01*
X43584761Y-41505238D01*
X43489523Y-41600476D01*
X43394285Y-41648095D01*
%TO.C,R2*%
X55205333Y-42362380D02*
X54872000Y-41886190D01*
X54633904Y-42362380D02*
X54633904Y-41362380D01*
X55014857Y-41362380D01*
X55110095Y-41410000D01*
X55157714Y-41457619D01*
X55205333Y-41552857D01*
X55205333Y-41695714D01*
X55157714Y-41790952D01*
X55110095Y-41838571D01*
X55014857Y-41886190D01*
X54633904Y-41886190D01*
X55586285Y-41457619D02*
X55633904Y-41410000D01*
X55729142Y-41362380D01*
X55967238Y-41362380D01*
X56062476Y-41410000D01*
X56110095Y-41457619D01*
X56157714Y-41552857D01*
X56157714Y-41648095D01*
X56110095Y-41790952D01*
X55538666Y-42362380D01*
X56157714Y-42362380D01*
%TO.C,U1*%
X28956095Y-62444380D02*
X28956095Y-63253904D01*
X29003714Y-63349142D01*
X29051333Y-63396761D01*
X29146571Y-63444380D01*
X29337047Y-63444380D01*
X29432285Y-63396761D01*
X29479904Y-63349142D01*
X29527523Y-63253904D01*
X29527523Y-62444380D01*
X30527523Y-63444380D02*
X29956095Y-63444380D01*
X30241809Y-63444380D02*
X30241809Y-62444380D01*
X30146571Y-62587238D01*
X30051333Y-62682476D01*
X29956095Y-62730095D01*
%TO.C,\u00DCn+1*%
X56840666Y-22820380D02*
X56840666Y-23629904D01*
X56888285Y-23725142D01*
X56935904Y-23772761D01*
X57031142Y-23820380D01*
X57221619Y-23820380D01*
X57316857Y-23772761D01*
X57364476Y-23725142D01*
X57412095Y-23629904D01*
X57412095Y-22820380D01*
X56935904Y-22487047D02*
X56983523Y-22534666D01*
X56935904Y-22582285D01*
X56888285Y-22534666D01*
X56935904Y-22487047D01*
X56935904Y-22582285D01*
X57316857Y-22487047D02*
X57364476Y-22534666D01*
X57316857Y-22582285D01*
X57269238Y-22534666D01*
X57316857Y-22487047D01*
X57316857Y-22582285D01*
X57888285Y-23153714D02*
X57888285Y-23820380D01*
X57888285Y-23248952D02*
X57935904Y-23201333D01*
X58031142Y-23153714D01*
X58174000Y-23153714D01*
X58269238Y-23201333D01*
X58316857Y-23296571D01*
X58316857Y-23820380D01*
X58793047Y-23439428D02*
X59554952Y-23439428D01*
X59174000Y-23820380D02*
X59174000Y-23058476D01*
X60554952Y-23820380D02*
X59983523Y-23820380D01*
X60269238Y-23820380D02*
X60269238Y-22820380D01*
X60174000Y-22963238D01*
X60078761Y-23058476D01*
X59983523Y-23106095D01*
%TO.C,Un1*%
X40441714Y-22820380D02*
X40441714Y-23629904D01*
X40489333Y-23725142D01*
X40536952Y-23772761D01*
X40632190Y-23820380D01*
X40822666Y-23820380D01*
X40917904Y-23772761D01*
X40965523Y-23725142D01*
X41013142Y-23629904D01*
X41013142Y-22820380D01*
X41489333Y-23153714D02*
X41489333Y-23820380D01*
X41489333Y-23248952D02*
X41536952Y-23201333D01*
X41632190Y-23153714D01*
X41775047Y-23153714D01*
X41870285Y-23201333D01*
X41917904Y-23296571D01*
X41917904Y-23820380D01*
X42917904Y-23820380D02*
X42346476Y-23820380D01*
X42632190Y-23820380D02*
X42632190Y-22820380D01*
X42536952Y-22963238D01*
X42441714Y-23058476D01*
X42346476Y-23106095D01*
%TO.C,S1*%
X53340095Y-23772761D02*
X53482952Y-23820380D01*
X53721047Y-23820380D01*
X53816285Y-23772761D01*
X53863904Y-23725142D01*
X53911523Y-23629904D01*
X53911523Y-23534666D01*
X53863904Y-23439428D01*
X53816285Y-23391809D01*
X53721047Y-23344190D01*
X53530571Y-23296571D01*
X53435333Y-23248952D01*
X53387714Y-23201333D01*
X53340095Y-23106095D01*
X53340095Y-23010857D01*
X53387714Y-22915619D01*
X53435333Y-22868000D01*
X53530571Y-22820380D01*
X53768666Y-22820380D01*
X53911523Y-22868000D01*
X54863904Y-23820380D02*
X54292476Y-23820380D01*
X54578190Y-23820380D02*
X54578190Y-22820380D01*
X54482952Y-22963238D01*
X54387714Y-23058476D01*
X54292476Y-23106095D01*
%TO.C,U2*%
X41402095Y-62444380D02*
X41402095Y-63253904D01*
X41449714Y-63349142D01*
X41497333Y-63396761D01*
X41592571Y-63444380D01*
X41783047Y-63444380D01*
X41878285Y-63396761D01*
X41925904Y-63349142D01*
X41973523Y-63253904D01*
X41973523Y-62444380D01*
X42402095Y-62539619D02*
X42449714Y-62492000D01*
X42544952Y-62444380D01*
X42783047Y-62444380D01*
X42878285Y-62492000D01*
X42925904Y-62539619D01*
X42973523Y-62634857D01*
X42973523Y-62730095D01*
X42925904Y-62872952D01*
X42354476Y-63444380D01*
X42973523Y-63444380D01*
%TO.C,a2*%
X71112095Y-23312380D02*
X71112095Y-22788571D01*
X71064476Y-22693333D01*
X70969238Y-22645714D01*
X70778761Y-22645714D01*
X70683523Y-22693333D01*
X71112095Y-23264761D02*
X71016857Y-23312380D01*
X70778761Y-23312380D01*
X70683523Y-23264761D01*
X70635904Y-23169523D01*
X70635904Y-23074285D01*
X70683523Y-22979047D01*
X70778761Y-22931428D01*
X71016857Y-22931428D01*
X71112095Y-22883809D01*
X71540666Y-22407619D02*
X71588285Y-22360000D01*
X71683523Y-22312380D01*
X71921619Y-22312380D01*
X72016857Y-22360000D01*
X72064476Y-22407619D01*
X72112095Y-22502857D01*
X72112095Y-22598095D01*
X72064476Y-22740952D01*
X71493047Y-23312380D01*
X72112095Y-23312380D01*
%TO.C,b2*%
X74493523Y-23312380D02*
X74493523Y-22312380D01*
X74493523Y-22693333D02*
X74588761Y-22645714D01*
X74779238Y-22645714D01*
X74874476Y-22693333D01*
X74922095Y-22740952D01*
X74969714Y-22836190D01*
X74969714Y-23121904D01*
X74922095Y-23217142D01*
X74874476Y-23264761D01*
X74779238Y-23312380D01*
X74588761Y-23312380D01*
X74493523Y-23264761D01*
X75350666Y-22407619D02*
X75398285Y-22360000D01*
X75493523Y-22312380D01*
X75731619Y-22312380D01*
X75826857Y-22360000D01*
X75874476Y-22407619D01*
X75922095Y-22502857D01*
X75922095Y-22598095D01*
X75874476Y-22740952D01*
X75303047Y-23312380D01*
X75922095Y-23312380D01*
%TO.C,D3*%
X65580380Y-32996095D02*
X64580380Y-32996095D01*
X64580380Y-32758000D01*
X64628000Y-32615142D01*
X64723238Y-32519904D01*
X64818476Y-32472285D01*
X65008952Y-32424666D01*
X65151809Y-32424666D01*
X65342285Y-32472285D01*
X65437523Y-32519904D01*
X65532761Y-32615142D01*
X65580380Y-32758000D01*
X65580380Y-32996095D01*
X64580380Y-32091333D02*
X64580380Y-31472285D01*
X64961333Y-31805619D01*
X64961333Y-31662761D01*
X65008952Y-31567523D01*
X65056571Y-31519904D01*
X65151809Y-31472285D01*
X65389904Y-31472285D01*
X65485142Y-31519904D01*
X65532761Y-31567523D01*
X65580380Y-31662761D01*
X65580380Y-31948476D01*
X65532761Y-32043714D01*
X65485142Y-32091333D01*
%TO.C,D4*%
X77518380Y-32996095D02*
X76518380Y-32996095D01*
X76518380Y-32758000D01*
X76566000Y-32615142D01*
X76661238Y-32519904D01*
X76756476Y-32472285D01*
X76946952Y-32424666D01*
X77089809Y-32424666D01*
X77280285Y-32472285D01*
X77375523Y-32519904D01*
X77470761Y-32615142D01*
X77518380Y-32758000D01*
X77518380Y-32996095D01*
X76851714Y-31567523D02*
X77518380Y-31567523D01*
X76470761Y-31805619D02*
X77185047Y-32043714D01*
X77185047Y-31424666D01*
%TO.C,R3*%
X68413333Y-42362380D02*
X68080000Y-41886190D01*
X67841904Y-42362380D02*
X67841904Y-41362380D01*
X68222857Y-41362380D01*
X68318095Y-41410000D01*
X68365714Y-41457619D01*
X68413333Y-41552857D01*
X68413333Y-41695714D01*
X68365714Y-41790952D01*
X68318095Y-41838571D01*
X68222857Y-41886190D01*
X67841904Y-41886190D01*
X68746666Y-41362380D02*
X69365714Y-41362380D01*
X69032380Y-41743333D01*
X69175238Y-41743333D01*
X69270476Y-41790952D01*
X69318095Y-41838571D01*
X69365714Y-41933809D01*
X69365714Y-42171904D01*
X69318095Y-42267142D01*
X69270476Y-42314761D01*
X69175238Y-42362380D01*
X68889523Y-42362380D01*
X68794285Y-42314761D01*
X68746666Y-42267142D01*
%TO.C,R4*%
X80605333Y-42362380D02*
X80272000Y-41886190D01*
X80033904Y-42362380D02*
X80033904Y-41362380D01*
X80414857Y-41362380D01*
X80510095Y-41410000D01*
X80557714Y-41457619D01*
X80605333Y-41552857D01*
X80605333Y-41695714D01*
X80557714Y-41790952D01*
X80510095Y-41838571D01*
X80414857Y-41886190D01*
X80033904Y-41886190D01*
X81462476Y-41695714D02*
X81462476Y-42362380D01*
X81224380Y-41314761D02*
X80986285Y-42029047D01*
X81605333Y-42029047D01*
%TO.C,S2*%
X78486095Y-23264761D02*
X78628952Y-23312380D01*
X78867047Y-23312380D01*
X78962285Y-23264761D01*
X79009904Y-23217142D01*
X79057523Y-23121904D01*
X79057523Y-23026666D01*
X79009904Y-22931428D01*
X78962285Y-22883809D01*
X78867047Y-22836190D01*
X78676571Y-22788571D01*
X78581333Y-22740952D01*
X78533714Y-22693333D01*
X78486095Y-22598095D01*
X78486095Y-22502857D01*
X78533714Y-22407619D01*
X78581333Y-22360000D01*
X78676571Y-22312380D01*
X78914666Y-22312380D01*
X79057523Y-22360000D01*
X79438476Y-22407619D02*
X79486095Y-22360000D01*
X79581333Y-22312380D01*
X79819428Y-22312380D01*
X79914666Y-22360000D01*
X79962285Y-22407619D01*
X80009904Y-22502857D01*
X80009904Y-22598095D01*
X79962285Y-22740952D01*
X79390857Y-23312380D01*
X80009904Y-23312380D01*
%TO.C,U4*%
X65024095Y-62698380D02*
X65024095Y-63507904D01*
X65071714Y-63603142D01*
X65119333Y-63650761D01*
X65214571Y-63698380D01*
X65405047Y-63698380D01*
X65500285Y-63650761D01*
X65547904Y-63603142D01*
X65595523Y-63507904D01*
X65595523Y-62698380D01*
X66500285Y-63031714D02*
X66500285Y-63698380D01*
X66262190Y-62650761D02*
X66024095Y-63365047D01*
X66643142Y-63365047D01*
%TO.C,U5*%
X77216095Y-62698380D02*
X77216095Y-63507904D01*
X77263714Y-63603142D01*
X77311333Y-63650761D01*
X77406571Y-63698380D01*
X77597047Y-63698380D01*
X77692285Y-63650761D01*
X77739904Y-63603142D01*
X77787523Y-63507904D01*
X77787523Y-62698380D01*
X78739904Y-62698380D02*
X78263714Y-62698380D01*
X78216095Y-63174571D01*
X78263714Y-63126952D01*
X78358952Y-63079333D01*
X78597047Y-63079333D01*
X78692285Y-63126952D01*
X78739904Y-63174571D01*
X78787523Y-63269809D01*
X78787523Y-63507904D01*
X78739904Y-63603142D01*
X78692285Y-63650761D01*
X78597047Y-63698380D01*
X78358952Y-63698380D01*
X78263714Y-63650761D01*
X78216095Y-63603142D01*
%TO.C,Un2*%
X66349714Y-22566380D02*
X66349714Y-23375904D01*
X66397333Y-23471142D01*
X66444952Y-23518761D01*
X66540190Y-23566380D01*
X66730666Y-23566380D01*
X66825904Y-23518761D01*
X66873523Y-23471142D01*
X66921142Y-23375904D01*
X66921142Y-22566380D01*
X67397333Y-22899714D02*
X67397333Y-23566380D01*
X67397333Y-22994952D02*
X67444952Y-22947333D01*
X67540190Y-22899714D01*
X67683047Y-22899714D01*
X67778285Y-22947333D01*
X67825904Y-23042571D01*
X67825904Y-23566380D01*
X68254476Y-22661619D02*
X68302095Y-22614000D01*
X68397333Y-22566380D01*
X68635428Y-22566380D01*
X68730666Y-22614000D01*
X68778285Y-22661619D01*
X68825904Y-22756857D01*
X68825904Y-22852095D01*
X68778285Y-22994952D01*
X68206857Y-23566380D01*
X68825904Y-23566380D01*
%TO.C,\u00DCn+2*%
X81732666Y-22312380D02*
X81732666Y-23121904D01*
X81780285Y-23217142D01*
X81827904Y-23264761D01*
X81923142Y-23312380D01*
X82113619Y-23312380D01*
X82208857Y-23264761D01*
X82256476Y-23217142D01*
X82304095Y-23121904D01*
X82304095Y-22312380D01*
X81827904Y-21979047D02*
X81875523Y-22026666D01*
X81827904Y-22074285D01*
X81780285Y-22026666D01*
X81827904Y-21979047D01*
X81827904Y-22074285D01*
X82208857Y-21979047D02*
X82256476Y-22026666D01*
X82208857Y-22074285D01*
X82161238Y-22026666D01*
X82208857Y-21979047D01*
X82208857Y-22074285D01*
X82780285Y-22645714D02*
X82780285Y-23312380D01*
X82780285Y-22740952D02*
X82827904Y-22693333D01*
X82923142Y-22645714D01*
X83066000Y-22645714D01*
X83161238Y-22693333D01*
X83208857Y-22788571D01*
X83208857Y-23312380D01*
X83685047Y-22931428D02*
X84446952Y-22931428D01*
X84066000Y-23312380D02*
X84066000Y-22550476D01*
X84875523Y-22407619D02*
X84923142Y-22360000D01*
X85018380Y-22312380D01*
X85256476Y-22312380D01*
X85351714Y-22360000D01*
X85399333Y-22407619D01*
X85446952Y-22502857D01*
X85446952Y-22598095D01*
X85399333Y-22740952D01*
X84827904Y-23312380D01*
X85446952Y-23312380D01*
%TO.C,a3*%
X94734095Y-23312380D02*
X94734095Y-22788571D01*
X94686476Y-22693333D01*
X94591238Y-22645714D01*
X94400761Y-22645714D01*
X94305523Y-22693333D01*
X94734095Y-23264761D02*
X94638857Y-23312380D01*
X94400761Y-23312380D01*
X94305523Y-23264761D01*
X94257904Y-23169523D01*
X94257904Y-23074285D01*
X94305523Y-22979047D01*
X94400761Y-22931428D01*
X94638857Y-22931428D01*
X94734095Y-22883809D01*
X95115047Y-22312380D02*
X95734095Y-22312380D01*
X95400761Y-22693333D01*
X95543619Y-22693333D01*
X95638857Y-22740952D01*
X95686476Y-22788571D01*
X95734095Y-22883809D01*
X95734095Y-23121904D01*
X95686476Y-23217142D01*
X95638857Y-23264761D01*
X95543619Y-23312380D01*
X95257904Y-23312380D01*
X95162666Y-23264761D01*
X95115047Y-23217142D01*
%TO.C,a4*%
X118102095Y-23058380D02*
X118102095Y-22534571D01*
X118054476Y-22439333D01*
X117959238Y-22391714D01*
X117768761Y-22391714D01*
X117673523Y-22439333D01*
X118102095Y-23010761D02*
X118006857Y-23058380D01*
X117768761Y-23058380D01*
X117673523Y-23010761D01*
X117625904Y-22915523D01*
X117625904Y-22820285D01*
X117673523Y-22725047D01*
X117768761Y-22677428D01*
X118006857Y-22677428D01*
X118102095Y-22629809D01*
X119006857Y-22391714D02*
X119006857Y-23058380D01*
X118768761Y-22010761D02*
X118530666Y-22725047D01*
X119149714Y-22725047D01*
%TO.C,b3*%
X98369523Y-23312380D02*
X98369523Y-22312380D01*
X98369523Y-22693333D02*
X98464761Y-22645714D01*
X98655238Y-22645714D01*
X98750476Y-22693333D01*
X98798095Y-22740952D01*
X98845714Y-22836190D01*
X98845714Y-23121904D01*
X98798095Y-23217142D01*
X98750476Y-23264761D01*
X98655238Y-23312380D01*
X98464761Y-23312380D01*
X98369523Y-23264761D01*
X99179047Y-22312380D02*
X99798095Y-22312380D01*
X99464761Y-22693333D01*
X99607619Y-22693333D01*
X99702857Y-22740952D01*
X99750476Y-22788571D01*
X99798095Y-22883809D01*
X99798095Y-23121904D01*
X99750476Y-23217142D01*
X99702857Y-23264761D01*
X99607619Y-23312380D01*
X99321904Y-23312380D01*
X99226666Y-23264761D01*
X99179047Y-23217142D01*
%TO.C,b4*%
X122245523Y-23058380D02*
X122245523Y-22058380D01*
X122245523Y-22439333D02*
X122340761Y-22391714D01*
X122531238Y-22391714D01*
X122626476Y-22439333D01*
X122674095Y-22486952D01*
X122721714Y-22582190D01*
X122721714Y-22867904D01*
X122674095Y-22963142D01*
X122626476Y-23010761D01*
X122531238Y-23058380D01*
X122340761Y-23058380D01*
X122245523Y-23010761D01*
X123578857Y-22391714D02*
X123578857Y-23058380D01*
X123340761Y-22010761D02*
X123102666Y-22725047D01*
X123721714Y-22725047D01*
%TO.C,D5*%
X90472380Y-32996095D02*
X89472380Y-32996095D01*
X89472380Y-32758000D01*
X89520000Y-32615142D01*
X89615238Y-32519904D01*
X89710476Y-32472285D01*
X89900952Y-32424666D01*
X90043809Y-32424666D01*
X90234285Y-32472285D01*
X90329523Y-32519904D01*
X90424761Y-32615142D01*
X90472380Y-32758000D01*
X90472380Y-32996095D01*
X89472380Y-31519904D02*
X89472380Y-31996095D01*
X89948571Y-32043714D01*
X89900952Y-31996095D01*
X89853333Y-31900857D01*
X89853333Y-31662761D01*
X89900952Y-31567523D01*
X89948571Y-31519904D01*
X90043809Y-31472285D01*
X90281904Y-31472285D01*
X90377142Y-31519904D01*
X90424761Y-31567523D01*
X90472380Y-31662761D01*
X90472380Y-31900857D01*
X90424761Y-31996095D01*
X90377142Y-32043714D01*
%TO.C,D6*%
X102664380Y-32996095D02*
X101664380Y-32996095D01*
X101664380Y-32758000D01*
X101712000Y-32615142D01*
X101807238Y-32519904D01*
X101902476Y-32472285D01*
X102092952Y-32424666D01*
X102235809Y-32424666D01*
X102426285Y-32472285D01*
X102521523Y-32519904D01*
X102616761Y-32615142D01*
X102664380Y-32758000D01*
X102664380Y-32996095D01*
X101664380Y-31567523D02*
X101664380Y-31758000D01*
X101712000Y-31853238D01*
X101759619Y-31900857D01*
X101902476Y-31996095D01*
X102092952Y-32043714D01*
X102473904Y-32043714D01*
X102569142Y-31996095D01*
X102616761Y-31948476D01*
X102664380Y-31853238D01*
X102664380Y-31662761D01*
X102616761Y-31567523D01*
X102569142Y-31519904D01*
X102473904Y-31472285D01*
X102235809Y-31472285D01*
X102140571Y-31519904D01*
X102092952Y-31567523D01*
X102045333Y-31662761D01*
X102045333Y-31853238D01*
X102092952Y-31948476D01*
X102140571Y-31996095D01*
X102235809Y-32043714D01*
%TO.C,D7*%
X114602380Y-32996095D02*
X113602380Y-32996095D01*
X113602380Y-32758000D01*
X113650000Y-32615142D01*
X113745238Y-32519904D01*
X113840476Y-32472285D01*
X114030952Y-32424666D01*
X114173809Y-32424666D01*
X114364285Y-32472285D01*
X114459523Y-32519904D01*
X114554761Y-32615142D01*
X114602380Y-32758000D01*
X114602380Y-32996095D01*
X113602380Y-32091333D02*
X113602380Y-31424666D01*
X114602380Y-31853238D01*
%TO.C,D8*%
X126540380Y-32996095D02*
X125540380Y-32996095D01*
X125540380Y-32758000D01*
X125588000Y-32615142D01*
X125683238Y-32519904D01*
X125778476Y-32472285D01*
X125968952Y-32424666D01*
X126111809Y-32424666D01*
X126302285Y-32472285D01*
X126397523Y-32519904D01*
X126492761Y-32615142D01*
X126540380Y-32758000D01*
X126540380Y-32996095D01*
X125968952Y-31853238D02*
X125921333Y-31948476D01*
X125873714Y-31996095D01*
X125778476Y-32043714D01*
X125730857Y-32043714D01*
X125635619Y-31996095D01*
X125588000Y-31948476D01*
X125540380Y-31853238D01*
X125540380Y-31662761D01*
X125588000Y-31567523D01*
X125635619Y-31519904D01*
X125730857Y-31472285D01*
X125778476Y-31472285D01*
X125873714Y-31519904D01*
X125921333Y-31567523D01*
X125968952Y-31662761D01*
X125968952Y-31853238D01*
X126016571Y-31948476D01*
X126064190Y-31996095D01*
X126159428Y-32043714D01*
X126349904Y-32043714D01*
X126445142Y-31996095D01*
X126492761Y-31948476D01*
X126540380Y-31853238D01*
X126540380Y-31662761D01*
X126492761Y-31567523D01*
X126445142Y-31519904D01*
X126349904Y-31472285D01*
X126159428Y-31472285D01*
X126064190Y-31519904D01*
X126016571Y-31567523D01*
X125968952Y-31662761D01*
%TO.C,R5*%
X94067333Y-42108380D02*
X93734000Y-41632190D01*
X93495904Y-42108380D02*
X93495904Y-41108380D01*
X93876857Y-41108380D01*
X93972095Y-41156000D01*
X94019714Y-41203619D01*
X94067333Y-41298857D01*
X94067333Y-41441714D01*
X94019714Y-41536952D01*
X93972095Y-41584571D01*
X93876857Y-41632190D01*
X93495904Y-41632190D01*
X94972095Y-41108380D02*
X94495904Y-41108380D01*
X94448285Y-41584571D01*
X94495904Y-41536952D01*
X94591142Y-41489333D01*
X94829238Y-41489333D01*
X94924476Y-41536952D01*
X94972095Y-41584571D01*
X95019714Y-41679809D01*
X95019714Y-41917904D01*
X94972095Y-42013142D01*
X94924476Y-42060761D01*
X94829238Y-42108380D01*
X94591142Y-42108380D01*
X94495904Y-42060761D01*
X94448285Y-42013142D01*
%TO.C,R6*%
X106005333Y-42362380D02*
X105672000Y-41886190D01*
X105433904Y-42362380D02*
X105433904Y-41362380D01*
X105814857Y-41362380D01*
X105910095Y-41410000D01*
X105957714Y-41457619D01*
X106005333Y-41552857D01*
X106005333Y-41695714D01*
X105957714Y-41790952D01*
X105910095Y-41838571D01*
X105814857Y-41886190D01*
X105433904Y-41886190D01*
X106862476Y-41362380D02*
X106672000Y-41362380D01*
X106576761Y-41410000D01*
X106529142Y-41457619D01*
X106433904Y-41600476D01*
X106386285Y-41790952D01*
X106386285Y-42171904D01*
X106433904Y-42267142D01*
X106481523Y-42314761D01*
X106576761Y-42362380D01*
X106767238Y-42362380D01*
X106862476Y-42314761D01*
X106910095Y-42267142D01*
X106957714Y-42171904D01*
X106957714Y-41933809D01*
X106910095Y-41838571D01*
X106862476Y-41790952D01*
X106767238Y-41743333D01*
X106576761Y-41743333D01*
X106481523Y-41790952D01*
X106433904Y-41838571D01*
X106386285Y-41933809D01*
%TO.C,R7*%
X117943333Y-42362380D02*
X117610000Y-41886190D01*
X117371904Y-42362380D02*
X117371904Y-41362380D01*
X117752857Y-41362380D01*
X117848095Y-41410000D01*
X117895714Y-41457619D01*
X117943333Y-41552857D01*
X117943333Y-41695714D01*
X117895714Y-41790952D01*
X117848095Y-41838571D01*
X117752857Y-41886190D01*
X117371904Y-41886190D01*
X118276666Y-41362380D02*
X118943333Y-41362380D01*
X118514761Y-42362380D01*
%TO.C,R8*%
X129881333Y-42362380D02*
X129548000Y-41886190D01*
X129309904Y-42362380D02*
X129309904Y-41362380D01*
X129690857Y-41362380D01*
X129786095Y-41410000D01*
X129833714Y-41457619D01*
X129881333Y-41552857D01*
X129881333Y-41695714D01*
X129833714Y-41790952D01*
X129786095Y-41838571D01*
X129690857Y-41886190D01*
X129309904Y-41886190D01*
X130452761Y-41790952D02*
X130357523Y-41743333D01*
X130309904Y-41695714D01*
X130262285Y-41600476D01*
X130262285Y-41552857D01*
X130309904Y-41457619D01*
X130357523Y-41410000D01*
X130452761Y-41362380D01*
X130643238Y-41362380D01*
X130738476Y-41410000D01*
X130786095Y-41457619D01*
X130833714Y-41552857D01*
X130833714Y-41600476D01*
X130786095Y-41695714D01*
X130738476Y-41743333D01*
X130643238Y-41790952D01*
X130452761Y-41790952D01*
X130357523Y-41838571D01*
X130309904Y-41886190D01*
X130262285Y-41981428D01*
X130262285Y-42171904D01*
X130309904Y-42267142D01*
X130357523Y-42314761D01*
X130452761Y-42362380D01*
X130643238Y-42362380D01*
X130738476Y-42314761D01*
X130786095Y-42267142D01*
X130833714Y-42171904D01*
X130833714Y-41981428D01*
X130786095Y-41886190D01*
X130738476Y-41838571D01*
X130643238Y-41790952D01*
%TO.C,S3*%
X102616095Y-23010761D02*
X102758952Y-23058380D01*
X102997047Y-23058380D01*
X103092285Y-23010761D01*
X103139904Y-22963142D01*
X103187523Y-22867904D01*
X103187523Y-22772666D01*
X103139904Y-22677428D01*
X103092285Y-22629809D01*
X102997047Y-22582190D01*
X102806571Y-22534571D01*
X102711333Y-22486952D01*
X102663714Y-22439333D01*
X102616095Y-22344095D01*
X102616095Y-22248857D01*
X102663714Y-22153619D01*
X102711333Y-22106000D01*
X102806571Y-22058380D01*
X103044666Y-22058380D01*
X103187523Y-22106000D01*
X103520857Y-22058380D02*
X104139904Y-22058380D01*
X103806571Y-22439333D01*
X103949428Y-22439333D01*
X104044666Y-22486952D01*
X104092285Y-22534571D01*
X104139904Y-22629809D01*
X104139904Y-22867904D01*
X104092285Y-22963142D01*
X104044666Y-23010761D01*
X103949428Y-23058380D01*
X103663714Y-23058380D01*
X103568476Y-23010761D01*
X103520857Y-22963142D01*
%TO.C,S4*%
X126492095Y-23010761D02*
X126634952Y-23058380D01*
X126873047Y-23058380D01*
X126968285Y-23010761D01*
X127015904Y-22963142D01*
X127063523Y-22867904D01*
X127063523Y-22772666D01*
X127015904Y-22677428D01*
X126968285Y-22629809D01*
X126873047Y-22582190D01*
X126682571Y-22534571D01*
X126587333Y-22486952D01*
X126539714Y-22439333D01*
X126492095Y-22344095D01*
X126492095Y-22248857D01*
X126539714Y-22153619D01*
X126587333Y-22106000D01*
X126682571Y-22058380D01*
X126920666Y-22058380D01*
X127063523Y-22106000D01*
X127920666Y-22391714D02*
X127920666Y-23058380D01*
X127682571Y-22010761D02*
X127444476Y-22725047D01*
X128063523Y-22725047D01*
%TO.C,U6*%
X88392095Y-62698380D02*
X88392095Y-63507904D01*
X88439714Y-63603142D01*
X88487333Y-63650761D01*
X88582571Y-63698380D01*
X88773047Y-63698380D01*
X88868285Y-63650761D01*
X88915904Y-63603142D01*
X88963523Y-63507904D01*
X88963523Y-62698380D01*
X89868285Y-62698380D02*
X89677809Y-62698380D01*
X89582571Y-62746000D01*
X89534952Y-62793619D01*
X89439714Y-62936476D01*
X89392095Y-63126952D01*
X89392095Y-63507904D01*
X89439714Y-63603142D01*
X89487333Y-63650761D01*
X89582571Y-63698380D01*
X89773047Y-63698380D01*
X89868285Y-63650761D01*
X89915904Y-63603142D01*
X89963523Y-63507904D01*
X89963523Y-63269809D01*
X89915904Y-63174571D01*
X89868285Y-63126952D01*
X89773047Y-63079333D01*
X89582571Y-63079333D01*
X89487333Y-63126952D01*
X89439714Y-63174571D01*
X89392095Y-63269809D01*
%TO.C,U7*%
X100838095Y-62698380D02*
X100838095Y-63507904D01*
X100885714Y-63603142D01*
X100933333Y-63650761D01*
X101028571Y-63698380D01*
X101219047Y-63698380D01*
X101314285Y-63650761D01*
X101361904Y-63603142D01*
X101409523Y-63507904D01*
X101409523Y-62698380D01*
X101790476Y-62698380D02*
X102457142Y-62698380D01*
X102028571Y-63698380D01*
%TO.C,U8*%
X136398095Y-62698380D02*
X136398095Y-63507904D01*
X136445714Y-63603142D01*
X136493333Y-63650761D01*
X136588571Y-63698380D01*
X136779047Y-63698380D01*
X136874285Y-63650761D01*
X136921904Y-63603142D01*
X136969523Y-63507904D01*
X136969523Y-62698380D01*
X137588571Y-63126952D02*
X137493333Y-63079333D01*
X137445714Y-63031714D01*
X137398095Y-62936476D01*
X137398095Y-62888857D01*
X137445714Y-62793619D01*
X137493333Y-62746000D01*
X137588571Y-62698380D01*
X137779047Y-62698380D01*
X137874285Y-62746000D01*
X137921904Y-62793619D01*
X137969523Y-62888857D01*
X137969523Y-62936476D01*
X137921904Y-63031714D01*
X137874285Y-63079333D01*
X137779047Y-63126952D01*
X137588571Y-63126952D01*
X137493333Y-63174571D01*
X137445714Y-63222190D01*
X137398095Y-63317428D01*
X137398095Y-63507904D01*
X137445714Y-63603142D01*
X137493333Y-63650761D01*
X137588571Y-63698380D01*
X137779047Y-63698380D01*
X137874285Y-63650761D01*
X137921904Y-63603142D01*
X137969523Y-63507904D01*
X137969523Y-63317428D01*
X137921904Y-63222190D01*
X137874285Y-63174571D01*
X137779047Y-63126952D01*
%TO.C,U10*%
X112045904Y-62698380D02*
X112045904Y-63507904D01*
X112093523Y-63603142D01*
X112141142Y-63650761D01*
X112236380Y-63698380D01*
X112426857Y-63698380D01*
X112522095Y-63650761D01*
X112569714Y-63603142D01*
X112617333Y-63507904D01*
X112617333Y-62698380D01*
X113617333Y-63698380D02*
X113045904Y-63698380D01*
X113331619Y-63698380D02*
X113331619Y-62698380D01*
X113236380Y-62841238D01*
X113141142Y-62936476D01*
X113045904Y-62984095D01*
X114236380Y-62698380D02*
X114331619Y-62698380D01*
X114426857Y-62746000D01*
X114474476Y-62793619D01*
X114522095Y-62888857D01*
X114569714Y-63079333D01*
X114569714Y-63317428D01*
X114522095Y-63507904D01*
X114474476Y-63603142D01*
X114426857Y-63650761D01*
X114331619Y-63698380D01*
X114236380Y-63698380D01*
X114141142Y-63650761D01*
X114093523Y-63603142D01*
X114045904Y-63507904D01*
X113998285Y-63317428D01*
X113998285Y-63079333D01*
X114045904Y-62888857D01*
X114093523Y-62793619D01*
X114141142Y-62746000D01*
X114236380Y-62698380D01*
%TO.C,Un3*%
X89463714Y-22312380D02*
X89463714Y-23121904D01*
X89511333Y-23217142D01*
X89558952Y-23264761D01*
X89654190Y-23312380D01*
X89844666Y-23312380D01*
X89939904Y-23264761D01*
X89987523Y-23217142D01*
X90035142Y-23121904D01*
X90035142Y-22312380D01*
X90511333Y-22645714D02*
X90511333Y-23312380D01*
X90511333Y-22740952D02*
X90558952Y-22693333D01*
X90654190Y-22645714D01*
X90797047Y-22645714D01*
X90892285Y-22693333D01*
X90939904Y-22788571D01*
X90939904Y-23312380D01*
X91320857Y-22312380D02*
X91939904Y-22312380D01*
X91606571Y-22693333D01*
X91749428Y-22693333D01*
X91844666Y-22740952D01*
X91892285Y-22788571D01*
X91939904Y-22883809D01*
X91939904Y-23121904D01*
X91892285Y-23217142D01*
X91844666Y-23264761D01*
X91749428Y-23312380D01*
X91463714Y-23312380D01*
X91368476Y-23264761D01*
X91320857Y-23217142D01*
%TO.C,Un4*%
X113339714Y-22058380D02*
X113339714Y-22867904D01*
X113387333Y-22963142D01*
X113434952Y-23010761D01*
X113530190Y-23058380D01*
X113720666Y-23058380D01*
X113815904Y-23010761D01*
X113863523Y-22963142D01*
X113911142Y-22867904D01*
X113911142Y-22058380D01*
X114387333Y-22391714D02*
X114387333Y-23058380D01*
X114387333Y-22486952D02*
X114434952Y-22439333D01*
X114530190Y-22391714D01*
X114673047Y-22391714D01*
X114768285Y-22439333D01*
X114815904Y-22534571D01*
X114815904Y-23058380D01*
X115720666Y-22391714D02*
X115720666Y-23058380D01*
X115482571Y-22010761D02*
X115244476Y-22725047D01*
X115863523Y-22725047D01*
%TO.C,\u00DCn+3*%
X105862666Y-22058380D02*
X105862666Y-22867904D01*
X105910285Y-22963142D01*
X105957904Y-23010761D01*
X106053142Y-23058380D01*
X106243619Y-23058380D01*
X106338857Y-23010761D01*
X106386476Y-22963142D01*
X106434095Y-22867904D01*
X106434095Y-22058380D01*
X105957904Y-21725047D02*
X106005523Y-21772666D01*
X105957904Y-21820285D01*
X105910285Y-21772666D01*
X105957904Y-21725047D01*
X105957904Y-21820285D01*
X106338857Y-21725047D02*
X106386476Y-21772666D01*
X106338857Y-21820285D01*
X106291238Y-21772666D01*
X106338857Y-21725047D01*
X106338857Y-21820285D01*
X106910285Y-22391714D02*
X106910285Y-23058380D01*
X106910285Y-22486952D02*
X106957904Y-22439333D01*
X107053142Y-22391714D01*
X107196000Y-22391714D01*
X107291238Y-22439333D01*
X107338857Y-22534571D01*
X107338857Y-23058380D01*
X107815047Y-22677428D02*
X108576952Y-22677428D01*
X108196000Y-23058380D02*
X108196000Y-22296476D01*
X108957904Y-22058380D02*
X109576952Y-22058380D01*
X109243619Y-22439333D01*
X109386476Y-22439333D01*
X109481714Y-22486952D01*
X109529333Y-22534571D01*
X109576952Y-22629809D01*
X109576952Y-22867904D01*
X109529333Y-22963142D01*
X109481714Y-23010761D01*
X109386476Y-23058380D01*
X109100761Y-23058380D01*
X109005523Y-23010761D01*
X108957904Y-22963142D01*
%TO.C,\u00DCn+4*%
X129738666Y-22058380D02*
X129738666Y-22867904D01*
X129786285Y-22963142D01*
X129833904Y-23010761D01*
X129929142Y-23058380D01*
X130119619Y-23058380D01*
X130214857Y-23010761D01*
X130262476Y-22963142D01*
X130310095Y-22867904D01*
X130310095Y-22058380D01*
X129833904Y-21725047D02*
X129881523Y-21772666D01*
X129833904Y-21820285D01*
X129786285Y-21772666D01*
X129833904Y-21725047D01*
X129833904Y-21820285D01*
X130214857Y-21725047D02*
X130262476Y-21772666D01*
X130214857Y-21820285D01*
X130167238Y-21772666D01*
X130214857Y-21725047D01*
X130214857Y-21820285D01*
X130786285Y-22391714D02*
X130786285Y-23058380D01*
X130786285Y-22486952D02*
X130833904Y-22439333D01*
X130929142Y-22391714D01*
X131072000Y-22391714D01*
X131167238Y-22439333D01*
X131214857Y-22534571D01*
X131214857Y-23058380D01*
X131691047Y-22677428D02*
X132452952Y-22677428D01*
X132072000Y-23058380D02*
X132072000Y-22296476D01*
X133357714Y-22391714D02*
X133357714Y-23058380D01*
X133119619Y-22010761D02*
X132881523Y-22725047D01*
X133500571Y-22725047D01*
%TO.C,U3*%
X52578095Y-62444380D02*
X52578095Y-63253904D01*
X52625714Y-63349142D01*
X52673333Y-63396761D01*
X52768571Y-63444380D01*
X52959047Y-63444380D01*
X53054285Y-63396761D01*
X53101904Y-63349142D01*
X53149523Y-63253904D01*
X53149523Y-62444380D01*
X53530476Y-62444380D02*
X54149523Y-62444380D01*
X53816190Y-62825333D01*
X53959047Y-62825333D01*
X54054285Y-62872952D01*
X54101904Y-62920571D01*
X54149523Y-63015809D01*
X54149523Y-63253904D01*
X54101904Y-63349142D01*
X54054285Y-63396761D01*
X53959047Y-63444380D01*
X53673333Y-63444380D01*
X53578095Y-63396761D01*
X53530476Y-63349142D01*
%TD*%
M02*
