%TF.GenerationSoftware,KiCad,Pcbnew,(5.1.6)-1*%
%TF.CreationDate,2020-11-22T17:26:52+01:00*%
%TF.ProjectId,Addierer,41646469-6572-4657-922e-6b696361645f,rev?*%
%TF.SameCoordinates,Original*%
%TF.FileFunction,Copper,L1,Top*%
%TF.FilePolarity,Positive*%
%FSLAX46Y46*%
G04 Gerber Fmt 4.6, Leading zero omitted, Abs format (unit mm)*
G04 Created by KiCad (PCBNEW (5.1.6)-1) date 2020-11-22 17:26:52*
%MOMM*%
%LPD*%
G01*
G04 APERTURE LIST*
%TA.AperFunction,ComponentPad*%
%ADD10O,1.600000X1.600000*%
%TD*%
%TA.AperFunction,ComponentPad*%
%ADD11R,1.600000X1.600000*%
%TD*%
%TA.AperFunction,ComponentPad*%
%ADD12R,2.000000X2.000000*%
%TD*%
%TA.AperFunction,ComponentPad*%
%ADD13R,1.800000X1.800000*%
%TD*%
%TA.AperFunction,ComponentPad*%
%ADD14C,1.800000*%
%TD*%
%TA.AperFunction,ComponentPad*%
%ADD15C,1.600000*%
%TD*%
%TA.AperFunction,ViaPad*%
%ADD16C,0.800000*%
%TD*%
%TA.AperFunction,Conductor*%
%ADD17C,0.250000*%
%TD*%
G04 APERTURE END LIST*
D10*
%TO.P,U9,14*%
%TO.N,+5V*%
X129032000Y-44958000D03*
%TO.P,U9,7*%
%TO.N,Net-(GND1-Pad1)*%
X121412000Y-60198000D03*
%TO.P,U9,13*%
%TO.N,Net-(U10-Pad5)*%
X129032000Y-47498000D03*
%TO.P,U9,6*%
%TO.N,Net-(U9-Pad10)*%
X121412000Y-57658000D03*
%TO.P,U9,12*%
%TO.N,Net-(U10-Pad1)*%
X129032000Y-50038000D03*
%TO.P,U9,5*%
%TO.N,Net-(U9-Pad5)*%
X121412000Y-55118000D03*
%TO.P,U9,11*%
%TO.N,Net-(U10-Pad12)*%
X129032000Y-52578000D03*
%TO.P,U9,4*%
%TO.N,Net-(U10-Pad13)*%
X121412000Y-52578000D03*
%TO.P,U9,10*%
%TO.N,Net-(U9-Pad10)*%
X129032000Y-55118000D03*
%TO.P,U9,3*%
%TO.N,Net-(U9-Pad3)*%
X121412000Y-50038000D03*
%TO.P,U9,9*%
X129032000Y-57658000D03*
%TO.P,U9,2*%
%TO.N,Net-(U10-Pad13)*%
X121412000Y-47498000D03*
%TO.P,U9,8*%
%TO.N,Net-(U10-Pad1)*%
X129032000Y-60198000D03*
D11*
%TO.P,U9,1*%
%TO.N,Net-(U9-Pad1)*%
X121412000Y-44958000D03*
%TD*%
D12*
%TO.P,GND1,1*%
%TO.N,Net-(GND1-Pad1)*%
X36068000Y-29972000D03*
%TD*%
%TO.P,LP_Vcc1,1*%
%TO.N,+5V*%
X36068000Y-25908000D03*
%TD*%
%TO.P,a1,1*%
%TO.N,Net-(U1-Pad1)*%
X45720000Y-25908000D03*
%TD*%
%TO.P,b1,1*%
%TO.N,Net-(U1-Pad2)*%
X50038000Y-25908000D03*
%TD*%
D13*
%TO.P,D1,1*%
%TO.N,Net-(GND1-Pad1)*%
X44196000Y-33528000D03*
D14*
%TO.P,D1,2*%
%TO.N,Net-(D1-Pad2)*%
X44196000Y-30988000D03*
%TD*%
%TO.P,D2,2*%
%TO.N,Net-(D2-Pad2)*%
X56388000Y-30988000D03*
D13*
%TO.P,D2,1*%
%TO.N,Net-(GND1-Pad1)*%
X56388000Y-33528000D03*
%TD*%
D15*
%TO.P,R1,1*%
%TO.N,Net-(R1-Pad1)*%
X46990000Y-39370000D03*
D10*
%TO.P,R1,2*%
%TO.N,Net-(D1-Pad2)*%
X39370000Y-39370000D03*
%TD*%
%TO.P,R2,2*%
%TO.N,Net-(D2-Pad2)*%
X51562000Y-39370000D03*
D15*
%TO.P,R2,1*%
%TO.N,Net-(R2-Pad1)*%
X59182000Y-39370000D03*
%TD*%
D11*
%TO.P,U1,1*%
%TO.N,Net-(U1-Pad1)*%
X26213001Y-45059001D03*
D10*
%TO.P,U1,8*%
%TO.N,Net-(U1-Pad13)*%
X33833001Y-60299001D03*
%TO.P,U1,2*%
%TO.N,Net-(U1-Pad2)*%
X26213001Y-47599001D03*
%TO.P,U1,9*%
X33833001Y-57759001D03*
%TO.P,U1,3*%
%TO.N,Net-(U1-Pad10)*%
X26213001Y-50139001D03*
%TO.P,U1,10*%
X33833001Y-55219001D03*
%TO.P,U1,4*%
%TO.N,Net-(U1-Pad1)*%
X26213001Y-52679001D03*
%TO.P,U1,11*%
%TO.N,Net-(U1-Pad11)*%
X33833001Y-52679001D03*
%TO.P,U1,5*%
%TO.N,Net-(U1-Pad10)*%
X26213001Y-55219001D03*
%TO.P,U1,12*%
%TO.N,Net-(U1-Pad12)*%
X33833001Y-50139001D03*
%TO.P,U1,6*%
X26213001Y-57759001D03*
%TO.P,U1,13*%
%TO.N,Net-(U1-Pad13)*%
X33833001Y-47599001D03*
%TO.P,U1,7*%
%TO.N,Net-(GND1-Pad1)*%
X26213001Y-60299001D03*
%TO.P,U1,14*%
%TO.N,+5V*%
X33833001Y-45059001D03*
%TD*%
D12*
%TO.P,GND1,1*%
%TO.N,+5V*%
X32512000Y-25908000D03*
%TD*%
%TO.P,\u00DCn+1,1*%
%TO.N,Net-(R2-Pad1)*%
X58166000Y-25908000D03*
%TD*%
%TO.P,Un1,1*%
%TO.N,Net-(U2-Pad10)*%
X41656000Y-25908000D03*
%TD*%
%TO.P,S1,1*%
%TO.N,Net-(R1-Pad1)*%
X54102000Y-25908000D03*
%TD*%
D11*
%TO.P,U2,1*%
%TO.N,Net-(U1-Pad11)*%
X38100000Y-45009001D03*
D10*
%TO.P,U2,8*%
%TO.N,Net-(U2-Pad13)*%
X45720000Y-60249001D03*
%TO.P,U2,2*%
%TO.N,Net-(U2-Pad10)*%
X38100000Y-47549001D03*
%TO.P,U2,9*%
%TO.N,Net-(U2-Pad3)*%
X45720000Y-57709001D03*
%TO.P,U2,3*%
X38100000Y-50089001D03*
%TO.P,U2,10*%
%TO.N,Net-(U2-Pad10)*%
X45720000Y-55169001D03*
%TO.P,U2,4*%
%TO.N,Net-(U1-Pad11)*%
X38100000Y-52629001D03*
%TO.P,U2,11*%
%TO.N,Net-(R1-Pad1)*%
X45720000Y-52629001D03*
%TO.P,U2,5*%
%TO.N,Net-(U2-Pad3)*%
X38100000Y-55169001D03*
%TO.P,U2,12*%
%TO.N,Net-(U2-Pad12)*%
X45720000Y-50089001D03*
%TO.P,U2,6*%
X38100000Y-57709001D03*
%TO.P,U2,13*%
%TO.N,Net-(U2-Pad13)*%
X45720000Y-47549001D03*
%TO.P,U2,7*%
%TO.N,Net-(GND1-Pad1)*%
X38100000Y-60249001D03*
%TO.P,U2,14*%
%TO.N,+5V*%
X45720000Y-45009001D03*
%TD*%
D12*
%TO.P,a2,1*%
%TO.N,Net-(U3-Pad4)*%
X71374000Y-25654000D03*
%TD*%
%TO.P,b2,1*%
%TO.N,Net-(U3-Pad13)*%
X75184000Y-25654000D03*
%TD*%
D14*
%TO.P,D3,2*%
%TO.N,Net-(D3-Pad2)*%
X69088000Y-30988000D03*
D13*
%TO.P,D3,1*%
%TO.N,Net-(GND1-Pad1)*%
X69088000Y-33528000D03*
%TD*%
%TO.P,D4,1*%
%TO.N,Net-(GND1-Pad1)*%
X81026000Y-33528000D03*
D14*
%TO.P,D4,2*%
%TO.N,Net-(D4-Pad2)*%
X81026000Y-30988000D03*
%TD*%
D15*
%TO.P,R3,1*%
%TO.N,Net-(R3-Pad1)*%
X72644000Y-39370000D03*
D10*
%TO.P,R3,2*%
%TO.N,Net-(D3-Pad2)*%
X65024000Y-39370000D03*
%TD*%
%TO.P,R4,2*%
%TO.N,Net-(D4-Pad2)*%
X84328000Y-39370000D03*
D15*
%TO.P,R4,1*%
%TO.N,Net-(R4-Pad1)*%
X76708000Y-39370000D03*
%TD*%
D12*
%TO.P,S2,1*%
%TO.N,Net-(R3-Pad1)*%
X79248000Y-25654000D03*
%TD*%
D11*
%TO.P,U4,1*%
%TO.N,Net-(U3-Pad8)*%
X61976000Y-44958000D03*
D10*
%TO.P,U4,8*%
%TO.N,Net-(U4-Pad8)*%
X69596000Y-60198000D03*
%TO.P,U4,2*%
%TO.N,Net-(U3-Pad11)*%
X61976000Y-47498000D03*
%TO.P,U4,9*%
%TO.N,Net-(U4-Pad3)*%
X69596000Y-57658000D03*
%TO.P,U4,3*%
X61976000Y-50038000D03*
%TO.P,U4,10*%
%TO.N,Net-(U4-Pad10)*%
X69596000Y-55118000D03*
%TO.P,U4,4*%
%TO.N,Net-(U4-Pad3)*%
X61976000Y-52578000D03*
%TO.P,U4,11*%
%TO.N,Net-(U4-Pad11)*%
X69596000Y-52578000D03*
%TO.P,U4,5*%
%TO.N,Net-(U4-Pad13)*%
X61976000Y-55118000D03*
%TO.P,U4,12*%
%TO.N,Net-(U4-Pad10)*%
X69596000Y-50038000D03*
%TO.P,U4,6*%
X61976000Y-57658000D03*
%TO.P,U4,13*%
%TO.N,Net-(U4-Pad13)*%
X69596000Y-47498000D03*
%TO.P,U4,7*%
%TO.N,Net-(GND1-Pad1)*%
X61976000Y-60198000D03*
%TO.P,U4,14*%
%TO.N,+5V*%
X69596000Y-44958000D03*
%TD*%
%TO.P,U5,14*%
%TO.N,+5V*%
X81534000Y-44958000D03*
%TO.P,U5,7*%
%TO.N,Net-(GND1-Pad1)*%
X73914000Y-60198000D03*
%TO.P,U5,13*%
%TO.N,Net-(U5-Pad13)*%
X81534000Y-47498000D03*
%TO.P,U5,6*%
%TO.N,Net-(R4-Pad1)*%
X73914000Y-57658000D03*
%TO.P,U5,12*%
%TO.N,Net-(U5-Pad12)*%
X81534000Y-50038000D03*
%TO.P,U5,5*%
%TO.N,Net-(U3-Pad10)*%
X73914000Y-55118000D03*
%TO.P,U5,11*%
%TO.N,Net-(U5-Pad11)*%
X81534000Y-52578000D03*
%TO.P,U5,4*%
%TO.N,Net-(U4-Pad10)*%
X73914000Y-52578000D03*
%TO.P,U5,10*%
%TO.N,Net-(U5-Pad10)*%
X81534000Y-55118000D03*
%TO.P,U5,3*%
%TO.N,Net-(R3-Pad1)*%
X73914000Y-50038000D03*
%TO.P,U5,9*%
%TO.N,Net-(U5-Pad12)*%
X81534000Y-57658000D03*
%TO.P,U5,2*%
%TO.N,Net-(U4-Pad11)*%
X73914000Y-47498000D03*
%TO.P,U5,8*%
%TO.N,Net-(U5-Pad13)*%
X81534000Y-60198000D03*
D11*
%TO.P,U5,1*%
%TO.N,Net-(U4-Pad8)*%
X73914000Y-44958000D03*
%TD*%
D12*
%TO.P,Un2,1*%
%TO.N,Net-(U4-Pad13)*%
X67564000Y-25654000D03*
%TD*%
%TO.P,\u00DCn+2,1*%
%TO.N,Net-(R4-Pad1)*%
X83312000Y-25654000D03*
%TD*%
%TO.P,GND1,1*%
%TO.N,Net-(GND1-Pad1)*%
X32512000Y-29972000D03*
%TD*%
%TO.P,a3,1*%
%TO.N,Net-(U5-Pad12)*%
X94742000Y-25654000D03*
%TD*%
%TO.P,a4,1*%
%TO.N,Net-(U9-Pad1)*%
X118618000Y-25654000D03*
%TD*%
%TO.P,b3,1*%
%TO.N,Net-(U5-Pad10)*%
X99060000Y-25654000D03*
%TD*%
%TO.P,b4,1*%
%TO.N,Net-(U9-Pad5)*%
X122936000Y-25654000D03*
%TD*%
D13*
%TO.P,D5,1*%
%TO.N,Net-(GND1-Pad1)*%
X93980000Y-33528000D03*
D14*
%TO.P,D5,2*%
%TO.N,Net-(D5-Pad2)*%
X93980000Y-30988000D03*
%TD*%
D13*
%TO.P,D6,1*%
%TO.N,Net-(GND1-Pad1)*%
X106172000Y-33528000D03*
D14*
%TO.P,D6,2*%
%TO.N,Net-(D6-Pad2)*%
X106172000Y-30988000D03*
%TD*%
%TO.P,D7,2*%
%TO.N,Net-(D7-Pad2)*%
X118110000Y-30988000D03*
D13*
%TO.P,D7,1*%
%TO.N,Net-(GND1-Pad1)*%
X118110000Y-33528000D03*
%TD*%
D14*
%TO.P,D8,2*%
%TO.N,Net-(D8-Pad2)*%
X130048000Y-30988000D03*
D13*
%TO.P,D8,1*%
%TO.N,Net-(GND1-Pad1)*%
X130048000Y-33528000D03*
%TD*%
D10*
%TO.P,R5,2*%
%TO.N,Net-(D5-Pad2)*%
X90170000Y-39116000D03*
D15*
%TO.P,R5,1*%
%TO.N,Net-(R5-Pad1)*%
X97790000Y-39116000D03*
%TD*%
%TO.P,R6,1*%
%TO.N,Net-(R6-Pad1)*%
X109982000Y-39370000D03*
D10*
%TO.P,R6,2*%
%TO.N,Net-(D6-Pad2)*%
X102362000Y-39370000D03*
%TD*%
%TO.P,R7,2*%
%TO.N,Net-(D7-Pad2)*%
X114300000Y-39370000D03*
D15*
%TO.P,R7,1*%
%TO.N,Net-(R7-Pad1)*%
X121920000Y-39370000D03*
%TD*%
%TO.P,R8,1*%
%TO.N,Net-(R8-Pad1)*%
X133858000Y-39370000D03*
D10*
%TO.P,R8,2*%
%TO.N,Net-(D8-Pad2)*%
X126238000Y-39370000D03*
%TD*%
D12*
%TO.P,S3,1*%
%TO.N,Net-(R5-Pad1)*%
X103378000Y-25654000D03*
%TD*%
%TO.P,S4,1*%
%TO.N,Net-(R7-Pad1)*%
X127254000Y-25654000D03*
%TD*%
D11*
%TO.P,U6,1*%
%TO.N,Net-(U5-Pad10)*%
X85598000Y-44958000D03*
D10*
%TO.P,U6,8*%
%TO.N,N/C*%
X93218000Y-60198000D03*
%TO.P,U6,2*%
%TO.N,Net-(U5-Pad13)*%
X85598000Y-47498000D03*
%TO.P,U6,9*%
%TO.N,N/C*%
X93218000Y-57658000D03*
%TO.P,U6,3*%
%TO.N,Net-(U6-Pad3)*%
X85598000Y-50038000D03*
%TO.P,U6,10*%
%TO.N,N/C*%
X93218000Y-55118000D03*
%TO.P,U6,4*%
%TO.N,Net-(U5-Pad11)*%
X85598000Y-52578000D03*
%TO.P,U6,11*%
%TO.N,N/C*%
X93218000Y-52578000D03*
%TO.P,U6,5*%
%TO.N,Net-(U6-Pad3)*%
X85598000Y-55118000D03*
%TO.P,U6,12*%
%TO.N,N/C*%
X93218000Y-50038000D03*
%TO.P,U6,6*%
%TO.N,Net-(U6-Pad6)*%
X85598000Y-57658000D03*
%TO.P,U6,13*%
%TO.N,N/C*%
X93218000Y-47498000D03*
%TO.P,U6,7*%
%TO.N,Net-(GND1-Pad1)*%
X85598000Y-60198000D03*
%TO.P,U6,14*%
%TO.N,+5V*%
X93218000Y-44958000D03*
%TD*%
%TO.P,U7,14*%
%TO.N,+5V*%
X105156000Y-44958000D03*
%TO.P,U7,7*%
%TO.N,Net-(GND1-Pad1)*%
X97536000Y-60198000D03*
%TO.P,U7,13*%
%TO.N,Net-(U7-Pad13)*%
X105156000Y-47498000D03*
%TO.P,U7,6*%
%TO.N,N/C*%
X97536000Y-57658000D03*
%TO.P,U7,12*%
%TO.N,Net-(U6-Pad6)*%
X105156000Y-50038000D03*
%TO.P,U7,5*%
%TO.N,N/C*%
X97536000Y-55118000D03*
%TO.P,U7,11*%
%TO.N,Net-(U7-Pad11)*%
X105156000Y-52578000D03*
%TO.P,U7,4*%
%TO.N,N/C*%
X97536000Y-52578000D03*
%TO.P,U7,10*%
%TO.N,Net-(U7-Pad10)*%
X105156000Y-55118000D03*
%TO.P,U7,3*%
%TO.N,N/C*%
X97536000Y-50038000D03*
%TO.P,U7,9*%
%TO.N,Net-(U6-Pad6)*%
X105156000Y-57658000D03*
%TO.P,U7,2*%
%TO.N,N/C*%
X97536000Y-47498000D03*
%TO.P,U7,8*%
%TO.N,Net-(U7-Pad13)*%
X105156000Y-60198000D03*
D11*
%TO.P,U7,1*%
%TO.N,N/C*%
X97536000Y-44958000D03*
%TD*%
%TO.P,U8,1*%
%TO.N,Net-(U7-Pad13)*%
X133350000Y-44958000D03*
D10*
%TO.P,U8,8*%
%TO.N,Net-(R6-Pad1)*%
X140970000Y-60198000D03*
%TO.P,U8,2*%
%TO.N,Net-(U7-Pad10)*%
X133350000Y-47498000D03*
%TO.P,U8,9*%
%TO.N,Net-(U7-Pad13)*%
X140970000Y-57658000D03*
%TO.P,U8,3*%
%TO.N,Net-(U8-Pad3)*%
X133350000Y-50038000D03*
%TO.P,U8,10*%
%TO.N,Net-(U5-Pad13)*%
X140970000Y-55118000D03*
%TO.P,U8,4*%
%TO.N,Net-(U7-Pad11)*%
X133350000Y-52578000D03*
%TO.P,U8,11*%
%TO.N,Net-(U10-Pad13)*%
X140970000Y-52578000D03*
%TO.P,U8,5*%
%TO.N,Net-(U8-Pad3)*%
X133350000Y-55118000D03*
%TO.P,U8,12*%
%TO.N,Net-(U8-Pad12)*%
X140970000Y-50038000D03*
%TO.P,U8,6*%
%TO.N,Net-(R5-Pad1)*%
X133350000Y-57658000D03*
%TO.P,U8,13*%
%TO.N,Net-(U8-Pad13)*%
X140970000Y-47498000D03*
%TO.P,U8,7*%
%TO.N,Net-(GND1-Pad1)*%
X133350000Y-60198000D03*
%TO.P,U8,14*%
%TO.N,+5V*%
X140970000Y-44958000D03*
%TD*%
D11*
%TO.P,U10,1*%
%TO.N,Net-(U10-Pad1)*%
X109474000Y-44958000D03*
D10*
%TO.P,U10,8*%
%TO.N,Net-(R7-Pad1)*%
X117094000Y-60198000D03*
%TO.P,U10,2*%
%TO.N,Net-(U10-Pad12)*%
X109474000Y-47498000D03*
%TO.P,U10,9*%
%TO.N,Net-(U10-Pad3)*%
X117094000Y-57658000D03*
%TO.P,U10,3*%
X109474000Y-50038000D03*
%TO.P,U10,10*%
%TO.N,Net-(U10-Pad10)*%
X117094000Y-55118000D03*
%TO.P,U10,4*%
%TO.N,Net-(U10-Pad12)*%
X109474000Y-52578000D03*
%TO.P,U10,11*%
%TO.N,Net-(R8-Pad1)*%
X117094000Y-52578000D03*
%TO.P,U10,5*%
%TO.N,Net-(U10-Pad5)*%
X109474000Y-55118000D03*
%TO.P,U10,12*%
%TO.N,Net-(U10-Pad12)*%
X117094000Y-50038000D03*
%TO.P,U10,6*%
%TO.N,Net-(U10-Pad10)*%
X109474000Y-57658000D03*
%TO.P,U10,13*%
%TO.N,Net-(U10-Pad13)*%
X117094000Y-47498000D03*
%TO.P,U10,7*%
%TO.N,Net-(GND1-Pad1)*%
X109474000Y-60198000D03*
%TO.P,U10,14*%
%TO.N,+5V*%
X117094000Y-44958000D03*
%TD*%
D12*
%TO.P,Un3,1*%
%TO.N,Net-(U7-Pad10)*%
X90678000Y-25654000D03*
%TD*%
%TO.P,Un4,1*%
%TO.N,Net-(U10-Pad5)*%
X114554000Y-25654000D03*
%TD*%
%TO.P,\u00DCn+3,1*%
%TO.N,Net-(R6-Pad1)*%
X107442000Y-25654000D03*
%TD*%
%TO.P,\u00DCn+4,1*%
%TO.N,Net-(R8-Pad1)*%
X131572000Y-25654000D03*
%TD*%
D11*
%TO.P,U3,1*%
%TO.N,Net-(U2-Pad3)*%
X50038000Y-44958000D03*
D10*
%TO.P,U3,8*%
%TO.N,Net-(U3-Pad8)*%
X57658000Y-60198000D03*
%TO.P,U3,2*%
%TO.N,Net-(U1-Pad10)*%
X50038000Y-47498000D03*
%TO.P,U3,9*%
%TO.N,Net-(U3-Pad4)*%
X57658000Y-57658000D03*
%TO.P,U3,3*%
%TO.N,Net-(R2-Pad1)*%
X50038000Y-50038000D03*
%TO.P,U3,10*%
%TO.N,Net-(U3-Pad10)*%
X57658000Y-55118000D03*
%TO.P,U3,4*%
%TO.N,Net-(U3-Pad4)*%
X50038000Y-52578000D03*
%TO.P,U3,11*%
%TO.N,Net-(U3-Pad11)*%
X57658000Y-52578000D03*
%TO.P,U3,5*%
%TO.N,Net-(U3-Pad13)*%
X50038000Y-55118000D03*
%TO.P,U3,12*%
%TO.N,Net-(U3-Pad10)*%
X57658000Y-50038000D03*
%TO.P,U3,6*%
X50038000Y-57658000D03*
%TO.P,U3,13*%
%TO.N,Net-(U3-Pad13)*%
X57658000Y-47498000D03*
%TO.P,U3,7*%
%TO.N,Net-(GND1-Pad1)*%
X50038000Y-60198000D03*
%TO.P,U3,14*%
%TO.N,+5V*%
X57658000Y-44958000D03*
%TD*%
D16*
%TO.N,Net-(U1-Pad2)*%
X38354000Y-28448000D03*
X37084000Y-33274000D03*
%TO.N,Net-(U1-Pad11)*%
X42418000Y-49530000D03*
%TO.N,Net-(U1-Pad12)*%
X29718000Y-53594000D03*
%TO.N,Net-(U2-Pad13)*%
X43942000Y-51562000D03*
%TO.N,Net-(U3-Pad13)*%
X61722000Y-32258000D03*
X60960000Y-34798000D03*
%TO.N,Net-(U4-Pad8)*%
X76200000Y-62484000D03*
%TO.N,+5V*%
X107696000Y-42672000D03*
X104013000Y-42545000D03*
X122391001Y-41946999D03*
X120142000Y-42926000D03*
%TO.N,Net-(U9-Pad1)*%
X120650000Y-34798000D03*
X120650000Y-41910000D03*
%TO.N,Net-(U9-Pad5)*%
X124968000Y-63246000D03*
X124968000Y-59944000D03*
X124968000Y-59944000D03*
X124587000Y-57277000D03*
X138684000Y-63246000D03*
X140208000Y-65786000D03*
%TO.N,Net-(R7-Pad1)*%
X135128000Y-62484000D03*
X144272000Y-29718000D03*
%TO.N,Net-(R8-Pad1)*%
X113792000Y-47244000D03*
X112141000Y-45339000D03*
X115062000Y-45212000D03*
X112522000Y-41656000D03*
X130048000Y-41910000D03*
%TO.N,Net-(U7-Pad11)*%
X101854000Y-51562000D03*
X100330000Y-55626000D03*
X100076000Y-57912000D03*
X137414000Y-65532000D03*
X137414000Y-62738000D03*
X136398000Y-57658000D03*
X136779000Y-55499000D03*
X136398000Y-48514000D03*
%TO.N,Net-(U7-Pad10)*%
X100076000Y-32512000D03*
X100076000Y-35306000D03*
%TO.N,Net-(U10-Pad5)*%
X132404501Y-34727499D03*
%TO.N,Net-(U10-Pad12)*%
X113538000Y-50546000D03*
%TO.N,Net-(U9-Pad3)*%
X119126000Y-55626000D03*
%TO.N,Net-(U10-Pad3)*%
X110744000Y-62484000D03*
X101981000Y-62611000D03*
X98933000Y-62611000D03*
X90170000Y-51054000D03*
X90170000Y-46990000D03*
X101709001Y-46372999D03*
X107297001Y-46372999D03*
%TD*%
D17*
%TO.N,Net-(U1-Pad2)*%
X32708000Y-54094000D02*
X26213001Y-47599001D01*
X32708000Y-56634000D02*
X32708000Y-54094000D01*
X33833001Y-57759001D02*
X32708000Y-56634000D01*
X26213001Y-47599001D02*
X31242000Y-42570002D01*
X31242000Y-39116000D02*
X37084000Y-33274000D01*
X31242000Y-42570002D02*
X31242000Y-39116000D01*
X50038000Y-25908000D02*
X50038000Y-26416000D01*
X48006000Y-28448000D02*
X38354000Y-28448000D01*
X50038000Y-26416000D02*
X48006000Y-28448000D01*
%TO.N,Net-(U1-Pad13)*%
X34958002Y-59174000D02*
X33833001Y-60299001D01*
X34958002Y-48724002D02*
X34958002Y-59174000D01*
X33833001Y-47599001D02*
X34958002Y-48724002D01*
%TO.N,Net-(U1-Pad10)*%
X33293000Y-46474000D02*
X35359997Y-46474000D01*
X32708000Y-47059000D02*
X33293000Y-46474000D01*
X32708000Y-53419009D02*
X32708000Y-47059000D01*
X48861998Y-48674002D02*
X50038000Y-47498000D01*
X35359997Y-46474000D02*
X37559999Y-48674002D01*
X33833001Y-54544010D02*
X32708000Y-53419009D01*
X37559999Y-48674002D02*
X48861998Y-48674002D01*
X33833001Y-55219001D02*
X33833001Y-54544010D01*
%TO.N,Net-(U1-Pad11)*%
X39318999Y-52629001D02*
X42418000Y-49530000D01*
X38100000Y-52629001D02*
X39318999Y-52629001D01*
%TO.N,Net-(U1-Pad12)*%
X26213001Y-57759001D02*
X27584999Y-57759001D01*
X29718000Y-55626000D02*
X29718000Y-53594000D01*
X27584999Y-57759001D02*
X29718000Y-55626000D01*
%TO.N,Net-(U2-Pad12)*%
X45720000Y-50089001D02*
X43890999Y-50089001D01*
X43890999Y-50089001D02*
X40386000Y-53594000D01*
X40386000Y-55423001D02*
X38100000Y-57709001D01*
X40386000Y-53594000D02*
X40386000Y-55423001D01*
%TO.N,Net-(U2-Pad13)*%
X43942000Y-51562000D02*
X42672000Y-52832000D01*
X42672000Y-52832000D02*
X42672000Y-58420000D01*
X44501001Y-60249001D02*
X45720000Y-60249001D01*
X42672000Y-58420000D02*
X44501001Y-60249001D01*
%TO.N,Net-(U3-Pad13)*%
X50038000Y-55118000D02*
X57658000Y-47498000D01*
X75184000Y-25654000D02*
X72898000Y-23368000D01*
X72898000Y-23368000D02*
X64770000Y-23368000D01*
X64770000Y-29210000D02*
X61722000Y-32258000D01*
X64770000Y-23368000D02*
X64770000Y-29210000D01*
X60560001Y-44595999D02*
X57658000Y-47498000D01*
X60560001Y-35197999D02*
X60560001Y-44595999D01*
X60960000Y-34798000D02*
X60560001Y-35197999D01*
%TO.N,Net-(U3-Pad10)*%
X59072999Y-61323001D02*
X61612999Y-58783001D01*
X70248999Y-58783001D02*
X73914000Y-55118000D01*
X61612999Y-58783001D02*
X70248999Y-58783001D01*
X57117999Y-61323001D02*
X59072999Y-61323001D01*
X56532999Y-60738001D02*
X57117999Y-61323001D01*
X56532999Y-56243001D02*
X56532999Y-60738001D01*
X57658000Y-55118000D02*
X56532999Y-56243001D01*
%TO.N,Net-(U3-Pad8)*%
X61976000Y-44958000D02*
X59182000Y-47752000D01*
X59182000Y-58674000D02*
X57658000Y-60198000D01*
X59182000Y-47752000D02*
X59182000Y-58674000D01*
%TO.N,Net-(U4-Pad8)*%
X73914000Y-44958000D02*
X74168000Y-44958000D01*
X76200000Y-46990000D02*
X76200000Y-62484000D01*
X74168000Y-44958000D02*
X76200000Y-46990000D01*
%TO.N,Net-(U4-Pad3)*%
X61976000Y-50038000D02*
X61976000Y-52578000D01*
X67056000Y-57658000D02*
X61976000Y-52578000D01*
X69596000Y-57658000D02*
X67056000Y-57658000D01*
%TO.N,Net-(U4-Pad11)*%
X73914000Y-48260000D02*
X73914000Y-47498000D01*
X69596000Y-52578000D02*
X73914000Y-48260000D01*
%TO.N,+5V*%
X43636999Y-42926000D02*
X45720000Y-45009001D01*
X33833001Y-45059001D02*
X35966002Y-42926000D01*
X35966002Y-42926000D02*
X43636999Y-42926000D01*
X45720000Y-45009001D02*
X48006000Y-42723001D01*
X48006000Y-42723001D02*
X55574999Y-42723001D01*
X57658000Y-44806002D02*
X57658000Y-44958000D01*
X55574999Y-42723001D02*
X57658000Y-44806002D01*
X81534000Y-44450000D02*
X81534000Y-44958000D01*
X69596000Y-44958000D02*
X71882000Y-42672000D01*
X79756000Y-42672000D02*
X81534000Y-44450000D01*
X71882000Y-42672000D02*
X79756000Y-42672000D01*
X81534000Y-44958000D02*
X83566000Y-42926000D01*
X91440000Y-43180000D02*
X93218000Y-44958000D01*
X83566000Y-42926000D02*
X91186000Y-42926000D01*
X91186000Y-42926000D02*
X91440000Y-43180000D01*
X107569000Y-42545000D02*
X107696000Y-42672000D01*
X104013000Y-42545000D02*
X107569000Y-42545000D01*
X140970000Y-44958000D02*
X138430000Y-42418000D01*
X138430000Y-42418000D02*
X132080000Y-42418000D01*
X129540000Y-44958000D02*
X129032000Y-44958000D01*
X132080000Y-42418000D02*
X129540000Y-44958000D01*
X121412000Y-42926000D02*
X122391001Y-41946999D01*
X120142000Y-42926000D02*
X121412000Y-42926000D01*
%TO.N,Net-(U5-Pad12)*%
X81534000Y-57658000D02*
X80772000Y-57658000D01*
X80772000Y-57658000D02*
X80010000Y-56896000D01*
X80010000Y-51562000D02*
X81534000Y-50038000D01*
X80010000Y-56896000D02*
X80010000Y-51562000D01*
%TO.N,Net-(U9-Pad1)*%
X120650000Y-34798000D02*
X120650000Y-41910000D01*
%TO.N,Net-(U9-Pad5)*%
X124968000Y-63246000D02*
X124968000Y-59944000D01*
X124968000Y-59944000D02*
X124968000Y-59944000D01*
X124968000Y-59944000D02*
X124968000Y-59944000D01*
X121412000Y-55118000D02*
X123190000Y-55118000D01*
X124587000Y-56515000D02*
X124587000Y-57277000D01*
X123190000Y-55118000D02*
X124587000Y-56515000D01*
X138684000Y-63246000D02*
X138684000Y-64262000D01*
X138684000Y-64262000D02*
X140208000Y-65786000D01*
X140208000Y-65786000D02*
X140208000Y-65786000D01*
%TO.N,Net-(D8-Pad2)*%
X130048000Y-30988000D02*
X133604000Y-30988000D01*
X133604000Y-30988000D02*
X134620000Y-32004000D01*
X134620000Y-32004000D02*
X134620000Y-33782000D01*
X129032000Y-39370000D02*
X126238000Y-39370000D01*
X134620000Y-33782000D02*
X129032000Y-39370000D01*
%TO.N,Net-(R5-Pad1)*%
X97790000Y-36518998D02*
X97790000Y-39116000D01*
X102511997Y-34580999D02*
X99727999Y-34580999D01*
X116553999Y-48623001D02*
X102511997Y-34580999D01*
X121662003Y-48623001D02*
X116553999Y-48623001D01*
X122537001Y-49497999D02*
X121662003Y-48623001D01*
X99727999Y-34580999D02*
X97790000Y-36518998D01*
X122537001Y-50578001D02*
X122537001Y-49497999D01*
X121952001Y-51163001D02*
X122537001Y-50578001D01*
X121161997Y-51163001D02*
X121952001Y-51163001D01*
X120286999Y-52037999D02*
X121161997Y-51163001D01*
X120286999Y-58198001D02*
X120286999Y-52037999D01*
X120871999Y-58783001D02*
X120286999Y-58198001D01*
X132224999Y-58783001D02*
X120871999Y-58783001D01*
X133350000Y-57658000D02*
X132224999Y-58783001D01*
%TO.N,Net-(R6-Pad1)*%
X142095001Y-59072999D02*
X142095001Y-29827001D01*
X140970000Y-60198000D02*
X142095001Y-59072999D01*
X142095001Y-29827001D02*
X135636000Y-23368000D01*
X135636000Y-23368000D02*
X110744000Y-23368000D01*
X108458000Y-25654000D02*
X107442000Y-25654000D01*
X110744000Y-23368000D02*
X108458000Y-25654000D01*
%TO.N,Net-(R7-Pad1)*%
X136002605Y-61609395D02*
X142352605Y-61609395D01*
X135128000Y-62484000D02*
X136002605Y-61609395D01*
X143256000Y-60706000D02*
X143510000Y-60452000D01*
X142352605Y-61609395D02*
X143256000Y-60706000D01*
X144907000Y-59055000D02*
X144907000Y-30353000D01*
X144907000Y-59055000D02*
X145034000Y-58928000D01*
X143256000Y-60706000D02*
X144907000Y-59055000D01*
X144907000Y-30353000D02*
X144272000Y-29718000D01*
X144272000Y-29718000D02*
X144272000Y-29718000D01*
%TO.N,Net-(R8-Pad1)*%
X133858000Y-39370000D02*
X138684000Y-34544000D01*
X131572000Y-25654000D02*
X134366000Y-25654000D01*
X138684000Y-29972000D02*
X138684000Y-34544000D01*
X134366000Y-25654000D02*
X138684000Y-29972000D01*
X113792000Y-47244000D02*
X112268000Y-45720000D01*
X112268000Y-45720000D02*
X112268000Y-45466000D01*
X112268000Y-45466000D02*
X112141000Y-45339000D01*
X112141000Y-45339000D02*
X112014000Y-45212000D01*
X115062000Y-45212000D02*
X115062000Y-44196000D01*
X115062000Y-44196000D02*
X112522000Y-41656000D01*
X112522000Y-41656000D02*
X112522000Y-41656000D01*
X130048000Y-41910000D02*
X130556000Y-42418000D01*
X130810000Y-42418000D02*
X133858000Y-39370000D01*
X130556000Y-42418000D02*
X130810000Y-42418000D01*
%TO.N,Net-(U5-Pad13)*%
X81534000Y-47498000D02*
X78994000Y-50038000D01*
X78994000Y-50038000D02*
X78994000Y-58674000D01*
X80518000Y-60198000D02*
X81534000Y-60198000D01*
X78994000Y-58674000D02*
X80518000Y-60198000D01*
X81534000Y-47498000D02*
X85598000Y-47498000D01*
%TO.N,Net-(U5-Pad11)*%
X81534000Y-52578000D02*
X85598000Y-52578000D01*
%TO.N,Net-(U6-Pad3)*%
X85598000Y-50038000D02*
X87122000Y-50038000D01*
X87122000Y-50038000D02*
X87884000Y-50800000D01*
X87884000Y-52832000D02*
X85598000Y-55118000D01*
X87884000Y-50800000D02*
X87884000Y-52832000D01*
%TO.N,Net-(U6-Pad6)*%
X85598000Y-57658000D02*
X91186000Y-57658000D01*
X92600999Y-59072999D02*
X100439001Y-59072999D01*
X91186000Y-57658000D02*
X92600999Y-59072999D01*
X101854000Y-57658000D02*
X105156000Y-57658000D01*
X100439001Y-59072999D02*
X101854000Y-57658000D01*
%TO.N,Net-(U7-Pad11)*%
X105156000Y-52578000D02*
X102870000Y-52578000D01*
X102870000Y-52578000D02*
X101854000Y-51562000D01*
X101854000Y-51562000D02*
X101854000Y-51562000D01*
X100330000Y-55626000D02*
X100330000Y-57658000D01*
X100330000Y-57658000D02*
X100076000Y-57912000D01*
X100076000Y-57912000D02*
X100076000Y-57912000D01*
X137414000Y-65532000D02*
X137414000Y-62738000D01*
X137414000Y-62738000D02*
X137414000Y-62738000D01*
X136398000Y-57658000D02*
X136398000Y-55880000D01*
X136398000Y-55880000D02*
X136779000Y-55499000D01*
X136779000Y-55499000D02*
X136906000Y-55372000D01*
X136398000Y-49530000D02*
X133350000Y-52578000D01*
X136398000Y-48514000D02*
X136398000Y-49530000D01*
%TO.N,Net-(U7-Pad10)*%
X90678000Y-25654000D02*
X90678000Y-26924000D01*
X90678000Y-26924000D02*
X92964000Y-29210000D01*
X96774000Y-29210000D02*
X100076000Y-32512000D01*
X92964000Y-29210000D02*
X96774000Y-29210000D01*
X100076000Y-35306000D02*
X100076000Y-51562000D01*
X103632000Y-55118000D02*
X105156000Y-55118000D01*
X100076000Y-51562000D02*
X103632000Y-55118000D01*
X106281001Y-53992999D02*
X105156000Y-55118000D01*
X118219001Y-53118001D02*
X117344003Y-53992999D01*
X118219001Y-52037999D02*
X118219001Y-53118001D01*
X117634001Y-51452999D02*
X118219001Y-52037999D01*
X117344003Y-53992999D02*
X106281001Y-53992999D01*
X116863607Y-51452999D02*
X117634001Y-51452999D01*
X110599001Y-45188393D02*
X116863607Y-51452999D01*
X110599001Y-43897999D02*
X110599001Y-45188393D01*
X100841997Y-43832999D02*
X110534001Y-43832999D01*
X96664999Y-37007589D02*
X96664999Y-39656001D01*
X102698397Y-34130989D02*
X99541598Y-34130990D01*
X114940407Y-46372999D02*
X102698397Y-34130989D01*
X99541598Y-34130990D02*
X96664999Y-37007589D01*
X122283001Y-46372999D02*
X114940407Y-46372999D01*
X96664999Y-39656001D02*
X100841997Y-43832999D01*
X124823001Y-48912999D02*
X122283001Y-46372999D01*
X131935001Y-48912999D02*
X124823001Y-48912999D01*
X110534001Y-43832999D02*
X110599001Y-43897999D01*
X133350000Y-47498000D02*
X131935001Y-48912999D01*
%TO.N,Net-(U10-Pad13)*%
X122537001Y-53703001D02*
X121412000Y-52578000D01*
X139844999Y-53703001D02*
X122537001Y-53703001D01*
X140970000Y-52578000D02*
X139844999Y-53703001D01*
%TO.N,Net-(U10-Pad5)*%
X125366999Y-43832999D02*
X129032000Y-47498000D01*
X117097997Y-43832999D02*
X125366999Y-43832999D01*
X113174999Y-38829999D02*
X113174999Y-39910001D01*
X113759999Y-38244999D02*
X113174999Y-38829999D01*
X115778003Y-38244999D02*
X113759999Y-38244999D01*
X128113008Y-33978010D02*
X120044992Y-33978010D01*
X120044992Y-33978010D02*
X115778003Y-38244999D01*
X128887999Y-34753001D02*
X128113008Y-33978010D01*
X131208001Y-34753001D02*
X128887999Y-34753001D01*
X131273001Y-34688001D02*
X131208001Y-34753001D01*
X131273001Y-32367999D02*
X131273001Y-34688001D01*
X113174999Y-39910001D02*
X117097997Y-43832999D01*
X131208001Y-32302999D02*
X131273001Y-32367999D01*
X121202999Y-32302999D02*
X131208001Y-32302999D01*
X114554000Y-25654000D02*
X121202999Y-32302999D01*
X131312499Y-34727499D02*
X131273001Y-34688001D01*
X132404501Y-34727499D02*
X131312499Y-34727499D01*
%TO.N,Net-(U9-Pad10)*%
X122086991Y-58332991D02*
X121412000Y-57658000D01*
X129032000Y-55118000D02*
X125817009Y-58332991D01*
X125817009Y-58332991D02*
X122086991Y-58332991D01*
%TO.N,Net-(U10-Pad12)*%
X109474000Y-47498000D02*
X107442000Y-49530000D01*
X107442000Y-50546000D02*
X109474000Y-52578000D01*
X107442000Y-49530000D02*
X107442000Y-50546000D01*
X109474000Y-52578000D02*
X111506000Y-52578000D01*
X111506000Y-52578000D02*
X113538000Y-50546000D01*
X113538000Y-50546000D02*
X113538000Y-50546000D01*
%TO.N,Net-(U9-Pad3)*%
X119126000Y-52324000D02*
X119126000Y-55626000D01*
X121412000Y-50038000D02*
X119126000Y-52324000D01*
%TO.N,Net-(U10-Pad3)*%
X117094000Y-57658000D02*
X115570000Y-57658000D01*
X115570000Y-57658000D02*
X110744000Y-62484000D01*
X110744000Y-62484000D02*
X110744000Y-62484000D01*
X101981000Y-62611000D02*
X98933000Y-62611000D01*
X98933000Y-62611000D02*
X98933000Y-62611000D01*
X90170000Y-51054000D02*
X90170000Y-46990000D01*
X90170000Y-46990000D02*
X90170000Y-46990000D01*
X101709001Y-46372999D02*
X107297001Y-46372999D01*
X107297001Y-46372999D02*
X107297001Y-46372999D01*
%TO.N,Net-(U10-Pad10)*%
X114554000Y-57658000D02*
X117094000Y-55118000D01*
X109474000Y-57658000D02*
X114554000Y-57658000D01*
%TO.N,Net-(GND1-Pad1)*%
X32512000Y-29972000D02*
X27432000Y-29972000D01*
X27432000Y-29972000D02*
X22606000Y-34798000D01*
X22606000Y-56692000D02*
X26213001Y-60299001D01*
X22606000Y-34798000D02*
X22606000Y-56692000D01*
X26213001Y-60299001D02*
X26213001Y-62027001D01*
X26213001Y-62027001D02*
X28194000Y-64008000D01*
X34341001Y-64008000D02*
X38100000Y-60249001D01*
X28194000Y-64008000D02*
X34341001Y-64008000D01*
X38100000Y-60249001D02*
X38100000Y-61976000D01*
X38100000Y-61976000D02*
X40132000Y-64008000D01*
X40132000Y-64008000D02*
X47752000Y-64008000D01*
X50038000Y-61722000D02*
X50038000Y-60198000D01*
X47752000Y-64008000D02*
X50038000Y-61722000D01*
X50038000Y-62484000D02*
X50038000Y-60198000D01*
X51562000Y-64008000D02*
X50038000Y-62484000D01*
X60706000Y-64008000D02*
X51562000Y-64008000D01*
X61976000Y-60198000D02*
X61976000Y-62738000D01*
X61722000Y-62992000D02*
X60706000Y-64008000D01*
X61976000Y-62738000D02*
X61722000Y-62992000D01*
X63246000Y-64008000D02*
X62230000Y-62992000D01*
X72644000Y-64008000D02*
X63246000Y-64008000D01*
X62230000Y-62992000D02*
X61722000Y-62992000D01*
X73914000Y-62738000D02*
X72644000Y-64008000D01*
X73914000Y-60198000D02*
X73914000Y-62738000D01*
X73914000Y-60198000D02*
X73914000Y-62230000D01*
X73914000Y-62230000D02*
X75692000Y-64008000D01*
X75692000Y-64008000D02*
X84074000Y-64008000D01*
X85598000Y-62484000D02*
X85598000Y-60198000D01*
X84074000Y-64008000D02*
X85598000Y-62484000D01*
X85598000Y-60198000D02*
X85598000Y-62738000D01*
X85598000Y-62738000D02*
X86868000Y-64008000D01*
X86868000Y-64008000D02*
X95758000Y-64008000D01*
X95758000Y-64008000D02*
X97536000Y-62230000D01*
X97536000Y-60198000D02*
X97536000Y-62230000D01*
X97536000Y-62230000D02*
X97536000Y-62484000D01*
X97536000Y-62484000D02*
X99568000Y-64516000D01*
X99568000Y-64516000D02*
X107442000Y-64516000D01*
X109474000Y-62484000D02*
X109474000Y-60198000D01*
X109347000Y-62611000D02*
X109601000Y-62611000D01*
X109347000Y-62611000D02*
X109474000Y-62484000D01*
X107442000Y-64516000D02*
X109347000Y-62611000D01*
X109601000Y-62611000D02*
X111506000Y-64516000D01*
X111506000Y-64516000D02*
X119888000Y-64516000D01*
X121412000Y-62992000D02*
X121412000Y-60198000D01*
X121158000Y-63246000D02*
X121920000Y-63246000D01*
X121158000Y-63246000D02*
X121412000Y-62992000D01*
X119888000Y-64516000D02*
X121158000Y-63246000D01*
X121920000Y-63246000D02*
X122682000Y-64008000D01*
X122682000Y-64008000D02*
X131572000Y-64008000D01*
X133350000Y-62230000D02*
X133350000Y-60198000D01*
X131572000Y-64008000D02*
X133350000Y-62230000D01*
X32512000Y-29972000D02*
X36068000Y-29972000D01*
X39624000Y-33528000D02*
X36068000Y-29972000D01*
X44196000Y-33528000D02*
X39624000Y-33528000D01*
X44196000Y-33528000D02*
X56388000Y-33528000D01*
X69088000Y-33528000D02*
X56388000Y-33528000D01*
X69088000Y-33528000D02*
X81026000Y-33528000D01*
X81026000Y-33528000D02*
X93980000Y-33528000D01*
X93980000Y-33528000D02*
X106172000Y-33528000D01*
X106172000Y-33528000D02*
X118110000Y-33528000D01*
X118110000Y-33528000D02*
X130048000Y-33528000D01*
%TD*%
M02*
