%TF.GenerationSoftware,KiCad,Pcbnew,(5.1.6)-1*%
%TF.CreationDate,2020-11-22T17:12:52+01:00*%
%TF.ProjectId,NANOV4,4e414e4f-5634-42e6-9b69-6361645f7063,rev?*%
%TF.SameCoordinates,Original*%
%TF.FileFunction,Copper,L1,Top*%
%TF.FilePolarity,Positive*%
%FSLAX46Y46*%
G04 Gerber Fmt 4.6, Leading zero omitted, Abs format (unit mm)*
G04 Created by KiCad (PCBNEW (5.1.6)-1) date 2020-11-22 17:12:52*
%MOMM*%
%LPD*%
G01*
G04 APERTURE LIST*
%TA.AperFunction,ComponentPad*%
%ADD10R,2.000000X2.000000*%
%TD*%
%TA.AperFunction,ComponentPad*%
%ADD11R,2.000000X1.905000*%
%TD*%
%TA.AperFunction,ComponentPad*%
%ADD12O,2.000000X1.905000*%
%TD*%
%TA.AperFunction,ComponentPad*%
%ADD13C,2.000000*%
%TD*%
%TA.AperFunction,ComponentPad*%
%ADD14R,1.600000X1.600000*%
%TD*%
%TA.AperFunction,ComponentPad*%
%ADD15O,1.600000X1.600000*%
%TD*%
%TA.AperFunction,ViaPad*%
%ADD16C,0.800000*%
%TD*%
%TA.AperFunction,Conductor*%
%ADD17C,0.250000*%
%TD*%
G04 APERTURE END LIST*
D10*
%TO.P,LP,1*%
%TO.N,GND*%
X167386000Y-112522000D03*
%TD*%
%TO.P,LP,1*%
%TO.N,GND*%
X167386000Y-115570000D03*
%TD*%
%TO.P,LP,1*%
%TO.N,GND*%
X164338000Y-115570000D03*
%TD*%
%TO.P,LP,1*%
%TO.N,GND*%
X161290000Y-115570000D03*
%TD*%
%TO.P,LP,1*%
%TO.N,GND*%
X158242000Y-115570000D03*
%TD*%
%TO.P,LP,1*%
%TO.N,GND*%
X164338000Y-112522000D03*
%TD*%
%TO.P,LP,1*%
%TO.N,GND*%
X161290000Y-112522000D03*
%TD*%
%TO.P,LP,1*%
%TO.N,GND*%
X158242000Y-112522000D03*
%TD*%
D11*
%TO.P,U1,1*%
%TO.N,Net-(S1-Pad2)*%
X153670000Y-52832000D03*
D12*
%TO.P,U1,2*%
%TO.N,GND*%
X153670000Y-50292000D03*
%TO.P,U1,3*%
%TO.N,Net-(C1-Pad1)*%
X153670000Y-47752000D03*
%TD*%
D13*
%TO.P,J3,16*%
%TO.N,+5V*%
X110744000Y-108966000D03*
%TO.P,J3,15*%
X110744000Y-106426000D03*
%TO.P,J3,14*%
%TO.N,Net-(D13-Pad1)*%
X110744000Y-103886000D03*
%TO.P,J3,13*%
%TO.N,Net-(D12-Pad1)*%
X110744000Y-101346000D03*
%TO.P,J3,12*%
%TO.N,Net-(D11-Pad1)*%
X110744000Y-98806000D03*
%TO.P,J3,11*%
%TO.N,Net-(D10-Pad1)*%
X110744000Y-96266000D03*
%TO.P,J3,10*%
%TO.N,Net-(D9-Pad1)*%
X110744000Y-93726000D03*
%TO.P,J3,9*%
%TO.N,Net-(D8-Pad1)*%
X110744000Y-91186000D03*
%TO.P,J3,8*%
%TO.N,Net-(D7-Pad1)*%
X110744000Y-88646000D03*
%TO.P,J3,7*%
%TO.N,Net-(D6-Pad1)*%
X110744000Y-86106000D03*
%TO.P,J3,6*%
%TO.N,Net-(D5-Pad1)*%
X110744000Y-83566000D03*
%TO.P,J3,5*%
%TO.N,Net-(D4-Pad1)*%
X110744000Y-81026000D03*
%TO.P,J3,4*%
%TO.N,Net-(D3-Pad1)*%
X110744000Y-78486000D03*
%TO.P,J3,3*%
%TO.N,Net-(D2-Pad1)*%
X110744000Y-75946000D03*
%TO.P,J3,2*%
%TO.N,Net-(IC1-Pad1)*%
X110744000Y-73406000D03*
%TO.P,J3,1*%
%TO.N,Net-(IC1-Pad2)*%
X110744000Y-70866000D03*
%TD*%
D14*
%TO.P,IC1,1*%
%TO.N,Net-(IC1-Pad1)*%
X132873001Y-65807001D03*
D15*
%TO.P,IC1,17*%
%TO.N,Net-(IC1-Pad17)*%
X148113001Y-98827001D03*
%TO.P,IC1,2*%
%TO.N,Net-(IC1-Pad2)*%
X132873001Y-68347001D03*
%TO.P,IC1,18*%
%TO.N,Net-(IC1-Pad18)*%
X148113001Y-96287001D03*
%TO.P,IC1,3*%
%TO.N,Net-(IC1-Pad28)*%
X132873001Y-70887001D03*
%TO.P,IC1,19*%
%TO.N,Net-(A0-Pad3)*%
X148113001Y-93747001D03*
%TO.P,IC1,4*%
%TO.N,GND*%
X132873001Y-73427001D03*
%TO.P,IC1,20*%
%TO.N,Net-(A1-Pad3)*%
X148113001Y-91207001D03*
%TO.P,IC1,5*%
%TO.N,Net-(D2-Pad1)*%
X132873001Y-75967001D03*
%TO.P,IC1,21*%
%TO.N,Net-(A2-Pad3)*%
X148113001Y-88667001D03*
%TO.P,IC1,6*%
%TO.N,Net-(D3-Pad1)*%
X132873001Y-78507001D03*
%TO.P,IC1,22*%
%TO.N,Net-(A3-Pad3)*%
X148113001Y-86127001D03*
%TO.P,IC1,7*%
%TO.N,Net-(D4-Pad1)*%
X132873001Y-81047001D03*
%TO.P,IC1,23*%
%TO.N,Net-(A4-Pad3)*%
X148113001Y-83587001D03*
%TO.P,IC1,8*%
%TO.N,Net-(D5-Pad1)*%
X132873001Y-83587001D03*
%TO.P,IC1,24*%
%TO.N,Net-(A5-Pad3)*%
X148113001Y-81047001D03*
%TO.P,IC1,9*%
%TO.N,Net-(D6-Pad1)*%
X132873001Y-86127001D03*
%TO.P,IC1,25*%
%TO.N,Net-(A6-Pad3)*%
X148113001Y-78507001D03*
%TO.P,IC1,10*%
%TO.N,Net-(D7-Pad1)*%
X132873001Y-88667001D03*
%TO.P,IC1,26*%
%TO.N,Net-(A7-Pad3)*%
X148113001Y-75967001D03*
%TO.P,IC1,11*%
%TO.N,Net-(D8-Pad1)*%
X132873001Y-91207001D03*
%TO.P,IC1,27*%
%TO.N,+5V*%
X148113001Y-73427001D03*
%TO.P,IC1,12*%
%TO.N,Net-(D9-Pad1)*%
X132873001Y-93747001D03*
%TO.P,IC1,28*%
%TO.N,Net-(IC1-Pad28)*%
X148113001Y-70887001D03*
%TO.P,IC1,13*%
%TO.N,Net-(D10-Pad1)*%
X132873001Y-96287001D03*
%TO.P,IC1,29*%
%TO.N,GND*%
X148113001Y-68347001D03*
%TO.P,IC1,14*%
%TO.N,Net-(D11-Pad1)*%
X132873001Y-98827001D03*
%TO.P,IC1,30*%
%TO.N,Net-(C1-Pad1)*%
X148113001Y-65807001D03*
%TO.P,IC1,15*%
%TO.N,Net-(D12-Pad1)*%
X132873001Y-101367001D03*
%TO.P,IC1,16*%
%TO.N,Net-(D13-Pad1)*%
X148113001Y-101367001D03*
%TD*%
D10*
%TO.P,C1,1*%
%TO.N,Net-(C1-Pad1)*%
X122428000Y-48768000D03*
D13*
%TO.P,C1,2*%
%TO.N,GND*%
X122428000Y-53768000D03*
%TD*%
%TO.P,J1,1*%
%TO.N,GND*%
X105664000Y-70866000D03*
%TO.P,J1,2*%
X105664000Y-73406000D03*
%TO.P,J1,3*%
X105664000Y-75946000D03*
%TO.P,J1,4*%
X105664000Y-78486000D03*
%TO.P,J1,5*%
X105664000Y-81026000D03*
%TO.P,J1,6*%
X105664000Y-83566000D03*
%TO.P,J1,7*%
X105664000Y-86106000D03*
%TO.P,J1,8*%
X105664000Y-88646000D03*
%TO.P,J1,9*%
X105664000Y-91186000D03*
%TO.P,J1,10*%
X105664000Y-93726000D03*
%TO.P,J1,11*%
X105664000Y-96266000D03*
%TO.P,J1,12*%
X105664000Y-98806000D03*
%TO.P,J1,13*%
X105664000Y-101346000D03*
%TO.P,J1,14*%
X105664000Y-103886000D03*
%TO.P,J1,15*%
X105664000Y-106426000D03*
%TO.P,J1,16*%
X105664000Y-108966000D03*
%TD*%
%TO.P,J2,16*%
%TO.N,+5V*%
X108204000Y-108966000D03*
%TO.P,J2,15*%
X108204000Y-106426000D03*
%TO.P,J2,14*%
X108204000Y-103886000D03*
%TO.P,J2,13*%
X108204000Y-101346000D03*
%TO.P,J2,12*%
X108204000Y-98806000D03*
%TO.P,J2,11*%
X108204000Y-96266000D03*
%TO.P,J2,10*%
X108204000Y-93726000D03*
%TO.P,J2,9*%
X108204000Y-91186000D03*
%TO.P,J2,8*%
X108204000Y-88646000D03*
%TO.P,J2,7*%
X108204000Y-86106000D03*
%TO.P,J2,6*%
X108204000Y-83566000D03*
%TO.P,J2,5*%
X108204000Y-81026000D03*
%TO.P,J2,4*%
X108204000Y-78486000D03*
%TO.P,J2,3*%
X108204000Y-75946000D03*
%TO.P,J2,2*%
X108204000Y-73406000D03*
%TO.P,J2,1*%
X108204000Y-70866000D03*
%TD*%
%TO.P,J4,1*%
%TO.N,Net-(A0-Pad3)*%
X154686000Y-101346000D03*
%TO.P,J4,2*%
%TO.N,Net-(A1-Pad3)*%
X154686000Y-98806000D03*
%TO.P,J4,3*%
%TO.N,Net-(A2-Pad3)*%
X154686000Y-96266000D03*
%TO.P,J4,4*%
%TO.N,Net-(A3-Pad3)*%
X154686000Y-93726000D03*
%TO.P,J4,5*%
%TO.N,Net-(A4-Pad3)*%
X154686000Y-91186000D03*
%TO.P,J4,6*%
%TO.N,Net-(A5-Pad3)*%
X154686000Y-88646000D03*
%TO.P,J4,7*%
%TO.N,Net-(A6-Pad3)*%
X154686000Y-86106000D03*
%TO.P,J4,8*%
%TO.N,Net-(A7-Pad3)*%
X154686000Y-83566000D03*
%TO.P,J4,9*%
%TO.N,Net-(IC1-Pad18)*%
X154686000Y-81026000D03*
%TO.P,J4,10*%
%TO.N,Net-(IC1-Pad28)*%
X154686000Y-78486000D03*
%TO.P,J4,11*%
%TO.N,Net-(J4-Pad11)*%
X154686000Y-75946000D03*
%TO.P,J4,12*%
%TO.N,Net-(J4-Pad12)*%
X154686000Y-73406000D03*
%TO.P,J4,13*%
%TO.N,Net-(J4-Pad13)*%
X154686000Y-70866000D03*
%TO.P,J4,14*%
%TO.N,Net-(J4-Pad14)*%
X154686000Y-68326000D03*
%TO.P,J4,15*%
%TO.N,Net-(IC1-Pad17)*%
X154686000Y-65786000D03*
%TO.P,J4,16*%
%TO.N,+5V*%
X154686000Y-63246000D03*
%TD*%
%TO.P,S1,1*%
%TO.N,Net-(S1-Pad1)*%
X150114000Y-118110000D03*
%TO.P,S1,2*%
%TO.N,Net-(S1-Pad2)*%
X150114000Y-115570000D03*
%TO.P,S1,3*%
%TO.N,Net-(S1-Pad3)*%
X150114000Y-113030000D03*
%TD*%
%TO.P,U3,1*%
%TO.N,GND*%
X107950000Y-119634000D03*
D10*
%TO.P,U3,2*%
%TO.N,Net-(S1-Pad1)*%
X113030000Y-119634000D03*
%TD*%
D13*
%TO.P,A0,3*%
%TO.N,Net-(A0-Pad3)*%
X164846000Y-106172000D03*
%TO.P,A0,2*%
%TO.N,+5V*%
X167386000Y-106172000D03*
%TO.P,A0,1*%
%TO.N,Net-(A0-Pad1)*%
X169926000Y-106172000D03*
%TD*%
%TO.P,A1,1*%
%TO.N,Net-(A1-Pad1)*%
X169926000Y-100838000D03*
%TO.P,A1,2*%
%TO.N,+5V*%
X167386000Y-100838000D03*
%TO.P,A1,3*%
%TO.N,Net-(A1-Pad3)*%
X164846000Y-100838000D03*
%TD*%
%TO.P,A2,3*%
%TO.N,Net-(A2-Pad3)*%
X164846000Y-95504000D03*
%TO.P,A2,2*%
%TO.N,+5V*%
X167386000Y-95504000D03*
%TO.P,A2,1*%
%TO.N,Net-(A2-Pad1)*%
X169926000Y-95504000D03*
%TD*%
%TO.P,A3,1*%
%TO.N,Net-(A3-Pad1)*%
X169926000Y-90170000D03*
%TO.P,A3,2*%
%TO.N,+5V*%
X167386000Y-90170000D03*
%TO.P,A3,3*%
%TO.N,Net-(A3-Pad3)*%
X164846000Y-90170000D03*
%TD*%
%TO.P,A4,3*%
%TO.N,Net-(A4-Pad3)*%
X164846000Y-84836000D03*
%TO.P,A4,2*%
%TO.N,+5V*%
X167386000Y-84836000D03*
%TO.P,A4,1*%
%TO.N,Net-(A4-Pad1)*%
X169926000Y-84836000D03*
%TD*%
%TO.P,A5,1*%
%TO.N,Net-(A5-Pad1)*%
X169926000Y-79502000D03*
%TO.P,A5,2*%
%TO.N,+5V*%
X167386000Y-79502000D03*
%TO.P,A5,3*%
%TO.N,Net-(A5-Pad3)*%
X164846000Y-79502000D03*
%TD*%
%TO.P,A6,3*%
%TO.N,Net-(A6-Pad3)*%
X164846000Y-74168000D03*
%TO.P,A6,2*%
%TO.N,+5V*%
X167386000Y-74168000D03*
%TO.P,A6,1*%
%TO.N,Net-(A6-Pad1)*%
X169926000Y-74168000D03*
%TD*%
%TO.P,A7,1*%
%TO.N,Net-(A7-Pad1)*%
X169926000Y-68834000D03*
%TO.P,A7,2*%
%TO.N,+5V*%
X167386000Y-68834000D03*
%TO.P,A7,3*%
%TO.N,Net-(A7-Pad3)*%
X164846000Y-68834000D03*
%TD*%
%TO.P,U3,1*%
%TO.N,GND*%
X107950000Y-116078000D03*
D10*
%TO.P,U3,2*%
%TO.N,Net-(S1-Pad1)*%
X113030000Y-116078000D03*
%TD*%
D13*
%TO.P,D2,1*%
%TO.N,Net-(D2-Pad1)*%
X125222000Y-62230000D03*
%TO.P,D2,2*%
%TO.N,+5V*%
X122682000Y-62230000D03*
%TO.P,D2,3*%
%TO.N,Net-(D2-Pad3)*%
X120142000Y-62230000D03*
%TD*%
%TO.P,D3,3*%
%TO.N,Net-(D3-Pad3)*%
X120142000Y-67310000D03*
%TO.P,D3,2*%
%TO.N,+5V*%
X122682000Y-67310000D03*
%TO.P,D3,1*%
%TO.N,Net-(D3-Pad1)*%
X125222000Y-67310000D03*
%TD*%
%TO.P,D4,1*%
%TO.N,Net-(D4-Pad1)*%
X125222000Y-72390000D03*
%TO.P,D4,2*%
%TO.N,+5V*%
X122682000Y-72390000D03*
%TO.P,D4,3*%
%TO.N,Net-(D4-Pad3)*%
X120142000Y-72390000D03*
%TD*%
%TO.P,D5,1*%
%TO.N,Net-(D5-Pad1)*%
X125222000Y-77470000D03*
%TO.P,D5,2*%
%TO.N,+5V*%
X122682000Y-77470000D03*
%TO.P,D5,3*%
%TO.N,Net-(D5-Pad3)*%
X120142000Y-77470000D03*
%TD*%
%TO.P,D6,3*%
%TO.N,Net-(D6-Pad3)*%
X120142000Y-82550000D03*
%TO.P,D6,2*%
%TO.N,+5V*%
X122682000Y-82550000D03*
%TO.P,D6,1*%
%TO.N,Net-(D6-Pad1)*%
X125222000Y-82550000D03*
%TD*%
%TO.P,D7,1*%
%TO.N,Net-(D7-Pad1)*%
X125222000Y-87376000D03*
%TO.P,D7,2*%
%TO.N,+5V*%
X122682000Y-87376000D03*
%TO.P,D7,3*%
%TO.N,Net-(D7-Pad3)*%
X120142000Y-87376000D03*
%TD*%
%TO.P,D8,3*%
%TO.N,Net-(D8-Pad3)*%
X120142000Y-92456000D03*
%TO.P,D8,2*%
%TO.N,+5V*%
X122682000Y-92456000D03*
%TO.P,D8,1*%
%TO.N,Net-(D8-Pad1)*%
X125222000Y-92456000D03*
%TD*%
%TO.P,D9,1*%
%TO.N,Net-(D9-Pad1)*%
X125222000Y-97536000D03*
%TO.P,D9,2*%
%TO.N,+5V*%
X122682000Y-97536000D03*
%TO.P,D9,3*%
%TO.N,Net-(D9-Pad3)*%
X120142000Y-97536000D03*
%TD*%
%TO.P,D10,3*%
%TO.N,Net-(D10-Pad3)*%
X120142000Y-102616000D03*
%TO.P,D10,2*%
%TO.N,+5V*%
X122682000Y-102616000D03*
%TO.P,D10,1*%
%TO.N,Net-(D10-Pad1)*%
X125222000Y-102616000D03*
%TD*%
%TO.P,D11,1*%
%TO.N,Net-(D11-Pad1)*%
X125222000Y-107696000D03*
%TO.P,D11,2*%
%TO.N,+5V*%
X122682000Y-107696000D03*
%TO.P,D11,3*%
%TO.N,Net-(D11-Pad3)*%
X120142000Y-107696000D03*
%TD*%
%TO.P,D12,3*%
%TO.N,Net-(D12-Pad3)*%
X120142000Y-112776000D03*
%TO.P,D12,2*%
%TO.N,+5V*%
X122682000Y-112776000D03*
%TO.P,D12,1*%
%TO.N,Net-(D12-Pad1)*%
X125222000Y-112776000D03*
%TD*%
%TO.P,D13,3*%
%TO.N,Net-(D13-Pad3)*%
X120142000Y-117856000D03*
%TO.P,D13,2*%
%TO.N,+5V*%
X122682000Y-117856000D03*
%TO.P,D13,1*%
%TO.N,Net-(D13-Pad1)*%
X125222000Y-117856000D03*
%TD*%
D16*
%TO.N,+5V*%
X143510000Y-69850000D03*
%TO.N,GND*%
X138430000Y-73406000D03*
X144018000Y-68326000D03*
X135382000Y-53848000D03*
X149860000Y-53848000D03*
%TD*%
D17*
%TO.N,Net-(S1-Pad1)*%
X113030000Y-116078000D02*
X113030000Y-119634000D01*
X113284000Y-119380000D02*
X113030000Y-119634000D01*
X113030000Y-119634000D02*
X113030000Y-123190000D01*
X113030000Y-123190000D02*
X114300000Y-124460000D01*
X114300000Y-124460000D02*
X114046000Y-124460000D01*
X143764000Y-124460000D02*
X150114000Y-118110000D01*
X143764000Y-124460000D02*
X114300000Y-124460000D01*
X144018000Y-124460000D02*
X143764000Y-124460000D01*
%TO.N,+5V*%
X122682000Y-63356002D02*
X122682000Y-62230000D01*
X167199600Y-68383990D02*
X167067795Y-68515795D01*
X122682000Y-117856000D02*
X122682000Y-112776000D01*
X122682000Y-112776000D02*
X122682000Y-107696000D01*
X122682000Y-107696000D02*
X122682000Y-97536000D01*
X122682000Y-97536000D02*
X122682000Y-92456000D01*
X122682000Y-92456000D02*
X122682000Y-87376000D01*
X122682000Y-87376000D02*
X122682000Y-82550000D01*
X122682000Y-82550000D02*
X122682000Y-77470000D01*
X122682000Y-77470000D02*
X122682000Y-72390000D01*
X122682000Y-72390000D02*
X122682000Y-67310000D01*
X122682000Y-67310000D02*
X122682000Y-62230000D01*
X167386000Y-106172000D02*
X167386000Y-100838000D01*
X167386000Y-100838000D02*
X167386000Y-95504000D01*
X167386000Y-95504000D02*
X167386000Y-90170000D01*
X167386000Y-90170000D02*
X167386000Y-84836000D01*
X167386000Y-84836000D02*
X167386000Y-79502000D01*
X167386000Y-79502000D02*
X167386000Y-74168000D01*
X167386000Y-74168000D02*
X167386000Y-68834000D01*
X122682000Y-72390000D02*
X122682000Y-62230000D01*
X118165001Y-60904999D02*
X108204000Y-70866000D01*
X121356999Y-60904999D02*
X118165001Y-60904999D01*
X122682000Y-62230000D02*
X121356999Y-60904999D01*
X122682000Y-62230000D02*
X128524000Y-56388000D01*
X128524000Y-56388000D02*
X135128000Y-56388000D01*
X140970000Y-62230000D02*
X140970000Y-66802000D01*
X140970000Y-66802000D02*
X140970000Y-67056000D01*
X140970000Y-67056000D02*
X140970000Y-67310000D01*
X140970000Y-67310000D02*
X143510000Y-69850000D01*
X143510000Y-69850000D02*
X143510000Y-69850000D01*
X135128000Y-56388000D02*
X138938000Y-60198000D01*
X138938000Y-60198000D02*
X140970000Y-62230000D01*
X158750000Y-60198000D02*
X167386000Y-68834000D01*
X154686000Y-63246000D02*
X157734000Y-60198000D01*
X138938000Y-60198000D02*
X158496000Y-60198000D01*
X157734000Y-60198000D02*
X158496000Y-60198000D01*
X158496000Y-60198000D02*
X158750000Y-60198000D01*
%TO.N,GND*%
X144039001Y-68347001D02*
X144018000Y-68326000D01*
X132894002Y-73406000D02*
X132873001Y-73427001D01*
X138430000Y-73406000D02*
X132894002Y-73406000D01*
X149860000Y-53848000D02*
X149860000Y-53848000D01*
X135382000Y-53848000D02*
X149860000Y-53848000D01*
X107696000Y-115824000D02*
X107950000Y-116078000D01*
X153670000Y-50292000D02*
X156972000Y-46990000D01*
X156972000Y-46990000D02*
X156972000Y-45212000D01*
X156972000Y-45212000D02*
X156718000Y-44958000D01*
X156718000Y-44958000D02*
X117856000Y-44958000D01*
X117856000Y-44958000D02*
X115824000Y-46990000D01*
X115824000Y-46990000D02*
X115824000Y-49784000D01*
X119808000Y-53768000D02*
X122428000Y-53768000D01*
X115824000Y-49784000D02*
X119808000Y-53768000D01*
X119808000Y-56722000D02*
X105664000Y-70866000D01*
X119808000Y-53768000D02*
X119808000Y-56722000D01*
X105664000Y-73406000D02*
X105664000Y-70866000D01*
X105664000Y-73406000D02*
X105664000Y-75946000D01*
X105664000Y-78486000D02*
X105664000Y-75946000D01*
X105664000Y-78486000D02*
X105664000Y-81026000D01*
X105664000Y-81026000D02*
X105664000Y-83566000D01*
X105664000Y-83566000D02*
X105664000Y-86106000D01*
X105664000Y-86106000D02*
X105664000Y-88646000D01*
X105664000Y-88646000D02*
X105664000Y-91186000D01*
X105664000Y-91186000D02*
X105664000Y-93726000D01*
X105664000Y-93726000D02*
X105664000Y-96266000D01*
X105664000Y-96266000D02*
X105664000Y-98806000D01*
X105664000Y-98806000D02*
X105664000Y-101346000D01*
X105664000Y-101346000D02*
X105664000Y-103886000D01*
X105664000Y-103886000D02*
X105664000Y-106426000D01*
X105664000Y-106426000D02*
X105664000Y-108966000D01*
X107950000Y-119634000D02*
X107950000Y-122174000D01*
X107950000Y-122174000D02*
X111252000Y-125476000D01*
X111252000Y-125476000D02*
X155956000Y-125476000D01*
X155956000Y-125476000D02*
X159766000Y-121666000D01*
X158242000Y-115570000D02*
X158242000Y-112522000D01*
X158242000Y-112522000D02*
X161290000Y-112522000D01*
X161290000Y-112522000D02*
X164338000Y-112522000D01*
X164338000Y-115570000D02*
X161290000Y-115570000D01*
X159766000Y-115824000D02*
X160020000Y-115570000D01*
X159766000Y-121666000D02*
X159766000Y-115824000D01*
X161290000Y-115570000D02*
X160020000Y-115570000D01*
X160020000Y-115570000D02*
X158242000Y-115570000D01*
X164338000Y-112522000D02*
X167386000Y-112522000D01*
X164338000Y-115570000D02*
X167386000Y-115570000D01*
%TO.N,Net-(A0-Pad3)*%
X154686000Y-101346000D02*
X152146000Y-101346000D01*
X152146000Y-101346000D02*
X150622000Y-99822000D01*
X150622000Y-96256000D02*
X148113001Y-93747001D01*
X150622000Y-99822000D02*
X150622000Y-96256000D01*
X159512000Y-106172000D02*
X154686000Y-101346000D01*
X164846000Y-106172000D02*
X159512000Y-106172000D01*
%TO.N,Net-(A1-Pad3)*%
X154686000Y-98806000D02*
X153162000Y-98806000D01*
X153162000Y-98806000D02*
X151892000Y-97536000D01*
X151892000Y-94986000D02*
X148113001Y-91207001D01*
X151892000Y-97536000D02*
X151892000Y-94986000D01*
X156718000Y-100838000D02*
X154686000Y-98806000D01*
X164846000Y-100838000D02*
X156718000Y-100838000D01*
%TO.N,Net-(A2-Pad3)*%
X154686000Y-96266000D02*
X153670000Y-96266000D01*
X153670000Y-96266000D02*
X152654000Y-95250000D01*
X152654000Y-93208000D02*
X148113001Y-88667001D01*
X152654000Y-95250000D02*
X152654000Y-93208000D01*
X155448000Y-95504000D02*
X154686000Y-96266000D01*
X164846000Y-95504000D02*
X155448000Y-95504000D01*
%TO.N,Net-(A3-Pad3)*%
X150622000Y-88636000D02*
X148113001Y-86127001D01*
X154686000Y-93726000D02*
X150622000Y-89662000D01*
X150622000Y-89662000D02*
X150622000Y-88636000D01*
X158242000Y-90170000D02*
X154686000Y-93726000D01*
X164846000Y-90170000D02*
X158242000Y-90170000D01*
%TO.N,Net-(A4-Pad3)*%
X154686000Y-91186000D02*
X151638000Y-88138000D01*
X151638000Y-88138000D02*
X151638000Y-86614000D01*
X148611001Y-83587001D02*
X148113001Y-83587001D01*
X151638000Y-86614000D02*
X148611001Y-83587001D01*
X161036000Y-84836000D02*
X154686000Y-91186000D01*
X164846000Y-84836000D02*
X161036000Y-84836000D01*
%TO.N,Net-(A5-Pad3)*%
X154686000Y-88646000D02*
X153924000Y-88646000D01*
X153924000Y-88646000D02*
X152654000Y-87376000D01*
X152654000Y-85588000D02*
X148113001Y-81047001D01*
X152654000Y-87376000D02*
X152654000Y-85588000D01*
X155702000Y-88646000D02*
X154686000Y-88646000D01*
X164846000Y-79502000D02*
X155702000Y-88646000D01*
%TO.N,Net-(A6-Pad3)*%
X154686000Y-86106000D02*
X152654000Y-84074000D01*
X152654000Y-83048000D02*
X148113001Y-78507001D01*
X152654000Y-84074000D02*
X152654000Y-83048000D01*
X164846000Y-75946000D02*
X154686000Y-86106000D01*
X164846000Y-74168000D02*
X164846000Y-75946000D01*
%TO.N,Net-(A7-Pad3)*%
X154686000Y-83566000D02*
X152400000Y-81280000D01*
X152400000Y-80254000D02*
X148113001Y-75967001D01*
X152400000Y-81280000D02*
X152400000Y-80254000D01*
X163520999Y-74731001D02*
X154686000Y-83566000D01*
X163520999Y-70159001D02*
X163520999Y-74731001D01*
X164846000Y-68834000D02*
X163520999Y-70159001D01*
%TO.N,Net-(D2-Pad1)*%
X110765001Y-75967001D02*
X110744000Y-75946000D01*
%TO.N,Net-(D3-Pad1)*%
X110765001Y-78507001D02*
X110744000Y-78486000D01*
X129830999Y-71918999D02*
X125222000Y-67310000D01*
X129830999Y-75464999D02*
X129830999Y-71918999D01*
X132873001Y-78507001D02*
X129830999Y-75464999D01*
%TO.N,Net-(D4-Pad1)*%
X110765001Y-81047001D02*
X110744000Y-81026000D01*
X125222000Y-73396000D02*
X132873001Y-81047001D01*
X125222000Y-72390000D02*
X125222000Y-73396000D01*
%TO.N,Net-(D5-Pad1)*%
X110765001Y-83587001D02*
X110744000Y-83566000D01*
X126756000Y-77470000D02*
X132873001Y-83587001D01*
X125222000Y-77470000D02*
X126756000Y-77470000D01*
%TO.N,Net-(D6-Pad1)*%
X110765001Y-86127001D02*
X110744000Y-86106000D01*
X129296000Y-82550000D02*
X132873001Y-86127001D01*
X125222000Y-82550000D02*
X129296000Y-82550000D01*
%TO.N,Net-(D7-Pad1)*%
X110765001Y-88667001D02*
X110744000Y-88646000D01*
X131582000Y-87376000D02*
X132873001Y-88667001D01*
X125222000Y-87376000D02*
X131582000Y-87376000D01*
%TO.N,Net-(D8-Pad1)*%
X110765001Y-91207001D02*
X110744000Y-91186000D01*
X131624002Y-92456000D02*
X132873001Y-91207001D01*
X125222000Y-92456000D02*
X131624002Y-92456000D01*
%TO.N,Net-(D9-Pad1)*%
X110765001Y-93747001D02*
X110744000Y-93726000D01*
X129084002Y-97536000D02*
X132873001Y-93747001D01*
X125222000Y-97536000D02*
X129084002Y-97536000D01*
%TO.N,Net-(D10-Pad1)*%
X110765001Y-96287001D02*
X110744000Y-96266000D01*
X131550999Y-96287001D02*
X132873001Y-96287001D01*
X125222000Y-102616000D02*
X131550999Y-96287001D01*
%TO.N,Net-(D11-Pad1)*%
X110765001Y-98827001D02*
X110744000Y-98806000D01*
X125222000Y-106478002D02*
X132873001Y-98827001D01*
X125222000Y-107696000D02*
X125222000Y-106478002D01*
%TO.N,Net-(D12-Pad1)*%
X110765001Y-101367001D02*
X110744000Y-101346000D01*
X132873001Y-105124999D02*
X132873001Y-101367001D01*
X125222000Y-112776000D02*
X132873001Y-105124999D01*
%TO.N,Net-(D13-Pad1)*%
X148113001Y-101367001D02*
X145594002Y-103886000D01*
X131624002Y-117856000D02*
X148113001Y-101367001D01*
X125222000Y-117856000D02*
X131624002Y-117856000D01*
X121412000Y-121666000D02*
X125222000Y-117856000D01*
X112776000Y-103886000D02*
X116078000Y-107188000D01*
X116078000Y-107188000D02*
X116078000Y-117094000D01*
X110744000Y-103886000D02*
X112776000Y-103886000D01*
X116078000Y-117094000D02*
X120650000Y-121666000D01*
X120650000Y-121666000D02*
X121412000Y-121666000D01*
%TO.N,Net-(IC1-Pad2)*%
X132820999Y-68347001D02*
X132873001Y-68347001D01*
%TO.N,Net-(IC1-Pad28)*%
X150876000Y-73650000D02*
X148113001Y-70887001D01*
X154686000Y-78486000D02*
X150876000Y-74676000D01*
X150876000Y-74676000D02*
X150876000Y-73650000D01*
X148113001Y-70887001D02*
X132873001Y-70887001D01*
%TD*%
M02*
