%TF.GenerationSoftware,KiCad,Pcbnew,(5.1.6)-1*%
%TF.CreationDate,2020-11-22T17:12:52+01:00*%
%TF.ProjectId,NANOV4,4e414e4f-5634-42e6-9b69-6361645f7063,rev?*%
%TF.SameCoordinates,Original*%
%TF.FileFunction,Legend,Top*%
%TF.FilePolarity,Positive*%
%FSLAX46Y46*%
G04 Gerber Fmt 4.6, Leading zero omitted, Abs format (unit mm)*
G04 Created by KiCad (PCBNEW (5.1.6)-1) date 2020-11-22 17:12:52*
%MOMM*%
%LPD*%
G01*
G04 APERTURE LIST*
%ADD10C,0.150000*%
%ADD11C,0.500000*%
%ADD12C,0.120000*%
G04 APERTURE END LIST*
D10*
X106426000Y-121158000D02*
X106426000Y-114554000D01*
X114554000Y-121158000D02*
X106426000Y-121158000D01*
X114554000Y-114554000D02*
X114554000Y-121158000D01*
X106426000Y-114554000D02*
X114554000Y-114554000D01*
X156718000Y-117348000D02*
X156718000Y-110998000D01*
X169164000Y-117348000D02*
X156718000Y-117348000D01*
X169164000Y-110998000D02*
X169164000Y-117348000D01*
X156718000Y-110998000D02*
X169164000Y-110998000D01*
X166941523Y-108672380D02*
X166465333Y-108672380D01*
X166417714Y-109148571D01*
X166465333Y-109100952D01*
X166560571Y-109053333D01*
X166798666Y-109053333D01*
X166893904Y-109100952D01*
X166941523Y-109148571D01*
X166989142Y-109243809D01*
X166989142Y-109481904D01*
X166941523Y-109577142D01*
X166893904Y-109624761D01*
X166798666Y-109672380D01*
X166560571Y-109672380D01*
X166465333Y-109624761D01*
X166417714Y-109577142D01*
X167274857Y-108672380D02*
X167608190Y-109672380D01*
X167941523Y-108672380D01*
X164584095Y-109672380D02*
X164584095Y-108672380D01*
X164822190Y-108672380D01*
X164965047Y-108720000D01*
X165060285Y-108815238D01*
X165107904Y-108910476D01*
X165155523Y-109100952D01*
X165155523Y-109243809D01*
X165107904Y-109434285D01*
X165060285Y-109529523D01*
X164965047Y-109624761D01*
X164822190Y-109672380D01*
X164584095Y-109672380D01*
X124960095Y-121356380D02*
X124960095Y-120356380D01*
X125198190Y-120356380D01*
X125341047Y-120404000D01*
X125436285Y-120499238D01*
X125483904Y-120594476D01*
X125531523Y-120784952D01*
X125531523Y-120927809D01*
X125483904Y-121118285D01*
X125436285Y-121213523D01*
X125341047Y-121308761D01*
X125198190Y-121356380D01*
X124960095Y-121356380D01*
X122237523Y-120356380D02*
X121761333Y-120356380D01*
X121713714Y-120832571D01*
X121761333Y-120784952D01*
X121856571Y-120737333D01*
X122094666Y-120737333D01*
X122189904Y-120784952D01*
X122237523Y-120832571D01*
X122285142Y-120927809D01*
X122285142Y-121165904D01*
X122237523Y-121261142D01*
X122189904Y-121308761D01*
X122094666Y-121356380D01*
X121856571Y-121356380D01*
X121761333Y-121308761D01*
X121713714Y-121261142D01*
X122570857Y-120356380D02*
X122904190Y-121356380D01*
X123237523Y-120356380D01*
X157797523Y-61428380D02*
X157321333Y-61428380D01*
X157273714Y-61904571D01*
X157321333Y-61856952D01*
X157416571Y-61809333D01*
X157654666Y-61809333D01*
X157749904Y-61856952D01*
X157797523Y-61904571D01*
X157845142Y-61999809D01*
X157845142Y-62237904D01*
X157797523Y-62333142D01*
X157749904Y-62380761D01*
X157654666Y-62428380D01*
X157416571Y-62428380D01*
X157321333Y-62380761D01*
X157273714Y-62333142D01*
X158130857Y-61428380D02*
X158464190Y-62428380D01*
X158797523Y-61428380D01*
X98004380Y-97908857D02*
X98242476Y-97908857D01*
X98147238Y-98146952D02*
X98242476Y-97908857D01*
X98147238Y-97670761D01*
X98432952Y-98051714D02*
X98242476Y-97908857D01*
X98432952Y-97766000D01*
X99004380Y-97289809D02*
X98004380Y-97289809D01*
X98004380Y-96908857D01*
X98052000Y-96813619D01*
X98099619Y-96766000D01*
X98194857Y-96718380D01*
X98337714Y-96718380D01*
X98432952Y-96766000D01*
X98480571Y-96813619D01*
X98528190Y-96908857D01*
X98528190Y-97289809D01*
X98004380Y-96385047D02*
X99004380Y-96146952D01*
X98290095Y-95956476D01*
X99004380Y-95766000D01*
X98004380Y-95527904D01*
X99004380Y-95146952D02*
X98004380Y-95146952D01*
X98718666Y-94813619D01*
X98004380Y-94480285D01*
X99004380Y-94480285D01*
X104394000Y-69342000D02*
X106934000Y-69342000D01*
X99568000Y-105410000D02*
X104394000Y-105410000D01*
X99568000Y-74676000D02*
X99568000Y-105410000D01*
X99568000Y-74676000D02*
X104394000Y-74676000D01*
X99568000Y-69342000D02*
X99568000Y-74676000D01*
X104394000Y-69342000D02*
X99568000Y-69342000D01*
X150741333Y-43886380D02*
X150265142Y-43886380D01*
X150265142Y-42886380D01*
X151074666Y-43886380D02*
X151074666Y-42886380D01*
X151408000Y-43600666D01*
X151741333Y-42886380D01*
X151741333Y-43886380D01*
X152122285Y-42886380D02*
X152788952Y-42886380D01*
X152360380Y-43886380D01*
X153312761Y-43314952D02*
X153217523Y-43267333D01*
X153169904Y-43219714D01*
X153122285Y-43124476D01*
X153122285Y-43076857D01*
X153169904Y-42981619D01*
X153217523Y-42934000D01*
X153312761Y-42886380D01*
X153503238Y-42886380D01*
X153598476Y-42934000D01*
X153646095Y-42981619D01*
X153693714Y-43076857D01*
X153693714Y-43124476D01*
X153646095Y-43219714D01*
X153598476Y-43267333D01*
X153503238Y-43314952D01*
X153312761Y-43314952D01*
X153217523Y-43362571D01*
X153169904Y-43410190D01*
X153122285Y-43505428D01*
X153122285Y-43695904D01*
X153169904Y-43791142D01*
X153217523Y-43838761D01*
X153312761Y-43886380D01*
X153503238Y-43886380D01*
X153598476Y-43838761D01*
X153646095Y-43791142D01*
X153693714Y-43695904D01*
X153693714Y-43505428D01*
X153646095Y-43410190D01*
X153598476Y-43362571D01*
X153503238Y-43314952D01*
X154646095Y-43886380D02*
X154074666Y-43886380D01*
X154360380Y-43886380D02*
X154360380Y-42886380D01*
X154265142Y-43029238D01*
X154169904Y-43124476D01*
X154074666Y-43172095D01*
X155027047Y-42981619D02*
X155074666Y-42934000D01*
X155169904Y-42886380D01*
X155408000Y-42886380D01*
X155503238Y-42934000D01*
X155550857Y-42981619D01*
X155598476Y-43076857D01*
X155598476Y-43172095D01*
X155550857Y-43314952D01*
X154979428Y-43886380D01*
X155598476Y-43886380D01*
X104394000Y-110490000D02*
X104394000Y-69342000D01*
X106934000Y-110490000D02*
X104394000Y-110490000D01*
X108275428Y-68849714D02*
X108275428Y-68087809D01*
X108656380Y-68468761D02*
X107894476Y-68468761D01*
X107656380Y-67135428D02*
X107656380Y-67611619D01*
X108132571Y-67659238D01*
X108084952Y-67611619D01*
X108037333Y-67516380D01*
X108037333Y-67278285D01*
X108084952Y-67183047D01*
X108132571Y-67135428D01*
X108227809Y-67087809D01*
X108465904Y-67087809D01*
X108561142Y-67135428D01*
X108608761Y-67183047D01*
X108656380Y-67278285D01*
X108656380Y-67516380D01*
X108608761Y-67611619D01*
X108561142Y-67659238D01*
X107656380Y-66802095D02*
X108656380Y-66468761D01*
X107656380Y-66135428D01*
X104910000Y-68325904D02*
X104862380Y-68421142D01*
X104862380Y-68564000D01*
X104910000Y-68706857D01*
X105005238Y-68802095D01*
X105100476Y-68849714D01*
X105290952Y-68897333D01*
X105433809Y-68897333D01*
X105624285Y-68849714D01*
X105719523Y-68802095D01*
X105814761Y-68706857D01*
X105862380Y-68564000D01*
X105862380Y-68468761D01*
X105814761Y-68325904D01*
X105767142Y-68278285D01*
X105433809Y-68278285D01*
X105433809Y-68468761D01*
X105862380Y-67849714D02*
X104862380Y-67849714D01*
X105862380Y-67278285D01*
X104862380Y-67278285D01*
X105862380Y-66802095D02*
X104862380Y-66802095D01*
X104862380Y-66564000D01*
X104910000Y-66421142D01*
X105005238Y-66325904D01*
X105100476Y-66278285D01*
X105290952Y-66230666D01*
X105433809Y-66230666D01*
X105624285Y-66278285D01*
X105719523Y-66325904D01*
X105814761Y-66421142D01*
X105862380Y-66564000D01*
X105862380Y-66802095D01*
X128293904Y-89098380D02*
X128293904Y-88098380D01*
X128532000Y-88098380D01*
X128674857Y-88146000D01*
X128770095Y-88241238D01*
X128817714Y-88336476D01*
X128865333Y-88526952D01*
X128865333Y-88669809D01*
X128817714Y-88860285D01*
X128770095Y-88955523D01*
X128674857Y-89050761D01*
X128532000Y-89098380D01*
X128293904Y-89098380D01*
X129198666Y-88098380D02*
X129865333Y-88098380D01*
X129436761Y-89098380D01*
X128293904Y-91638380D02*
X128293904Y-90638380D01*
X128532000Y-90638380D01*
X128674857Y-90686000D01*
X128770095Y-90781238D01*
X128817714Y-90876476D01*
X128865333Y-91066952D01*
X128865333Y-91209809D01*
X128817714Y-91400285D01*
X128770095Y-91495523D01*
X128674857Y-91590761D01*
X128532000Y-91638380D01*
X128293904Y-91638380D01*
X129436761Y-91066952D02*
X129341523Y-91019333D01*
X129293904Y-90971714D01*
X129246285Y-90876476D01*
X129246285Y-90828857D01*
X129293904Y-90733619D01*
X129341523Y-90686000D01*
X129436761Y-90638380D01*
X129627238Y-90638380D01*
X129722476Y-90686000D01*
X129770095Y-90733619D01*
X129817714Y-90828857D01*
X129817714Y-90876476D01*
X129770095Y-90971714D01*
X129722476Y-91019333D01*
X129627238Y-91066952D01*
X129436761Y-91066952D01*
X129341523Y-91114571D01*
X129293904Y-91162190D01*
X129246285Y-91257428D01*
X129246285Y-91447904D01*
X129293904Y-91543142D01*
X129341523Y-91590761D01*
X129436761Y-91638380D01*
X129627238Y-91638380D01*
X129722476Y-91590761D01*
X129770095Y-91543142D01*
X129817714Y-91447904D01*
X129817714Y-91257428D01*
X129770095Y-91162190D01*
X129722476Y-91114571D01*
X129627238Y-91066952D01*
X128293904Y-94178380D02*
X128293904Y-93178380D01*
X128532000Y-93178380D01*
X128674857Y-93226000D01*
X128770095Y-93321238D01*
X128817714Y-93416476D01*
X128865333Y-93606952D01*
X128865333Y-93749809D01*
X128817714Y-93940285D01*
X128770095Y-94035523D01*
X128674857Y-94130761D01*
X128532000Y-94178380D01*
X128293904Y-94178380D01*
X129341523Y-94178380D02*
X129532000Y-94178380D01*
X129627238Y-94130761D01*
X129674857Y-94083142D01*
X129770095Y-93940285D01*
X129817714Y-93749809D01*
X129817714Y-93368857D01*
X129770095Y-93273619D01*
X129722476Y-93226000D01*
X129627238Y-93178380D01*
X129436761Y-93178380D01*
X129341523Y-93226000D01*
X129293904Y-93273619D01*
X129246285Y-93368857D01*
X129246285Y-93606952D01*
X129293904Y-93702190D01*
X129341523Y-93749809D01*
X129436761Y-93797428D01*
X129627238Y-93797428D01*
X129722476Y-93749809D01*
X129770095Y-93702190D01*
X129817714Y-93606952D01*
X128293904Y-86558380D02*
X128293904Y-85558380D01*
X128532000Y-85558380D01*
X128674857Y-85606000D01*
X128770095Y-85701238D01*
X128817714Y-85796476D01*
X128865333Y-85986952D01*
X128865333Y-86129809D01*
X128817714Y-86320285D01*
X128770095Y-86415523D01*
X128674857Y-86510761D01*
X128532000Y-86558380D01*
X128293904Y-86558380D01*
X129722476Y-85558380D02*
X129532000Y-85558380D01*
X129436761Y-85606000D01*
X129389142Y-85653619D01*
X129293904Y-85796476D01*
X129246285Y-85986952D01*
X129246285Y-86367904D01*
X129293904Y-86463142D01*
X129341523Y-86510761D01*
X129436761Y-86558380D01*
X129627238Y-86558380D01*
X129722476Y-86510761D01*
X129770095Y-86463142D01*
X129817714Y-86367904D01*
X129817714Y-86129809D01*
X129770095Y-86034571D01*
X129722476Y-85986952D01*
X129627238Y-85939333D01*
X129436761Y-85939333D01*
X129341523Y-85986952D01*
X129293904Y-86034571D01*
X129246285Y-86129809D01*
X128325714Y-101798380D02*
X128325714Y-100798380D01*
X128563809Y-100798380D01*
X128706666Y-100846000D01*
X128801904Y-100941238D01*
X128849523Y-101036476D01*
X128897142Y-101226952D01*
X128897142Y-101369809D01*
X128849523Y-101560285D01*
X128801904Y-101655523D01*
X128706666Y-101750761D01*
X128563809Y-101798380D01*
X128325714Y-101798380D01*
X129849523Y-101798380D02*
X129278095Y-101798380D01*
X129563809Y-101798380D02*
X129563809Y-100798380D01*
X129468571Y-100941238D01*
X129373333Y-101036476D01*
X129278095Y-101084095D01*
X130230476Y-100893619D02*
X130278095Y-100846000D01*
X130373333Y-100798380D01*
X130611428Y-100798380D01*
X130706666Y-100846000D01*
X130754285Y-100893619D01*
X130801904Y-100988857D01*
X130801904Y-101084095D01*
X130754285Y-101226952D01*
X130182857Y-101798380D01*
X130801904Y-101798380D01*
X128325714Y-99258380D02*
X128325714Y-98258380D01*
X128563809Y-98258380D01*
X128706666Y-98306000D01*
X128801904Y-98401238D01*
X128849523Y-98496476D01*
X128897142Y-98686952D01*
X128897142Y-98829809D01*
X128849523Y-99020285D01*
X128801904Y-99115523D01*
X128706666Y-99210761D01*
X128563809Y-99258380D01*
X128325714Y-99258380D01*
X129849523Y-99258380D02*
X129278095Y-99258380D01*
X129563809Y-99258380D02*
X129563809Y-98258380D01*
X129468571Y-98401238D01*
X129373333Y-98496476D01*
X129278095Y-98544095D01*
X130801904Y-99258380D02*
X130230476Y-99258380D01*
X130516190Y-99258380D02*
X130516190Y-98258380D01*
X130420952Y-98401238D01*
X130325714Y-98496476D01*
X130230476Y-98544095D01*
X128325714Y-96718380D02*
X128325714Y-95718380D01*
X128563809Y-95718380D01*
X128706666Y-95766000D01*
X128801904Y-95861238D01*
X128849523Y-95956476D01*
X128897142Y-96146952D01*
X128897142Y-96289809D01*
X128849523Y-96480285D01*
X128801904Y-96575523D01*
X128706666Y-96670761D01*
X128563809Y-96718380D01*
X128325714Y-96718380D01*
X129849523Y-96718380D02*
X129278095Y-96718380D01*
X129563809Y-96718380D02*
X129563809Y-95718380D01*
X129468571Y-95861238D01*
X129373333Y-95956476D01*
X129278095Y-96004095D01*
X130468571Y-95718380D02*
X130563809Y-95718380D01*
X130659047Y-95766000D01*
X130706666Y-95813619D01*
X130754285Y-95908857D01*
X130801904Y-96099333D01*
X130801904Y-96337428D01*
X130754285Y-96527904D01*
X130706666Y-96623142D01*
X130659047Y-96670761D01*
X130563809Y-96718380D01*
X130468571Y-96718380D01*
X130373333Y-96670761D01*
X130325714Y-96623142D01*
X130278095Y-96527904D01*
X130230476Y-96337428D01*
X130230476Y-96099333D01*
X130278095Y-95908857D01*
X130325714Y-95813619D01*
X130373333Y-95766000D01*
X130468571Y-95718380D01*
X128293904Y-76398380D02*
X128293904Y-75398380D01*
X128532000Y-75398380D01*
X128674857Y-75446000D01*
X128770095Y-75541238D01*
X128817714Y-75636476D01*
X128865333Y-75826952D01*
X128865333Y-75969809D01*
X128817714Y-76160285D01*
X128770095Y-76255523D01*
X128674857Y-76350761D01*
X128532000Y-76398380D01*
X128293904Y-76398380D01*
X129246285Y-75493619D02*
X129293904Y-75446000D01*
X129389142Y-75398380D01*
X129627238Y-75398380D01*
X129722476Y-75446000D01*
X129770095Y-75493619D01*
X129817714Y-75588857D01*
X129817714Y-75684095D01*
X129770095Y-75826952D01*
X129198666Y-76398380D01*
X129817714Y-76398380D01*
X128293904Y-78938380D02*
X128293904Y-77938380D01*
X128532000Y-77938380D01*
X128674857Y-77986000D01*
X128770095Y-78081238D01*
X128817714Y-78176476D01*
X128865333Y-78366952D01*
X128865333Y-78509809D01*
X128817714Y-78700285D01*
X128770095Y-78795523D01*
X128674857Y-78890761D01*
X128532000Y-78938380D01*
X128293904Y-78938380D01*
X129198666Y-77938380D02*
X129817714Y-77938380D01*
X129484380Y-78319333D01*
X129627238Y-78319333D01*
X129722476Y-78366952D01*
X129770095Y-78414571D01*
X129817714Y-78509809D01*
X129817714Y-78747904D01*
X129770095Y-78843142D01*
X129722476Y-78890761D01*
X129627238Y-78938380D01*
X129341523Y-78938380D01*
X129246285Y-78890761D01*
X129198666Y-78843142D01*
X128293904Y-81478380D02*
X128293904Y-80478380D01*
X128532000Y-80478380D01*
X128674857Y-80526000D01*
X128770095Y-80621238D01*
X128817714Y-80716476D01*
X128865333Y-80906952D01*
X128865333Y-81049809D01*
X128817714Y-81240285D01*
X128770095Y-81335523D01*
X128674857Y-81430761D01*
X128532000Y-81478380D01*
X128293904Y-81478380D01*
X129722476Y-80811714D02*
X129722476Y-81478380D01*
X129484380Y-80430761D02*
X129246285Y-81145047D01*
X129865333Y-81145047D01*
X128293904Y-84018380D02*
X128293904Y-83018380D01*
X128532000Y-83018380D01*
X128674857Y-83066000D01*
X128770095Y-83161238D01*
X128817714Y-83256476D01*
X128865333Y-83446952D01*
X128865333Y-83589809D01*
X128817714Y-83780285D01*
X128770095Y-83875523D01*
X128674857Y-83970761D01*
X128532000Y-84018380D01*
X128293904Y-84018380D01*
X129770095Y-83018380D02*
X129293904Y-83018380D01*
X129246285Y-83494571D01*
X129293904Y-83446952D01*
X129389142Y-83399333D01*
X129627238Y-83399333D01*
X129722476Y-83446952D01*
X129770095Y-83494571D01*
X129817714Y-83589809D01*
X129817714Y-83827904D01*
X129770095Y-83923142D01*
X129722476Y-83970761D01*
X129627238Y-84018380D01*
X129389142Y-84018380D01*
X129293904Y-83970761D01*
X129246285Y-83923142D01*
X138477809Y-60142380D02*
X138477809Y-59142380D01*
X139525428Y-60047142D02*
X139477809Y-60094761D01*
X139334952Y-60142380D01*
X139239714Y-60142380D01*
X139096857Y-60094761D01*
X139001619Y-59999523D01*
X138954000Y-59904285D01*
X138906380Y-59713809D01*
X138906380Y-59570952D01*
X138954000Y-59380476D01*
X139001619Y-59285238D01*
X139096857Y-59190000D01*
X139239714Y-59142380D01*
X139334952Y-59142380D01*
X139477809Y-59190000D01*
X139525428Y-59237619D01*
X139906380Y-60094761D02*
X140049238Y-60142380D01*
X140287333Y-60142380D01*
X140382571Y-60094761D01*
X140430190Y-60047142D01*
X140477809Y-59951904D01*
X140477809Y-59856666D01*
X140430190Y-59761428D01*
X140382571Y-59713809D01*
X140287333Y-59666190D01*
X140096857Y-59618571D01*
X140001619Y-59570952D01*
X139954000Y-59523333D01*
X139906380Y-59428095D01*
X139906380Y-59332857D01*
X139954000Y-59237619D01*
X140001619Y-59190000D01*
X140096857Y-59142380D01*
X140334952Y-59142380D01*
X140477809Y-59190000D01*
X140906380Y-60142380D02*
X140906380Y-59142380D01*
X141287333Y-59142380D01*
X141382571Y-59190000D01*
X141430190Y-59237619D01*
X141477809Y-59332857D01*
X141477809Y-59475714D01*
X141430190Y-59570952D01*
X141382571Y-59618571D01*
X141287333Y-59666190D01*
X140906380Y-59666190D01*
X131095714Y-66238380D02*
X130524285Y-66238380D01*
X130810000Y-66238380D02*
X130810000Y-65238380D01*
X130714761Y-65381238D01*
X130619523Y-65476476D01*
X130524285Y-65524095D01*
X109474000Y-105156000D02*
X112522000Y-105156000D01*
X109474000Y-69342000D02*
X109474000Y-105156000D01*
X106934000Y-69342000D02*
X109474000Y-69342000D01*
X106934000Y-110490000D02*
X106934000Y-69342000D01*
X112522000Y-110490000D02*
X106934000Y-110490000D01*
X112522000Y-110490000D02*
X112522000Y-105156000D01*
X135930285Y-115197380D02*
X135930285Y-114197380D01*
X136501714Y-115197380D02*
X136073142Y-114625952D01*
X136501714Y-114197380D02*
X135930285Y-114768809D01*
X136930285Y-115197380D02*
X136930285Y-114197380D01*
X136930285Y-114673571D02*
X137501714Y-114673571D01*
X137501714Y-115197380D02*
X137501714Y-114197380D01*
X138311238Y-114673571D02*
X137977904Y-114673571D01*
X137977904Y-115197380D02*
X137977904Y-114197380D01*
X138454095Y-114197380D01*
X139549333Y-114292619D02*
X139596952Y-114245000D01*
X139692190Y-114197380D01*
X139930285Y-114197380D01*
X140025523Y-114245000D01*
X140073142Y-114292619D01*
X140120761Y-114387857D01*
X140120761Y-114483095D01*
X140073142Y-114625952D01*
X139501714Y-115197380D01*
X140120761Y-115197380D01*
X140739809Y-114197380D02*
X140835047Y-114197380D01*
X140930285Y-114245000D01*
X140977904Y-114292619D01*
X141025523Y-114387857D01*
X141073142Y-114578333D01*
X141073142Y-114816428D01*
X141025523Y-115006904D01*
X140977904Y-115102142D01*
X140930285Y-115149761D01*
X140835047Y-115197380D01*
X140739809Y-115197380D01*
X140644571Y-115149761D01*
X140596952Y-115102142D01*
X140549333Y-115006904D01*
X140501714Y-114816428D01*
X140501714Y-114578333D01*
X140549333Y-114387857D01*
X140596952Y-114292619D01*
X140644571Y-114245000D01*
X140739809Y-114197380D01*
X141454095Y-114292619D02*
X141501714Y-114245000D01*
X141596952Y-114197380D01*
X141835047Y-114197380D01*
X141930285Y-114245000D01*
X141977904Y-114292619D01*
X142025523Y-114387857D01*
X142025523Y-114483095D01*
X141977904Y-114625952D01*
X141406476Y-115197380D01*
X142025523Y-115197380D01*
X142644571Y-114197380D02*
X142739809Y-114197380D01*
X142835047Y-114245000D01*
X142882666Y-114292619D01*
X142930285Y-114387857D01*
X142977904Y-114578333D01*
X142977904Y-114816428D01*
X142930285Y-115006904D01*
X142882666Y-115102142D01*
X142835047Y-115149761D01*
X142739809Y-115197380D01*
X142644571Y-115197380D01*
X142549333Y-115149761D01*
X142501714Y-115102142D01*
X142454095Y-115006904D01*
X142406476Y-114816428D01*
X142406476Y-114578333D01*
X142454095Y-114387857D01*
X142501714Y-114292619D01*
X142549333Y-114245000D01*
X142644571Y-114197380D01*
X144025523Y-114197380D02*
X144358857Y-115197380D01*
X144692190Y-114197380D01*
X145454095Y-114530714D02*
X145454095Y-115197380D01*
X145216000Y-114149761D02*
X144977904Y-114864047D01*
X145596952Y-114864047D01*
X136954095Y-116847380D02*
X136954095Y-115847380D01*
X137525523Y-116847380D01*
X137525523Y-115847380D01*
X137954095Y-116561666D02*
X138430285Y-116561666D01*
X137858857Y-116847380D02*
X138192190Y-115847380D01*
X138525523Y-116847380D01*
X138858857Y-116847380D02*
X138858857Y-115847380D01*
X139430285Y-116847380D01*
X139430285Y-115847380D01*
X140096952Y-115847380D02*
X140287428Y-115847380D01*
X140382666Y-115895000D01*
X140477904Y-115990238D01*
X140525523Y-116180714D01*
X140525523Y-116514047D01*
X140477904Y-116704523D01*
X140382666Y-116799761D01*
X140287428Y-116847380D01*
X140096952Y-116847380D01*
X140001714Y-116799761D01*
X139906476Y-116704523D01*
X139858857Y-116514047D01*
X139858857Y-116180714D01*
X139906476Y-115990238D01*
X140001714Y-115895000D01*
X140096952Y-115847380D01*
X141573142Y-115847380D02*
X141906476Y-116847380D01*
X142239809Y-115847380D01*
X142477904Y-115847380D02*
X143096952Y-115847380D01*
X142763619Y-116228333D01*
X142906476Y-116228333D01*
X143001714Y-116275952D01*
X143049333Y-116323571D01*
X143096952Y-116418809D01*
X143096952Y-116656904D01*
X143049333Y-116752142D01*
X143001714Y-116799761D01*
X142906476Y-116847380D01*
X142620761Y-116847380D01*
X142525523Y-116799761D01*
X142477904Y-116752142D01*
X143525523Y-116752142D02*
X143573142Y-116799761D01*
X143525523Y-116847380D01*
X143477904Y-116799761D01*
X143525523Y-116752142D01*
X143525523Y-116847380D01*
X144525523Y-116847380D02*
X143954095Y-116847380D01*
X144239809Y-116847380D02*
X144239809Y-115847380D01*
X144144571Y-115990238D01*
X144049333Y-116085476D01*
X143954095Y-116133095D01*
X139454095Y-109942380D02*
X139454095Y-110751904D01*
X139501714Y-110847142D01*
X139549333Y-110894761D01*
X139644571Y-110942380D01*
X139835047Y-110942380D01*
X139930285Y-110894761D01*
X139977904Y-110847142D01*
X140025523Y-110751904D01*
X140025523Y-109942380D01*
X140454095Y-110894761D02*
X140596952Y-110942380D01*
X140835047Y-110942380D01*
X140930285Y-110894761D01*
X140977904Y-110847142D01*
X141025523Y-110751904D01*
X141025523Y-110656666D01*
X140977904Y-110561428D01*
X140930285Y-110513809D01*
X140835047Y-110466190D01*
X140644571Y-110418571D01*
X140549333Y-110370952D01*
X140501714Y-110323333D01*
X140454095Y-110228095D01*
X140454095Y-110132857D01*
X140501714Y-110037619D01*
X140549333Y-109990000D01*
X140644571Y-109942380D01*
X140882666Y-109942380D01*
X141025523Y-109990000D01*
X141787428Y-110418571D02*
X141930285Y-110466190D01*
X141977904Y-110513809D01*
X142025523Y-110609047D01*
X142025523Y-110751904D01*
X141977904Y-110847142D01*
X141930285Y-110894761D01*
X141835047Y-110942380D01*
X141454095Y-110942380D01*
X141454095Y-109942380D01*
X141787428Y-109942380D01*
X141882666Y-109990000D01*
X141930285Y-110037619D01*
X141977904Y-110132857D01*
X141977904Y-110228095D01*
X141930285Y-110323333D01*
X141882666Y-110370952D01*
X141787428Y-110418571D01*
X141454095Y-110418571D01*
X157400666Y-68032380D02*
X158067333Y-69032380D01*
X158067333Y-68032380D02*
X157400666Y-69032380D01*
X157400666Y-70572380D02*
X158067333Y-71572380D01*
X158067333Y-70572380D02*
X157400666Y-71572380D01*
X157400666Y-73112380D02*
X158067333Y-74112380D01*
X158067333Y-73112380D02*
X157400666Y-74112380D01*
X157400666Y-75398380D02*
X158067333Y-76398380D01*
X158067333Y-75398380D02*
X157400666Y-76398380D01*
X157805619Y-79192380D02*
X157472285Y-78716190D01*
X157234190Y-79192380D02*
X157234190Y-78192380D01*
X157615142Y-78192380D01*
X157710380Y-78240000D01*
X157758000Y-78287619D01*
X157805619Y-78382857D01*
X157805619Y-78525714D01*
X157758000Y-78620952D01*
X157710380Y-78668571D01*
X157615142Y-78716190D01*
X157234190Y-78716190D01*
X158234190Y-78668571D02*
X158567523Y-78668571D01*
X158710380Y-79192380D02*
X158234190Y-79192380D01*
X158234190Y-78192380D01*
X158710380Y-78192380D01*
X159091333Y-79144761D02*
X159234190Y-79192380D01*
X159472285Y-79192380D01*
X159567523Y-79144761D01*
X159615142Y-79097142D01*
X159662761Y-79001904D01*
X159662761Y-78906666D01*
X159615142Y-78811428D01*
X159567523Y-78763809D01*
X159472285Y-78716190D01*
X159281809Y-78668571D01*
X159186571Y-78620952D01*
X159138952Y-78573333D01*
X159091333Y-78478095D01*
X159091333Y-78382857D01*
X159138952Y-78287619D01*
X159186571Y-78240000D01*
X159281809Y-78192380D01*
X159519904Y-78192380D01*
X159662761Y-78240000D01*
X160091333Y-78668571D02*
X160424666Y-78668571D01*
X160567523Y-79192380D02*
X160091333Y-79192380D01*
X160091333Y-78192380D01*
X160567523Y-78192380D01*
X160853238Y-78192380D02*
X161424666Y-78192380D01*
X161138952Y-79192380D02*
X161138952Y-78192380D01*
X157924571Y-81732380D02*
X157591238Y-81256190D01*
X157353142Y-81732380D02*
X157353142Y-80732380D01*
X157734095Y-80732380D01*
X157829333Y-80780000D01*
X157876952Y-80827619D01*
X157924571Y-80922857D01*
X157924571Y-81065714D01*
X157876952Y-81160952D01*
X157829333Y-81208571D01*
X157734095Y-81256190D01*
X157353142Y-81256190D01*
X158353142Y-81208571D02*
X158686476Y-81208571D01*
X158829333Y-81732380D02*
X158353142Y-81732380D01*
X158353142Y-80732380D01*
X158829333Y-80732380D01*
X159591238Y-81208571D02*
X159257904Y-81208571D01*
X159257904Y-81732380D02*
X159257904Y-80732380D01*
X159734095Y-80732380D01*
X157527714Y-83986666D02*
X158003904Y-83986666D01*
X157432476Y-84272380D02*
X157765809Y-83272380D01*
X158099142Y-84272380D01*
X158337238Y-83272380D02*
X159003904Y-83272380D01*
X158575333Y-84272380D01*
X157527714Y-86526666D02*
X158003904Y-86526666D01*
X157432476Y-86812380D02*
X157765809Y-85812380D01*
X158099142Y-86812380D01*
X158861047Y-85812380D02*
X158670571Y-85812380D01*
X158575333Y-85860000D01*
X158527714Y-85907619D01*
X158432476Y-86050476D01*
X158384857Y-86240952D01*
X158384857Y-86621904D01*
X158432476Y-86717142D01*
X158480095Y-86764761D01*
X158575333Y-86812380D01*
X158765809Y-86812380D01*
X158861047Y-86764761D01*
X158908666Y-86717142D01*
X158956285Y-86621904D01*
X158956285Y-86383809D01*
X158908666Y-86288571D01*
X158861047Y-86240952D01*
X158765809Y-86193333D01*
X158575333Y-86193333D01*
X158480095Y-86240952D01*
X158432476Y-86288571D01*
X158384857Y-86383809D01*
X157527714Y-89066666D02*
X158003904Y-89066666D01*
X157432476Y-89352380D02*
X157765809Y-88352380D01*
X158099142Y-89352380D01*
X158908666Y-88352380D02*
X158432476Y-88352380D01*
X158384857Y-88828571D01*
X158432476Y-88780952D01*
X158527714Y-88733333D01*
X158765809Y-88733333D01*
X158861047Y-88780952D01*
X158908666Y-88828571D01*
X158956285Y-88923809D01*
X158956285Y-89161904D01*
X158908666Y-89257142D01*
X158861047Y-89304761D01*
X158765809Y-89352380D01*
X158527714Y-89352380D01*
X158432476Y-89304761D01*
X158384857Y-89257142D01*
X157527714Y-91606666D02*
X158003904Y-91606666D01*
X157432476Y-91892380D02*
X157765809Y-90892380D01*
X158099142Y-91892380D01*
X158861047Y-91225714D02*
X158861047Y-91892380D01*
X158622952Y-90844761D02*
X158384857Y-91559047D01*
X159003904Y-91559047D01*
X157527714Y-94146666D02*
X158003904Y-94146666D01*
X157432476Y-94432380D02*
X157765809Y-93432380D01*
X158099142Y-94432380D01*
X158337238Y-93432380D02*
X158956285Y-93432380D01*
X158622952Y-93813333D01*
X158765809Y-93813333D01*
X158861047Y-93860952D01*
X158908666Y-93908571D01*
X158956285Y-94003809D01*
X158956285Y-94241904D01*
X158908666Y-94337142D01*
X158861047Y-94384761D01*
X158765809Y-94432380D01*
X158480095Y-94432380D01*
X158384857Y-94384761D01*
X158337238Y-94337142D01*
X157527714Y-96686666D02*
X158003904Y-96686666D01*
X157432476Y-96972380D02*
X157765809Y-95972380D01*
X158099142Y-96972380D01*
X158384857Y-96067619D02*
X158432476Y-96020000D01*
X158527714Y-95972380D01*
X158765809Y-95972380D01*
X158861047Y-96020000D01*
X158908666Y-96067619D01*
X158956285Y-96162857D01*
X158956285Y-96258095D01*
X158908666Y-96400952D01*
X158337238Y-96972380D01*
X158956285Y-96972380D01*
X157527714Y-99226666D02*
X158003904Y-99226666D01*
X157432476Y-99512380D02*
X157765809Y-98512380D01*
X158099142Y-99512380D01*
X158956285Y-99512380D02*
X158384857Y-99512380D01*
X158670571Y-99512380D02*
X158670571Y-98512380D01*
X158575333Y-98655238D01*
X158480095Y-98750476D01*
X158384857Y-98798095D01*
X157527714Y-101512666D02*
X158003904Y-101512666D01*
X157432476Y-101798380D02*
X157765809Y-100798380D01*
X158099142Y-101798380D01*
X158622952Y-100798380D02*
X158718190Y-100798380D01*
X158813428Y-100846000D01*
X158861047Y-100893619D01*
X158908666Y-100988857D01*
X158956285Y-101179333D01*
X158956285Y-101417428D01*
X158908666Y-101607904D01*
X158861047Y-101703142D01*
X158813428Y-101750761D01*
X158718190Y-101798380D01*
X158622952Y-101798380D01*
X158527714Y-101750761D01*
X158480095Y-101703142D01*
X158432476Y-101607904D01*
X158384857Y-101417428D01*
X158384857Y-101179333D01*
X158432476Y-100988857D01*
X158480095Y-100893619D01*
X158527714Y-100846000D01*
X158622952Y-100798380D01*
X157019809Y-65238380D02*
X157638857Y-65238380D01*
X157305523Y-65619333D01*
X157448380Y-65619333D01*
X157543619Y-65666952D01*
X157591238Y-65714571D01*
X157638857Y-65809809D01*
X157638857Y-66047904D01*
X157591238Y-66143142D01*
X157543619Y-66190761D01*
X157448380Y-66238380D01*
X157162666Y-66238380D01*
X157067428Y-66190761D01*
X157019809Y-66143142D01*
X158115047Y-66190761D02*
X158115047Y-66238380D01*
X158067428Y-66333619D01*
X158019809Y-66381238D01*
X158448380Y-65238380D02*
X159067428Y-65238380D01*
X158734095Y-65619333D01*
X158876952Y-65619333D01*
X158972190Y-65666952D01*
X159019809Y-65714571D01*
X159067428Y-65809809D01*
X159067428Y-66047904D01*
X159019809Y-66143142D01*
X158972190Y-66190761D01*
X158876952Y-66238380D01*
X158591238Y-66238380D01*
X158496000Y-66190761D01*
X158448380Y-66143142D01*
X159353142Y-65238380D02*
X159686476Y-66238380D01*
X160019809Y-65238380D01*
D11*
X121666095Y-44592857D02*
X123189904Y-44592857D01*
X122428000Y-45354761D02*
X122428000Y-43830952D01*
D10*
X100893714Y-104338380D02*
X100893714Y-103338380D01*
X101131809Y-103338380D01*
X101274666Y-103386000D01*
X101369904Y-103481238D01*
X101417523Y-103576476D01*
X101465142Y-103766952D01*
X101465142Y-103909809D01*
X101417523Y-104100285D01*
X101369904Y-104195523D01*
X101274666Y-104290761D01*
X101131809Y-104338380D01*
X100893714Y-104338380D01*
X102417523Y-104338380D02*
X101846095Y-104338380D01*
X102131809Y-104338380D02*
X102131809Y-103338380D01*
X102036571Y-103481238D01*
X101941333Y-103576476D01*
X101846095Y-103624095D01*
X102750857Y-103338380D02*
X103369904Y-103338380D01*
X103036571Y-103719333D01*
X103179428Y-103719333D01*
X103274666Y-103766952D01*
X103322285Y-103814571D01*
X103369904Y-103909809D01*
X103369904Y-104147904D01*
X103322285Y-104243142D01*
X103274666Y-104290761D01*
X103179428Y-104338380D01*
X102893714Y-104338380D01*
X102798476Y-104290761D01*
X102750857Y-104243142D01*
X100893714Y-101798380D02*
X100893714Y-100798380D01*
X101131809Y-100798380D01*
X101274666Y-100846000D01*
X101369904Y-100941238D01*
X101417523Y-101036476D01*
X101465142Y-101226952D01*
X101465142Y-101369809D01*
X101417523Y-101560285D01*
X101369904Y-101655523D01*
X101274666Y-101750761D01*
X101131809Y-101798380D01*
X100893714Y-101798380D01*
X102417523Y-101798380D02*
X101846095Y-101798380D01*
X102131809Y-101798380D02*
X102131809Y-100798380D01*
X102036571Y-100941238D01*
X101941333Y-101036476D01*
X101846095Y-101084095D01*
X102798476Y-100893619D02*
X102846095Y-100846000D01*
X102941333Y-100798380D01*
X103179428Y-100798380D01*
X103274666Y-100846000D01*
X103322285Y-100893619D01*
X103369904Y-100988857D01*
X103369904Y-101084095D01*
X103322285Y-101226952D01*
X102750857Y-101798380D01*
X103369904Y-101798380D01*
X100512761Y-99258380D02*
X100512761Y-98258380D01*
X100750857Y-98258380D01*
X100893714Y-98306000D01*
X100988952Y-98401238D01*
X101036571Y-98496476D01*
X101084190Y-98686952D01*
X101084190Y-98829809D01*
X101036571Y-99020285D01*
X100988952Y-99115523D01*
X100893714Y-99210761D01*
X100750857Y-99258380D01*
X100512761Y-99258380D01*
X102036571Y-99258380D02*
X101465142Y-99258380D01*
X101750857Y-99258380D02*
X101750857Y-98258380D01*
X101655619Y-98401238D01*
X101560380Y-98496476D01*
X101465142Y-98544095D01*
X102988952Y-99258380D02*
X102417523Y-99258380D01*
X102703238Y-99258380D02*
X102703238Y-98258380D01*
X102608000Y-98401238D01*
X102512761Y-98496476D01*
X102417523Y-98544095D01*
X103560380Y-98258380D02*
X103560380Y-98496476D01*
X103322285Y-98401238D02*
X103560380Y-98496476D01*
X103798476Y-98401238D01*
X103417523Y-98686952D02*
X103560380Y-98496476D01*
X103703238Y-98686952D01*
X100512761Y-96718380D02*
X100512761Y-95718380D01*
X100750857Y-95718380D01*
X100893714Y-95766000D01*
X100988952Y-95861238D01*
X101036571Y-95956476D01*
X101084190Y-96146952D01*
X101084190Y-96289809D01*
X101036571Y-96480285D01*
X100988952Y-96575523D01*
X100893714Y-96670761D01*
X100750857Y-96718380D01*
X100512761Y-96718380D01*
X102036571Y-96718380D02*
X101465142Y-96718380D01*
X101750857Y-96718380D02*
X101750857Y-95718380D01*
X101655619Y-95861238D01*
X101560380Y-95956476D01*
X101465142Y-96004095D01*
X102655619Y-95718380D02*
X102750857Y-95718380D01*
X102846095Y-95766000D01*
X102893714Y-95813619D01*
X102941333Y-95908857D01*
X102988952Y-96099333D01*
X102988952Y-96337428D01*
X102941333Y-96527904D01*
X102893714Y-96623142D01*
X102846095Y-96670761D01*
X102750857Y-96718380D01*
X102655619Y-96718380D01*
X102560380Y-96670761D01*
X102512761Y-96623142D01*
X102465142Y-96527904D01*
X102417523Y-96337428D01*
X102417523Y-96099333D01*
X102465142Y-95908857D01*
X102512761Y-95813619D01*
X102560380Y-95766000D01*
X102655619Y-95718380D01*
X103560380Y-95718380D02*
X103560380Y-95956476D01*
X103322285Y-95861238D02*
X103560380Y-95956476D01*
X103798476Y-95861238D01*
X103417523Y-96146952D02*
X103560380Y-95956476D01*
X103703238Y-96146952D01*
X100480952Y-94178380D02*
X100480952Y-93178380D01*
X100719047Y-93178380D01*
X100861904Y-93226000D01*
X100957142Y-93321238D01*
X101004761Y-93416476D01*
X101052380Y-93606952D01*
X101052380Y-93749809D01*
X101004761Y-93940285D01*
X100957142Y-94035523D01*
X100861904Y-94130761D01*
X100719047Y-94178380D01*
X100480952Y-94178380D01*
X101528571Y-94178380D02*
X101719047Y-94178380D01*
X101814285Y-94130761D01*
X101861904Y-94083142D01*
X101957142Y-93940285D01*
X102004761Y-93749809D01*
X102004761Y-93368857D01*
X101957142Y-93273619D01*
X101909523Y-93226000D01*
X101814285Y-93178380D01*
X101623809Y-93178380D01*
X101528571Y-93226000D01*
X101480952Y-93273619D01*
X101433333Y-93368857D01*
X101433333Y-93606952D01*
X101480952Y-93702190D01*
X101528571Y-93749809D01*
X101623809Y-93797428D01*
X101814285Y-93797428D01*
X101909523Y-93749809D01*
X101957142Y-93702190D01*
X102004761Y-93606952D01*
X102576190Y-93178380D02*
X102576190Y-93416476D01*
X102338095Y-93321238D02*
X102576190Y-93416476D01*
X102814285Y-93321238D01*
X102433333Y-93606952D02*
X102576190Y-93416476D01*
X102719047Y-93606952D01*
X100861904Y-91638380D02*
X100861904Y-90638380D01*
X101100000Y-90638380D01*
X101242857Y-90686000D01*
X101338095Y-90781238D01*
X101385714Y-90876476D01*
X101433333Y-91066952D01*
X101433333Y-91209809D01*
X101385714Y-91400285D01*
X101338095Y-91495523D01*
X101242857Y-91590761D01*
X101100000Y-91638380D01*
X100861904Y-91638380D01*
X102004761Y-91066952D02*
X101909523Y-91019333D01*
X101861904Y-90971714D01*
X101814285Y-90876476D01*
X101814285Y-90828857D01*
X101861904Y-90733619D01*
X101909523Y-90686000D01*
X102004761Y-90638380D01*
X102195238Y-90638380D01*
X102290476Y-90686000D01*
X102338095Y-90733619D01*
X102385714Y-90828857D01*
X102385714Y-90876476D01*
X102338095Y-90971714D01*
X102290476Y-91019333D01*
X102195238Y-91066952D01*
X102004761Y-91066952D01*
X101909523Y-91114571D01*
X101861904Y-91162190D01*
X101814285Y-91257428D01*
X101814285Y-91447904D01*
X101861904Y-91543142D01*
X101909523Y-91590761D01*
X102004761Y-91638380D01*
X102195238Y-91638380D01*
X102290476Y-91590761D01*
X102338095Y-91543142D01*
X102385714Y-91447904D01*
X102385714Y-91257428D01*
X102338095Y-91162190D01*
X102290476Y-91114571D01*
X102195238Y-91066952D01*
X100861904Y-89098380D02*
X100861904Y-88098380D01*
X101100000Y-88098380D01*
X101242857Y-88146000D01*
X101338095Y-88241238D01*
X101385714Y-88336476D01*
X101433333Y-88526952D01*
X101433333Y-88669809D01*
X101385714Y-88860285D01*
X101338095Y-88955523D01*
X101242857Y-89050761D01*
X101100000Y-89098380D01*
X100861904Y-89098380D01*
X101766666Y-88098380D02*
X102433333Y-88098380D01*
X102004761Y-89098380D01*
X100480952Y-86558380D02*
X100480952Y-85558380D01*
X100719047Y-85558380D01*
X100861904Y-85606000D01*
X100957142Y-85701238D01*
X101004761Y-85796476D01*
X101052380Y-85986952D01*
X101052380Y-86129809D01*
X101004761Y-86320285D01*
X100957142Y-86415523D01*
X100861904Y-86510761D01*
X100719047Y-86558380D01*
X100480952Y-86558380D01*
X101909523Y-85558380D02*
X101719047Y-85558380D01*
X101623809Y-85606000D01*
X101576190Y-85653619D01*
X101480952Y-85796476D01*
X101433333Y-85986952D01*
X101433333Y-86367904D01*
X101480952Y-86463142D01*
X101528571Y-86510761D01*
X101623809Y-86558380D01*
X101814285Y-86558380D01*
X101909523Y-86510761D01*
X101957142Y-86463142D01*
X102004761Y-86367904D01*
X102004761Y-86129809D01*
X101957142Y-86034571D01*
X101909523Y-85986952D01*
X101814285Y-85939333D01*
X101623809Y-85939333D01*
X101528571Y-85986952D01*
X101480952Y-86034571D01*
X101433333Y-86129809D01*
X102576190Y-85558380D02*
X102576190Y-85796476D01*
X102338095Y-85701238D02*
X102576190Y-85796476D01*
X102814285Y-85701238D01*
X102433333Y-85986952D02*
X102576190Y-85796476D01*
X102719047Y-85986952D01*
X100480952Y-84018380D02*
X100480952Y-83018380D01*
X100719047Y-83018380D01*
X100861904Y-83066000D01*
X100957142Y-83161238D01*
X101004761Y-83256476D01*
X101052380Y-83446952D01*
X101052380Y-83589809D01*
X101004761Y-83780285D01*
X100957142Y-83875523D01*
X100861904Y-83970761D01*
X100719047Y-84018380D01*
X100480952Y-84018380D01*
X101957142Y-83018380D02*
X101480952Y-83018380D01*
X101433333Y-83494571D01*
X101480952Y-83446952D01*
X101576190Y-83399333D01*
X101814285Y-83399333D01*
X101909523Y-83446952D01*
X101957142Y-83494571D01*
X102004761Y-83589809D01*
X102004761Y-83827904D01*
X101957142Y-83923142D01*
X101909523Y-83970761D01*
X101814285Y-84018380D01*
X101576190Y-84018380D01*
X101480952Y-83970761D01*
X101433333Y-83923142D01*
X102576190Y-83018380D02*
X102576190Y-83256476D01*
X102338095Y-83161238D02*
X102576190Y-83256476D01*
X102814285Y-83161238D01*
X102433333Y-83446952D02*
X102576190Y-83256476D01*
X102719047Y-83446952D01*
X100861904Y-81478380D02*
X100861904Y-80478380D01*
X101100000Y-80478380D01*
X101242857Y-80526000D01*
X101338095Y-80621238D01*
X101385714Y-80716476D01*
X101433333Y-80906952D01*
X101433333Y-81049809D01*
X101385714Y-81240285D01*
X101338095Y-81335523D01*
X101242857Y-81430761D01*
X101100000Y-81478380D01*
X100861904Y-81478380D01*
X102290476Y-80811714D02*
X102290476Y-81478380D01*
X102052380Y-80430761D02*
X101814285Y-81145047D01*
X102433333Y-81145047D01*
X100480952Y-78938380D02*
X100480952Y-77938380D01*
X100719047Y-77938380D01*
X100861904Y-77986000D01*
X100957142Y-78081238D01*
X101004761Y-78176476D01*
X101052380Y-78366952D01*
X101052380Y-78509809D01*
X101004761Y-78700285D01*
X100957142Y-78795523D01*
X100861904Y-78890761D01*
X100719047Y-78938380D01*
X100480952Y-78938380D01*
X101385714Y-77938380D02*
X102004761Y-77938380D01*
X101671428Y-78319333D01*
X101814285Y-78319333D01*
X101909523Y-78366952D01*
X101957142Y-78414571D01*
X102004761Y-78509809D01*
X102004761Y-78747904D01*
X101957142Y-78843142D01*
X101909523Y-78890761D01*
X101814285Y-78938380D01*
X101528571Y-78938380D01*
X101433333Y-78890761D01*
X101385714Y-78843142D01*
X102576190Y-77938380D02*
X102576190Y-78176476D01*
X102338095Y-78081238D02*
X102576190Y-78176476D01*
X102814285Y-78081238D01*
X102433333Y-78366952D02*
X102576190Y-78176476D01*
X102719047Y-78366952D01*
X100861904Y-76398380D02*
X100861904Y-75398380D01*
X101100000Y-75398380D01*
X101242857Y-75446000D01*
X101338095Y-75541238D01*
X101385714Y-75636476D01*
X101433333Y-75826952D01*
X101433333Y-75969809D01*
X101385714Y-76160285D01*
X101338095Y-76255523D01*
X101242857Y-76350761D01*
X101100000Y-76398380D01*
X100861904Y-76398380D01*
X101814285Y-75493619D02*
X101861904Y-75446000D01*
X101957142Y-75398380D01*
X102195238Y-75398380D01*
X102290476Y-75446000D01*
X102338095Y-75493619D01*
X102385714Y-75588857D01*
X102385714Y-75684095D01*
X102338095Y-75826952D01*
X101766666Y-76398380D01*
X102385714Y-76398380D01*
X100861904Y-71318380D02*
X100861904Y-70318380D01*
X101100000Y-70318380D01*
X101242857Y-70366000D01*
X101338095Y-70461238D01*
X101385714Y-70556476D01*
X101433333Y-70746952D01*
X101433333Y-70889809D01*
X101385714Y-71080285D01*
X101338095Y-71175523D01*
X101242857Y-71270761D01*
X101100000Y-71318380D01*
X100861904Y-71318380D01*
X102052380Y-70318380D02*
X102147619Y-70318380D01*
X102242857Y-70366000D01*
X102290476Y-70413619D01*
X102338095Y-70508857D01*
X102385714Y-70699333D01*
X102385714Y-70937428D01*
X102338095Y-71127904D01*
X102290476Y-71223142D01*
X102242857Y-71270761D01*
X102147619Y-71318380D01*
X102052380Y-71318380D01*
X101957142Y-71270761D01*
X101909523Y-71223142D01*
X101861904Y-71127904D01*
X101814285Y-70937428D01*
X101814285Y-70699333D01*
X101861904Y-70508857D01*
X101909523Y-70413619D01*
X101957142Y-70366000D01*
X102052380Y-70318380D01*
X100861904Y-73858380D02*
X100861904Y-72858380D01*
X101100000Y-72858380D01*
X101242857Y-72906000D01*
X101338095Y-73001238D01*
X101385714Y-73096476D01*
X101433333Y-73286952D01*
X101433333Y-73429809D01*
X101385714Y-73620285D01*
X101338095Y-73715523D01*
X101242857Y-73810761D01*
X101100000Y-73858380D01*
X100861904Y-73858380D01*
X102385714Y-73858380D02*
X101814285Y-73858380D01*
X102100000Y-73858380D02*
X102100000Y-72858380D01*
X102004761Y-73001238D01*
X101909523Y-73096476D01*
X101814285Y-73144095D01*
X111315809Y-121626380D02*
X111315809Y-122435904D01*
X111363428Y-122531142D01*
X111411047Y-122578761D01*
X111506285Y-122626380D01*
X111696761Y-122626380D01*
X111792000Y-122578761D01*
X111839619Y-122531142D01*
X111887238Y-122435904D01*
X111887238Y-121626380D01*
X112744380Y-122578761D02*
X112649142Y-122626380D01*
X112458666Y-122626380D01*
X112363428Y-122578761D01*
X112315809Y-122483523D01*
X112315809Y-122102571D01*
X112363428Y-122007333D01*
X112458666Y-121959714D01*
X112649142Y-121959714D01*
X112744380Y-122007333D01*
X112792000Y-122102571D01*
X112792000Y-122197809D01*
X112315809Y-122293047D01*
X113934857Y-121721619D02*
X113982476Y-121674000D01*
X114077714Y-121626380D01*
X114315809Y-121626380D01*
X114411047Y-121674000D01*
X114458666Y-121721619D01*
X114506285Y-121816857D01*
X114506285Y-121912095D01*
X114458666Y-122054952D01*
X113887238Y-122626380D01*
X114506285Y-122626380D01*
X115411047Y-121626380D02*
X114934857Y-121626380D01*
X114887238Y-122102571D01*
X114934857Y-122054952D01*
X115030095Y-122007333D01*
X115268190Y-122007333D01*
X115363428Y-122054952D01*
X115411047Y-122102571D01*
X115458666Y-122197809D01*
X115458666Y-122435904D01*
X115411047Y-122531142D01*
X115363428Y-122578761D01*
X115268190Y-122626380D01*
X115030095Y-122626380D01*
X114934857Y-122578761D01*
X114887238Y-122531142D01*
X115744380Y-121626380D02*
X116077714Y-122626380D01*
X116411047Y-121626380D01*
X108529428Y-113553714D02*
X108529428Y-112791809D01*
X108910380Y-113172761D02*
X108148476Y-113172761D01*
X107910380Y-111839428D02*
X107910380Y-112315619D01*
X108386571Y-112363238D01*
X108338952Y-112315619D01*
X108291333Y-112220380D01*
X108291333Y-111982285D01*
X108338952Y-111887047D01*
X108386571Y-111839428D01*
X108481809Y-111791809D01*
X108719904Y-111791809D01*
X108815142Y-111839428D01*
X108862761Y-111887047D01*
X108910380Y-111982285D01*
X108910380Y-112220380D01*
X108862761Y-112315619D01*
X108815142Y-112363238D01*
X107910380Y-111506095D02*
X108910380Y-111172761D01*
X107910380Y-110839428D01*
X105418000Y-113029904D02*
X105370380Y-113125142D01*
X105370380Y-113268000D01*
X105418000Y-113410857D01*
X105513238Y-113506095D01*
X105608476Y-113553714D01*
X105798952Y-113601333D01*
X105941809Y-113601333D01*
X106132285Y-113553714D01*
X106227523Y-113506095D01*
X106322761Y-113410857D01*
X106370380Y-113268000D01*
X106370380Y-113172761D01*
X106322761Y-113029904D01*
X106275142Y-112982285D01*
X105941809Y-112982285D01*
X105941809Y-113172761D01*
X106370380Y-112553714D02*
X105370380Y-112553714D01*
X106370380Y-111982285D01*
X105370380Y-111982285D01*
X106370380Y-111506095D02*
X105370380Y-111506095D01*
X105370380Y-111268000D01*
X105418000Y-111125142D01*
X105513238Y-111029904D01*
X105608476Y-110982285D01*
X105798952Y-110934666D01*
X105941809Y-110934666D01*
X106132285Y-110982285D01*
X106227523Y-111029904D01*
X106322761Y-111125142D01*
X106370380Y-111268000D01*
X106370380Y-111506095D01*
D12*
%TO.C,U1*%
X150400000Y-48441000D02*
X151910000Y-48441000D01*
X150400000Y-52142000D02*
X151910000Y-52142000D01*
X151910000Y-55412000D02*
X151910000Y-45172000D01*
X150400000Y-45172000D02*
X155041000Y-45172000D01*
X150400000Y-55412000D02*
X155041000Y-55412000D01*
X155041000Y-55412000D02*
X155041000Y-45172000D01*
X150400000Y-55412000D02*
X150400000Y-45172000D01*
%TO.C,IC1*%
X134143001Y-67077001D02*
X134143001Y-64537001D01*
X134143001Y-64537001D02*
X131473001Y-64537001D01*
X131473001Y-67077001D02*
X131473001Y-105307001D01*
X131473001Y-61867001D02*
X131473001Y-64537001D01*
X146843001Y-64537001D02*
X149513001Y-64537001D01*
X146843001Y-64537001D02*
X146843001Y-102637001D01*
X146843001Y-102637001D02*
X149513001Y-102637001D01*
X134143001Y-67077001D02*
X131473001Y-67077001D01*
X134143001Y-67077001D02*
X134143001Y-102637001D01*
X134143001Y-102637001D02*
X131473001Y-102637001D01*
X131473001Y-105307001D02*
X149513001Y-105307001D01*
X149513001Y-105307001D02*
X149513001Y-61867001D01*
X149513001Y-61867001D02*
X131473001Y-61867001D01*
%TO.C,C1*%
X127548000Y-51268000D02*
G75*
G03*
X127548000Y-51268000I-5120000J0D01*
G01*
X127508000Y-51268000D02*
X117348000Y-51268000D01*
X127508000Y-51308000D02*
X117348000Y-51308000D01*
X127508000Y-51348000D02*
X117348000Y-51348000D01*
X127507000Y-51388000D02*
X117349000Y-51388000D01*
X127506000Y-51428000D02*
X117350000Y-51428000D01*
X127505000Y-51468000D02*
X117351000Y-51468000D01*
X127503000Y-51508000D02*
X117353000Y-51508000D01*
X127501000Y-51548000D02*
X117355000Y-51548000D01*
X127498000Y-51588000D02*
X117358000Y-51588000D01*
X127496000Y-51628000D02*
X117360000Y-51628000D01*
X127493000Y-51668000D02*
X117363000Y-51668000D01*
X127490000Y-51708000D02*
X117366000Y-51708000D01*
X127486000Y-51748000D02*
X117370000Y-51748000D01*
X127482000Y-51788000D02*
X117374000Y-51788000D01*
X127478000Y-51828000D02*
X117378000Y-51828000D01*
X127473000Y-51868000D02*
X117383000Y-51868000D01*
X127468000Y-51908000D02*
X117388000Y-51908000D01*
X127463000Y-51948000D02*
X117393000Y-51948000D01*
X127458000Y-51989000D02*
X117398000Y-51989000D01*
X127452000Y-52029000D02*
X117404000Y-52029000D01*
X127446000Y-52069000D02*
X117410000Y-52069000D01*
X127439000Y-52109000D02*
X117417000Y-52109000D01*
X127432000Y-52149000D02*
X117424000Y-52149000D01*
X127425000Y-52189000D02*
X117431000Y-52189000D01*
X127418000Y-52229000D02*
X117438000Y-52229000D01*
X127410000Y-52269000D02*
X117446000Y-52269000D01*
X127402000Y-52309000D02*
X117454000Y-52309000D01*
X127393000Y-52349000D02*
X117463000Y-52349000D01*
X127384000Y-52389000D02*
X117472000Y-52389000D01*
X127375000Y-52429000D02*
X117481000Y-52429000D01*
X127366000Y-52469000D02*
X117490000Y-52469000D01*
X127356000Y-52509000D02*
X117500000Y-52509000D01*
X127346000Y-52549000D02*
X123669000Y-52549000D01*
X121187000Y-52549000D02*
X117510000Y-52549000D01*
X127335000Y-52589000D02*
X123669000Y-52589000D01*
X121187000Y-52589000D02*
X117521000Y-52589000D01*
X127325000Y-52629000D02*
X123669000Y-52629000D01*
X121187000Y-52629000D02*
X117531000Y-52629000D01*
X127313000Y-52669000D02*
X123669000Y-52669000D01*
X121187000Y-52669000D02*
X117543000Y-52669000D01*
X127302000Y-52709000D02*
X123669000Y-52709000D01*
X121187000Y-52709000D02*
X117554000Y-52709000D01*
X127290000Y-52749000D02*
X123669000Y-52749000D01*
X121187000Y-52749000D02*
X117566000Y-52749000D01*
X127278000Y-52789000D02*
X123669000Y-52789000D01*
X121187000Y-52789000D02*
X117578000Y-52789000D01*
X127265000Y-52829000D02*
X123669000Y-52829000D01*
X121187000Y-52829000D02*
X117591000Y-52829000D01*
X127252000Y-52869000D02*
X123669000Y-52869000D01*
X121187000Y-52869000D02*
X117604000Y-52869000D01*
X127239000Y-52909000D02*
X123669000Y-52909000D01*
X121187000Y-52909000D02*
X117617000Y-52909000D01*
X127225000Y-52949000D02*
X123669000Y-52949000D01*
X121187000Y-52949000D02*
X117631000Y-52949000D01*
X127211000Y-52989000D02*
X123669000Y-52989000D01*
X121187000Y-52989000D02*
X117645000Y-52989000D01*
X127196000Y-53029000D02*
X123669000Y-53029000D01*
X121187000Y-53029000D02*
X117660000Y-53029000D01*
X127182000Y-53069000D02*
X123669000Y-53069000D01*
X121187000Y-53069000D02*
X117674000Y-53069000D01*
X127166000Y-53109000D02*
X123669000Y-53109000D01*
X121187000Y-53109000D02*
X117690000Y-53109000D01*
X127151000Y-53149000D02*
X123669000Y-53149000D01*
X121187000Y-53149000D02*
X117705000Y-53149000D01*
X127135000Y-53189000D02*
X123669000Y-53189000D01*
X121187000Y-53189000D02*
X117721000Y-53189000D01*
X127118000Y-53229000D02*
X123669000Y-53229000D01*
X121187000Y-53229000D02*
X117738000Y-53229000D01*
X127102000Y-53269000D02*
X123669000Y-53269000D01*
X121187000Y-53269000D02*
X117754000Y-53269000D01*
X127085000Y-53309000D02*
X123669000Y-53309000D01*
X121187000Y-53309000D02*
X117771000Y-53309000D01*
X127067000Y-53349000D02*
X123669000Y-53349000D01*
X121187000Y-53349000D02*
X117789000Y-53349000D01*
X127049000Y-53389000D02*
X123669000Y-53389000D01*
X121187000Y-53389000D02*
X117807000Y-53389000D01*
X127031000Y-53429000D02*
X123669000Y-53429000D01*
X121187000Y-53429000D02*
X117825000Y-53429000D01*
X127012000Y-53469000D02*
X123669000Y-53469000D01*
X121187000Y-53469000D02*
X117844000Y-53469000D01*
X126992000Y-53509000D02*
X123669000Y-53509000D01*
X121187000Y-53509000D02*
X117864000Y-53509000D01*
X126973000Y-53549000D02*
X123669000Y-53549000D01*
X121187000Y-53549000D02*
X117883000Y-53549000D01*
X126953000Y-53589000D02*
X123669000Y-53589000D01*
X121187000Y-53589000D02*
X117903000Y-53589000D01*
X126932000Y-53629000D02*
X123669000Y-53629000D01*
X121187000Y-53629000D02*
X117924000Y-53629000D01*
X126911000Y-53669000D02*
X123669000Y-53669000D01*
X121187000Y-53669000D02*
X117945000Y-53669000D01*
X126890000Y-53709000D02*
X123669000Y-53709000D01*
X121187000Y-53709000D02*
X117966000Y-53709000D01*
X126868000Y-53749000D02*
X123669000Y-53749000D01*
X121187000Y-53749000D02*
X117988000Y-53749000D01*
X126845000Y-53789000D02*
X123669000Y-53789000D01*
X121187000Y-53789000D02*
X118011000Y-53789000D01*
X126823000Y-53829000D02*
X123669000Y-53829000D01*
X121187000Y-53829000D02*
X118033000Y-53829000D01*
X126799000Y-53869000D02*
X123669000Y-53869000D01*
X121187000Y-53869000D02*
X118057000Y-53869000D01*
X126775000Y-53909000D02*
X123669000Y-53909000D01*
X121187000Y-53909000D02*
X118081000Y-53909000D01*
X126751000Y-53949000D02*
X123669000Y-53949000D01*
X121187000Y-53949000D02*
X118105000Y-53949000D01*
X126726000Y-53989000D02*
X123669000Y-53989000D01*
X121187000Y-53989000D02*
X118130000Y-53989000D01*
X126701000Y-54029000D02*
X123669000Y-54029000D01*
X121187000Y-54029000D02*
X118155000Y-54029000D01*
X126675000Y-54069000D02*
X123669000Y-54069000D01*
X121187000Y-54069000D02*
X118181000Y-54069000D01*
X126649000Y-54109000D02*
X123669000Y-54109000D01*
X121187000Y-54109000D02*
X118207000Y-54109000D01*
X126622000Y-54149000D02*
X123669000Y-54149000D01*
X121187000Y-54149000D02*
X118234000Y-54149000D01*
X126594000Y-54189000D02*
X123669000Y-54189000D01*
X121187000Y-54189000D02*
X118262000Y-54189000D01*
X126566000Y-54229000D02*
X123669000Y-54229000D01*
X121187000Y-54229000D02*
X118290000Y-54229000D01*
X126538000Y-54269000D02*
X123669000Y-54269000D01*
X121187000Y-54269000D02*
X118318000Y-54269000D01*
X126508000Y-54309000D02*
X123669000Y-54309000D01*
X121187000Y-54309000D02*
X118348000Y-54309000D01*
X126478000Y-54349000D02*
X123669000Y-54349000D01*
X121187000Y-54349000D02*
X118378000Y-54349000D01*
X126448000Y-54389000D02*
X123669000Y-54389000D01*
X121187000Y-54389000D02*
X118408000Y-54389000D01*
X126417000Y-54429000D02*
X123669000Y-54429000D01*
X121187000Y-54429000D02*
X118439000Y-54429000D01*
X126385000Y-54469000D02*
X123669000Y-54469000D01*
X121187000Y-54469000D02*
X118471000Y-54469000D01*
X126353000Y-54509000D02*
X123669000Y-54509000D01*
X121187000Y-54509000D02*
X118503000Y-54509000D01*
X126320000Y-54549000D02*
X123669000Y-54549000D01*
X121187000Y-54549000D02*
X118536000Y-54549000D01*
X126286000Y-54589000D02*
X123669000Y-54589000D01*
X121187000Y-54589000D02*
X118570000Y-54589000D01*
X126252000Y-54629000D02*
X123669000Y-54629000D01*
X121187000Y-54629000D02*
X118604000Y-54629000D01*
X126217000Y-54669000D02*
X123669000Y-54669000D01*
X121187000Y-54669000D02*
X118639000Y-54669000D01*
X126181000Y-54709000D02*
X123669000Y-54709000D01*
X121187000Y-54709000D02*
X118675000Y-54709000D01*
X126144000Y-54749000D02*
X123669000Y-54749000D01*
X121187000Y-54749000D02*
X118712000Y-54749000D01*
X126107000Y-54789000D02*
X123669000Y-54789000D01*
X121187000Y-54789000D02*
X118749000Y-54789000D01*
X126068000Y-54829000D02*
X123669000Y-54829000D01*
X121187000Y-54829000D02*
X118788000Y-54829000D01*
X126029000Y-54869000D02*
X123669000Y-54869000D01*
X121187000Y-54869000D02*
X118827000Y-54869000D01*
X125989000Y-54909000D02*
X123669000Y-54909000D01*
X121187000Y-54909000D02*
X118867000Y-54909000D01*
X125948000Y-54949000D02*
X123669000Y-54949000D01*
X121187000Y-54949000D02*
X118908000Y-54949000D01*
X125906000Y-54989000D02*
X123669000Y-54989000D01*
X121187000Y-54989000D02*
X118950000Y-54989000D01*
X125864000Y-55029000D02*
X118992000Y-55029000D01*
X125820000Y-55069000D02*
X119036000Y-55069000D01*
X125775000Y-55109000D02*
X119081000Y-55109000D01*
X125729000Y-55149000D02*
X119127000Y-55149000D01*
X125682000Y-55189000D02*
X119174000Y-55189000D01*
X125634000Y-55229000D02*
X119222000Y-55229000D01*
X125584000Y-55269000D02*
X119272000Y-55269000D01*
X125534000Y-55309000D02*
X119322000Y-55309000D01*
X125482000Y-55349000D02*
X119374000Y-55349000D01*
X125428000Y-55389000D02*
X119428000Y-55389000D01*
X125373000Y-55429000D02*
X119483000Y-55429000D01*
X125317000Y-55469000D02*
X119539000Y-55469000D01*
X125258000Y-55509000D02*
X119598000Y-55509000D01*
X125198000Y-55549000D02*
X119658000Y-55549000D01*
X125137000Y-55589000D02*
X119719000Y-55589000D01*
X125073000Y-55629000D02*
X119783000Y-55629000D01*
X125007000Y-55669000D02*
X119849000Y-55669000D01*
X124938000Y-55709000D02*
X119918000Y-55709000D01*
X124867000Y-55749000D02*
X119989000Y-55749000D01*
X124793000Y-55789000D02*
X120063000Y-55789000D01*
X124717000Y-55829000D02*
X120139000Y-55829000D01*
X124637000Y-55869000D02*
X120219000Y-55869000D01*
X124553000Y-55909000D02*
X120303000Y-55909000D01*
X124465000Y-55949000D02*
X120391000Y-55949000D01*
X124372000Y-55989000D02*
X120484000Y-55989000D01*
X124274000Y-56029000D02*
X120582000Y-56029000D01*
X124170000Y-56069000D02*
X120686000Y-56069000D01*
X124058000Y-56109000D02*
X120798000Y-56109000D01*
X123938000Y-56149000D02*
X120918000Y-56149000D01*
X123806000Y-56189000D02*
X121050000Y-56189000D01*
X123658000Y-56229000D02*
X121198000Y-56229000D01*
X123490000Y-56269000D02*
X121366000Y-56269000D01*
X123290000Y-56309000D02*
X121566000Y-56309000D01*
X123027000Y-56349000D02*
X121829000Y-56349000D01*
X125303000Y-45788354D02*
X125303000Y-46788354D01*
X125803000Y-46288354D02*
X124803000Y-46288354D01*
%TO.C,S1*%
X152044400Y-120497600D02*
X148107400Y-120523000D01*
X152044400Y-110540800D02*
X152044400Y-120497600D01*
X148107400Y-110540800D02*
X152044400Y-110540800D01*
X148107400Y-120497600D02*
X148107400Y-110540800D01*
%TO.C,A0*%
X172313600Y-108178600D02*
X162356800Y-108178600D01*
X162356800Y-108178600D02*
X162356800Y-104241600D01*
X162356800Y-104241600D02*
X172313600Y-104241600D01*
X172313600Y-104241600D02*
X172339000Y-108178600D01*
%TO.C,A1*%
X172313600Y-98907600D02*
X172339000Y-102844600D01*
X162356800Y-98907600D02*
X172313600Y-98907600D01*
X162356800Y-102844600D02*
X162356800Y-98907600D01*
X172313600Y-102844600D02*
X162356800Y-102844600D01*
%TO.C,A2*%
X172313600Y-97510600D02*
X162356800Y-97510600D01*
X162356800Y-97510600D02*
X162356800Y-93573600D01*
X162356800Y-93573600D02*
X172313600Y-93573600D01*
X172313600Y-93573600D02*
X172339000Y-97510600D01*
%TO.C,A3*%
X172313600Y-88239600D02*
X172339000Y-92176600D01*
X162356800Y-88239600D02*
X172313600Y-88239600D01*
X162356800Y-92176600D02*
X162356800Y-88239600D01*
X172313600Y-92176600D02*
X162356800Y-92176600D01*
%TO.C,A4*%
X172313600Y-86842600D02*
X162356800Y-86842600D01*
X162356800Y-86842600D02*
X162356800Y-82905600D01*
X162356800Y-82905600D02*
X172313600Y-82905600D01*
X172313600Y-82905600D02*
X172339000Y-86842600D01*
%TO.C,A5*%
X172313600Y-77571600D02*
X172339000Y-81508600D01*
X162356800Y-77571600D02*
X172313600Y-77571600D01*
X162356800Y-81508600D02*
X162356800Y-77571600D01*
X172313600Y-81508600D02*
X162356800Y-81508600D01*
%TO.C,A6*%
X172313600Y-76174600D02*
X162356800Y-76174600D01*
X162356800Y-76174600D02*
X162356800Y-72237600D01*
X162356800Y-72237600D02*
X172313600Y-72237600D01*
X172313600Y-72237600D02*
X172339000Y-76174600D01*
%TO.C,A7*%
X172313600Y-66903600D02*
X172339000Y-70840600D01*
X162356800Y-66903600D02*
X172313600Y-66903600D01*
X162356800Y-70840600D02*
X162356800Y-66903600D01*
X172313600Y-70840600D02*
X162356800Y-70840600D01*
%TO.C,D2*%
X127609600Y-60299600D02*
X127635000Y-64236600D01*
X117652800Y-60299600D02*
X127609600Y-60299600D01*
X117652800Y-64236600D02*
X117652800Y-60299600D01*
X127609600Y-64236600D02*
X117652800Y-64236600D01*
%TO.C,D3*%
X127609600Y-69316600D02*
X117652800Y-69316600D01*
X117652800Y-69316600D02*
X117652800Y-65379600D01*
X117652800Y-65379600D02*
X127609600Y-65379600D01*
X127609600Y-65379600D02*
X127635000Y-69316600D01*
%TO.C,D4*%
X127609600Y-70459600D02*
X127635000Y-74396600D01*
X117652800Y-70459600D02*
X127609600Y-70459600D01*
X117652800Y-74396600D02*
X117652800Y-70459600D01*
X127609600Y-74396600D02*
X117652800Y-74396600D01*
%TO.C,D5*%
X127609600Y-75539600D02*
X127635000Y-79476600D01*
X117652800Y-75539600D02*
X127609600Y-75539600D01*
X117652800Y-79476600D02*
X117652800Y-75539600D01*
X127609600Y-79476600D02*
X117652800Y-79476600D01*
%TO.C,D6*%
X127609600Y-84556600D02*
X117652800Y-84556600D01*
X117652800Y-84556600D02*
X117652800Y-80619600D01*
X117652800Y-80619600D02*
X127609600Y-80619600D01*
X127609600Y-80619600D02*
X127635000Y-84556600D01*
%TO.C,D7*%
X127609600Y-85445600D02*
X127635000Y-89382600D01*
X117652800Y-85445600D02*
X127609600Y-85445600D01*
X117652800Y-89382600D02*
X117652800Y-85445600D01*
X127609600Y-89382600D02*
X117652800Y-89382600D01*
%TO.C,D8*%
X127609600Y-94462600D02*
X117652800Y-94462600D01*
X117652800Y-94462600D02*
X117652800Y-90525600D01*
X117652800Y-90525600D02*
X127609600Y-90525600D01*
X127609600Y-90525600D02*
X127635000Y-94462600D01*
%TO.C,D9*%
X127609600Y-95605600D02*
X127635000Y-99542600D01*
X117652800Y-95605600D02*
X127609600Y-95605600D01*
X117652800Y-99542600D02*
X117652800Y-95605600D01*
X127609600Y-99542600D02*
X117652800Y-99542600D01*
%TO.C,D10*%
X127609600Y-104622600D02*
X117652800Y-104622600D01*
X117652800Y-104622600D02*
X117652800Y-100685600D01*
X117652800Y-100685600D02*
X127609600Y-100685600D01*
X127609600Y-100685600D02*
X127635000Y-104622600D01*
%TO.C,D11*%
X127609600Y-105765600D02*
X127635000Y-109702600D01*
X117652800Y-105765600D02*
X127609600Y-105765600D01*
X117652800Y-109702600D02*
X117652800Y-105765600D01*
X127609600Y-109702600D02*
X117652800Y-109702600D01*
%TO.C,D12*%
X127609600Y-114782600D02*
X117652800Y-114782600D01*
X117652800Y-114782600D02*
X117652800Y-110845600D01*
X117652800Y-110845600D02*
X127609600Y-110845600D01*
X127609600Y-110845600D02*
X127635000Y-114782600D01*
%TO.C,D13*%
X127609600Y-119862600D02*
X117652800Y-119862600D01*
X117652800Y-119862600D02*
X117652800Y-115925600D01*
X117652800Y-115925600D02*
X127609600Y-115925600D01*
X127609600Y-115925600D02*
X127635000Y-119862600D01*
%TO.C,LP*%
D10*
X161798095Y-117864000D02*
X161702857Y-117816380D01*
X161560000Y-117816380D01*
X161417142Y-117864000D01*
X161321904Y-117959238D01*
X161274285Y-118054476D01*
X161226666Y-118244952D01*
X161226666Y-118387809D01*
X161274285Y-118578285D01*
X161321904Y-118673523D01*
X161417142Y-118768761D01*
X161560000Y-118816380D01*
X161655238Y-118816380D01*
X161798095Y-118768761D01*
X161845714Y-118721142D01*
X161845714Y-118387809D01*
X161655238Y-118387809D01*
X162274285Y-118816380D02*
X162274285Y-117816380D01*
X162845714Y-118816380D01*
X162845714Y-117816380D01*
X163321904Y-118816380D02*
X163321904Y-117816380D01*
X163560000Y-117816380D01*
X163702857Y-117864000D01*
X163798095Y-117959238D01*
X163845714Y-118054476D01*
X163893333Y-118244952D01*
X163893333Y-118387809D01*
X163845714Y-118578285D01*
X163798095Y-118673523D01*
X163702857Y-118768761D01*
X163560000Y-118816380D01*
X163321904Y-118816380D01*
%TO.C,U1*%
X158710380Y-50545904D02*
X159519904Y-50545904D01*
X159615142Y-50498285D01*
X159662761Y-50450666D01*
X159710380Y-50355428D01*
X159710380Y-50164952D01*
X159662761Y-50069714D01*
X159615142Y-50022095D01*
X159519904Y-49974476D01*
X158710380Y-49974476D01*
X159710380Y-48974476D02*
X159710380Y-49545904D01*
X159710380Y-49260190D02*
X158710380Y-49260190D01*
X158853238Y-49355428D01*
X158948476Y-49450666D01*
X158996095Y-49545904D01*
%TO.C,IC1*%
X131611809Y-60396380D02*
X131611809Y-59396380D01*
X132659428Y-60301142D02*
X132611809Y-60348761D01*
X132468952Y-60396380D01*
X132373714Y-60396380D01*
X132230857Y-60348761D01*
X132135619Y-60253523D01*
X132088000Y-60158285D01*
X132040380Y-59967809D01*
X132040380Y-59824952D01*
X132088000Y-59634476D01*
X132135619Y-59539238D01*
X132230857Y-59444000D01*
X132373714Y-59396380D01*
X132468952Y-59396380D01*
X132611809Y-59444000D01*
X132659428Y-59491619D01*
X133611809Y-60396380D02*
X133040380Y-60396380D01*
X133326095Y-60396380D02*
X133326095Y-59396380D01*
X133230857Y-59539238D01*
X133135619Y-59634476D01*
X133040380Y-59682095D01*
%TO.C,C1*%
X113387142Y-51220666D02*
X113434761Y-51268285D01*
X113482380Y-51411142D01*
X113482380Y-51506380D01*
X113434761Y-51649238D01*
X113339523Y-51744476D01*
X113244285Y-51792095D01*
X113053809Y-51839714D01*
X112910952Y-51839714D01*
X112720476Y-51792095D01*
X112625238Y-51744476D01*
X112530000Y-51649238D01*
X112482380Y-51506380D01*
X112482380Y-51411142D01*
X112530000Y-51268285D01*
X112577619Y-51220666D01*
X113482380Y-50268285D02*
X113482380Y-50839714D01*
X113482380Y-50554000D02*
X112482380Y-50554000D01*
X112625238Y-50649238D01*
X112720476Y-50744476D01*
X112768095Y-50839714D01*
%TO.C,S1*%
X149606095Y-122832761D02*
X149748952Y-122880380D01*
X149987047Y-122880380D01*
X150082285Y-122832761D01*
X150129904Y-122785142D01*
X150177523Y-122689904D01*
X150177523Y-122594666D01*
X150129904Y-122499428D01*
X150082285Y-122451809D01*
X149987047Y-122404190D01*
X149796571Y-122356571D01*
X149701333Y-122308952D01*
X149653714Y-122261333D01*
X149606095Y-122166095D01*
X149606095Y-122070857D01*
X149653714Y-121975619D01*
X149701333Y-121928000D01*
X149796571Y-121880380D01*
X150034666Y-121880380D01*
X150177523Y-121928000D01*
X151129904Y-122880380D02*
X150558476Y-122880380D01*
X150844190Y-122880380D02*
X150844190Y-121880380D01*
X150748952Y-122023238D01*
X150653714Y-122118476D01*
X150558476Y-122166095D01*
%TO.C,U3*%
X107188095Y-121626380D02*
X107188095Y-122435904D01*
X107235714Y-122531142D01*
X107283333Y-122578761D01*
X107378571Y-122626380D01*
X107569047Y-122626380D01*
X107664285Y-122578761D01*
X107711904Y-122531142D01*
X107759523Y-122435904D01*
X107759523Y-121626380D01*
X108140476Y-121626380D02*
X108759523Y-121626380D01*
X108426190Y-122007333D01*
X108569047Y-122007333D01*
X108664285Y-122054952D01*
X108711904Y-122102571D01*
X108759523Y-122197809D01*
X108759523Y-122435904D01*
X108711904Y-122531142D01*
X108664285Y-122578761D01*
X108569047Y-122626380D01*
X108283333Y-122626380D01*
X108188095Y-122578761D01*
X108140476Y-122531142D01*
%TO.C,A0*%
X174037714Y-106338666D02*
X174513904Y-106338666D01*
X173942476Y-106624380D02*
X174275809Y-105624380D01*
X174609142Y-106624380D01*
X175132952Y-105624380D02*
X175228190Y-105624380D01*
X175323428Y-105672000D01*
X175371047Y-105719619D01*
X175418666Y-105814857D01*
X175466285Y-106005333D01*
X175466285Y-106243428D01*
X175418666Y-106433904D01*
X175371047Y-106529142D01*
X175323428Y-106576761D01*
X175228190Y-106624380D01*
X175132952Y-106624380D01*
X175037714Y-106576761D01*
X174990095Y-106529142D01*
X174942476Y-106433904D01*
X174894857Y-106243428D01*
X174894857Y-106005333D01*
X174942476Y-105814857D01*
X174990095Y-105719619D01*
X175037714Y-105672000D01*
X175132952Y-105624380D01*
%TO.C,A1*%
X174037714Y-101004666D02*
X174513904Y-101004666D01*
X173942476Y-101290380D02*
X174275809Y-100290380D01*
X174609142Y-101290380D01*
X175466285Y-101290380D02*
X174894857Y-101290380D01*
X175180571Y-101290380D02*
X175180571Y-100290380D01*
X175085333Y-100433238D01*
X174990095Y-100528476D01*
X174894857Y-100576095D01*
%TO.C,A2*%
X174037714Y-95670666D02*
X174513904Y-95670666D01*
X173942476Y-95956380D02*
X174275809Y-94956380D01*
X174609142Y-95956380D01*
X174894857Y-95051619D02*
X174942476Y-95004000D01*
X175037714Y-94956380D01*
X175275809Y-94956380D01*
X175371047Y-95004000D01*
X175418666Y-95051619D01*
X175466285Y-95146857D01*
X175466285Y-95242095D01*
X175418666Y-95384952D01*
X174847238Y-95956380D01*
X175466285Y-95956380D01*
%TO.C,A3*%
X174037714Y-90336666D02*
X174513904Y-90336666D01*
X173942476Y-90622380D02*
X174275809Y-89622380D01*
X174609142Y-90622380D01*
X174847238Y-89622380D02*
X175466285Y-89622380D01*
X175132952Y-90003333D01*
X175275809Y-90003333D01*
X175371047Y-90050952D01*
X175418666Y-90098571D01*
X175466285Y-90193809D01*
X175466285Y-90431904D01*
X175418666Y-90527142D01*
X175371047Y-90574761D01*
X175275809Y-90622380D01*
X174990095Y-90622380D01*
X174894857Y-90574761D01*
X174847238Y-90527142D01*
%TO.C,A4*%
X174037714Y-85002666D02*
X174513904Y-85002666D01*
X173942476Y-85288380D02*
X174275809Y-84288380D01*
X174609142Y-85288380D01*
X175371047Y-84621714D02*
X175371047Y-85288380D01*
X175132952Y-84240761D02*
X174894857Y-84955047D01*
X175513904Y-84955047D01*
%TO.C,A5*%
X174037714Y-79668666D02*
X174513904Y-79668666D01*
X173942476Y-79954380D02*
X174275809Y-78954380D01*
X174609142Y-79954380D01*
X175418666Y-78954380D02*
X174942476Y-78954380D01*
X174894857Y-79430571D01*
X174942476Y-79382952D01*
X175037714Y-79335333D01*
X175275809Y-79335333D01*
X175371047Y-79382952D01*
X175418666Y-79430571D01*
X175466285Y-79525809D01*
X175466285Y-79763904D01*
X175418666Y-79859142D01*
X175371047Y-79906761D01*
X175275809Y-79954380D01*
X175037714Y-79954380D01*
X174942476Y-79906761D01*
X174894857Y-79859142D01*
%TO.C,A6*%
X174037714Y-74334666D02*
X174513904Y-74334666D01*
X173942476Y-74620380D02*
X174275809Y-73620380D01*
X174609142Y-74620380D01*
X175371047Y-73620380D02*
X175180571Y-73620380D01*
X175085333Y-73668000D01*
X175037714Y-73715619D01*
X174942476Y-73858476D01*
X174894857Y-74048952D01*
X174894857Y-74429904D01*
X174942476Y-74525142D01*
X174990095Y-74572761D01*
X175085333Y-74620380D01*
X175275809Y-74620380D01*
X175371047Y-74572761D01*
X175418666Y-74525142D01*
X175466285Y-74429904D01*
X175466285Y-74191809D01*
X175418666Y-74096571D01*
X175371047Y-74048952D01*
X175275809Y-74001333D01*
X175085333Y-74001333D01*
X174990095Y-74048952D01*
X174942476Y-74096571D01*
X174894857Y-74191809D01*
%TO.C,A7*%
X174037714Y-69000666D02*
X174513904Y-69000666D01*
X173942476Y-69286380D02*
X174275809Y-68286380D01*
X174609142Y-69286380D01*
X174847238Y-68286380D02*
X175513904Y-68286380D01*
X175085333Y-69286380D01*
%TO.C,U3*%
X107188095Y-115530380D02*
X107188095Y-116339904D01*
X107235714Y-116435142D01*
X107283333Y-116482761D01*
X107378571Y-116530380D01*
X107569047Y-116530380D01*
X107664285Y-116482761D01*
X107711904Y-116435142D01*
X107759523Y-116339904D01*
X107759523Y-115530380D01*
X108140476Y-115530380D02*
X108759523Y-115530380D01*
X108426190Y-115911333D01*
X108569047Y-115911333D01*
X108664285Y-115958952D01*
X108711904Y-116006571D01*
X108759523Y-116101809D01*
X108759523Y-116339904D01*
X108711904Y-116435142D01*
X108664285Y-116482761D01*
X108569047Y-116530380D01*
X108283333Y-116530380D01*
X108188095Y-116482761D01*
X108140476Y-116435142D01*
%TO.C,D2*%
X114831904Y-62936380D02*
X114831904Y-61936380D01*
X115070000Y-61936380D01*
X115212857Y-61984000D01*
X115308095Y-62079238D01*
X115355714Y-62174476D01*
X115403333Y-62364952D01*
X115403333Y-62507809D01*
X115355714Y-62698285D01*
X115308095Y-62793523D01*
X115212857Y-62888761D01*
X115070000Y-62936380D01*
X114831904Y-62936380D01*
X115784285Y-62031619D02*
X115831904Y-61984000D01*
X115927142Y-61936380D01*
X116165238Y-61936380D01*
X116260476Y-61984000D01*
X116308095Y-62031619D01*
X116355714Y-62126857D01*
X116355714Y-62222095D01*
X116308095Y-62364952D01*
X115736666Y-62936380D01*
X116355714Y-62936380D01*
%TO.C,D3*%
X114831904Y-67762380D02*
X114831904Y-66762380D01*
X115070000Y-66762380D01*
X115212857Y-66810000D01*
X115308095Y-66905238D01*
X115355714Y-67000476D01*
X115403333Y-67190952D01*
X115403333Y-67333809D01*
X115355714Y-67524285D01*
X115308095Y-67619523D01*
X115212857Y-67714761D01*
X115070000Y-67762380D01*
X114831904Y-67762380D01*
X115736666Y-66762380D02*
X116355714Y-66762380D01*
X116022380Y-67143333D01*
X116165238Y-67143333D01*
X116260476Y-67190952D01*
X116308095Y-67238571D01*
X116355714Y-67333809D01*
X116355714Y-67571904D01*
X116308095Y-67667142D01*
X116260476Y-67714761D01*
X116165238Y-67762380D01*
X115879523Y-67762380D01*
X115784285Y-67714761D01*
X115736666Y-67667142D01*
%TO.C,D4*%
X114831904Y-72842380D02*
X114831904Y-71842380D01*
X115070000Y-71842380D01*
X115212857Y-71890000D01*
X115308095Y-71985238D01*
X115355714Y-72080476D01*
X115403333Y-72270952D01*
X115403333Y-72413809D01*
X115355714Y-72604285D01*
X115308095Y-72699523D01*
X115212857Y-72794761D01*
X115070000Y-72842380D01*
X114831904Y-72842380D01*
X116260476Y-72175714D02*
X116260476Y-72842380D01*
X116022380Y-71794761D02*
X115784285Y-72509047D01*
X116403333Y-72509047D01*
%TO.C,D5*%
X114831904Y-77922380D02*
X114831904Y-76922380D01*
X115070000Y-76922380D01*
X115212857Y-76970000D01*
X115308095Y-77065238D01*
X115355714Y-77160476D01*
X115403333Y-77350952D01*
X115403333Y-77493809D01*
X115355714Y-77684285D01*
X115308095Y-77779523D01*
X115212857Y-77874761D01*
X115070000Y-77922380D01*
X114831904Y-77922380D01*
X116308095Y-76922380D02*
X115831904Y-76922380D01*
X115784285Y-77398571D01*
X115831904Y-77350952D01*
X115927142Y-77303333D01*
X116165238Y-77303333D01*
X116260476Y-77350952D01*
X116308095Y-77398571D01*
X116355714Y-77493809D01*
X116355714Y-77731904D01*
X116308095Y-77827142D01*
X116260476Y-77874761D01*
X116165238Y-77922380D01*
X115927142Y-77922380D01*
X115831904Y-77874761D01*
X115784285Y-77827142D01*
%TO.C,D6*%
X114831904Y-83002380D02*
X114831904Y-82002380D01*
X115070000Y-82002380D01*
X115212857Y-82050000D01*
X115308095Y-82145238D01*
X115355714Y-82240476D01*
X115403333Y-82430952D01*
X115403333Y-82573809D01*
X115355714Y-82764285D01*
X115308095Y-82859523D01*
X115212857Y-82954761D01*
X115070000Y-83002380D01*
X114831904Y-83002380D01*
X116260476Y-82002380D02*
X116070000Y-82002380D01*
X115974761Y-82050000D01*
X115927142Y-82097619D01*
X115831904Y-82240476D01*
X115784285Y-82430952D01*
X115784285Y-82811904D01*
X115831904Y-82907142D01*
X115879523Y-82954761D01*
X115974761Y-83002380D01*
X116165238Y-83002380D01*
X116260476Y-82954761D01*
X116308095Y-82907142D01*
X116355714Y-82811904D01*
X116355714Y-82573809D01*
X116308095Y-82478571D01*
X116260476Y-82430952D01*
X116165238Y-82383333D01*
X115974761Y-82383333D01*
X115879523Y-82430952D01*
X115831904Y-82478571D01*
X115784285Y-82573809D01*
%TO.C,D7*%
X114831904Y-87828380D02*
X114831904Y-86828380D01*
X115070000Y-86828380D01*
X115212857Y-86876000D01*
X115308095Y-86971238D01*
X115355714Y-87066476D01*
X115403333Y-87256952D01*
X115403333Y-87399809D01*
X115355714Y-87590285D01*
X115308095Y-87685523D01*
X115212857Y-87780761D01*
X115070000Y-87828380D01*
X114831904Y-87828380D01*
X115736666Y-86828380D02*
X116403333Y-86828380D01*
X115974761Y-87828380D01*
%TO.C,D8*%
X114831904Y-92908380D02*
X114831904Y-91908380D01*
X115070000Y-91908380D01*
X115212857Y-91956000D01*
X115308095Y-92051238D01*
X115355714Y-92146476D01*
X115403333Y-92336952D01*
X115403333Y-92479809D01*
X115355714Y-92670285D01*
X115308095Y-92765523D01*
X115212857Y-92860761D01*
X115070000Y-92908380D01*
X114831904Y-92908380D01*
X115974761Y-92336952D02*
X115879523Y-92289333D01*
X115831904Y-92241714D01*
X115784285Y-92146476D01*
X115784285Y-92098857D01*
X115831904Y-92003619D01*
X115879523Y-91956000D01*
X115974761Y-91908380D01*
X116165238Y-91908380D01*
X116260476Y-91956000D01*
X116308095Y-92003619D01*
X116355714Y-92098857D01*
X116355714Y-92146476D01*
X116308095Y-92241714D01*
X116260476Y-92289333D01*
X116165238Y-92336952D01*
X115974761Y-92336952D01*
X115879523Y-92384571D01*
X115831904Y-92432190D01*
X115784285Y-92527428D01*
X115784285Y-92717904D01*
X115831904Y-92813142D01*
X115879523Y-92860761D01*
X115974761Y-92908380D01*
X116165238Y-92908380D01*
X116260476Y-92860761D01*
X116308095Y-92813142D01*
X116355714Y-92717904D01*
X116355714Y-92527428D01*
X116308095Y-92432190D01*
X116260476Y-92384571D01*
X116165238Y-92336952D01*
%TO.C,D9*%
X114831904Y-98242380D02*
X114831904Y-97242380D01*
X115070000Y-97242380D01*
X115212857Y-97290000D01*
X115308095Y-97385238D01*
X115355714Y-97480476D01*
X115403333Y-97670952D01*
X115403333Y-97813809D01*
X115355714Y-98004285D01*
X115308095Y-98099523D01*
X115212857Y-98194761D01*
X115070000Y-98242380D01*
X114831904Y-98242380D01*
X115879523Y-98242380D02*
X116070000Y-98242380D01*
X116165238Y-98194761D01*
X116212857Y-98147142D01*
X116308095Y-98004285D01*
X116355714Y-97813809D01*
X116355714Y-97432857D01*
X116308095Y-97337619D01*
X116260476Y-97290000D01*
X116165238Y-97242380D01*
X115974761Y-97242380D01*
X115879523Y-97290000D01*
X115831904Y-97337619D01*
X115784285Y-97432857D01*
X115784285Y-97670952D01*
X115831904Y-97766190D01*
X115879523Y-97813809D01*
X115974761Y-97861428D01*
X116165238Y-97861428D01*
X116260476Y-97813809D01*
X116308095Y-97766190D01*
X116355714Y-97670952D01*
%TO.C,D10*%
X114609714Y-103068380D02*
X114609714Y-102068380D01*
X114847809Y-102068380D01*
X114990666Y-102116000D01*
X115085904Y-102211238D01*
X115133523Y-102306476D01*
X115181142Y-102496952D01*
X115181142Y-102639809D01*
X115133523Y-102830285D01*
X115085904Y-102925523D01*
X114990666Y-103020761D01*
X114847809Y-103068380D01*
X114609714Y-103068380D01*
X116133523Y-103068380D02*
X115562095Y-103068380D01*
X115847809Y-103068380D02*
X115847809Y-102068380D01*
X115752571Y-102211238D01*
X115657333Y-102306476D01*
X115562095Y-102354095D01*
X116752571Y-102068380D02*
X116847809Y-102068380D01*
X116943047Y-102116000D01*
X116990666Y-102163619D01*
X117038285Y-102258857D01*
X117085904Y-102449333D01*
X117085904Y-102687428D01*
X117038285Y-102877904D01*
X116990666Y-102973142D01*
X116943047Y-103020761D01*
X116847809Y-103068380D01*
X116752571Y-103068380D01*
X116657333Y-103020761D01*
X116609714Y-102973142D01*
X116562095Y-102877904D01*
X116514476Y-102687428D01*
X116514476Y-102449333D01*
X116562095Y-102258857D01*
X116609714Y-102163619D01*
X116657333Y-102116000D01*
X116752571Y-102068380D01*
%TO.C,D11*%
X114609714Y-108148380D02*
X114609714Y-107148380D01*
X114847809Y-107148380D01*
X114990666Y-107196000D01*
X115085904Y-107291238D01*
X115133523Y-107386476D01*
X115181142Y-107576952D01*
X115181142Y-107719809D01*
X115133523Y-107910285D01*
X115085904Y-108005523D01*
X114990666Y-108100761D01*
X114847809Y-108148380D01*
X114609714Y-108148380D01*
X116133523Y-108148380D02*
X115562095Y-108148380D01*
X115847809Y-108148380D02*
X115847809Y-107148380D01*
X115752571Y-107291238D01*
X115657333Y-107386476D01*
X115562095Y-107434095D01*
X117085904Y-108148380D02*
X116514476Y-108148380D01*
X116800190Y-108148380D02*
X116800190Y-107148380D01*
X116704952Y-107291238D01*
X116609714Y-107386476D01*
X116514476Y-107434095D01*
%TO.C,D12*%
X114609714Y-113482380D02*
X114609714Y-112482380D01*
X114847809Y-112482380D01*
X114990666Y-112530000D01*
X115085904Y-112625238D01*
X115133523Y-112720476D01*
X115181142Y-112910952D01*
X115181142Y-113053809D01*
X115133523Y-113244285D01*
X115085904Y-113339523D01*
X114990666Y-113434761D01*
X114847809Y-113482380D01*
X114609714Y-113482380D01*
X116133523Y-113482380D02*
X115562095Y-113482380D01*
X115847809Y-113482380D02*
X115847809Y-112482380D01*
X115752571Y-112625238D01*
X115657333Y-112720476D01*
X115562095Y-112768095D01*
X116514476Y-112577619D02*
X116562095Y-112530000D01*
X116657333Y-112482380D01*
X116895428Y-112482380D01*
X116990666Y-112530000D01*
X117038285Y-112577619D01*
X117085904Y-112672857D01*
X117085904Y-112768095D01*
X117038285Y-112910952D01*
X116466857Y-113482380D01*
X117085904Y-113482380D01*
%TO.C,D13*%
X114863714Y-118308380D02*
X114863714Y-117308380D01*
X115101809Y-117308380D01*
X115244666Y-117356000D01*
X115339904Y-117451238D01*
X115387523Y-117546476D01*
X115435142Y-117736952D01*
X115435142Y-117879809D01*
X115387523Y-118070285D01*
X115339904Y-118165523D01*
X115244666Y-118260761D01*
X115101809Y-118308380D01*
X114863714Y-118308380D01*
X116387523Y-118308380D02*
X115816095Y-118308380D01*
X116101809Y-118308380D02*
X116101809Y-117308380D01*
X116006571Y-117451238D01*
X115911333Y-117546476D01*
X115816095Y-117594095D01*
X116720857Y-117308380D02*
X117339904Y-117308380D01*
X117006571Y-117689333D01*
X117149428Y-117689333D01*
X117244666Y-117736952D01*
X117292285Y-117784571D01*
X117339904Y-117879809D01*
X117339904Y-118117904D01*
X117292285Y-118213142D01*
X117244666Y-118260761D01*
X117149428Y-118308380D01*
X116863714Y-118308380D01*
X116768476Y-118260761D01*
X116720857Y-118213142D01*
%TD*%
M02*
