%TF.GenerationSoftware,KiCad,Pcbnew,(5.1.6)-1*%
%TF.CreationDate,2020-11-22T17:12:52+01:00*%
%TF.ProjectId,NANOV4,4e414e4f-5634-42e6-9b69-6361645f7063,rev?*%
%TF.SameCoordinates,Original*%
%TF.FileFunction,Soldermask,Top*%
%TF.FilePolarity,Negative*%
%FSLAX46Y46*%
G04 Gerber Fmt 4.6, Leading zero omitted, Abs format (unit mm)*
G04 Created by KiCad (PCBNEW (5.1.6)-1) date 2020-11-22 17:12:52*
%MOMM*%
%LPD*%
G01*
G04 APERTURE LIST*
%ADD10R,2.000000X2.000000*%
%ADD11R,2.000000X1.905000*%
%ADD12O,2.000000X1.905000*%
%ADD13C,2.000000*%
%ADD14R,1.600000X1.600000*%
%ADD15O,1.600000X1.600000*%
G04 APERTURE END LIST*
D10*
%TO.C,LP*%
X167386000Y-112522000D03*
%TD*%
%TO.C,LP*%
X167386000Y-115570000D03*
%TD*%
%TO.C,LP*%
X164338000Y-115570000D03*
%TD*%
%TO.C,LP*%
X161290000Y-115570000D03*
%TD*%
%TO.C,LP*%
X158242000Y-115570000D03*
%TD*%
%TO.C,LP*%
X164338000Y-112522000D03*
%TD*%
%TO.C,LP*%
X161290000Y-112522000D03*
%TD*%
%TO.C,LP*%
X158242000Y-112522000D03*
%TD*%
D11*
%TO.C,U1*%
X153670000Y-52832000D03*
D12*
X153670000Y-50292000D03*
X153670000Y-47752000D03*
%TD*%
D13*
%TO.C,J3*%
X110744000Y-108966000D03*
X110744000Y-106426000D03*
X110744000Y-103886000D03*
X110744000Y-101346000D03*
X110744000Y-98806000D03*
X110744000Y-96266000D03*
X110744000Y-93726000D03*
X110744000Y-91186000D03*
X110744000Y-88646000D03*
X110744000Y-86106000D03*
X110744000Y-83566000D03*
X110744000Y-81026000D03*
X110744000Y-78486000D03*
X110744000Y-75946000D03*
X110744000Y-73406000D03*
X110744000Y-70866000D03*
%TD*%
D14*
%TO.C,IC1*%
X132873001Y-65807001D03*
D15*
X148113001Y-98827001D03*
X132873001Y-68347001D03*
X148113001Y-96287001D03*
X132873001Y-70887001D03*
X148113001Y-93747001D03*
X132873001Y-73427001D03*
X148113001Y-91207001D03*
X132873001Y-75967001D03*
X148113001Y-88667001D03*
X132873001Y-78507001D03*
X148113001Y-86127001D03*
X132873001Y-81047001D03*
X148113001Y-83587001D03*
X132873001Y-83587001D03*
X148113001Y-81047001D03*
X132873001Y-86127001D03*
X148113001Y-78507001D03*
X132873001Y-88667001D03*
X148113001Y-75967001D03*
X132873001Y-91207001D03*
X148113001Y-73427001D03*
X132873001Y-93747001D03*
X148113001Y-70887001D03*
X132873001Y-96287001D03*
X148113001Y-68347001D03*
X132873001Y-98827001D03*
X148113001Y-65807001D03*
X132873001Y-101367001D03*
X148113001Y-101367001D03*
%TD*%
D10*
%TO.C,C1*%
X122428000Y-48768000D03*
D13*
X122428000Y-53768000D03*
%TD*%
%TO.C,J1*%
X105664000Y-70866000D03*
X105664000Y-73406000D03*
X105664000Y-75946000D03*
X105664000Y-78486000D03*
X105664000Y-81026000D03*
X105664000Y-83566000D03*
X105664000Y-86106000D03*
X105664000Y-88646000D03*
X105664000Y-91186000D03*
X105664000Y-93726000D03*
X105664000Y-96266000D03*
X105664000Y-98806000D03*
X105664000Y-101346000D03*
X105664000Y-103886000D03*
X105664000Y-106426000D03*
X105664000Y-108966000D03*
%TD*%
%TO.C,J2*%
X108204000Y-108966000D03*
X108204000Y-106426000D03*
X108204000Y-103886000D03*
X108204000Y-101346000D03*
X108204000Y-98806000D03*
X108204000Y-96266000D03*
X108204000Y-93726000D03*
X108204000Y-91186000D03*
X108204000Y-88646000D03*
X108204000Y-86106000D03*
X108204000Y-83566000D03*
X108204000Y-81026000D03*
X108204000Y-78486000D03*
X108204000Y-75946000D03*
X108204000Y-73406000D03*
X108204000Y-70866000D03*
%TD*%
%TO.C,J4*%
X154686000Y-101346000D03*
X154686000Y-98806000D03*
X154686000Y-96266000D03*
X154686000Y-93726000D03*
X154686000Y-91186000D03*
X154686000Y-88646000D03*
X154686000Y-86106000D03*
X154686000Y-83566000D03*
X154686000Y-81026000D03*
X154686000Y-78486000D03*
X154686000Y-75946000D03*
X154686000Y-73406000D03*
X154686000Y-70866000D03*
X154686000Y-68326000D03*
X154686000Y-65786000D03*
X154686000Y-63246000D03*
%TD*%
%TO.C,S1*%
X150114000Y-118110000D03*
X150114000Y-115570000D03*
X150114000Y-113030000D03*
%TD*%
%TO.C,U3*%
X107950000Y-119634000D03*
D10*
X113030000Y-119634000D03*
%TD*%
D13*
%TO.C,A0*%
X164846000Y-106172000D03*
X167386000Y-106172000D03*
X169926000Y-106172000D03*
%TD*%
%TO.C,A1*%
X169926000Y-100838000D03*
X167386000Y-100838000D03*
X164846000Y-100838000D03*
%TD*%
%TO.C,A2*%
X164846000Y-95504000D03*
X167386000Y-95504000D03*
X169926000Y-95504000D03*
%TD*%
%TO.C,A3*%
X169926000Y-90170000D03*
X167386000Y-90170000D03*
X164846000Y-90170000D03*
%TD*%
%TO.C,A4*%
X164846000Y-84836000D03*
X167386000Y-84836000D03*
X169926000Y-84836000D03*
%TD*%
%TO.C,A5*%
X169926000Y-79502000D03*
X167386000Y-79502000D03*
X164846000Y-79502000D03*
%TD*%
%TO.C,A6*%
X164846000Y-74168000D03*
X167386000Y-74168000D03*
X169926000Y-74168000D03*
%TD*%
%TO.C,A7*%
X169926000Y-68834000D03*
X167386000Y-68834000D03*
X164846000Y-68834000D03*
%TD*%
%TO.C,U3*%
X107950000Y-116078000D03*
D10*
X113030000Y-116078000D03*
%TD*%
D13*
%TO.C,D2*%
X125222000Y-62230000D03*
X122682000Y-62230000D03*
X120142000Y-62230000D03*
%TD*%
%TO.C,D3*%
X120142000Y-67310000D03*
X122682000Y-67310000D03*
X125222000Y-67310000D03*
%TD*%
%TO.C,D4*%
X125222000Y-72390000D03*
X122682000Y-72390000D03*
X120142000Y-72390000D03*
%TD*%
%TO.C,D5*%
X125222000Y-77470000D03*
X122682000Y-77470000D03*
X120142000Y-77470000D03*
%TD*%
%TO.C,D6*%
X120142000Y-82550000D03*
X122682000Y-82550000D03*
X125222000Y-82550000D03*
%TD*%
%TO.C,D7*%
X125222000Y-87376000D03*
X122682000Y-87376000D03*
X120142000Y-87376000D03*
%TD*%
%TO.C,D8*%
X120142000Y-92456000D03*
X122682000Y-92456000D03*
X125222000Y-92456000D03*
%TD*%
%TO.C,D9*%
X125222000Y-97536000D03*
X122682000Y-97536000D03*
X120142000Y-97536000D03*
%TD*%
%TO.C,D10*%
X120142000Y-102616000D03*
X122682000Y-102616000D03*
X125222000Y-102616000D03*
%TD*%
%TO.C,D11*%
X125222000Y-107696000D03*
X122682000Y-107696000D03*
X120142000Y-107696000D03*
%TD*%
%TO.C,D12*%
X120142000Y-112776000D03*
X122682000Y-112776000D03*
X125222000Y-112776000D03*
%TD*%
%TO.C,D13*%
X120142000Y-117856000D03*
X122682000Y-117856000D03*
X125222000Y-117856000D03*
%TD*%
M02*
