M48
; DRILL file {KiCad (5.1.6)-1} date 11/22/20 17:12:49
; FORMAT={-:-/ absolute / metric / decimal}
; #@! TF.CreationDate,2020-11-22T17:12:49+01:00
; #@! TF.GenerationSoftware,Kicad,Pcbnew,(5.1.6)-1
; #@! TF.FileFunction,Plated,1,2,PTH
FMAT,2
METRIC
T1C0.400
T2C1.000
T3C1.100
%
G90
G05
T1
X135.382Y-53.848
X138.43Y-73.406
X143.51Y-69.85
X144.018Y-68.326
X149.86Y-53.848
T2
X167.386Y-115.57
X120.142Y-82.55
X122.682Y-82.55
X125.222Y-82.55
X167.386Y-112.522
X120.142Y-67.31
X122.682Y-67.31
X125.222Y-67.31
X122.428Y-48.768
X122.428Y-53.768
X164.846Y-100.838
X167.386Y-100.838
X169.926Y-100.838
X120.142Y-72.39
X122.682Y-72.39
X125.222Y-72.39
X164.846Y-74.168
X167.386Y-74.168
X169.926Y-74.168
X164.846Y-68.834
X167.386Y-68.834
X169.926Y-68.834
X132.873Y-65.807
X132.873Y-68.347
X132.873Y-70.887
X132.873Y-73.427
X132.873Y-75.967
X132.873Y-78.507
X132.873Y-81.047
X132.873Y-83.587
X132.873Y-86.127
X132.873Y-88.667
X132.873Y-91.207
X132.873Y-93.747
X132.873Y-96.287
X132.873Y-98.827
X132.873Y-101.367
X148.113Y-65.807
X148.113Y-68.347
X148.113Y-70.887
X148.113Y-73.427
X148.113Y-75.967
X148.113Y-78.507
X148.113Y-81.047
X148.113Y-83.587
X148.113Y-86.127
X148.113Y-88.667
X148.113Y-91.207
X148.113Y-93.747
X148.113Y-96.287
X148.113Y-98.827
X148.113Y-101.367
X164.846Y-79.502
X167.386Y-79.502
X169.926Y-79.502
X150.114Y-113.03
X150.114Y-115.57
X150.114Y-118.11
X164.846Y-84.836
X167.386Y-84.836
X169.926Y-84.836
X164.846Y-106.172
X167.386Y-106.172
X169.926Y-106.172
X110.744Y-70.866
X110.744Y-73.406
X110.744Y-75.946
X110.744Y-78.486
X110.744Y-81.026
X110.744Y-83.566
X110.744Y-86.106
X110.744Y-88.646
X110.744Y-91.186
X110.744Y-93.726
X110.744Y-96.266
X110.744Y-98.806
X110.744Y-101.346
X110.744Y-103.886
X110.744Y-106.426
X110.744Y-108.966
X120.142Y-87.376
X122.682Y-87.376
X125.222Y-87.376
X120.142Y-117.856
X122.682Y-117.856
X125.222Y-117.856
X154.686Y-63.246
X154.686Y-65.786
X154.686Y-68.326
X154.686Y-70.866
X154.686Y-73.406
X154.686Y-75.946
X154.686Y-78.486
X154.686Y-81.026
X154.686Y-83.566
X154.686Y-86.106
X154.686Y-88.646
X154.686Y-91.186
X154.686Y-93.726
X154.686Y-96.266
X154.686Y-98.806
X154.686Y-101.346
X164.846Y-95.504
X167.386Y-95.504
X169.926Y-95.504
X164.338Y-112.522
X107.95Y-116.078
X113.03Y-116.078
X161.29Y-112.522
X120.142Y-62.23
X122.682Y-62.23
X125.222Y-62.23
X108.204Y-70.866
X108.204Y-73.406
X108.204Y-75.946
X108.204Y-78.486
X108.204Y-81.026
X108.204Y-83.566
X108.204Y-86.106
X108.204Y-88.646
X108.204Y-91.186
X108.204Y-93.726
X108.204Y-96.266
X108.204Y-98.806
X108.204Y-101.346
X108.204Y-103.886
X108.204Y-106.426
X108.204Y-108.966
X107.95Y-119.634
X113.03Y-119.634
X120.142Y-77.47
X122.682Y-77.47
X125.222Y-77.47
X158.242Y-115.57
X158.242Y-112.522
X164.338Y-115.57
X164.846Y-90.17
X167.386Y-90.17
X169.926Y-90.17
X120.142Y-102.616
X122.682Y-102.616
X125.222Y-102.616
X120.142Y-112.776
X122.682Y-112.776
X125.222Y-112.776
X120.142Y-107.696
X122.682Y-107.696
X125.222Y-107.696
X161.29Y-115.57
X120.142Y-92.456
X122.682Y-92.456
X125.222Y-92.456
X120.142Y-97.536
X122.682Y-97.536
X125.222Y-97.536
X105.664Y-70.866
X105.664Y-73.406
X105.664Y-75.946
X105.664Y-78.486
X105.664Y-81.026
X105.664Y-83.566
X105.664Y-86.106
X105.664Y-88.646
X105.664Y-91.186
X105.664Y-93.726
X105.664Y-96.266
X105.664Y-98.806
X105.664Y-101.346
X105.664Y-103.886
X105.664Y-106.426
X105.664Y-108.966
T3
X153.67Y-47.752
X153.67Y-50.292
X153.67Y-52.832
T0
M30
