<?xml version="1.0" encoding="UTF-8" standalone="no"?>
<!-- Created with Inkscape (http://www.inkscape.org/) -->

<svg
   xmlns:dc="http://purl.org/dc/elements/1.1/"
   xmlns:cc="http://creativecommons.org/ns#"
   xmlns:rdf="http://www.w3.org/1999/02/22-rdf-syntax-ns#"
   xmlns:svg="http://www.w3.org/2000/svg"
   xmlns="http://www.w3.org/2000/svg"
   xmlns:sodipodi="http://sodipodi.sourceforge.net/DTD/sodipodi-0.dtd"
   xmlns:inkscape="http://www.inkscape.org/namespaces/inkscape"
   sodipodi:docname="Geist10-funkt.svg"
   inkscape:version="0.92.2 (5c3e80d, 2017-08-06)"
   id="svg8"
   version="1.1"
   viewBox="0 0 100.0 100.0"
   height="100.0mm"
   width="100.0mm"
   enable-background="new">
  <sodipodi:namedview
     showborder="true"
     inkscape:window-maximized="1"
     inkscape:window-y="-8"
     inkscape:window-x="-8"
     inkscape:window-height="1017"
     inkscape:window-width="1920"
     inkscape:snap-global="false"
     showgrid="false"
     inkscape:current-layer="g4591"
     inkscape:document-units="mm"
     inkscape:cy="158.03889"
     inkscape:cx="105.30303"
     inkscape:zoom="2.806061"
     inkscape:pageshadow="2"
     inkscape:pageopacity="0.0"
     borderopacity="1.0"
     bordercolor="#666666"
     pagecolor="#ffffff"
     id="base"
     borderlayer="true">
    <inkscape:grid
       id="grid1555"
       type="xygrid" />
    <inkscape:grid
       id="grid3270"
       units="mm"
       type="xygrid"
       empspacing="1"
       spacingy="2.54"
       spacingx="2.54" />
    <inkscape:grid
       id="grid4560"
       units="mm"
       type="xygrid"
       empspacing="1"
       spacingy="2.54"
       spacingx="2.54" />
  </sodipodi:namedview>
  <defs
     id="defs2">
    <filter
       inkscape:collect="always"
       style="color-interpolation-filters:sRGB"
       id="filter4095">
      <feBlend
         inkscape:collect="always"
         mode="darken"
         in2="BackgroundImage"
         id="feBlend4097" />
    </filter>
    <filter
       inkscape:collect="always"
       style="color-interpolation-filters:sRGB"
       id="filter4095-7">
      <feBlend
         inkscape:collect="always"
         mode="darken"
         in2="BackgroundImage"
         id="feBlend4097-8" />
    </filter>
  </defs>
  <metadata
     id="metadata5">
    <rdf:RDF>
      <cc:Work
         rdf:about="">
        <dc:format>image/svg+xml</dc:format>
        <dc:type
           rdf:resource="http://purl.org/dc/dcmitype/StillImage" />
        <dc:title></dc:title>
      </cc:Work>
    </rdf:RDF>
  </metadata>
  <g
     id="g4575"
     sodipodi:insensitive="true"
     inkscape:groupmode="layer"
     inkscape:label="[fixed] BG"
     style="display:inline">
    <rect
       id="rect4573"
       style="fill:#ffffff;fill-opacity:1;stroke:none"
       height="100"
       width="100"
       y="0"
       x="0" />
  </g>
  <g
     id="g4577"
     inkscape:groupmode="layer"
     inkscape:label="F.Cu"
     style="display:inline" />
  <g
     id="g4579"
     inkscape:groupmode="layer"
     inkscape:label="B.Cu-disabled" />
  <g
     id="g4581"
     inkscape:groupmode="layer"
     inkscape:label="B.Adhes-disabled" />
  <g
     id="g4583"
     inkscape:groupmode="layer"
     inkscape:label="F.Adhes-disabled" />
  <g
     id="g4585"
     inkscape:groupmode="layer"
     inkscape:label="B.Paste-disabled" />
  <g
     id="g4587"
     inkscape:groupmode="layer"
     inkscape:label="F.Paste-disabled" />
  <g
     id="g4589"
     inkscape:groupmode="layer"
     inkscape:label="B.SilkS-disabled" />
  <g
     id="g4591"
     inkscape:groupmode="layer"
     inkscape:label="F.SilkS"
     style="display:inline">
    <path
       inkscape:connector-curvature="0"
       id="path843-14-3"
       transform="matrix(0.17492065,0,0,0.16716086,168.48647,-37.285695)"
       d="m -681.11328,329.22461 -1.533,0.0153 -1.50606,0.0458 -1.45214,0.0763 -1.37129,0.10674 -1.26348,0.13714 -1.12871,0.16749 -0.50539,0.0951 -0.4616,0.10268 -0.41443,0.11026 -0.3639,0.11781 -0.58006,0.19356 -0.62695,0.18166 -0.65398,0.1657 -0.66117,0.1457 -0.64852,0.12164 -0.61601,0.0935 -0.56365,0.0614 -0.49146,0.0251 -0.46072,0.0193 -0.47552,0.0441 -0.47665,0.0659 -0.46409,0.085 -0.43784,0.10114 -0.3979,0.11448 -0.34428,0.12497 -0.27698,0.13262 -0.33462,0.16778 -0.50949,0.2257 -1.44251,0.58559 -1.83875,0.6986 -2.03284,0.73249 -2.91367,1.04054 -2.47476,0.9279 -1.08569,0.42777 -0.99145,0.40687 -0.90236,0.3884 -0.81845,0.37236 -0.73968,0.35874 -0.66608,0.34753 -0.59765,0.33877 -0.53436,0.33241 -0.47624,0.32848 -0.42329,0.32697 -0.37549,0.32789 -0.33286,0.33123 -0.11963,0.0985 -0.21344,0.14434 -0.66044,0.39853 -0.8922,0.49875 -1.02835,0.5435 -0.42116,0.22926 -0.458,0.27295 -0.49225,0.31429 -0.52392,0.35326 -1.13256,0.81402 -1.22831,0.94165 -1.30344,1.05043 -1.35793,1.14035 -1.39179,1.21142 -1.40501,1.26365 -1.39762,1.29703 -1.36959,1.31154 -1.32092,1.30721 -1.25163,1.28403 -1.1617,1.242 -1.05115,1.18111 -0.91996,1.10137 -0.40434,0.5149 -0.3638,0.48789 -1.05806,1.42906 -1.09303,1.42044 -0.99894,1.24765 -0.77575,0.91066 -0.30084,0.34786 -0.32634,0.40479 -0.71996,0.96415 -0.79436,1.14314 -0.85038,1.28963 -0.88801,1.40361 -0.90726,1.4851 -0.9081,1.53409 -0.89058,1.55057 -0.85467,1.53455 -0.80036,1.48603 -0.72767,1.40501 -0.6366,1.29149 -0.52713,1.14546 -0.39929,0.96694 -0.14596,0.40636 -0.1071,0.34954 -0.066,0.28866 -0.0225,0.22372 -0.0115,0.24984 -0.0329,0.25804 -0.052,0.25881 -0.0688,0.25215 -0.0833,0.23809 -0.0955,0.21658 -0.10544,0.18767 -0.11304,0.15132 -0.144,0.21566 -0.19405,0.37217 -0.23557,0.50832 -0.26859,0.62408 -0.6021,1.51398 -0.63186,1.73259 -0.6601,1.84823 -0.67909,1.82903 -0.61838,1.5988 -0.47797,1.15754 -0.1857,0.45053 -0.17337,0.47546 -0.1572,0.48605 -0.13722,0.48225 -0.11338,0.46409 -0.0857,0.43157 -0.0543,0.38467 -0.0189,0.32342 -0.0143,0.34142 -0.0419,0.42381 -0.16083,1.0738 -0.25403,1.34043 -0.3358,1.56511 -0.40609,1.74785 -0.46493,1.88865 -0.51232,1.98749 -0.54825,2.04439 -0.57272,2.05935 -0.58573,2.03236 -0.58729,1.96344 -0.57739,1.85255 -0.55603,1.69973 -0.52323,1.50497 -0.47895,1.26825 -0.21929,0.53225 -0.20393,0.45735 -0.62397,1.27291 -0.31362,0.59276 -0.31734,0.56718 -0.32304,0.54428 -0.33069,0.52404 -0.34032,0.50647 -0.35193,0.49155 -0.36549,0.47931 -0.38103,0.46974 -0.39855,0.46282 -0.41803,0.45858 -0.43947,0.45701 -0.4629,0.45809 -1.00394,0.93011 -0.78309,0.68361 -0.76182,0.63786 -0.72162,0.57811 -0.6625,0.50439 -0.58446,0.41665 -0.48749,0.31494 -0.3716,0.19922 -0.13643,0.0519 -0.10036,0.0177 -0.19786,0.0203 -0.25999,0.0583 -0.31103,0.0921 -0.35097,0.12189 -0.77736,0.31672 -0.80396,0.38675 -0.43802,0.20022 -0.51384,0.18709 -0.5709,0.16978 -0.60918,0.14829 -0.62871,0.12262 -0.62945,0.0928 -0.61144,0.0587 -0.57464,0.0205 -0.6377,0.0227 -0.79215,0.063 -0.91517,0.099 -1.00675,0.13057 -1.0669,0.1578 -1.09563,0.18069 -1.09292,0.19922 -1.05879,0.2134 -0.97909,0.18765 -1.02636,0.15902 -1.06096,0.13065 -1.0829,0.10254 -1.09216,0.0747 -1.08877,0.0471 -1.0727,0.0197 -1.04397,-0.007 -1.00257,-0.0342 -0.9485,-0.0607 -0.88176,-0.0871 -0.80236,-0.11312 -0.71028,-0.13893 -0.60555,-0.16448 -0.25954,-0.0917 -0.2286,-0.098 -0.19609,-0.10429 -0.16198,-0.11051 -0.103,-0.0625 -0.15099,-0.0646 -0.43418,-0.13319 -0.59077,-0.13531 -0.72377,-0.13345 -0.83317,-0.12762 -0.91897,-0.11782 -0.9812,-0.10404 -1.01981,-0.0863 -1.06561,-0.0886 -1.11249,-0.11038 -1.12656,-0.12783 -1.10781,-0.14088 -1.05625,-0.14957 -0.97189,-0.15387 -0.85469,-0.15379 -0.7047,-0.14933 -1.05928,-0.23953 -1.10069,-0.22994 -1.13963,-0.22007 -1.17611,-0.20987 -1.21013,-0.19939 -1.24168,-0.18861 -2.56814,-0.34363 -2.66475,-0.29685 -2.74165,-0.24767 -2.7988,-0.19606 -2.83625,-0.14205 -2.24616,-0.0799 -1.81985,-0.0349 -0.77427,0.002 -0.69675,0.0162 -0.62891,0.0314 -0.57075,0.0476 -0.52228,0.0649 -0.48349,0.0831 -0.45438,0.10238 -0.43496,0.12263 -0.42522,0.14387 -0.42517,0.16612 -0.43479,0.18937 -0.45411,0.21361 -0.66129,0.32983 -0.62046,0.33081 -0.58399,0.33595 -0.5519,0.34526 -0.52419,0.35873 -0.50087,0.37636 -0.4819,0.39817 -0.46733,0.42412 -0.45712,0.45425 -0.4513,0.48854 -0.44984,0.527 -0.45278,0.56961 -0.46007,0.6164 -0.47176,0.66734 -0.48781,0.72246 -0.50825,0.78173 -0.55341,0.88771 -0.51534,0.88015 -0.48388,0.89316 -0.45904,0.92674 -0.44084,0.9809 -0.42925,1.05563 -0.42428,1.15093 -0.42595,1.26679 -0.43423,1.40324 -0.44914,1.56026 -0.47067,1.73784 -0.49882,1.93601 -0.5336,2.15473 -0.575,2.39404 -1.30069,5.58828 -0.99885,4.25585 -0.95233,3.91212 -0.54973,2.31716 -0.83883,3.68478 -2.14986,9.67494 -2.12088,9.75301 -0.80261,3.78235 -0.49902,2.45377 -0.25537,1.24596 -0.31749,1.42105 -0.33917,1.42104 -0.3204,1.24594 -0.36979,1.45621 -0.47359,1.99374 -0.51626,2.26876 -0.49778,2.28129 -1.16802,5.32164 -1.21479,5.30531 -0.29927,1.30989 -0.25708,1.21674 -0.21471,1.12927 -0.17219,1.04751 -0.12952,0.97143 -0.0867,0.90103 -0.0437,0.83634 -5.1e-4,0.77734 0.0428,0.72401 0.0863,0.67639 0.12993,0.63445 0.17373,0.59821 0.21769,0.56765 0.2618,0.54279 0.30609,0.52362 0.35052,0.51013 0.29395,0.3811 0.30796,0.36274 0.32731,0.34765 0.35204,0.33583 0.38212,0.32728 0.41758,0.32201 0.4584,0.32001 0.50458,0.32128 0.55612,0.32583 0.61303,0.33364 0.6753,0.34472 0.74294,0.35909 1.71024,0.77434 2.04515,0.87104 3.09625,1.30321 2.49659,1.08089 2.00535,0.90641 1.62252,0.7798 0.6809,0.31755 0.65068,0.25697 0.62193,0.19597 0.59463,0.13452 0.56879,0.0726 0.27516,0.013 0.26926,-0.003 0.26352,-0.0184 0.25798,-0.0341 0.25261,-0.0499 0.24743,-0.0658 0.24243,-0.0817 0.23761,-0.0976 0.23298,-0.11366 0.22853,-0.12973 0.22426,-0.14587 0.22017,-0.16205 0.42881,-0.37288 0.41465,-0.43828 0.40195,-0.50412 0.39072,-0.5704 0.38093,-0.63712 4.13672,-7.27735 1.11165,-1.98561 1.1879,-2.18508 1.24973,-2.35473 1.29715,-2.4946 1.33016,-2.60463 1.34875,-2.68488 1.35295,-2.7353 1.34272,-2.75593 1.31808,-2.74674 1.27903,-2.70775 1.22557,-2.63895 1.1577,-2.54034 1.07542,-2.41192 0.97872,-2.2537 0.86761,-2.06568 0.7421,-1.84783 1.38892,-3.52283 1.28226,-3.18519 1.03309,-2.49768 0.37858,-0.8817 0.26285,-0.57861 0.20296,-0.44046 0.20692,-0.48573 0.40255,-1.04336 0.34887,-1.03271 0.13983,-0.47241 0.10903,-0.42182 0.11943,-0.46585 0.11722,-0.3642 0.11717,-0.26467 0.11923,-0.16729 0.0611,-0.0478 0.0624,-0.0242 0.064,-9.6e-4 0.0659,0.022 0.068,0.0448 0.0704,0.0673 0.14899,0.20091 0.14261,0.25249 0.12103,0.27551 0.0993,0.30152 0.0775,0.33048 0.0555,0.36242 0.0334,0.39734 0.0111,0.43521 -0.0112,0.47607 -0.0338,0.51989 -0.0564,0.56669 -0.0792,0.61645 -0.10214,0.66919 -0.27361,1.50847 -0.36695,1.75507 -1.34428,6.0984 -1.20473,5.40014 -1.11201,4.90178 -1.0661,4.60329 -1.067,4.5047 -1.11473,4.60598 -1.20927,4.90717 -1.35063,5.40823 -3.42653,13.70286 -1.12126,4.56632 -0.82517,3.46793 -0.60301,2.68829 -0.45479,2.22741 -0.3805,2.08528 -0.38015,2.26191 -0.21062,1.2199 -0.24116,1.29585 -0.53994,2.66098 -0.56019,2.48912 -0.26647,1.08101 -0.24607,0.91915 -0.40281,1.51235 -0.33309,1.44157 -0.26296,1.37436 -0.10505,0.66308 -0.0873,0.64761 -0.0696,0.63259 -0.0518,0.61801 -0.0339,0.60388 -0.016,0.59018 0.002,0.57694 0.02,0.56414 0.038,0.55178 0.0562,0.53986 0.0744,0.52841 0.0926,0.51738 0.11089,0.5068 0.12924,0.49667 0.14763,0.48699 0.16609,0.47774 0.1846,0.46894 0.20316,0.4606 0.22177,0.45268 0.24044,0.44522 0.25917,0.4382 0.27795,0.43163 0.29678,0.42549 0.31566,0.41982 0.33461,0.41457 0.3536,0.40978 0.24601,0.26441 0.2648,0.26233 0.58397,0.51755 0.65315,0.50664 0.71833,0.49401 0.77954,0.47964 0.83677,0.46356 0.89,0.44574 0.93925,0.4262 0.98451,0.40495 1.0258,0.38195 1.0631,0.35725 1.0964,0.3308 1.12574,0.30264 1.15108,0.27276 1.17244,0.24114 1.18981,0.2078 0.91914,0.13422 0.38903,0.0403 0.35157,0.0182 0.3213,-0.007 0.29822,-0.0355 0.28232,-0.0671 0.2736,-0.10193 0.27207,-0.13991 0.27772,-0.18108 0.29056,-0.22543 0.31057,-0.27294 0.33778,-0.32365 0.37216,-0.37754 0.87622,-0.92942 0.76017,-0.83236 0.77498,-0.87792 0.78802,-0.92073 0.79927,-0.96079 0.80878,-0.9981 0.8165,-1.03266 1.6491,-2.15796 1.65877,-2.26317 1.65427,-2.34636 1.63563,-2.40753 1.60281,-2.4467 1.55585,-2.46384 1.49471,-2.45897 1.41944,-2.43209 1.32999,-2.3832 1.22638,-2.31228 0.56992,-1.12268 0.53871,-1.09669 0.50572,-1.06796 0.47098,-1.03647 0.43446,-1.00223 0.39617,-0.96525 0.74306,-1.91108 0.76765,-2.05836 0.78663,-2.18732 0.79996,-2.29799 0.80767,-2.39037 0.80975,-2.46443 0.80619,-2.52021 0.797,-2.55768 0.78219,-2.57685 0.76174,-2.57773 0.73566,-2.5603 0.70394,-2.52457 0.66661,-2.47055 0.62363,-2.39823 0.57503,-2.3076 0.52079,-2.19868 0.6365,-2.64239 0.59953,-2.2665 0.26485,-0.91694 0.23034,-0.73252 0.18741,-0.51798 0.075,-0.16911 0.0611,-0.10417 0.11432,-0.20866 0.125,-0.33269 0.13163,-0.43957 0.13418,-0.52929 0.13269,-0.60188 0.12713,-0.65729 0.11752,-0.69557 0.10385,-0.71669 0.10505,-0.71 0.12086,-0.67647 0.13236,-0.62711 0.13961,-0.56196 0.14255,-0.48097 0.14122,-0.38419 0.13561,-0.27159 0.0644,-0.0886 0.0613,-0.0546 0.0675,-0.0285 0.0631,3e-4 0.0588,0.0284 0.0545,0.0559 0.0503,0.0828 0.0462,0.10896 0.0801,0.29395 0.0641,0.39105 0.0485,0.483 0.0333,0.56981 0.0185,0.65149 -0.006,1.52743 -0.06,1.79244 -0.11101,2.01632 -0.1587,2.19909 -0.20312,2.34073 -0.24424,2.44126 -0.2821,2.50066 -0.31668,2.51893 -0.34797,2.49609 -0.376,2.43213 -0.40074,2.32704 -0.4222,2.18084 -0.14656,0.84067 -0.19236,1.28598 -0.21332,1.55615 -0.20948,1.65118 -0.21218,1.64908 -0.22035,1.55044 -0.20232,1.27782 -0.15811,0.83126 -0.31459,1.43124 -0.32409,1.56876 -1.96054,9.78232 -0.88143,4.31554 -0.83045,3.99513 -0.79064,3.72223 -0.76204,3.49683 -0.74461,3.31893 -0.73837,3.18853 -0.7433,3.10564 -0.75944,3.07026 -0.78674,3.08237 -0.82524,3.14199 -0.87493,3.24911 -0.93578,3.40374 -2.09891,7.46136 -0.70205,2.50909 -0.62741,2.33058 -0.55377,2.16044 -0.48115,1.99867 -0.40956,1.8453 -0.33897,1.7003 -0.26939,1.56368 -0.20085,1.43544 -0.1333,1.31558 -0.0416,0.61546 -0.0251,0.58864 -0.009,0.56286 0.007,0.53814 0.0236,0.51446 0.0396,0.49183 0.0555,0.47024 0.0712,0.4497 0.0868,0.43022 0.10232,0.41177 0.11769,0.39438 0.13293,0.37803 0.14803,0.36273 0.16301,0.34848 0.29646,0.55937 0.33153,0.56167 0.36391,0.56118 0.39361,0.55793 0.4206,0.5519 0.44492,0.5431 0.46654,0.53152 0.48546,0.51717 0.50171,0.50005 0.51525,0.48016 0.52611,0.45749 0.53427,0.43204 0.53975,0.40383 0.54253,0.37284 0.54263,0.33908 0.54003,0.30254 0.31633,0.15622 0.33776,0.14712 0.35772,0.13797 0.37622,0.12879 0.80202,0.2299 0.85833,0.19279 0.90286,0.15538 0.93563,0.1177 0.95662,0.0798 0.96583,0.0415 0.96328,0.003 0.94895,-0.0357 0.92285,-0.0748 0.88497,-0.11409 0.83533,-0.15369 0.77391,-0.19356 0.36024,-0.11181 0.34048,-0.12189 0.31923,-0.13198 0.29652,-0.14213 0.43507,-0.21384 0.44772,-0.19948 0.44761,-0.18077 0.4347,-0.15769 0.409,-0.13025 0.37054,-0.0984 0.31927,-0.0623 0.25523,-0.0217 0.16228,-0.0137 0.18727,-0.0404 0.21081,-0.0659 0.23291,-0.0903 0.52626,-0.24935 0.59721,-0.33346 0.65652,-0.40853 0.70424,-0.47459 0.74033,-0.53163 0.76481,-0.57964 0.77767,-0.61862 0.77893,-0.64859 0.76856,-0.66954 0.74659,-0.68146 0.71299,-0.68436 0.66779,-0.67823 0.61097,-0.66309 0.54254,-0.63892 0.5306,-0.67602 0.54774,-0.73623 0.56356,-0.79376 0.57806,-0.84861 0.59121,-0.90078 0.60306,-0.95026 0.61356,-0.99706 0.62275,-1.04118 1.26773,-2.204 1.28854,-2.34829 1.29872,-2.47114 1.29829,-2.57253 1.28723,-2.65245 1.26557,-2.71093 1.23328,-2.74795 1.19038,-2.76352 1.13686,-2.75762 1.07271,-2.73028 0.99796,-2.68148 0.91258,-2.61122 0.6307,-1.82525 0.90331,-2.55631 2.14177,-5.95047 0.54715,-1.55604 0.56842,-1.71477 0.57312,-1.81713 0.56126,-1.86314 0.53283,-1.85277 0.48781,-1.78604 0.42624,-1.66295 0.34809,-1.48349 1.19836,-5.29556 0.48852,-2.06799 0.32679,-1.30246 0.11829,-0.4834 0.12824,-0.6088 0.26994,-1.49533 0.26074,-1.70157 0.21889,-1.7109 0.10174,-0.82392 0.11558,-0.8081 0.12539,-0.77177 0.1312,-0.71493 0.133,-0.63759 0.13078,-0.53975 0.12456,-0.4214 0.11431,-0.28254 0.11429,-0.29213 0.12441,-0.44893 0.13051,-0.58329 0.1326,-0.6952 0.13066,-0.78468 0.1247,-0.85171 0.11474,-0.89631 0.10074,-0.91846 0.1018,-0.87084 0.13715,-0.9514 0.16814,-1.01443 0.19477,-1.05994 0.21705,-1.08791 0.23496,-1.09836 0.50622,-2.15797 0.26254,-1.02454 0.26302,-0.96488 0.25914,-0.8877 0.2509,-0.79298 0.2383,-0.68073 0.22134,-0.55097 0.20002,-0.40366 0.0906,-0.14112 0.0837,-0.0977 0.033,-0.008 0.0292,0.0403 0.0475,0.22084 0.0334,0.39899 0.0198,0.56666 10e-4,1.59441 -0.0457,2.13927 -0.088,2.60025 -0.12569,2.97733 -0.15866,3.27054 -0.18692,3.47985 -0.21047,3.60528 -0.22932,3.64682 -0.24346,3.60446 -0.2529,3.47823 -0.25764,3.2681 -0.25766,2.97409 -0.25299,2.59619 -0.2436,2.1344 -0.27678,2.33346 -0.2859,2.65709 -0.2614,2.65352 -0.20326,2.32272 -0.17734,1.96671 -0.19094,1.68442 -0.0934,0.68041 -0.0882,0.54271 -0.0801,0.38262 -0.0692,0.20016 -0.0736,0.22559 -0.0929,0.45543 -0.10843,0.65779 -0.12017,0.83266 -0.26052,2.08001 -0.26229,2.4497 -0.18801,1.74473 -0.24711,2.04484 -0.29954,2.3026 -0.34527,2.518 -0.80094,5.51278 -0.90353,5.86607 -0.95258,5.88051 -0.94807,5.55607 -0.45562,2.55048 -0.43441,2.34229 -0.40652,2.09176 -0.37192,1.79885 -0.4971,2.46674 -0.61152,3.26662 -0.64851,3.64115 -0.6081,3.59033 -0.28558,1.68136 -0.28939,1.59622 -0.28521,1.47418 -0.27302,1.31523 -0.25283,1.11935 -0.22464,0.88656 -0.18844,0.61686 -0.0782,0.19575 -0.0661,0.11449 -0.12611,0.19536 -0.13657,0.28755 -0.14268,0.36591 -0.14445,0.43042 -0.14189,0.48108 -0.13499,0.51791 -0.12374,0.54089 -0.10816,0.55003 -0.10921,0.55186 -0.12662,0.54606 -0.1395,0.52608 -0.14784,0.49194 -0.15166,0.44363 -0.15095,0.38116 -0.14571,0.30453 -0.13594,0.21372 -0.0659,0.10666 -0.068,0.15437 -0.13987,0.44002 -0.14168,0.59532 -0.13934,0.72693 -0.13286,0.83486 -0.12223,0.9191 -0.10744,0.97965 -0.0885,1.01653 -0.0652,1.05186 -0.0281,0.97521 0.0124,0.90618 0.0563,0.84478 0.10361,0.79101 0.0706,0.37772 0.0837,0.36714 0.0973,0.35751 0.11122,0.34883 0.1256,0.34111 0.14042,0.33434 0.15565,0.32852 0.17132,0.32366 0.18741,0.31976 0.20392,0.31679 0.4591,0.62853 0.53027,0.62814 0.60485,0.63539 0.68284,0.65025 0.76424,0.67275 0.84904,0.70286 0.60705,0.46801 0.66168,0.46905 0.71335,0.4691 0.76205,0.46818 0.8078,0.46626 0.85057,0.46335 0.89039,0.45947 0.92724,0.45458 0.96112,0.44873 0.99205,0.44187 1.02001,0.43403 1.04501,0.42522 1.06704,0.4154 1.08611,0.4046 1.10222,0.39282 1.11536,0.38005 1.12554,0.36629 1.13276,0.35155 1.13702,0.33582 1.1383,0.3191 1.13663,0.3014 1.13199,0.2827 1.12439,0.26303 1.11383,0.24237 1.1003,0.22071 1.08381,0.19808 1.06435,0.17446 1.04194,0.14984 1.01656,0.12425 0.98821,0.0977 0.95691,0.0701 0.92263,0.0415 0.64345,0.0283 0.6792,0.0465 1.38358,0.13749 1.28047,0.18076 0.5503,0.10054 0.463,0.10407 v -0.004 l 0.37521,0.0673 0.57232,0.0631 0.75673,0.059 0.92848,0.0548 2.32144,0.0972 2.85623,0.0804 3.28958,0.0636 3.62148,0.0466 3.85193,0.0296 3.98095,0.0124 4.00852,-0.005 3.93464,-0.0221 3.75932,-0.0396 3.48255,-0.0571 3.10434,-0.0747 2.62469,-0.0925 2.04359,-0.11027 0.77218,-0.0619 0.58887,-0.0663 5.01033,-0.66674 5.78263,-0.73169 2.65406,-0.34882 2.48091,-0.3769 1.19385,-0.20298 1.17255,-0.21479 1.15858,-0.22821 1.15194,-0.24322 1.15263,-0.25983 1.16065,-0.27805 1.17601,-0.29785 1.19868,-0.31925 2.49472,-0.70913 2.67339,-0.81394 2.14335,-0.64934 1.89325,-0.5337 1.43794,-0.36162 0.4841,-0.0986 0.29332,-0.0344 0.3138,-0.0295 0.37954,-0.0804 0.44032,-0.1283 0.49616,-0.17313 0.54703,-0.2149 0.59295,-0.25364 1.30381,-0.6113 1.428,-0.72971 1.51252,-0.82374 1.5574,-0.89343 1.56262,-0.93876 1.52818,-0.95972 1.4541,-0.95634 1.34035,-0.92859 1.18695,-0.87648 0.52356,-0.41109 0.47034,-0.38893 0.41216,-0.36372 0.34902,-0.33548 0.28094,-0.30417 0.20789,-0.26984 0.12989,-0.23246 0.0341,-0.10125 0.0128,-0.0908 0.0237,-0.16795 0.0615,-0.18945 0.0951,-0.20446 0.12465,-0.21299 0.15001,-0.215 0.17122,-0.21053 0.18827,-0.19955 0.20118,-0.1821 0.1165,-0.11279 0.10925,-0.13818 0.10199,-0.1624 0.0947,-0.18542 0.16761,-0.43514 0.13842,-0.51296 0.10915,-0.58128 0.0798,-0.64007 0.0504,-0.68936 0.0209,-0.72913 -0.009,-0.75941 -0.0384,-0.78016 -0.0681,-0.7914 -0.0979,-0.79314 -0.12784,-0.78537 -0.15782,-0.76808 -0.18787,-0.74128 -0.21802,-0.70498 -0.62775,-1.876 -0.57906,-1.80379 -0.53221,-1.73817 -0.4872,-1.67915 -0.44403,-1.62672 -0.4027,-1.58091 -0.36321,-1.54168 -0.32556,-1.50905 -0.42189,-1.97406 -0.54083,-2.41793 -0.59024,-2.55543 -0.57009,-2.38656 -1.29538,-5.43026 -1.28665,-5.56779 -1.20408,-5.27599 -1.0967,-4.72596 -0.21797,-0.96571 -0.22865,-1.08505 -0.46214,-2.38046 -0.42329,-2.41485 -0.33006,-2.15393 -0.30161,-2.07471 -0.34579,-2.19933 -0.34728,-2.06183 -0.3061,-1.66218 -0.28634,-1.53935 -0.29954,-1.77678 -0.31001,-1.99077 -0.31778,-2.18135 -0.32281,-2.34849 -0.32514,-2.49222 -0.64636,-5.32188 -0.62303,-5.61565 -0.57794,-5.72201 -0.26527,-2.84232 -0.24584,-2.79864 -0.22369,-2.73151 -0.19883,-2.64098 -1.01758,-13.99805 -0.17572,-2.45426 -0.15731,-2.4031 -0.25839,-4.59658 -0.18168,-4.2236 -0.0614,-1.93686 -0.0415,-1.80155 -0.0213,-1.65218 -8.3e-4,-1.48882 0.0199,-1.31141 0.0409,-1.11998 0.0621,-0.91452 0.0836,-0.69504 0.0499,-0.26084 0.0554,-0.2007 0.0609,-0.13882 0.0664,-0.0752 0.16721,-0.0811 0.15189,-0.0287 0.13489,0.0222 0.1162,0.0715 0.0958,0.11927 0.0738,0.16553 0.05,0.21028 0.0246,0.25348 0.0393,0.74049 0.0634,0.85037 0.19454,1.99831 0.2774,2.34153 0.35123,2.62053 0.41604,2.83532 0.47183,2.98589 0.51861,3.07224 0.55636,3.09438 0.72576,3.98686 0.69592,3.95576 0.58713,3.46736 0.3994,2.52166 0.34627,2.15885 0.44217,2.47954 0.48105,2.49384 0.46293,2.20175 0.90236,4.12801 0.68944,3.27434 0.2205,0.98743 0.30577,1.21191 0.37981,1.40154 0.44263,1.55629 1.02879,3.43732 1.14531,3.63783 1.172,3.55935 0.56793,1.66307 0.54092,1.53882 0.50268,1.37971 0.45322,1.18572 0.39251,0.95686 0.32058,0.69313 0.25947,0.57146 0.2495,0.66148 0.21134,0.66952 0.14493,0.59559 0.0674,0.28208 0.10451,0.34392 0.31241,0.85786 0.43693,1.0588 0.54543,1.22884 0.6379,1.36796 0.71434,1.47616 0.77475,1.55345 0.81914,1.59983 0.8475,1.61529 0.85983,1.59983 0.85614,1.55347 0.83643,1.47619 0.80067,1.36799 0.7489,1.22889 0.6811,1.05886 0.59728,0.85792 1.18693,1.59154 1.11444,1.44654 1.05498,1.31173 1.00851,1.18711 0.97507,1.07268 0.47906,0.49662 0.47558,0.47183 0.47373,0.44832 0.47349,0.42608 0.4749,0.40511 0.47792,0.38543 0.48257,0.36701 0.48885,0.34987 0.49675,0.334 0.50629,0.31941 0.51745,0.30609 0.53023,0.29404 0.54464,0.28326 0.56068,0.27377 1.17598,0.52414 1.25965,0.50142 1.35634,0.48891 1.46604,0.48658 1.12948,0.35554 0.90544,0.25394 0.38734,0.0889 0.35371,0.0635 0.32752,0.0381 0.30881,0.0127 0.29753,-0.0127 0.29373,-0.0381 0.29737,-0.0635 0.30848,-0.0889 0.32704,-0.11427 0.35306,-0.13966 0.81401,-0.35546 0.28556,-0.13837 0.27864,-0.15417 0.27146,-0.1694 0.26402,-0.18409 0.25633,-0.19823 0.24838,-0.21182 0.47188,-0.46221 0.43702,-0.50997 0.4001,-0.55332 0.36114,-0.59227 0.32013,-0.62684 0.27707,-0.65698 0.23196,-0.68274 0.18481,-0.7041 0.13561,-0.72104 0.0844,-0.7336 0.0311,-0.74175 -0.0243,-0.7455 -0.0817,-0.74485 -0.47726,-3.07367 -0.47551,-2.78463 -0.49815,-2.60224 -0.26519,-1.26605 -0.27999,-1.26045 -0.29785,-1.26819 -0.31874,-1.28924 -0.71239,-2.69499 -0.83256,-2.93921 -0.97713,-3.29008 -0.83201,-2.83933 -0.89864,-3.22213 -0.95375,-3.55548 -0.99732,-3.83936 -1.02936,-4.07378 -1.04986,-4.25875 -1.05883,-4.39425 -1.05627,-4.48029 -1.04216,-4.51687 -1.01652,-4.50399 -0.97936,-4.44166 -0.93065,-4.32986 -0.87041,-4.16859 -0.79865,-3.95788 -0.71533,-3.69769 -0.62049,-3.38806 -2.07702,-11.88959 -0.83998,-4.90875 -0.53221,-3.20166 -0.12153,-0.85395 -0.11737,-1.00011 -0.11188,-1.11774 -0.10508,-1.20686 -0.18445,-2.56695 -0.14138,-2.58109 -0.0877,-2.36704 -0.0204,-1.03194 -0.003,-0.89284 0.0156,-0.72524 0.0356,-0.52909 0.0257,-0.18208 0.0312,-0.12235 0.0369,-0.059 0.0206,-0.005 0.0221,0.0125 0.10148,0.13329 0.10804,0.21226 0.1113,0.28032 0.11125,0.33745 0.1079,0.38366 0.10125,0.41895 0.0913,0.44332 0.078,0.45677 0.10089,0.54995 0.15685,0.71041 0.44982,1.78347 0.57847,2.06917 0.64366,2.11747 0.74565,2.44094 0.8562,2.95008 0.86094,3.08758 0.75987,2.85343 0.74704,2.85374 0.82606,3.08825 0.80464,2.95075 0.6828,2.44124 1.69141,6 0.44942,1.57427 0.55966,1.75496 0.66052,1.91413 0.75202,2.05176 0.83414,2.16787 0.90687,2.26246 0.97025,2.33551 1.02424,2.38705 1.06886,2.41705 1.10411,2.42554 1.12998,2.41248 1.14647,2.37792 1.1536,2.32181 1.15134,2.2442 1.13972,2.14504 1.11872,2.02436 1.12895,1.94514 1.18959,1.94996 1.23491,1.93562 1.26489,1.90209 1.27956,1.84941 1.2789,1.77756 1.26291,1.68654 1.2316,1.57635 1.18496,1.44701 1.123,1.29848 1.04571,1.1308 0.48908,0.49652 0.46402,0.44742 0.43702,0.39591 0.40813,0.34201 0.37732,0.28571 0.34458,0.22703 0.30993,0.16593 0.27337,0.10244 0.12238,0.0267 0.11251,0.01 0.10242,-0.007 0.0921,-0.0245 0.57782,-0.17947 0.85577,-0.21355 1.01837,-0.22114 1.06561,-0.20224 1.48314,-0.28497 1.44267,-0.32821 1.39937,-0.37 1.35321,-0.41031 1.30424,-0.44915 1.25241,-0.48653 1.19776,-0.52245 1.14027,-0.55689 1.07994,-0.58988 1.01678,-0.62139 0.48382,-0.32205 0.46696,-0.32938 0.44975,-0.33652 0.43219,-0.34349 0.41427,-0.35027 0.39599,-0.35686 0.37737,-0.36327 0.35839,-0.3695 0.33905,-0.37555 0.31936,-0.3814 0.29931,-0.38709 0.27891,-0.39258 0.25462,-0.39838 0.23308,-0.41306 0.2117,-0.42655 0.19047,-0.43882 0.16939,-0.44988 0.14847,-0.45974 0.12769,-0.46839 0.10708,-0.47582 0.0866,-0.48205 0.0663,-0.48707 0.0461,-0.49089 0.0261,-0.49348 0.006,-0.49488 -0.0134,-0.49507 -0.033,-0.49404 -0.0524,-0.49181 -0.0716,-0.48837 -0.0907,-0.48373 -0.10963,-0.47786 -0.12841,-0.47079 -0.14704,-0.46252 -0.16552,-0.45304 -0.18384,-0.44234 -0.20201,-0.43045 -0.22003,-0.41733 -0.23789,-0.40301 -0.2556,-0.38749 -0.27316,-0.37074 -0.29056,-0.35281 -0.30782,-0.33365 -0.32491,-0.31328 -0.34186,-0.29172 -0.25792,-0.23665 -0.29976,-0.32615 -0.33353,-0.40282 -0.35924,-0.4667 -0.76332,-1.07372 -0.7693,-1.17541 -0.71072,-1.17458 -0.31322,-0.55494 -0.27436,-0.51629 -0.22745,-0.46483 -0.17245,-0.40054 -0.10938,-0.32344 -0.0383,-0.23354 -0.0193,-0.17375 -0.0565,-0.28 -0.21722,-0.85401 -0.34342,-1.2048 -0.45437,-1.5061 -0.55007,-1.75792 -0.63053,-1.96025 -0.69575,-2.1131 -0.74573,-2.21647 -1.44209,-4.26786 -1.35385,-4.0612 -1.2593,-3.83476 -1.15844,-3.5886 -1.05129,-3.32266 -0.93783,-3.03699 -0.81808,-2.73155 -0.69201,-2.40638 -1.0937,-4.0277 -1.21858,-4.68998 -1.26001,-5.00645 -1.21804,-4.97713 -1.09263,-4.60199 -0.88381,-3.88105 -0.33753,-1.56212 -0.25403,-1.2522 -0.16012,-0.89907 -0.0416,-0.30359 -0.0142,-0.19911 -0.0146,-0.38976 -0.0416,-0.44376 -0.0656,-0.48234 -0.0868,-0.50546 -0.10501,-0.51315 -0.12035,-0.50539 -0.13278,-0.4822 -0.14229,-0.44357 -0.13765,-0.46737 -0.11953,-0.55053 -0.0994,-0.61346 -0.0773,-0.65612 -0.0532,-0.67853 -0.0272,-0.6807 9e-4,-0.66261 0.0309,-0.62427 0.22656,-2.90039 0.52148,2.66601 0.12449,0.57178 0.15404,0.60319 0.17751,0.61641 0.19488,0.61145 0.20616,0.58833 0.21137,0.54701 0.21048,0.48752 0.2035,0.40986 0.19288,0.38532 0.18002,0.41719 0.16318,0.43579 0.14239,0.44115 0.11763,0.43324 0.0889,0.41208 0.0563,0.37766 0.0196,0.32999 0.0193,0.33681 0.0553,0.39714 0.0874,0.44285 0.11568,0.47391 0.14006,0.49036 0.16053,0.49216 0.17714,0.47934 0.18986,0.45188 0.22983,0.54449 0.29173,0.74475 0.72163,1.95731 0.8266,2.35943 0.83646,2.49559 1.31033,3.91652 0.65399,1.88696 0.65496,1.84379 0.65723,1.80387 0.66081,1.76723 0.66568,1.73385 0.67188,1.70373 0.67936,1.67689 0.68817,1.65331 0.69827,1.633 0.70967,1.61595 0.7224,1.60217 0.73642,1.59165 0.75174,1.58441 0.76838,1.58042 1.15706,2.30729 0.53557,1.02899 0.51378,0.95625 0.49712,0.8913 0.48559,0.83412 0.47921,0.78472 0.47795,0.74311 0.48184,0.70926 0.49085,0.6832 0.50501,0.66493 0.52429,0.65441 0.54872,0.65169 0.57827,0.65675 0.61297,0.66957 0.65279,0.69019 1.45535,1.50806 1.13835,1.13622 0.47452,0.44315 0.42432,0.36755 0.3838,0.29775 0.35298,0.23372 0.33184,0.1755 0.32037,0.12305 0.3186,0.0764 0.32652,0.0355 0.3441,4.5e-4 0.37138,-0.0289 0.86334,-0.12243 0.56736,-0.1049 0.60513,-0.13734 0.62421,-0.16396 0.62463,-0.18478 0.60639,-0.19976 0.56948,-0.20895 0.51391,-0.21232 0.43967,-0.20986 0.80568,-0.38997 0.77333,-0.3206 0.34712,-0.12368 0.30614,-0.0936 0.25419,-0.0593 0.19127,-0.0207 0.19112,-0.0211 0.25374,-0.059 0.30539,-0.0928 0.34606,-0.12248 0.77029,-0.3176 0.80137,-0.38708 0.40585,-0.20022 0.42164,-0.18709 0.42514,-0.16978 0.41632,-0.14829 0.3952,-0.12262 0.36178,-0.0928 0.31605,-0.0587 0.25802,-0.0205 0.25803,-0.0211 0.31606,-0.059 0.36179,-0.0928 0.3952,-0.1225 0.41632,-0.14807 0.42513,-0.16953 0.42164,-0.1869 0.40583,-0.20013 0.40627,-0.20023 0.42286,-0.18709 0.42707,-0.16979 0.41891,-0.14829 0.39836,-0.12261 0.36544,-0.0928 0.32013,-0.0587 0.26245,-0.0205 0.20044,-0.0127 0.23327,-0.0362 0.56082,-0.14143 0.67946,-0.23039 0.78963,-0.3158 0.89135,-0.39769 0.98461,-0.47603 1.06939,-0.55084 1.14571,-0.62209 1.09726,-0.56548 1.23477,-0.57905 0.32864,-0.15851 0.32517,-0.18338 0.32062,-0.20702 0.31501,-0.22945 0.30832,-0.25066 0.30057,-0.27063 0.29175,-0.28939 0.28185,-0.30693 0.27088,-0.32324 0.25886,-0.33833 0.24575,-0.3522 0.23158,-0.36484 0.21633,-0.37626 0.20003,-0.38646 0.18264,-0.39544 0.16419,-0.4032 0.0618,-0.19241 0.0523,-0.22587 0.0762,-0.54822 0.0393,-0.67034 0.003,-0.78464 -0.0317,-0.89112 -0.0657,-0.98979 -0.0988,-1.08063 -0.13099,-1.16364 -0.16219,-1.23885 -0.19244,-1.30624 -0.22174,-1.36579 -0.2501,-1.41754 -0.27749,-1.46146 -0.30394,-1.49756 -0.32944,-1.52584 -0.35398,-1.54631 -2.58164,-11.0093 -2.0629,-8.98679 -0.67741,-3.08427 -0.55456,-2.73371 -0.21337,-1.14267 -0.16124,-0.94376 -0.10198,-0.70778 -0.0356,-0.43469 -0.0187,-0.33863 -0.0536,-0.43238 -0.0848,-0.50835 -0.11214,-0.56652 -0.29129,-1.2364 -0.17159,-0.6343 -0.18386,-0.62131 -0.30468,-1.01102 -0.30584,-1.08873 -0.33579,-1.28589 -0.39452,-1.60249 -1.0804,-4.6326 -1.6608,-7.33239 -1.1632,-5.21055 -0.83395,-3.86178 -0.58782,-2.90863 -0.4248,-2.35107 -0.18519,-1.02936 -0.20575,-0.97328 -0.24649,-0.98272 -0.30742,-1.05769 -0.38853,-1.19817 -0.48983,-1.4042 -0.61131,-1.67575 -0.75298,-2.01282 -0.78499,-2.01724 -0.37203,-0.90101 -0.36262,-0.83649 -0.35637,-0.77737 -0.3533,-0.72366 -0.3534,-0.67536 -0.35667,-0.63248 -0.36311,-0.59499 -0.37272,-0.56293 -0.38551,-0.53626 -0.40146,-0.51501 -0.42059,-0.49917 -0.44289,-0.48873 -0.46836,-0.48371 -0.49699,-0.4841 -0.90542,-0.85437 -0.81464,-0.74969 -0.74605,-0.65183 -0.69966,-0.56083 -0.67548,-0.47666 -0.3356,-0.20891 -0.33788,-0.19042 -0.34293,-0.1728 -0.35075,-0.15604 -0.36136,-0.14012 -0.37473,-0.12507 -0.39088,-0.11086 -0.40981,-0.0975 -0.43151,-0.085 -0.45598,-0.0734 -0.99648,-0.11527 -1.12768,-0.079 -1.28107,-0.0495 -1.45666,-0.0269 -3.52887,-0.0133 -2.01244,0.0129 -1.86574,0.0373 -1.68755,0.0597 -1.47788,0.08 -1.2367,0.0983 -0.96405,0.11445 -0.36994,0.0626 -0.28996,0.0659 -0.20605,0.0689 -0.11821,0.0717 -0.0977,0.072 -0.15225,0.077 -0.45525,0.16606 -0.63474,0.17753 -0.78836,0.18343 -0.91613,0.18377 -1.01803,0.17853 -1.09408,0.16773 -1.14427,0.15135 -4.73476,0.59753 -3.48008,0.47474 -0.52965,0.0585 -0.56764,0.0243 -0.59867,-0.008 -0.62272,-0.039 -0.63981,-0.0682 -0.64995,-0.0956 -0.65311,-0.12134 -0.64931,-0.1454 -0.63855,-0.16774 -0.62081,-0.18842 -0.59613,-0.20738 -0.56447,-0.22467 -0.52584,-0.24025 -0.48026,-0.25414 -0.42771,-0.26634 -0.36819,-0.27685 -0.2309,-0.17703 -0.25306,-0.16512 -0.26701,-0.14959 -0.27275,-0.13047 -0.27027,-0.10775 -0.25958,-0.0814 -0.24068,-0.0515 -0.21356,-0.018 -0.17633,-0.0139 -0.20279,-0.0411 -0.22797,-0.0674 -0.25188,-0.0927 -0.57038,-0.25749 -0.6507,-0.34734 -0.72083,-0.42964 -0.78076,-0.50434 -0.83049,-0.57149 -0.87002,-0.63106 -0.89934,-0.68304 -0.91848,-0.72746 -0.92741,-0.7643 -0.92614,-0.79357 -0.91467,-0.81526 -0.893,-0.82937 -0.86114,-0.83592 -0.81907,-0.83489 -0.59885,-0.63778 -0.56878,-0.62958 -0.54323,-0.62836 -0.52219,-0.6341 -0.50565,-0.64679 -0.49364,-0.66646 -0.48613,-0.69309 -0.48313,-0.72667 -0.48465,-0.76723 -0.49066,-0.81475 -0.5012,-0.86922 -0.51625,-0.93067 -1.09566,-2.07353 -1.20998,-2.40286 -1.68203,-3.45553 -1.37746,-2.93443 -0.53008,-1.1749 -0.40064,-0.92832 -0.25341,-0.643 -0.0659,-0.20239 -0.0225,-0.11651 -0.0202,-0.17916 -0.0581,-0.24248 -0.21336,-0.63217 -0.31606,-0.75712 -0.38642,-0.79649 -0.20014,-0.40633 -0.1869,-0.42307 -0.16954,-0.42738 -0.14806,-0.41927 -0.12249,-0.39872 -0.0928,-0.36576 -0.059,-0.32037 -0.0211,-0.26254 -0.021,-0.26205 -0.0588,-0.31891 -0.0925,-0.3635 -0.12204,-0.39576 -0.14751,-0.41574 -0.16887,-0.42341 -0.18612,-0.41878 -0.19927,-0.40185 -0.72872,-1.44285 -1.25121,-2.53347 -3.36773,-6.9104 -1.79478,-3.65235 -1.66692,-3.29141 -0.72739,-1.39756 -0.62568,-1.17197 -0.5007,-0.90126 -0.35249,-0.58545 -0.54563,-0.85551 -0.51554,-0.85076 -0.42734,-0.74762 -0.28103,-0.54611 -0.14697,-0.27649 -0.23373,-0.38049 -0.69599,-1.03079 -0.94765,-1.32035 -1.13567,-1.52564 -1.26009,-1.64666 -1.32086,-1.68342 -1.31803,-1.63592 -1.25155,-1.50414 -1.21171,-1.39916 -1.23261,-1.36834 -1.24847,-1.33323 -1.25931,-1.29383 -1.26512,-1.25013 -1.26591,-1.20216 -1.26167,-1.14988 -1.25241,-1.09331 -1.23813,-1.03246 -1.21881,-0.9673 -1.19448,-0.89786 -1.16512,-0.82414 -1.13072,-0.7461 -1.09132,-0.66379 -1.04688,-0.57719 -0.5052,-0.25477 -0.49221,-0.23151 -0.30132,-0.14866 -0.2811,-0.16251 -0.25474,-0.1711 -0.22221,-0.17446 -0.18355,-0.17256 -0.13872,-0.16544 -0.0877,-0.15305 -0.0306,-0.13542 -0.0238,-0.12962 -0.0682,-0.13646 -0.10779,-0.13919 -0.14264,-0.1378 -0.17271,-0.13229 -0.19803,-0.12267 -0.21856,-0.10894 -0.23434,-0.0911 -0.5321,-0.19832 -0.58625,-0.25043 -0.56908,-0.27069 -0.48054,-0.25908 -0.83008,-0.4608 -0.94476,-0.47765 -1.01753,-0.47682 -1.04844,-0.45832 -1.03745,-0.42211 -0.98457,-0.36822 -0.88983,-0.29666 -0.75319,-0.20739 -0.37699,-0.0985 -0.36609,-0.11534 -0.34615,-0.12793 -0.3172,-0.13633 -0.27921,-0.14053 -0.2322,-0.14052 -0.17615,-0.13632 -0.11109,-0.12791 -0.10345,-0.11925 -0.15422,-0.11163 -0.19748,-0.10145 -0.23321,-0.0887 -0.26142,-0.0734 -0.28211,-0.0556 -0.29529,-0.0352 -0.30095,-0.0123 -0.33234,-0.0211 -0.38531,-0.059 -0.42448,-0.0928 -0.44986,-0.12249 -0.46143,-0.14806 -0.4592,-0.16954 -0.44317,-0.1869 -0.41335,-0.20016 -0.42625,-0.2007 -0.48014,-0.18846 -0.51761,-0.17199 -0.53868,-0.15127 -0.54335,-0.12631 -0.5316,-0.0971 -0.50346,-0.0636 -0.45891,-0.0259 -0.47438,-0.0254 -0.54782,-0.0615 -0.60174,-0.0935 -0.63612,-0.12159 -0.65098,-0.1456 -0.6463,-0.1656 -0.6221,-0.18157 -0.57837,-0.19352 -0.3639,-0.11781 -0.41443,-0.11026 -0.4616,-0.10268 -0.50539,-0.0951 -1.12871,-0.16749 -1.26348,-0.13714 -1.37129,-0.10674 -1.45214,-0.0763 -1.50606,-0.0458 -1.533,-0.0153 -10e-6,1.1e-4 m -40.66602,31.02148 0.71769,0.0123 0.73162,0.0351 0.72511,0.0555 0.69814,0.0734 0.65071,0.0889 0.58284,0.10181 0.4945,0.11229 0.38572,0.12028 0.17809,0.0808 0.2118,0.11885 0.51571,0.34325 0.62337,0.46951 0.71291,0.5784 0.78432,0.66994 0.83758,0.7441 0.87272,0.80091 0.88971,0.84035 0.88858,0.86242 0.86931,0.86714 0.8319,0.85449 0.77636,0.82447 0.70268,0.7771 0.61088,0.71235 0.50092,0.63025 0.37285,0.53078 0.22475,0.3367 0.25579,0.3554 0.56908,0.72389 0.58625,0.6697 0.27728,0.28767 0.25482,0.24188 0.23433,0.221 0.21856,0.22778 0.19802,0.22801 0.17271,0.22172 0.14264,0.2089 0.10779,0.18953 0.0682,0.16364 0.0238,0.13121 0.0136,0.0738 0.0399,0.10699 0.15315,0.30551 0.24215,0.41381 0.32042,0.50566 0.83277,1.221 1.01722,1.39086 0.54115,0.73138 0.5334,0.74811 0.51193,0.74375 0.47674,0.71831 0.42782,0.67179 0.36518,0.60417 0.28881,0.51547 0.19872,0.40569 0.38388,0.80485 0.51067,0.95941 0.57072,0.99378 0.56403,0.90798 0.902,1.42671 0.38036,0.64064 0.33445,0.59578 0.2894,0.55363 0.24525,0.5142 0.20197,0.47747 0.15958,0.44347 0.11807,0.41217 0.0774,0.38358 0.0377,0.35771 -10e-4,0.33455 -0.0392,0.31411 -0.0763,0.29637 -0.11251,0.28135 -0.14787,0.26904 -0.19656,0.27012 -0.24677,0.26879 -0.28703,0.26036 -0.31737,0.24485 -0.33777,0.22224 -0.34824,0.19255 -0.34876,0.15576 -0.33937,0.11189 -0.30396,0.0631 -0.42592,0.0619 -1.18576,0.11979 -1.57774,0.11328 -1.90585,0.10545 -2.17006,0.0963 -2.37038,0.0858 -2.50681,0.074 -2.57935,0.0608 -2.58801,0.0464 -2.53277,0.0306 -2.41365,0.0134 -2.23063,-0.005 -1.98372,-0.0248 -1.67294,-0.0459 -1.29824,-0.0683 -0.48866,-0.043 -0.37102,-0.0491 -0.76485,-0.14635 -0.74159,-0.17749 -0.71937,-0.20932 -0.69824,-0.24183 -0.67815,-0.27504 -0.65914,-0.30892 -0.64119,-0.3435 -0.6243,-0.37876 -0.60849,-0.4147 -0.59372,-0.45133 -0.58003,-0.48865 -0.56739,-0.52665 -0.55583,-0.56534 -0.54533,-0.60471 -0.53589,-0.64478 -0.52751,-0.68552 -0.47154,-0.65152 -0.4463,-0.64897 -0.42108,-0.64656 -0.39588,-0.64426 -0.37069,-0.64212 -0.34553,-0.6401 -0.32037,-0.63821 -0.29524,-0.63646 -0.27013,-0.63483 -0.24503,-0.63335 -0.21994,-0.63199 -0.19489,-0.63077 -0.16984,-0.62968 -0.14481,-0.62873 -0.1198,-0.6279 -0.0948,-0.6272 -0.0698,-0.62665 -0.0449,-0.62622 -0.0199,-0.62593 0.005,-0.62577 0.0299,-0.62573 0.0548,-0.62585 0.0797,-0.62608 0.10449,-0.62645 0.12934,-0.62695 0.15414,-0.62759 0.17895,-0.62836 0.20373,-0.62926 0.2285,-0.63029 0.25324,-0.63146 0.27797,-0.63276 0.30268,-0.63419 0.33021,-0.64224 0.34549,-0.62684 0.36031,-0.61112 0.37467,-0.59506 0.38857,-0.57868 0.40202,-0.56198 0.41499,-0.54495 0.42752,-0.52758 0.43957,-0.50989 0.45119,-0.49188 0.46232,-0.47353 0.473,-0.45487 0.48323,-0.43586 0.49299,-0.41655 0.5023,-0.39688 0.51113,-0.37691 0.51953,-0.3566 0.52744,-0.33597 0.53491,-0.31501 0.54191,-0.29371 0.54846,-0.2721 0.55454,-0.25016 0.56017,-0.22788 0.56533,-0.20529 0.57004,-0.18236 0.57428,-0.15911 0.57807,-0.13553 0.5814,-0.11162 0.58426,-0.0874 0.58667,-0.0628 0.58861,-0.0379 0.5901,-0.0127 v 0 m 79.09375,0 0.5901,0.0127 0.58861,0.0379 0.58667,0.0628 0.58426,0.0874 0.5814,0.11162 0.57807,0.13553 0.57428,0.15911 0.57004,0.18236 0.56533,0.20529 0.56017,0.22788 0.55454,0.25016 0.54846,0.2721 0.54191,0.29371 0.53491,0.31501 0.52744,0.33597 0.51953,0.3566 0.51113,0.37691 0.5023,0.39688 0.49299,0.41655 0.48323,0.43586 0.473,0.45487 0.46233,0.47353 0.45118,0.49188 0.43958,0.50989 0.42751,0.52758 0.415,0.54495 0.40201,0.56198 0.38858,0.57868 0.37467,0.59506 0.36031,0.61112 0.34549,0.62684 0.33021,0.64224 0.30268,0.63419 0.27797,0.63276 0.25324,0.63146 0.2285,0.63029 0.20373,0.62926 0.17895,0.62835 0.15414,0.62759 0.12934,0.62696 0.10449,0.62645 0.0797,0.62608 0.0548,0.62584 0.0299,0.62574 0.005,0.62577 -0.0199,0.62592 -0.0449,0.62623 -0.0698,0.62664 -0.0948,0.62721 -0.1198,0.6279 -0.14481,0.62872 -0.16984,0.62968 -0.19489,0.63077 -0.21995,0.632 -0.24503,0.63334 -0.27012,0.63484 -0.29524,0.63646 -0.32038,0.63821 -0.34552,0.6401 -0.3707,0.64212 -0.39588,0.64426 -0.42108,0.64656 -0.4463,0.64897 -0.47154,0.65152 -0.52751,0.68552 -0.53589,0.64478 -0.54532,0.60471 -0.55583,0.56534 -0.5674,0.52665 -0.58003,0.48865 -0.59372,0.45133 -0.60848,0.4147 -0.6243,0.37876 -0.64119,0.3435 -0.65914,0.30892 -0.67816,0.27504 -0.69823,0.24183 -0.71938,0.20932 -0.74158,0.17749 -0.76485,0.14635 -0.37102,0.0491 -0.48866,0.043 -1.29824,0.0683 -1.67294,0.0459 -1.98372,0.0248 -2.23063,0.005 -2.41365,-0.0134 -2.53277,-0.0306 -2.588,-0.0464 -2.57936,-0.0608 -2.50681,-0.074 -2.37038,-0.0858 -2.17006,-0.0963 -1.90585,-0.10545 -1.57774,-0.11328 -1.18576,-0.11979 -0.42592,-0.0619 -0.30396,-0.0631 -0.33937,-0.11189 -0.34877,-0.15576 -0.34823,-0.19255 -0.33777,-0.22224 -0.31737,-0.24485 -0.28704,-0.26036 -0.24676,-0.26879 -0.19657,-0.27012 -0.14786,-0.26904 -0.11252,-0.28135 -0.0763,-0.29637 -0.0392,-0.31411 -0.001,-0.33455 0.0377,-0.35771 0.0774,-0.38358 0.11806,-0.41217 0.15958,-0.44347 0.20198,-0.47747 0.24524,-0.5142 0.28941,-0.55363 0.33444,-0.59578 0.38037,-0.64064 0.902,-1.42671 0.56403,-0.90798 0.57072,-0.99378 0.51067,-0.95941 0.38387,-0.80485 0.19872,-0.40569 0.28882,-0.51547 0.36518,-0.60417 0.42782,-0.67179 0.47674,-0.71831 0.51193,-0.74375 0.5334,-0.74811 0.54114,-0.73138 1.01722,-1.39086 0.83278,-1.221 0.32042,-0.50566 0.24214,-0.41381 0.15315,-0.30551 0.0399,-0.10699 0.0136,-0.0738 0.0238,-0.13121 0.0682,-0.16364 0.10779,-0.18954 0.14264,-0.20889 0.17272,-0.22173 0.19802,-0.22801 0.21856,-0.22777 0.23433,-0.221 0.25482,-0.24188 0.27728,-0.28767 0.58625,-0.6697 0.56908,-0.72389 0.25579,-0.3554 0.22475,-0.3367 0.37285,-0.53078 0.50092,-0.63025 0.61088,-0.71235 0.70268,-0.7771 0.77636,-0.82447 0.8319,-0.85449 0.86931,-0.86714 0.88857,-0.86242 0.88972,-0.84035 0.87271,-0.80091 0.83758,-0.7441 0.78432,-0.66994 0.71291,-0.5784 0.62337,-0.46951 0.51571,-0.34325 0.2118,-0.11885 0.17809,-0.0808 0.38572,-0.12028 0.49451,-0.11229 0.58283,-0.10181 0.65072,-0.0889 0.69814,-0.0734 0.7251,-0.0555 0.73163,-0.0351 0.71768,-0.0123 v 0 m 27.02149,41.90235 0.40992,0.0168 0.3994,0.0547 0.38883,0.0926 0.37821,0.13024 0.36751,0.16778 0.35676,0.20518 0.34596,0.24242 0.33509,0.27954 0.32416,0.3165 0.31318,0.35331 0.30214,0.38999 0.29104,0.42653 0.27988,0.46291 0.26866,0.49916 0.25738,0.53525 0.24605,0.57122 0.23465,0.60702 0.2232,0.6427 0.21169,0.67822 0.20012,0.7136 0.18849,0.74884 0.1768,0.78393 0.16505,0.81889 0.15324,0.85368 0.14139,0.88836 0.12945,0.92287 0.11748,0.95724 0.10544,0.99148 0.17451,2.08506 0.12565,2.22027 0.0487,1.71442 10e-4,1.80173 -0.0431,1.8647 -0.0842,1.90332 -0.12224,1.91758 -0.15707,1.90749 -0.18875,1.87304 -0.21726,1.81424 -0.24261,1.7311 -0.26482,1.62359 -0.28385,1.49174 -0.29974,1.33553 -0.15484,0.60158 -0.15762,0.55339 -0.16002,0.50217 -0.16201,0.44789 -0.16362,0.39058 -0.16482,0.33022 -0.16563,0.26681 -0.16605,0.20036 -0.13268,0.15938 -0.12375,0.2002 -0.11212,0.23292 -0.0978,0.25756 -0.0807,0.2741 -0.061,0.28256 -0.0386,0.28293 -0.0135,0.2752 -0.013,0.15094 -0.0379,0.19011 -0.14489,0.48647 -0.22697,0.60941 -0.29721,0.70987 -0.35556,0.78785 -0.40206,0.84335 -0.43669,0.87637 -0.45946,0.8869 -0.47036,0.87497 -0.4694,0.84054 -0.45657,0.78365 -0.43188,0.70426 -0.39533,0.60241 -0.3469,0.47807 -0.28663,0.33124 -0.11699,0.10354 -0.0975,0.0584 -0.11157,0.0565 -0.10402,0.0755 -0.0942,0.0913 -0.0821,0.10376 -0.0678,0.11293 -0.0512,0.1188 -0.0324,0.12138 -0.0113,0.12066 -0.0213,0.16818 -0.0627,0.21445 -0.10225,0.25822 -0.13992,0.29951 -0.38541,0.71295 -0.51376,0.84828 -0.62722,0.96372 -0.72578,1.05928 -0.80944,1.13495 -0.87822,1.19074 -0.93211,1.22663 -0.97109,1.24265 -0.99518,1.23877 -1.00439,1.21501 -0.99869,1.17137 -0.9781,1.10782 -0.94263,1.02441 -0.89225,0.9211 -0.57307,0.55698 -0.63179,0.58454 -0.67887,0.60333 -0.71435,0.61337 -1.48858,1.22179 -1.49095,1.15681 -1.40032,1.02173 -0.6371,0.43832 -0.57958,0.37826 -0.51042,0.30946 -0.42963,0.23189 -0.33723,0.14555 -0.13032,0.0377 -0.10287,0.0128 -0.13243,0.0191 -0.20647,0.0547 -0.59319,0.20072 -0.76387,0.29688 -0.85091,0.36225 -0.60192,0.25654 -0.63358,0.25011 -0.65919,0.24217 -0.67875,0.23273 -1.39193,0.43117 -1.39747,0.37541 -1.35455,0.30766 -0.64604,0.12467 -0.61715,0.10323 -0.58219,0.0803 -0.54118,0.0559 -0.49412,0.0299 -0.44099,0.002 -0.47,-0.0351 -0.45669,-0.0791 -0.44478,-0.12452 -0.43429,-0.17131 -0.4252,-0.21947 -0.41751,-0.26903 -0.41124,-0.31996 -0.40638,-0.37229 -0.40292,-0.426 -0.40087,-0.4811 -0.40023,-0.53758 -0.401,-0.59545 -0.40318,-0.6547 -0.40675,-0.71534 -0.41175,-0.77736 -0.41815,-0.84078 -0.54047,-1.07899 -0.53406,-0.98635 -0.52797,-0.89397 -0.52225,-0.80186 -0.51686,-0.71002 -0.51183,-0.61845 -0.50712,-0.52715 -0.25191,-0.22943 -0.25087,-0.20669 -0.24986,-0.18401 -0.24891,-0.16134 -0.24799,-0.13873 -0.24712,-0.11613 -0.24629,-0.0936 -0.2455,-0.0711 -0.24476,-0.0486 -0.24406,-0.0261 -0.24341,-0.004 -0.24279,0.0187 -0.24222,0.0411 -0.24169,0.0634 -0.24121,0.0857 -0.24077,0.10793 -0.24037,0.13015 -0.24002,0.15233 -0.24631,0.20145 -0.25171,0.26978 -0.25495,0.33271 -0.25603,0.39025 -0.25492,0.44239 -0.25165,0.48913 -0.24621,0.53048 -0.23861,0.56642 -0.22883,0.59697 -0.21688,0.62212 -0.20276,0.64188 -0.18648,0.65623 -0.16802,0.6652 -0.1474,0.66876 -0.1246,0.66693 -0.0996,0.65969 -0.12581,0.82278 -0.15377,0.77097 -0.18277,0.7205 -0.2128,0.67138 -0.24387,0.62358 -0.27599,0.57712 -0.30914,0.53202 -0.34332,0.48823 -0.37854,0.44581 -0.41481,0.4047 -0.4521,0.36495 -0.49044,0.32652 -0.52981,0.28945 -0.57022,0.25371 -0.61167,0.2193 -0.65416,0.18624 v 0.002 l -1.07787,0.26309 -0.88875,0.1897 -0.75849,0.11727 -0.34878,0.0318 -0.33828,0.014 -0.33513,-0.004 -0.33935,-0.0211 -0.35091,-0.0385 -0.36983,-0.0558 -0.82585,-0.16286 -0.98981,-0.2305 -0.46518,-0.12005 -0.44799,-0.13106 -0.43098,-0.14235 -0.41415,-0.15389 -0.3975,-0.16571 -0.38103,-0.17778 -0.36475,-0.19013 -0.34864,-0.20274 -0.33271,-0.21561 -0.31697,-0.22876 -0.3014,-0.24216 -0.28602,-0.25583 -0.27082,-0.26977 -0.2558,-0.28398 -0.24095,-0.29845 -0.2263,-0.31317 -0.21182,-0.32819 -0.19752,-0.34344 -0.18341,-0.35898 -0.16946,-0.37478 -0.15572,-0.39084 -0.14214,-0.40716 -0.12874,-0.42377 -0.11553,-0.44062 -0.10251,-0.45775 -0.0897,-0.47514 -0.14147,-1.00351 -0.0922,-1.07627 -0.0445,-1.15115 -0.0327,-1.38039 -0.0556,-1.07401 -0.0422,-0.43793 -0.0549,-0.38034 -0.0699,-0.32906 -0.0873,-0.28413 -0.10699,-0.24551 -0.12901,-0.21324 -0.15335,-0.18729 -0.18001,-0.16768 -0.20902,-0.1544 -0.24033,-0.14744 -0.58395,-0.29936 -0.42438,-0.18952 -0.39497,-0.14454 -0.36961,-0.0966 -0.34834,-0.0457 -0.33114,0.008 -0.31799,0.065 -0.30892,0.12474 -0.30393,0.18747 -0.30299,0.25315 -0.30614,0.32178 -0.31334,0.39337 -0.32463,0.46792 -0.33997,0.54542 -0.35939,0.62587 -0.38288,0.70929 -0.41044,0.79566 -0.63489,1.19604 -0.64665,1.10279 -0.32875,0.51712 -0.33291,0.49463 -0.33746,0.47244 -0.34242,0.4505 -0.34778,0.42886 -0.35356,0.40749 -0.35972,0.38639 -0.3663,0.36558 -0.37328,0.34504 -0.38066,0.32478 -0.38845,0.3048 -0.39664,0.28509 -0.40523,0.26566 -0.41423,0.24651 -0.42363,0.22763 -0.43344,0.20905 -0.44364,0.19072 -0.45425,0.17268 -0.46528,0.15492 -0.47669,0.13744 -0.48851,0.12022 -0.50074,0.1033 -0.51337,0.0866 -0.5264,0.0703 -0.53984,0.0542 -0.55369,0.0383 -0.56792,0.0228 -0.58258,0.008 -0.71446,-0.0123 -0.71245,-0.0367 -0.7102,-0.0611 -0.70776,-0.0853 -0.70509,-0.10944 -0.70222,-0.13342 -0.69912,-0.15728 -0.69583,-0.18101 -0.6923,-0.20464 -0.68858,-0.22812 -0.68463,-0.2515 -0.68048,-0.27475 -0.6761,-0.29787 -0.67152,-0.32087 -0.66672,-0.34375 -0.66171,-0.36651 -0.65648,-0.38915 -0.65105,-0.41166 -0.6454,-0.43404 -0.63953,-0.45632 -0.63345,-0.47846 -0.62715,-0.50048 -0.62066,-0.52239 -0.61393,-0.54415 -0.607,-0.56582 -0.59986,-0.58734 -0.59249,-0.60876 -0.58492,-0.63004 -0.57714,-0.65121 -0.56913,-0.67225 -0.56093,-0.69317 -0.55249,-0.71396 -1.52804,-2.04982 -1.32058,-1.82892 -0.97195,-1.40859 -0.31113,-0.48436 -0.17103,-0.30449 -0.31556,-0.62499 -0.51835,-0.96249 -0.64925,-1.16876 -0.70825,-1.24376 -0.96252,-1.70758 -0.88382,-1.65373 -0.80921,-1.6142 -0.73869,-1.58897 -0.67225,-1.57806 -0.31248,-0.7894 -0.29741,-0.79205 -0.28283,-0.79646 -0.26878,-0.80269 -0.25523,-0.81068 -0.2422,-0.82048 -0.22967,-0.83205 -0.21765,-0.84543 -0.40131,-1.73811 -0.35936,-1.81305 -0.32152,-1.90229 -0.28774,-2.00585 -0.25806,-2.12371 -0.23246,-2.25588 -0.21095,-2.40237 -0.0957,-1.40636 -0.0667,-1.48207 -0.0389,-1.53721 -0.0124,-1.57177 0.0128,-1.58575 0.0368,-1.57916 0.0595,-1.55199 0.0809,-1.50424 0.10106,-1.43592 0.11993,-1.34702 0.13754,-1.23755 0.15386,-1.10749 0.16893,-0.95687 0.18272,-0.78566 0.0961,-0.3222 0.0991,-0.27168 0.10191,-0.21859 0.10457,-0.16293 0.12446,-0.1968 0.13367,-0.28119 0.1387,-0.35243 0.13955,-0.41053 0.13622,-0.45549 0.12872,-0.48729 0.11704,-0.50596 0.10117,-0.51148 0.0628,-0.29649 0.0813,-0.29709 0.099,-0.29702 0.11603,-0.2963 0.28001,-0.58782 0.33896,-0.57707 0.39192,-0.56107 0.43887,-0.53982 0.47981,-0.51332 0.51475,-0.48157 0.54369,-0.44458 0.56662,-0.40233 0.58356,-0.35484 0.59448,-0.30209 0.59941,-0.24409 0.29968,-0.0987 0.29866,-0.0822 0.29688,-0.0651 0.29437,-0.0473 0.29109,-0.0289 0.28707,-0.01 0.54809,0.0254 0.53555,0.075 0.52066,0.12239 0.50341,0.16779 0.48382,0.21112 0.46187,0.25239 0.43757,0.29161 0.41091,0.32876 0.38191,0.36387 0.35055,0.39691 0.31683,0.42789 0.28076,0.45682 0.24235,0.48369 0.20157,0.50849 0.15845,0.53125 0.11297,0.55194 0.15816,0.92395 0.17709,0.90916 0.19416,0.88935 0.20938,0.86452 0.22274,0.83464 0.23423,0.79975 0.24387,0.75982 0.25166,0.71487 0.25758,0.66489 0.26165,0.60988 0.26385,0.54984 0.2642,0.48478 0.2627,0.41469 0.25933,0.33956 0.2541,0.25942 0.12451,0.0981 0.12251,0.0762 0.46501,0.22041 0.46106,0.16235 0.45573,0.10495 0.44903,0.0482 0.44093,-0.008 0.43146,-0.0631 0.42062,-0.11779 0.40838,-0.17178 0.39477,-0.22509 0.37978,-0.2777 0.36341,-0.32965 0.34566,-0.38092 0.32653,-0.4315 0.30602,-0.4814 0.28412,-0.53062 0.26085,-0.57916 0.2667,-0.61263 0.29121,-0.60834 0.30631,-0.58808 0.31199,-0.55187 0.30828,-0.49966 0.29516,-0.4315 0.27262,-0.34737 0.24069,-0.24727 0.27323,-0.22093 0.28745,-0.20263 0.30065,-0.18446 0.31283,-0.16642 0.32397,-0.1485 0.33412,-0.13072 0.34322,-0.11307 0.35131,-0.0956 0.35839,-0.0782 0.36443,-0.0609 0.36946,-0.0438 0.37346,-0.0268 0.37645,-0.01 0.37842,0.007 0.37935,0.0235 0.37928,0.04 0.37818,0.0563 0.37606,0.0725 0.37291,0.0886 0.36875,0.10458 0.36357,0.12041 0.35736,0.13612 0.35013,0.15169 0.34189,0.16713 0.33261,0.18244 0.32233,0.19762 0.31101,0.21268 0.29868,0.2276 0.28533,0.2424 0.27095,0.25705 0.25555,0.27159 0.23914,0.28599 0.17917,0.23969 0.16443,0.24562 0.15013,0.25338 0.13627,0.26296 0.12284,0.27435 0.10987,0.28756 0.0973,0.3026 0.0852,0.31945 0.13586,0.69675 0.0927,0.78601 0.053,0.88983 0.0169,1.0082 0.0136,1.16134 0.0514,0.94933 0.0448,0.40943 0.0602,0.37353 0.0776,0.34335 0.0969,0.31887 0.1182,0.3001 0.14149,0.28703 0.16674,0.27966 0.19397,0.278 0.22319,0.28205 0.25437,0.2918 0.6102,0.63567 0.43061,0.4081 0.42871,0.36173 0.42583,0.3152 0.42198,0.26853 0.41717,0.22173 0.41137,0.17478 0.40461,0.1277 0.39688,0.0805 0.38817,0.0331 0.37849,-0.0144 0.36785,-0.0621 0.35623,-0.10986 0.34363,-0.1578 0.33008,-0.20587 0.31554,-0.2541 0.30003,-0.30245 0.27087,-0.33054 0.30632,-0.42139 0.33445,-0.49849 0.35529,-0.56181 0.7439,-1.25854 0.73963,-1.34664 0.67695,-1.32462 0.55586,-1.19246 0.21426,-0.51226 0.16209,-0.43792 0.10261,-0.34981 0.0358,-0.24794 0.008,-0.12485 0.0249,-0.13038 0.0967,-0.27521 0.15452,-0.2909 0.20699,-0.30227 0.25406,-0.30936 0.29575,-0.31212 0.33204,-0.3106 0.36294,-0.30477 0.38845,-0.29463 0.40857,-0.28019 0.4233,-0.26145 0.43264,-0.23841 0.43658,-0.21105 0.43515,-0.17941 0.42831,-0.14346 0.41608,-0.1032 0.38663,-0.0646 0.38558,-0.0389 0.38436,-0.0135 0.38295,0.0118 0.3814,0.037 0.37965,0.062 0.37776,0.0869 0.37567,0.11158 0.37343,0.13614 0.37102,0.16053 0.36843,0.18479 0.36568,0.20888 0.36275,0.23283 0.35965,0.25662 0.35639,0.28027 0.35296,0.30375 0.34935,0.32709 0.34558,0.35028 0.34164,0.37331 0.33751,0.39619 0.33324,0.41892 0.32878,0.4415 0.32416,0.46392 0.31936,0.4862 0.3144,0.50832 0.30926,0.53028 0.30397,0.55211 0.29848,0.57376 0.57988,1.21192 0.55594,1.29676 0.3284,0.76991 0.33704,0.71834 0.33613,0.65103 0.32565,0.56799 0.30562,0.46919 0.27604,0.35468 0.12394,0.12948 0.11296,0.0949 0.10078,0.0584 0.0874,0.02 0.0977,-0.0107 0.10485,-0.0318 0.22889,-0.12329 0.25076,-0.19679 0.26818,-0.2631 0.28116,-0.3222 0.28967,-0.37409 0.29376,-0.41878 0.29338,-0.45627 0.28856,-0.48654 0.27929,-0.50962 0.26557,-0.52549 0.24741,-0.53415 0.2248,-0.53561 0.19773,-0.52986 0.16622,-0.51691 0.13026,-0.49676 0.19189,-0.79066 0.20441,-0.74866 0.21727,-0.70721 0.23045,-0.66632 0.24399,-0.62598 0.25786,-0.58621 0.27207,-0.54699 0.28661,-0.50832 0.3015,-0.47022 0.31672,-0.43266 0.33229,-0.39568 0.34818,-0.35924 0.36442,-0.32336 0.38099,-0.28803 0.39791,-0.25328 0.41516,-0.21906 0.49088,-0.22384 0.47926,-0.19765 0.46788,-0.17129 0.45676,-0.1448 0.44589,-0.11816 0.43526,-0.0914 0.4249,-0.0644 0.41478,-0.0374 0.4049,-0.0101 0.39529,0.0172 0.38592,0.0448 0.3768,0.0724 0.36793,0.10025 0.35932,0.12822 0.35095,0.15632 0.34283,0.18458 0.33497,0.21298 0.32735,0.24153 0.31999,0.27023 0.31287,0.29907 0.30602,0.32806 0.29939,0.35719 0.29304,0.38648 0.28692,0.4159 0.28107,0.44548 0.27545,0.47521 0.27009,0.50507 0.26498,0.53509 0.26013,0.56525 0.25551,0.59556 0.49821,1.28264 0.39429,1.03873 0.40252,0.98226 0.39944,0.90335 0.38507,0.80203 0.3594,0.67827 0.32244,0.53209 0.14383,0.20422 0.13035,0.15927 0.11546,0.1115 0.0992,0.0609 0.14563,0.0451 0.15544,0.0278 0.16452,0.0111 0.17288,-0.005 0.36783,-0.0564 0.39238,-0.11449 0.41103,-0.16814 0.42379,-0.2174 0.43066,-0.26226 0.43163,-0.30271 0.42672,-0.33878 0.41591,-0.37042 0.39921,-0.39768 0.37662,-0.42054 0.34813,-0.43899 0.31376,-0.45304 0.27348,-0.46269 0.22733,-0.46795 0.21563,-0.53367 0.21857,-0.60311 0.21549,-0.65182 0.2064,-0.6798 0.19132,-0.68704 0.17021,-0.67356 0.1431,-0.63935 0.10998,-0.58439 0.13367,-0.73507 0.14928,-0.69067 0.16512,-0.64664 0.18118,-0.60298 0.19747,-0.55968 0.21399,-0.51675 0.23074,-0.47419 0.2477,-0.43199 0.26489,-0.39015 0.28231,-0.34869 0.29996,-0.30759 0.31783,-0.26686 0.33592,-0.22648 0.35425,-0.18649 0.37279,-0.14686 0.39157,-0.10758 0.405,-0.0691 0.4284,-0.0369 0.44496,-0.007 0.4547,0.0215 0.4576,0.0476 0.45366,0.0717 0.4429,0.0938 0.42529,0.11379 0.40085,0.13179 0.36957,0.14775 0.33147,0.16167 0.28653,0.17357 0.23475,0.18344 0.17615,0.19126 0.0639,0.0979 0.0467,0.0991 0.0287,0.10007 0.01,0.10075 0.0189,0.13723 0.0542,0.12788 0.0856,0.11578 0.11328,0.10091 0.13714,0.0833 0.15722,0.0629 0.1735,0.0398 0.18598,0.0139 0.10767,0.0153 0.13085,0.0449 0.32409,0.17266 0.39529,0.27297 0.45214,0.36115 0.49464,0.43722 0.52278,0.50117 0.53655,0.55302 0.53599,0.59273 0.48007,0.52994 0.48014,0.49011 0.47843,0.44941 0.47493,0.40787 0.46962,0.36544 0.46255,0.32218 0.45367,0.27803 0.443,0.23303 0.43054,0.18717 0.41629,0.14044 0.40025,0.0929 0.38243,0.0444 0.3628,-0.005 0.34139,-0.0551 0.31819,-0.10611 0.2932,-0.158 0.11079,-0.087 0.11753,-0.1187 0.2526,-0.32536 0.27151,-0.43059 0.28504,-0.52134 0.29317,-0.5976 0.29592,-0.65941 0.29329,-0.70674 0.28528,-0.73959 0.27187,-0.75797 0.2531,-0.76187 0.22893,-0.7513 0.19938,-0.72626 0.16444,-0.68674 0.12413,-0.63275 0.0784,-0.56429 0.0273,-0.48135 0.0177,-0.37258 0.0515,-0.39684 0.0828,-0.41617 0.11177,-0.43055 0.1383,-0.44 0.16243,-0.44451 0.18413,-0.44408 0.20342,-0.43872 0.2203,-0.42841 0.23477,-0.41317 0.24683,-0.39299 0.25646,-0.36787 0.26369,-0.33781 0.2685,-0.30282 0.2709,-0.26289 0.27089,-0.21801 0.17506,-0.0987 0.23689,-0.0926 0.28826,-0.0843 0.32921,-0.074 0.35971,-0.0616 0.37977,-0.047 0.3894,-0.0303 0.38858,-0.0115 v -4e-5"
       style="display:inline;fill:#000000;fill-opacity:1;stroke:none;stroke-width:0.66666669;stroke-opacity:1;filter:url(#filter4095-7)" />
  </g>
  <g
     id="g4593"
     inkscape:groupmode="layer"
     inkscape:label="B.Mask-disabled" />
  <g
     id="g4595"
     inkscape:groupmode="layer"
     inkscape:label="F.Mask-disabled" />
  <g
     id="g4597"
     inkscape:groupmode="layer"
     inkscape:label="Dwgs.User-disabled" />
  <g
     id="g4599"
     inkscape:groupmode="layer"
     inkscape:label="Cmts.User-disabled" />
  <g
     id="g4601"
     inkscape:groupmode="layer"
     inkscape:label="Eco1.User-disabled" />
  <g
     id="g4603"
     inkscape:groupmode="layer"
     inkscape:label="Eco2.User-disabled" />
  <g
     id="g4605"
     inkscape:groupmode="layer"
     inkscape:label="Edge.Cuts"
     style="display:inline">
    <path
       id="path843-14"
       d="M43.928468 79.664709L43.527243125 79.60023625L43.053869 79.564697L42.7250997031 79.5460341038L42.3744265156 79.5089328926L41.6239551875 79.3846953906L40.8356284531 79.2025442246L40.04261975 78.973039125L39.2781025156 78.7067398223L38.5752501875 78.4142060469L38.2573150625 78.2614011477L37.9672362031 78.1059975293L37.7091602891 77.949315158L37.487234 77.792674L37.2050387656 77.5627324258L36.9797965625 77.3478421562L36.8067385156 77.1378004961L36.68109575 76.92240475L36.5980993906 76.6914522227L36.5529805625 76.4347402187L36.5409703906 76.142066043L36.5573 75.803227L36.5915472344 75.4695553125L36.636099375 75.176387L36.6851895781 74.9553836875L36.733051 74.838207L36.7823362969 74.7515480781L36.835308125 74.613615875L36.926877 74.259829L37.01590725 73.910581625L37.0661528438 73.7775382656L37.112109 73.696848L37.1702540469 73.5418729531L37.253666875 73.206563125L37.451732 72.192401L37.671638375 70.983540875L37.865657 70.025111L38.1575108281 68.5568721406L38.489984375 66.645117125L38.7881422344 64.7430125469L38.977049 63.303725L39.0684995 62.5465265L39.1084866875 62.2973745313L39.137621 62.183531L39.1637417344 62.0860941406L39.195499375 61.881604625L39.259908 61.271234L39.34120225 60.439517625L39.439646 59.605408L39.5265098672 58.8146256465L39.6166463125 57.7711410469L39.7804005 55.374821375L39.8782356875 53.3139615156L39.8859733828 52.6898016816L39.876666708 52.5283720051L39.8683594215 52.4914550666L39.857479 52.486074L39.7919863867 52.5934810176L39.7115637813 52.7993871406L39.530347 53.412927625L39.3626654688 54.1391572969L39.2991619258 54.4859249043L39.257356 54.790538L39.17512425 55.367411625L39.1291929063 55.5811082656L39.087482 55.704976L39.0457031875 55.8226491563L38.999571 56.01946025L38.916682 56.540796L38.83278425 57.111227125L38.742438 57.543761L38.390102 58.992497L38.25462925 59.518428375L38.076039 60.1266295L37.877552 60.741760625L37.682389 61.288482L37.039472 63.015806L36.7052839824 63.9005364355L36.3187957344 64.8178954219L35.8948633379 65.7391916035L35.448342875 66.635733625L34.9940904277 67.4788301309L34.5469620781 68.2397897656L34.1218139082 68.8899211738L33.733502 69.400533L33.5317359785 69.6181719219L33.2902232031 69.84592975L33.0252132324 70.0717435781L32.752955625 70.2835505L32.4896999395 70.4692876094L32.2516957344 70.616892L32.0551925684 70.7143007656L31.91644 70.749451L31.8159343594 70.7634881094L31.679547875 70.801710375L31.370754 70.927376L31.1404789512 71.0122720293L30.8589967969 71.0703439219L30.5427805254 71.1019528848L30.208303125 71.107460125L29.872037584 71.0872268496L29.5504568906 71.0416142656L29.2600340332 70.9709835801L29.017242 70.875696L28.8278556797 70.7684377988L28.638525375 70.6385977656L28.4530196953 70.4898870059L28.27510725 70.326016625L28.1085566484 70.1506977285L27.9571365 69.9676414219L27.8246154141 69.7805588105L27.714762 69.593161L27.6165108008 69.3451579102L27.5612446563 69.0506315937L27.5503873711 68.6983754805L27.58536275 68.277183L27.6675945977 67.775847582L27.7985067188 67.1831626563L27.979522918 66.4879216523L28.212067 65.678918L28.8959510313 63.3195896719L29.1779323398 62.279136377L29.44080625 61.246786375L29.7002225664 60.1590117012L29.9718310938 58.9522843906L30.614224 55.92786L30.726059 55.426377L30.78899125 55.073703375L30.864537 54.538752L30.998023 53.647234L31.1419669199 52.8936875645L31.2685892969 52.0698661406L31.3733059316 51.2307644277L31.451532625 50.431377125L31.4986851777 49.7266989316L31.5101793906 49.1717245469L31.5011220574 48.9675621262L31.4814310645 48.8214486699L31.450533387 48.7402585154L31.4307029712 48.7261579067L31.407856 48.730866L31.3621469219 48.8002111406L31.312516375 48.944863125L31.225441 49.375437L31.141302 49.821990875L31.0948324375 49.9839445781L31.052981 50.074435L30.996382375 50.2067122031L30.90972675 50.482460375L30.693466 51.303069L30.5017940215 52.0563445L30.2761295469 52.8702179375L29.754322875 54.58186825L29.1910455156 56.2422391875L28.9135426816 56.9920134063L28.649297 57.65555L28.3331494004 58.336216248L27.9246867031 59.0937379844L27.4437263105 59.8986750723L26.910085625 60.721587375L26.3435820488 61.5330347559L25.7640329844 62.3035770781L25.191255834 63.0037742051L24.645068 63.604186L24.3676277031 63.876729625L24.2624904277 63.9600073984L24.166335375 64.01362975L24.0691077754 64.0418521328L23.9607528594 64.04893L23.670442 64.016674L23.2572336816 63.941637752L22.8589658906 63.8454794531L22.481215873 63.7305007715L22.129560875 63.599003375L21.8095781426 63.4532889316L21.5268449219 63.2956591094L21.286938459 63.1284155762L21.095436 62.95386L20.8679307852 62.6747516855L20.6931400938 62.3792410469L20.5704559805 62.062572791L20.4992705 61.719991625L20.478975707 61.3467422559L20.5089636563 60.9380693906L20.5886264023 60.4892177363L20.717356 59.995432L20.904903625 59.24495175L21.07828 58.379555L21.2113257188 57.6528755938L21.3963395 56.83116425L21.7367922813 55.4881522813L22.336155 53.197571L22.7839302656 51.4732668281L23.165553375 49.950374125L23.992413 46.439475L24.1044728281 45.893908125L24.151996375 45.49729725L24.1520272285 45.3449295703L24.1364882344 45.217896L24.1055674668 45.1122282422L24.059453 45.023958L24.0092195781 44.9716413125L23.9865346309 44.9681167266L23.964966375 44.9801575L23.9236664844 45.0523636875L23.882293 45.191117L23.777786875 45.513243L23.635723 45.842491L23.34276075 46.50416925L22.875464 47.625545L22.5938876543 48.2797243047L22.2345636719 49.0596204375L21.363352125 50.8371295L20.4231880156 52.6392048125L19.9776733301 53.4498087578L19.57543 54.146979L18.85195 55.36354L18.7169671758 55.5653919199L18.5741126563 55.7229281094L18.4213463711 55.8367353379L18.25662825 55.907400375L18.0779182227 55.9355099902L17.8831762188 55.9216509531L17.670362168 55.8664100332L17.437436 55.770374L16.802846125 55.488498125L15.824541 55.089962L15.1676485 54.8149234219L14.71506725 54.587046625L14.5466270547 54.4798527715L14.406745125 54.3713200156L14.2879149453 54.2570719082L14.18263 54.132732L14.067775875 53.9599245723L13.983905 53.7742892031L13.930793125 53.5682185137L13.908216 53.334105125L13.915949375 53.0643416582L13.953769 52.7513207344L14.021450625 52.3874349746L14.11877 51.965077L14.535684 50.188675L14.860385 48.851386L15.075955 47.95985L15.674598 45.287046875L16.293515 42.666437L16.635095 41.30128L17.0565053438 39.6067576406L17.2260642148 38.9926299355L17.380555 38.497244375L17.5292497852 38.0930908301L17.6814206563 37.7526591719L17.8463396992 37.4484392715L18.033279 37.152921L18.3704883906 36.6868685469L18.5283552012 36.503538041L18.687233375 36.345917125L18.853250377 36.2084401309L19.0325336719 36.0855413906L19.2312107246 35.9716552363L19.455409 35.861216L19.759650625 35.7420167031L19.9152181563 35.7043852168L20.091151 35.679619125L20.558315125 35.6633429844L21.269548 35.682508L22.25526325 35.7390267031L23.2010155 35.830050375L24.07917025 35.9523503594L24.862093 36.102698L25.489623875 36.204187625L26.261454 36.282461L26.918019375 36.355280375L27.1480011094 36.4001847969L27.268395 36.443687L27.4164095176 36.5113153848L27.6465632031 36.5620343281L27.9411322559 36.5955003887L28.282392875 36.611370125L28.6526212598 36.6093000957L29.0340936094 36.5889468594L29.409086123 36.5499669746L29.759875 36.492017L30.514582 36.3664105L30.85080325 36.32802125L31.100932 36.313707L31.3084024844 36.3004499531L31.528482625 36.264418125L31.7349062031 36.2112204844L31.901407 36.146466L32.17793225 36.02888925L32.373735 35.97999L32.4801332344 35.9351055781L32.667588375 35.812896625L33.179862 35.411171L33.513350125 35.1026795469L33.786845 34.789913375L34.022359875 34.4444035156L34.241908 34.037681L34.3997207227 33.6602593496L34.5885139063 33.1245684219L34.99490475 31.802739875L35.180433957 31.1287828262L35.3328067188 30.5209176406L35.4359888086 30.0352346035L35.473946 29.727824L35.4867007344 29.60948025L35.521428875 29.45980825L35.635589 29.143224L35.827485375 28.682441L36.061858 28.067716L36.277680125 27.525023625L36.3658522656 27.3357354531L36.424977 27.237476L36.463206375 27.1808025625L36.4945245 27.10478175L36.523467 26.934445L36.5389364917 26.8487957454L36.583200918 26.7224381973L36.7452502812 26.3693300156L36.9838865039 25.9185840449L37.273381 25.413663875L37.5880051836 24.8980330957L37.9020304687 24.4151552969L38.1897282695 24.0084940684L38.42537 23.721513L38.73564475 23.360648L39.111762 22.884241L39.4070492676 22.5325090156L39.7941328906 22.12746525L40.2441402246 21.6943182344L40.728198625 21.2582765L41.2174354473 20.8445485781L41.6829780469 20.478343L42.0959537793 20.1848682969L42.42749 19.989333L42.763437 19.815232875L42.937225 19.708149L43.0611388965 19.5979613418L43.2185115469 19.4883734844L43.4165593926 19.3761493535L43.662498875 19.258052875L44.3269185156 18.9912985781L45.269502 18.662222L45.946669375 18.423006125L46.346594 18.259349L46.4552481719 18.2163152344L46.601398875 18.180329125L46.929667 18.144591L47.1142428594 18.130103L47.335468125 18.094042L47.5655503281 18.0418875L47.776697 17.979119L48.0819899219 17.9079798594L48.500433375 17.8571661875L48.9943105156 17.8266779844L49.5259045 17.81651525L50.0574984844 17.8266779844L50.551375625 17.8571661875L50.9698190781 17.9079798594L51.275112 17.979119L51.4850795156 18.0418624688L51.711958125 18.09397675L51.9284426719 18.1300301563L52.107228 18.144591L52.27556625 18.1595481719L52.46359875 18.196883375L52.648367625 18.2509171406L52.806915 18.31597L52.9567655937 18.3806611875L53.1178645 18.43373975L53.2708664062 18.4697231875L53.396426 18.483129L53.5006896406 18.491058375L53.595699125 18.512589L53.6709680469 18.544334625L53.71601 18.582909L53.766282 18.6270679375L53.8557955 18.67402775L54.101892 18.753928L54.3893029844 18.8381822188L54.743023625 18.97028625L55.1044297031 19.1265946563L55.414897 19.283462L55.5983825 19.372150625L55.793889 19.447298L55.8731300156 19.4807075625L55.938021375 19.523272L55.9818667969 19.5695174375L55.99797 19.61397L56.0186730937 19.6622184531L56.075043 19.718776625L56.260347 19.828639L56.6179358008 20.0064035039L57.0066169062 20.2420674688L57.4193582461 20.5298951992L57.84912775 20.864151L58.2888933477 21.2390991758L58.7316229687 21.6490040313L59.170284543 22.0881298711L59.597846 22.550741L60.0473382812 23.0756374844L60.498843 23.632297125L60.8633019687 24.1080342031L61.051657 24.390163L61.175510875 24.606431125L61.36108 24.891658L61.74699475 25.569694875L62.352511 26.73041L63.287827 28.550361L63.410515 28.827810375L63.4480016875 28.9547291719L63.461965 29.051844L63.4759710312 29.1492509063L63.51362775 29.27697075L63.636884 29.557035L63.7599185 29.816728375L63.811088 29.992874L63.8708788125 30.1536851406L64.03367575 30.505303875L64.568835 31.573516L64.9721401719 32.3217983594L65.320714375 32.887124875L65.4902579199 33.1244584902L65.6650553906 33.3439877031L66.055661 33.766879L66.3495528613 34.0461667754L66.6657241406 34.3210696406L66.9899078809 34.5814615293L67.307837125 34.817216375L67.605244916 35.0182081113L67.8678642969 35.1743106719L68.0814283105 35.2753979902L68.23167 35.311344L68.3111543125 35.3229712344L68.40390425 35.354629375L68.583073 35.458697L68.7222925371 35.5494968516L68.8982821719 35.632139375L69.1012956895 35.7043606484L69.321586875 35.76389675L69.5494095137 35.8084837578L69.7750173906 35.83585775L69.988664291 35.8437548047L70.180604 35.829911L71.617417 35.650565L72.0089296406 35.5972335625L72.347208125 35.5366845L72.5960920469 35.4763581875L72.719421 35.423695L72.7761420117 35.400188082L72.8915790937 35.3786929688L73.27656075 35.343122L73.8302845312 35.3197497813L74.508669 35.311344L75.1259504121 35.3135730352L75.6048581719 35.3263562813L75.9764501895 35.3588379492L76.271784375 35.42016225L76.5219186387 35.5194733945L76.7579108906 35.6659155938L77.010819041 35.8686330586L77.311701 36.13677L77.480561334 36.2985510371L77.6316002969 36.4636932344L77.7692559551 36.6394297207L77.897966375 36.832993625L78.022169623 37.0516180762L78.1463037656 37.3025362031L78.412117 37.930186L78.6507290625 38.5467549063L78.8043065 38.98173775L78.9011314375 39.3227804688L78.969486 39.657529L79.14665 40.536850375L79.496026 42.053494L79.975575875 44.05348875L80.1033616094 44.5362556563L80.210172 44.887226L80.32321475 45.303791625L80.370235 45.612349L80.3943196406 45.8033516406L80.459896625 46.152182125L80.675466 47.124808L81.487695 50.46725L81.7089825 51.475445875L81.853632 52.3661925L81.8938748437 52.74137125L81.910947 53.055806375L81.9035114062 53.2990374375L81.870231 53.460604L81.7367390625 53.7215672656L81.56059575 53.951938125L81.3537688125 54.1386801719L81.2425889062 54.2116165137L81.128226 54.268757L80.720078 54.460075L80.3326284375 54.6561909219L80.0045245 54.802343625L79.7475880625 54.8937345156L79.573641 54.925565L79.471717125 54.9388096094L79.33807125 54.974814375L79.044999 55.09273L78.753070625 55.210495875L78.6206572969 55.2464813594L78.520237 55.259888L78.4198196562 55.2731325156L78.2874075 55.309136625L77.995475 55.427047L77.720675375 55.544831L77.529023 55.594212L77.336754375 55.643762625L77.06047 55.762407L76.893671625 55.8329983437L76.68799175 55.90136275L76.264458 56.000213L76.1134431934 56.0206773301L75.9882910469 56.0254232656L75.8754494707 56.0067114746L75.761366375 55.956802625L75.6324896699 55.8679573848L75.4752672656 55.7324364219L75.021577 55.29041L74.6030588906 54.8443709687L74.423036623 54.6238079492L74.252919875 54.391017L73.9136459219 53.8471545312L73.527723 53.12959L73.006646625 52.0666822969L72.52116225 50.966928125L72.05664825 49.7953713906L71.598483 48.517056L71.307435625 47.705550625L71.089832 47.162918L70.973081 46.8430705L70.937564375 46.6898614062L70.92452 46.567191L70.9112691562 46.4488948125L70.87519075 46.30758075L70.8217959687 46.1609810625L70.756596 46.026828L70.6841928437 45.8768039375L70.61117975 45.6869815L70.497352 45.285266L70.406032 44.839513L70.366432 45.32443L70.360852 45.53952625L70.374892 45.76669225L70.4057845 45.978870625L70.450762 46.149004L70.53829925 46.47402225L70.574781 46.77848L70.6125391016 47.01280375L70.716002125 47.483251875L71.06168375 48.9012985L71.4951075 50.570174375L71.899555 52.027434L72.163718125 52.8863074687L72.511696 53.94941925L73.423735 56.582646L73.882328625 57.927933125L74.0218343594 58.3811026406L74.073071 58.599715L74.0989032402 58.6928196953L74.1688693594 58.8374725L74.396019625 59.21287675L74.6641545781 59.588836375L74.7853515566 59.7341833984L74.882907 59.82826L74.9995378291 59.9293921543L75.1042024141 60.0441383906L75.1966869639 60.1708824941L75.2767776875 60.30800825L75.3989224922 60.6069398594L75.4689265 60.9280035L75.4850793828 61.2582694531L75.4456708125 61.584808L75.4045965049 61.742638959L75.3489904609 61.8946894219L75.2786388896 62.0393431738L75.193328 62.174984L74.9770165742 62.431842584L74.7065884063 62.6725271719L74.3860122852 62.8950785176L74.019257 63.097537375L73.6102913398 63.277944498L73.1630840937 63.4343406406L72.6816040508 63.5647665566L72.16982 63.667263L71.805249875 63.738175L71.554445 63.804014L71.4793397507 63.8031987671L71.3773180371 63.7583272305L71.2510596604 63.6726041958L71.1032444219 63.5492344687L70.7536625645 63.2023741602L70.350010875 62.74338475L69.9137277637 62.1979046836L69.4662516406 61.5915724062L69.029020916 60.9500263633L68.623474 60.298905L68.2284131992 59.6019505586L67.8251958437 58.8387095937L67.4269473789 58.0379653945L67.04679325 57.22850125L66.6978589023 56.4391004492L66.3932697812 55.6985462812L66.146151332 55.0356220352L65.969629 54.479111L65.673786 53.476146L65.138433 51.581663L64.854949875 50.588454375L64.574784 49.68718L64.361078625 48.987417L64.237383 48.478688L64.171095625 48.194007L64.1321087344 48.0907022187L64.095434 48.032923L64.0815054568 48.0414897407L64.0715419043 48.0923832852L64.0625847344 48.3020757187L64.082074875 49.0195565L64.1391038281 49.8801642812L64.218871 50.578698L64.822108 53.921917L65.0557743086 55.106368582L65.3477345312 56.4647732187L65.6818461133 57.9309931211L66.0419665 59.4388905L66.4119531367 60.9223275664L66.7756634687 62.3151665312L67.1169549414 63.5512696055L67.419685 64.564499L67.7362465625 65.6057947344L67.9687335 66.483795875L68.1512561875 67.3411245781L68.317925 68.320403L68.3364569531 68.5695369922L68.316265375 68.81617175L68.2602157344 69.0544194453L68.1711735 69.27839225L68.0520041406 69.4822023359L67.905573125 69.659961875L67.7347459219 69.8057830391L67.542388 69.913778L67.2810259062 70.0156447812L67.1750384102 70.0411158711L67.0716015 70.04960975L66.8306440937 70.0156588437L66.474683 69.913778L65.9809899023 69.7507197246L65.5549432187 69.5792974844L65.1783338633 69.3858809082L64.83295275 69.156839625L64.500590793 68.8785432637L64.1630389062 68.5373614531L63.8020880039 68.1196638223L63.399529 67.61182L63.1759235332 67.2914064238L62.9048952031 66.8573038281L62.310258375 65.813401375L61.7949953594 64.8108522344L61.6231842949 64.4284412793L61.538483 64.180396L61.47607125 63.968929375L61.386949 63.762841L61.2622130391 63.4870203672L61.095006125 63.0581633125L60.69603225 61.927897L60.315733 60.7451561875L60.1718693672 60.2507060078L60.079814 59.883055L59.801358 58.645595L59.636328875 57.86073475L59.498506 57.085437L59.3258795 56.084393125L59.077137 54.756782L58.8890862656 53.7259594375L58.733742375 52.75286925L58.6237477969 51.9233946875L58.571745 51.323419L58.5587151719 51.2458900937L58.529118875 51.19826575L58.4852708906 51.1825985312L58.429486 51.200941L58.4072079763 51.2367096448L58.3887751543 51.3138516895L58.3632673594 51.5828801406L58.3526071035 51.9892746777L58.356438875 52.514283625L58.4061564531 53.8451380469L58.509576 55.42543L58.687549 57.765678L58.8508568906 59.6066450937L59.060922125 61.501747L59.2873150469 63.2004239062L59.397125123 63.897803043L59.499606 64.452116L59.613918 65.0747855L59.727183 65.789399L59.85904825 66.553120375L60.018101 67.293846L60.42049 68.965459L60.872099 70.804222L61.243594 72.364387L61.3640558125 72.8743560312L61.51212625 73.410561L61.6904018125 73.9818172187L61.901479 74.59694L61.9724855215 74.8387029805L62.0224704219 75.0983870937L62.0515410801 75.3632725977L62.059804875 75.62063975L62.0473691855 75.8577688086L62.0143413906 76.0619400312L61.9608288691 76.2204336758L61.886939 76.32053L61.762551375 76.455424375L61.7240472969 76.5251822656L61.709119 76.584915L61.6781856233 76.6558699126L61.5926724395 76.7518197383L61.2856533281 77.0024184062L60.8435550215 77.3041395586L60.321870875 77.62441175L59.7760942441 77.9306635352L59.2617184844 78.1903234687L58.8342369512 78.3708201055L58.6704231931 78.4212036108L58.549143 78.439582L58.161667125 78.522364625L57.455622 78.72021L56.5516468594 78.9747868906L55.731700875 79.167809875L54.9136874531 79.3164041719L54.01551 79.437695L52.127352 79.67147L51.5318167695 79.7113218203L50.5297064687 79.739245125L47.873579 79.75984075L45.2946062812 79.734326L44.388939418 79.7046113359L43.928425 79.66377L43.928468 79.664709"
       style="display:inline;fill:#000000;fill-opacity:0.30456854;stroke:#000000;stroke-width:0.11399782;stroke-opacity:1;filter:url(#filter4095)"
       inkscape:connector-curvature="0" />
  </g>
  <g
     id="g4607"
     inkscape:groupmode="layer"
     inkscape:label="Margin-disabled" />
  <g
     id="g4609"
     inkscape:groupmode="layer"
     inkscape:label="B.CrtYd-disabled" />
  <g
     id="g4611"
     inkscape:groupmode="layer"
     inkscape:label="F.CrtYd-disabled" />
  <g
     id="g4613"
     inkscape:groupmode="layer"
     inkscape:label="B.Fab-disabled" />
  <g
     id="g4615"
     inkscape:groupmode="layer"
     inkscape:label="F.Fab-disabled" />
  <g
     id="g4617"
     inkscape:groupmode="layer"
     inkscape:label="Drill"
     style="display:none" />
</svg>
