%TF.GenerationSoftware,KiCad,Pcbnew,(5.1.6)-1*%
%TF.CreationDate,2020-11-17T10:03:37+01:00*%
%TF.ProjectId,NANOV3,4e414e4f-5633-42e6-9b69-6361645f7063,rev?*%
%TF.SameCoordinates,Original*%
%TF.FileFunction,Soldermask,Bot*%
%TF.FilePolarity,Negative*%
%FSLAX46Y46*%
G04 Gerber Fmt 4.6, Leading zero omitted, Abs format (unit mm)*
G04 Created by KiCad (PCBNEW (5.1.6)-1) date 2020-11-17 10:03:37*
%MOMM*%
%LPD*%
G01*
G04 APERTURE LIST*
%ADD10C,2.000000*%
%ADD11R,2.000000X2.000000*%
%ADD12R,1.600000X1.600000*%
%ADD13O,1.600000X1.600000*%
%ADD14R,2.000000X1.905000*%
%ADD15O,2.000000X1.905000*%
G04 APERTURE END LIST*
D10*
%TO.C,J3*%
X125984000Y-108966000D03*
X125984000Y-106426000D03*
X125984000Y-103886000D03*
X125984000Y-101346000D03*
X125984000Y-98806000D03*
X125984000Y-96266000D03*
X125984000Y-93726000D03*
X125984000Y-91186000D03*
X125984000Y-88646000D03*
X125984000Y-86106000D03*
X125984000Y-83566000D03*
X125984000Y-81026000D03*
X125984000Y-78486000D03*
X125984000Y-75946000D03*
X125984000Y-73406000D03*
X125984000Y-70866000D03*
%TD*%
D11*
%TO.C,U3*%
X126238000Y-119126000D03*
D10*
X121158000Y-119126000D03*
%TD*%
D12*
%TO.C,A1*%
X132873001Y-65807001D03*
D13*
X148113001Y-98827001D03*
X132873001Y-68347001D03*
X148113001Y-96287001D03*
X132873001Y-70887001D03*
X148113001Y-93747001D03*
X132873001Y-73427001D03*
X148113001Y-91207001D03*
X132873001Y-75967001D03*
X148113001Y-88667001D03*
X132873001Y-78507001D03*
X148113001Y-86127001D03*
X132873001Y-81047001D03*
X148113001Y-83587001D03*
X132873001Y-83587001D03*
X148113001Y-81047001D03*
X132873001Y-86127001D03*
X148113001Y-78507001D03*
X132873001Y-88667001D03*
X148113001Y-75967001D03*
X132873001Y-91207001D03*
X148113001Y-73427001D03*
X132873001Y-93747001D03*
X148113001Y-70887001D03*
X132873001Y-96287001D03*
X148113001Y-68347001D03*
X132873001Y-98827001D03*
X148113001Y-65807001D03*
X132873001Y-101367001D03*
X148113001Y-101367001D03*
%TD*%
D11*
%TO.C,C1*%
X122428000Y-48768000D03*
D10*
X122428000Y-53768000D03*
%TD*%
%TO.C,J1*%
X120904000Y-70866000D03*
X120904000Y-73406000D03*
X120904000Y-75946000D03*
X120904000Y-78486000D03*
X120904000Y-81026000D03*
X120904000Y-83566000D03*
X120904000Y-86106000D03*
X120904000Y-88646000D03*
X120904000Y-91186000D03*
X120904000Y-93726000D03*
X120904000Y-96266000D03*
X120904000Y-98806000D03*
X120904000Y-101346000D03*
X120904000Y-103886000D03*
X120904000Y-106426000D03*
X120904000Y-108966000D03*
%TD*%
%TO.C,J2*%
X123444000Y-108966000D03*
X123444000Y-106426000D03*
X123444000Y-103886000D03*
X123444000Y-101346000D03*
X123444000Y-98806000D03*
X123444000Y-96266000D03*
X123444000Y-93726000D03*
X123444000Y-91186000D03*
X123444000Y-88646000D03*
X123444000Y-86106000D03*
X123444000Y-83566000D03*
X123444000Y-81026000D03*
X123444000Y-78486000D03*
X123444000Y-75946000D03*
X123444000Y-73406000D03*
X123444000Y-70866000D03*
%TD*%
%TO.C,J4*%
X154686000Y-101346000D03*
X154686000Y-98806000D03*
X154686000Y-96266000D03*
X154686000Y-93726000D03*
X154686000Y-91186000D03*
X154686000Y-88646000D03*
X154686000Y-86106000D03*
X154686000Y-83566000D03*
X154686000Y-81026000D03*
X154686000Y-78486000D03*
X154686000Y-75946000D03*
X154686000Y-73406000D03*
X154686000Y-70866000D03*
X154686000Y-68326000D03*
X154686000Y-65786000D03*
X154686000Y-63246000D03*
%TD*%
%TO.C,S1*%
X154178000Y-118872000D03*
X154178000Y-116332000D03*
X154178000Y-113792000D03*
%TD*%
D14*
%TO.C,7805*%
X153670000Y-52578000D03*
D15*
X153670000Y-50038000D03*
X153670000Y-47498000D03*
%TD*%
D10*
%TO.C,U3*%
X121158000Y-115570000D03*
D11*
X126238000Y-115570000D03*
%TD*%
M02*
