M48
; DRILL file {KiCad (5.1.6)-1} date 11/17/20 10:03:32
; FORMAT={-:-/ absolute / metric / decimal}
; #@! TF.CreationDate,2020-11-17T10:03:32+01:00
; #@! TF.GenerationSoftware,Kicad,Pcbnew,(5.1.6)-1
; #@! TF.FileFunction,Plated,1,2,PTH
FMAT,2
METRIC
T1C0.400
T2C1.000
T3C1.100
%
G90
G05
T1
X124.206Y-65.278
X127.762Y-70.612
X128.778Y-67.564
X128.778Y-72.136
X130.556Y-70.612
X130.556Y-73.152
X138.43Y-73.406
X144.018Y-68.326
T2
X123.444Y-70.866
X123.444Y-73.406
X123.444Y-75.946
X123.444Y-78.486
X123.444Y-81.026
X123.444Y-83.566
X123.444Y-86.106
X123.444Y-88.646
X123.444Y-91.186
X123.444Y-93.726
X123.444Y-96.266
X123.444Y-98.806
X123.444Y-101.346
X123.444Y-103.886
X123.444Y-106.426
X123.444Y-108.966
X120.904Y-70.866
X120.904Y-73.406
X120.904Y-75.946
X120.904Y-78.486
X120.904Y-81.026
X120.904Y-83.566
X120.904Y-86.106
X120.904Y-88.646
X120.904Y-91.186
X120.904Y-93.726
X120.904Y-96.266
X120.904Y-98.806
X120.904Y-101.346
X120.904Y-103.886
X120.904Y-106.426
X120.904Y-108.966
X121.158Y-119.126
X126.238Y-119.126
X121.158Y-115.57
X126.238Y-115.57
X125.984Y-70.866
X125.984Y-73.406
X125.984Y-75.946
X125.984Y-78.486
X125.984Y-81.026
X125.984Y-83.566
X125.984Y-86.106
X125.984Y-88.646
X125.984Y-91.186
X125.984Y-93.726
X125.984Y-96.266
X125.984Y-98.806
X125.984Y-101.346
X125.984Y-103.886
X125.984Y-106.426
X125.984Y-108.966
X154.178Y-113.792
X154.178Y-116.332
X154.178Y-118.872
X132.873Y-65.807
X132.873Y-68.347
X132.873Y-70.887
X132.873Y-73.427
X132.873Y-75.967
X132.873Y-78.507
X132.873Y-81.047
X132.873Y-83.587
X132.873Y-86.127
X132.873Y-88.667
X132.873Y-91.207
X132.873Y-93.747
X132.873Y-96.287
X132.873Y-98.827
X132.873Y-101.367
X148.113Y-65.807
X148.113Y-68.347
X148.113Y-70.887
X148.113Y-73.427
X148.113Y-75.967
X148.113Y-78.507
X148.113Y-81.047
X148.113Y-83.587
X148.113Y-86.127
X148.113Y-88.667
X148.113Y-91.207
X148.113Y-93.747
X148.113Y-96.287
X148.113Y-98.827
X148.113Y-101.367
X122.428Y-48.768
X122.428Y-53.768
X154.686Y-63.246
X154.686Y-65.786
X154.686Y-68.326
X154.686Y-70.866
X154.686Y-73.406
X154.686Y-75.946
X154.686Y-78.486
X154.686Y-81.026
X154.686Y-83.566
X154.686Y-86.106
X154.686Y-88.646
X154.686Y-91.186
X154.686Y-93.726
X154.686Y-96.266
X154.686Y-98.806
X154.686Y-101.346
T3
X153.67Y-47.498
X153.67Y-50.038
X153.67Y-52.578
T0
M30
