%TF.GenerationSoftware,KiCad,Pcbnew,(5.1.6)-1*%
%TF.CreationDate,2020-11-17T10:03:37+01:00*%
%TF.ProjectId,NANOV3,4e414e4f-5633-42e6-9b69-6361645f7063,rev?*%
%TF.SameCoordinates,Original*%
%TF.FileFunction,Legend,Top*%
%TF.FilePolarity,Positive*%
%FSLAX46Y46*%
G04 Gerber Fmt 4.6, Leading zero omitted, Abs format (unit mm)*
G04 Created by KiCad (PCBNEW (5.1.6)-1) date 2020-11-17 10:03:37*
%MOMM*%
%LPD*%
G01*
G04 APERTURE LIST*
%ADD10C,0.150000*%
%ADD11C,0.500000*%
%ADD12C,0.120000*%
G04 APERTURE END LIST*
D10*
X119634000Y-69342000D02*
X122174000Y-69342000D01*
X119634000Y-110490000D02*
X119634000Y-69342000D01*
X122174000Y-110490000D02*
X119634000Y-110490000D01*
X123515428Y-68849714D02*
X123515428Y-68087809D01*
X123896380Y-68468761D02*
X123134476Y-68468761D01*
X122896380Y-67135428D02*
X122896380Y-67611619D01*
X123372571Y-67659238D01*
X123324952Y-67611619D01*
X123277333Y-67516380D01*
X123277333Y-67278285D01*
X123324952Y-67183047D01*
X123372571Y-67135428D01*
X123467809Y-67087809D01*
X123705904Y-67087809D01*
X123801142Y-67135428D01*
X123848761Y-67183047D01*
X123896380Y-67278285D01*
X123896380Y-67516380D01*
X123848761Y-67611619D01*
X123801142Y-67659238D01*
X122896380Y-66802095D02*
X123896380Y-66468761D01*
X122896380Y-66135428D01*
X120150000Y-68325904D02*
X120102380Y-68421142D01*
X120102380Y-68564000D01*
X120150000Y-68706857D01*
X120245238Y-68802095D01*
X120340476Y-68849714D01*
X120530952Y-68897333D01*
X120673809Y-68897333D01*
X120864285Y-68849714D01*
X120959523Y-68802095D01*
X121054761Y-68706857D01*
X121102380Y-68564000D01*
X121102380Y-68468761D01*
X121054761Y-68325904D01*
X121007142Y-68278285D01*
X120673809Y-68278285D01*
X120673809Y-68468761D01*
X121102380Y-67849714D02*
X120102380Y-67849714D01*
X121102380Y-67278285D01*
X120102380Y-67278285D01*
X121102380Y-66802095D02*
X120102380Y-66802095D01*
X120102380Y-66564000D01*
X120150000Y-66421142D01*
X120245238Y-66325904D01*
X120340476Y-66278285D01*
X120530952Y-66230666D01*
X120673809Y-66230666D01*
X120864285Y-66278285D01*
X120959523Y-66325904D01*
X121054761Y-66421142D01*
X121102380Y-66564000D01*
X121102380Y-66802095D01*
X150542666Y-70572380D02*
X151209333Y-71572380D01*
X151209333Y-70572380D02*
X150542666Y-71572380D01*
X150542666Y-68032380D02*
X151209333Y-69032380D01*
X151209333Y-68032380D02*
X150542666Y-69032380D01*
X150542666Y-73112380D02*
X151209333Y-74112380D01*
X151209333Y-73112380D02*
X150542666Y-74112380D01*
X150542666Y-75398380D02*
X151209333Y-76398380D01*
X151209333Y-75398380D02*
X150542666Y-76398380D01*
X150947619Y-79192380D02*
X150614285Y-78716190D01*
X150376190Y-79192380D02*
X150376190Y-78192380D01*
X150757142Y-78192380D01*
X150852380Y-78240000D01*
X150900000Y-78287619D01*
X150947619Y-78382857D01*
X150947619Y-78525714D01*
X150900000Y-78620952D01*
X150852380Y-78668571D01*
X150757142Y-78716190D01*
X150376190Y-78716190D01*
X151376190Y-78668571D02*
X151709523Y-78668571D01*
X151852380Y-79192380D02*
X151376190Y-79192380D01*
X151376190Y-78192380D01*
X151852380Y-78192380D01*
X152233333Y-79144761D02*
X152376190Y-79192380D01*
X152614285Y-79192380D01*
X152709523Y-79144761D01*
X152757142Y-79097142D01*
X152804761Y-79001904D01*
X152804761Y-78906666D01*
X152757142Y-78811428D01*
X152709523Y-78763809D01*
X152614285Y-78716190D01*
X152423809Y-78668571D01*
X152328571Y-78620952D01*
X152280952Y-78573333D01*
X152233333Y-78478095D01*
X152233333Y-78382857D01*
X152280952Y-78287619D01*
X152328571Y-78240000D01*
X152423809Y-78192380D01*
X152661904Y-78192380D01*
X152804761Y-78240000D01*
X153233333Y-78668571D02*
X153566666Y-78668571D01*
X153709523Y-79192380D02*
X153233333Y-79192380D01*
X153233333Y-78192380D01*
X153709523Y-78192380D01*
X153995238Y-78192380D02*
X154566666Y-78192380D01*
X154280952Y-79192380D02*
X154280952Y-78192380D01*
X151066571Y-81732380D02*
X150733238Y-81256190D01*
X150495142Y-81732380D02*
X150495142Y-80732380D01*
X150876095Y-80732380D01*
X150971333Y-80780000D01*
X151018952Y-80827619D01*
X151066571Y-80922857D01*
X151066571Y-81065714D01*
X151018952Y-81160952D01*
X150971333Y-81208571D01*
X150876095Y-81256190D01*
X150495142Y-81256190D01*
X151495142Y-81208571D02*
X151828476Y-81208571D01*
X151971333Y-81732380D02*
X151495142Y-81732380D01*
X151495142Y-80732380D01*
X151971333Y-80732380D01*
X152733238Y-81208571D02*
X152399904Y-81208571D01*
X152399904Y-81732380D02*
X152399904Y-80732380D01*
X152876095Y-80732380D01*
X150669714Y-83986666D02*
X151145904Y-83986666D01*
X150574476Y-84272380D02*
X150907809Y-83272380D01*
X151241142Y-84272380D01*
X151479238Y-83272380D02*
X152145904Y-83272380D01*
X151717333Y-84272380D01*
X150669714Y-86526666D02*
X151145904Y-86526666D01*
X150574476Y-86812380D02*
X150907809Y-85812380D01*
X151241142Y-86812380D01*
X152003047Y-85812380D02*
X151812571Y-85812380D01*
X151717333Y-85860000D01*
X151669714Y-85907619D01*
X151574476Y-86050476D01*
X151526857Y-86240952D01*
X151526857Y-86621904D01*
X151574476Y-86717142D01*
X151622095Y-86764761D01*
X151717333Y-86812380D01*
X151907809Y-86812380D01*
X152003047Y-86764761D01*
X152050666Y-86717142D01*
X152098285Y-86621904D01*
X152098285Y-86383809D01*
X152050666Y-86288571D01*
X152003047Y-86240952D01*
X151907809Y-86193333D01*
X151717333Y-86193333D01*
X151622095Y-86240952D01*
X151574476Y-86288571D01*
X151526857Y-86383809D01*
X150669714Y-96686666D02*
X151145904Y-96686666D01*
X150574476Y-96972380D02*
X150907809Y-95972380D01*
X151241142Y-96972380D01*
X151526857Y-96067619D02*
X151574476Y-96020000D01*
X151669714Y-95972380D01*
X151907809Y-95972380D01*
X152003047Y-96020000D01*
X152050666Y-96067619D01*
X152098285Y-96162857D01*
X152098285Y-96258095D01*
X152050666Y-96400952D01*
X151479238Y-96972380D01*
X152098285Y-96972380D01*
X150939523Y-62698380D02*
X150463333Y-62698380D01*
X150415714Y-63174571D01*
X150463333Y-63126952D01*
X150558571Y-63079333D01*
X150796666Y-63079333D01*
X150891904Y-63126952D01*
X150939523Y-63174571D01*
X150987142Y-63269809D01*
X150987142Y-63507904D01*
X150939523Y-63603142D01*
X150891904Y-63650761D01*
X150796666Y-63698380D01*
X150558571Y-63698380D01*
X150463333Y-63650761D01*
X150415714Y-63603142D01*
X151272857Y-62698380D02*
X151606190Y-63698380D01*
X151939523Y-62698380D01*
X150669714Y-91606666D02*
X151145904Y-91606666D01*
X150574476Y-91892380D02*
X150907809Y-90892380D01*
X151241142Y-91892380D01*
X152003047Y-91225714D02*
X152003047Y-91892380D01*
X151764952Y-90844761D02*
X151526857Y-91559047D01*
X152145904Y-91559047D01*
X150161809Y-65238380D02*
X150780857Y-65238380D01*
X150447523Y-65619333D01*
X150590380Y-65619333D01*
X150685619Y-65666952D01*
X150733238Y-65714571D01*
X150780857Y-65809809D01*
X150780857Y-66047904D01*
X150733238Y-66143142D01*
X150685619Y-66190761D01*
X150590380Y-66238380D01*
X150304666Y-66238380D01*
X150209428Y-66190761D01*
X150161809Y-66143142D01*
X151257047Y-66190761D02*
X151257047Y-66238380D01*
X151209428Y-66333619D01*
X151161809Y-66381238D01*
X151590380Y-65238380D02*
X152209428Y-65238380D01*
X151876095Y-65619333D01*
X152018952Y-65619333D01*
X152114190Y-65666952D01*
X152161809Y-65714571D01*
X152209428Y-65809809D01*
X152209428Y-66047904D01*
X152161809Y-66143142D01*
X152114190Y-66190761D01*
X152018952Y-66238380D01*
X151733238Y-66238380D01*
X151638000Y-66190761D01*
X151590380Y-66143142D01*
X152495142Y-65238380D02*
X152828476Y-66238380D01*
X153161809Y-65238380D01*
X150669714Y-89066666D02*
X151145904Y-89066666D01*
X150574476Y-89352380D02*
X150907809Y-88352380D01*
X151241142Y-89352380D01*
X152050666Y-88352380D02*
X151574476Y-88352380D01*
X151526857Y-88828571D01*
X151574476Y-88780952D01*
X151669714Y-88733333D01*
X151907809Y-88733333D01*
X152003047Y-88780952D01*
X152050666Y-88828571D01*
X152098285Y-88923809D01*
X152098285Y-89161904D01*
X152050666Y-89257142D01*
X152003047Y-89304761D01*
X151907809Y-89352380D01*
X151669714Y-89352380D01*
X151574476Y-89304761D01*
X151526857Y-89257142D01*
X150669714Y-94146666D02*
X151145904Y-94146666D01*
X150574476Y-94432380D02*
X150907809Y-93432380D01*
X151241142Y-94432380D01*
X151479238Y-93432380D02*
X152098285Y-93432380D01*
X151764952Y-93813333D01*
X151907809Y-93813333D01*
X152003047Y-93860952D01*
X152050666Y-93908571D01*
X152098285Y-94003809D01*
X152098285Y-94241904D01*
X152050666Y-94337142D01*
X152003047Y-94384761D01*
X151907809Y-94432380D01*
X151622095Y-94432380D01*
X151526857Y-94384761D01*
X151479238Y-94337142D01*
X150669714Y-101512666D02*
X151145904Y-101512666D01*
X150574476Y-101798380D02*
X150907809Y-100798380D01*
X151241142Y-101798380D01*
X151764952Y-100798380D02*
X151860190Y-100798380D01*
X151955428Y-100846000D01*
X152003047Y-100893619D01*
X152050666Y-100988857D01*
X152098285Y-101179333D01*
X152098285Y-101417428D01*
X152050666Y-101607904D01*
X152003047Y-101703142D01*
X151955428Y-101750761D01*
X151860190Y-101798380D01*
X151764952Y-101798380D01*
X151669714Y-101750761D01*
X151622095Y-101703142D01*
X151574476Y-101607904D01*
X151526857Y-101417428D01*
X151526857Y-101179333D01*
X151574476Y-100988857D01*
X151622095Y-100893619D01*
X151669714Y-100846000D01*
X151764952Y-100798380D01*
X150669714Y-99226666D02*
X151145904Y-99226666D01*
X150574476Y-99512380D02*
X150907809Y-98512380D01*
X151241142Y-99512380D01*
X152098285Y-99512380D02*
X151526857Y-99512380D01*
X151812571Y-99512380D02*
X151812571Y-98512380D01*
X151717333Y-98655238D01*
X151622095Y-98750476D01*
X151526857Y-98798095D01*
X128039904Y-89098380D02*
X128039904Y-88098380D01*
X128278000Y-88098380D01*
X128420857Y-88146000D01*
X128516095Y-88241238D01*
X128563714Y-88336476D01*
X128611333Y-88526952D01*
X128611333Y-88669809D01*
X128563714Y-88860285D01*
X128516095Y-88955523D01*
X128420857Y-89050761D01*
X128278000Y-89098380D01*
X128039904Y-89098380D01*
X128944666Y-88098380D02*
X129611333Y-88098380D01*
X129182761Y-89098380D01*
X128039904Y-73858380D02*
X128039904Y-72858380D01*
X128278000Y-72858380D01*
X128420857Y-72906000D01*
X128516095Y-73001238D01*
X128563714Y-73096476D01*
X128611333Y-73286952D01*
X128611333Y-73429809D01*
X128563714Y-73620285D01*
X128516095Y-73715523D01*
X128420857Y-73810761D01*
X128278000Y-73858380D01*
X128039904Y-73858380D01*
X129563714Y-73858380D02*
X128992285Y-73858380D01*
X129278000Y-73858380D02*
X129278000Y-72858380D01*
X129182761Y-73001238D01*
X129087523Y-73096476D01*
X128992285Y-73144095D01*
X128071714Y-104338380D02*
X128071714Y-103338380D01*
X128309809Y-103338380D01*
X128452666Y-103386000D01*
X128547904Y-103481238D01*
X128595523Y-103576476D01*
X128643142Y-103766952D01*
X128643142Y-103909809D01*
X128595523Y-104100285D01*
X128547904Y-104195523D01*
X128452666Y-104290761D01*
X128309809Y-104338380D01*
X128071714Y-104338380D01*
X129595523Y-104338380D02*
X129024095Y-104338380D01*
X129309809Y-104338380D02*
X129309809Y-103338380D01*
X129214571Y-103481238D01*
X129119333Y-103576476D01*
X129024095Y-103624095D01*
X129928857Y-103338380D02*
X130547904Y-103338380D01*
X130214571Y-103719333D01*
X130357428Y-103719333D01*
X130452666Y-103766952D01*
X130500285Y-103814571D01*
X130547904Y-103909809D01*
X130547904Y-104147904D01*
X130500285Y-104243142D01*
X130452666Y-104290761D01*
X130357428Y-104338380D01*
X130071714Y-104338380D01*
X129976476Y-104290761D01*
X129928857Y-104243142D01*
X128039904Y-91638380D02*
X128039904Y-90638380D01*
X128278000Y-90638380D01*
X128420857Y-90686000D01*
X128516095Y-90781238D01*
X128563714Y-90876476D01*
X128611333Y-91066952D01*
X128611333Y-91209809D01*
X128563714Y-91400285D01*
X128516095Y-91495523D01*
X128420857Y-91590761D01*
X128278000Y-91638380D01*
X128039904Y-91638380D01*
X129182761Y-91066952D02*
X129087523Y-91019333D01*
X129039904Y-90971714D01*
X128992285Y-90876476D01*
X128992285Y-90828857D01*
X129039904Y-90733619D01*
X129087523Y-90686000D01*
X129182761Y-90638380D01*
X129373238Y-90638380D01*
X129468476Y-90686000D01*
X129516095Y-90733619D01*
X129563714Y-90828857D01*
X129563714Y-90876476D01*
X129516095Y-90971714D01*
X129468476Y-91019333D01*
X129373238Y-91066952D01*
X129182761Y-91066952D01*
X129087523Y-91114571D01*
X129039904Y-91162190D01*
X128992285Y-91257428D01*
X128992285Y-91447904D01*
X129039904Y-91543142D01*
X129087523Y-91590761D01*
X129182761Y-91638380D01*
X129373238Y-91638380D01*
X129468476Y-91590761D01*
X129516095Y-91543142D01*
X129563714Y-91447904D01*
X129563714Y-91257428D01*
X129516095Y-91162190D01*
X129468476Y-91114571D01*
X129373238Y-91066952D01*
X128039904Y-94178380D02*
X128039904Y-93178380D01*
X128278000Y-93178380D01*
X128420857Y-93226000D01*
X128516095Y-93321238D01*
X128563714Y-93416476D01*
X128611333Y-93606952D01*
X128611333Y-93749809D01*
X128563714Y-93940285D01*
X128516095Y-94035523D01*
X128420857Y-94130761D01*
X128278000Y-94178380D01*
X128039904Y-94178380D01*
X129087523Y-94178380D02*
X129278000Y-94178380D01*
X129373238Y-94130761D01*
X129420857Y-94083142D01*
X129516095Y-93940285D01*
X129563714Y-93749809D01*
X129563714Y-93368857D01*
X129516095Y-93273619D01*
X129468476Y-93226000D01*
X129373238Y-93178380D01*
X129182761Y-93178380D01*
X129087523Y-93226000D01*
X129039904Y-93273619D01*
X128992285Y-93368857D01*
X128992285Y-93606952D01*
X129039904Y-93702190D01*
X129087523Y-93749809D01*
X129182761Y-93797428D01*
X129373238Y-93797428D01*
X129468476Y-93749809D01*
X129516095Y-93702190D01*
X129563714Y-93606952D01*
X128039904Y-86558380D02*
X128039904Y-85558380D01*
X128278000Y-85558380D01*
X128420857Y-85606000D01*
X128516095Y-85701238D01*
X128563714Y-85796476D01*
X128611333Y-85986952D01*
X128611333Y-86129809D01*
X128563714Y-86320285D01*
X128516095Y-86415523D01*
X128420857Y-86510761D01*
X128278000Y-86558380D01*
X128039904Y-86558380D01*
X129468476Y-85558380D02*
X129278000Y-85558380D01*
X129182761Y-85606000D01*
X129135142Y-85653619D01*
X129039904Y-85796476D01*
X128992285Y-85986952D01*
X128992285Y-86367904D01*
X129039904Y-86463142D01*
X129087523Y-86510761D01*
X129182761Y-86558380D01*
X129373238Y-86558380D01*
X129468476Y-86510761D01*
X129516095Y-86463142D01*
X129563714Y-86367904D01*
X129563714Y-86129809D01*
X129516095Y-86034571D01*
X129468476Y-85986952D01*
X129373238Y-85939333D01*
X129182761Y-85939333D01*
X129087523Y-85986952D01*
X129039904Y-86034571D01*
X128992285Y-86129809D01*
X128071714Y-101798380D02*
X128071714Y-100798380D01*
X128309809Y-100798380D01*
X128452666Y-100846000D01*
X128547904Y-100941238D01*
X128595523Y-101036476D01*
X128643142Y-101226952D01*
X128643142Y-101369809D01*
X128595523Y-101560285D01*
X128547904Y-101655523D01*
X128452666Y-101750761D01*
X128309809Y-101798380D01*
X128071714Y-101798380D01*
X129595523Y-101798380D02*
X129024095Y-101798380D01*
X129309809Y-101798380D02*
X129309809Y-100798380D01*
X129214571Y-100941238D01*
X129119333Y-101036476D01*
X129024095Y-101084095D01*
X129976476Y-100893619D02*
X130024095Y-100846000D01*
X130119333Y-100798380D01*
X130357428Y-100798380D01*
X130452666Y-100846000D01*
X130500285Y-100893619D01*
X130547904Y-100988857D01*
X130547904Y-101084095D01*
X130500285Y-101226952D01*
X129928857Y-101798380D01*
X130547904Y-101798380D01*
X128071714Y-99258380D02*
X128071714Y-98258380D01*
X128309809Y-98258380D01*
X128452666Y-98306000D01*
X128547904Y-98401238D01*
X128595523Y-98496476D01*
X128643142Y-98686952D01*
X128643142Y-98829809D01*
X128595523Y-99020285D01*
X128547904Y-99115523D01*
X128452666Y-99210761D01*
X128309809Y-99258380D01*
X128071714Y-99258380D01*
X129595523Y-99258380D02*
X129024095Y-99258380D01*
X129309809Y-99258380D02*
X129309809Y-98258380D01*
X129214571Y-98401238D01*
X129119333Y-98496476D01*
X129024095Y-98544095D01*
X130547904Y-99258380D02*
X129976476Y-99258380D01*
X130262190Y-99258380D02*
X130262190Y-98258380D01*
X130166952Y-98401238D01*
X130071714Y-98496476D01*
X129976476Y-98544095D01*
X128071714Y-96718380D02*
X128071714Y-95718380D01*
X128309809Y-95718380D01*
X128452666Y-95766000D01*
X128547904Y-95861238D01*
X128595523Y-95956476D01*
X128643142Y-96146952D01*
X128643142Y-96289809D01*
X128595523Y-96480285D01*
X128547904Y-96575523D01*
X128452666Y-96670761D01*
X128309809Y-96718380D01*
X128071714Y-96718380D01*
X129595523Y-96718380D02*
X129024095Y-96718380D01*
X129309809Y-96718380D02*
X129309809Y-95718380D01*
X129214571Y-95861238D01*
X129119333Y-95956476D01*
X129024095Y-96004095D01*
X130214571Y-95718380D02*
X130309809Y-95718380D01*
X130405047Y-95766000D01*
X130452666Y-95813619D01*
X130500285Y-95908857D01*
X130547904Y-96099333D01*
X130547904Y-96337428D01*
X130500285Y-96527904D01*
X130452666Y-96623142D01*
X130405047Y-96670761D01*
X130309809Y-96718380D01*
X130214571Y-96718380D01*
X130119333Y-96670761D01*
X130071714Y-96623142D01*
X130024095Y-96527904D01*
X129976476Y-96337428D01*
X129976476Y-96099333D01*
X130024095Y-95908857D01*
X130071714Y-95813619D01*
X130119333Y-95766000D01*
X130214571Y-95718380D01*
X128039904Y-71318380D02*
X128039904Y-70318380D01*
X128278000Y-70318380D01*
X128420857Y-70366000D01*
X128516095Y-70461238D01*
X128563714Y-70556476D01*
X128611333Y-70746952D01*
X128611333Y-70889809D01*
X128563714Y-71080285D01*
X128516095Y-71175523D01*
X128420857Y-71270761D01*
X128278000Y-71318380D01*
X128039904Y-71318380D01*
X129230380Y-70318380D02*
X129325619Y-70318380D01*
X129420857Y-70366000D01*
X129468476Y-70413619D01*
X129516095Y-70508857D01*
X129563714Y-70699333D01*
X129563714Y-70937428D01*
X129516095Y-71127904D01*
X129468476Y-71223142D01*
X129420857Y-71270761D01*
X129325619Y-71318380D01*
X129230380Y-71318380D01*
X129135142Y-71270761D01*
X129087523Y-71223142D01*
X129039904Y-71127904D01*
X128992285Y-70937428D01*
X128992285Y-70699333D01*
X129039904Y-70508857D01*
X129087523Y-70413619D01*
X129135142Y-70366000D01*
X129230380Y-70318380D01*
X128039904Y-76398380D02*
X128039904Y-75398380D01*
X128278000Y-75398380D01*
X128420857Y-75446000D01*
X128516095Y-75541238D01*
X128563714Y-75636476D01*
X128611333Y-75826952D01*
X128611333Y-75969809D01*
X128563714Y-76160285D01*
X128516095Y-76255523D01*
X128420857Y-76350761D01*
X128278000Y-76398380D01*
X128039904Y-76398380D01*
X128992285Y-75493619D02*
X129039904Y-75446000D01*
X129135142Y-75398380D01*
X129373238Y-75398380D01*
X129468476Y-75446000D01*
X129516095Y-75493619D01*
X129563714Y-75588857D01*
X129563714Y-75684095D01*
X129516095Y-75826952D01*
X128944666Y-76398380D01*
X129563714Y-76398380D01*
X128039904Y-78938380D02*
X128039904Y-77938380D01*
X128278000Y-77938380D01*
X128420857Y-77986000D01*
X128516095Y-78081238D01*
X128563714Y-78176476D01*
X128611333Y-78366952D01*
X128611333Y-78509809D01*
X128563714Y-78700285D01*
X128516095Y-78795523D01*
X128420857Y-78890761D01*
X128278000Y-78938380D01*
X128039904Y-78938380D01*
X128944666Y-77938380D02*
X129563714Y-77938380D01*
X129230380Y-78319333D01*
X129373238Y-78319333D01*
X129468476Y-78366952D01*
X129516095Y-78414571D01*
X129563714Y-78509809D01*
X129563714Y-78747904D01*
X129516095Y-78843142D01*
X129468476Y-78890761D01*
X129373238Y-78938380D01*
X129087523Y-78938380D01*
X128992285Y-78890761D01*
X128944666Y-78843142D01*
X128039904Y-81478380D02*
X128039904Y-80478380D01*
X128278000Y-80478380D01*
X128420857Y-80526000D01*
X128516095Y-80621238D01*
X128563714Y-80716476D01*
X128611333Y-80906952D01*
X128611333Y-81049809D01*
X128563714Y-81240285D01*
X128516095Y-81335523D01*
X128420857Y-81430761D01*
X128278000Y-81478380D01*
X128039904Y-81478380D01*
X129468476Y-80811714D02*
X129468476Y-81478380D01*
X129230380Y-80430761D02*
X128992285Y-81145047D01*
X129611333Y-81145047D01*
X128039904Y-84018380D02*
X128039904Y-83018380D01*
X128278000Y-83018380D01*
X128420857Y-83066000D01*
X128516095Y-83161238D01*
X128563714Y-83256476D01*
X128611333Y-83446952D01*
X128611333Y-83589809D01*
X128563714Y-83780285D01*
X128516095Y-83875523D01*
X128420857Y-83970761D01*
X128278000Y-84018380D01*
X128039904Y-84018380D01*
X129516095Y-83018380D02*
X129039904Y-83018380D01*
X128992285Y-83494571D01*
X129039904Y-83446952D01*
X129135142Y-83399333D01*
X129373238Y-83399333D01*
X129468476Y-83446952D01*
X129516095Y-83494571D01*
X129563714Y-83589809D01*
X129563714Y-83827904D01*
X129516095Y-83923142D01*
X129468476Y-83970761D01*
X129373238Y-84018380D01*
X129135142Y-84018380D01*
X129039904Y-83970761D01*
X128992285Y-83923142D01*
X138477809Y-60142380D02*
X138477809Y-59142380D01*
X139525428Y-60047142D02*
X139477809Y-60094761D01*
X139334952Y-60142380D01*
X139239714Y-60142380D01*
X139096857Y-60094761D01*
X139001619Y-59999523D01*
X138954000Y-59904285D01*
X138906380Y-59713809D01*
X138906380Y-59570952D01*
X138954000Y-59380476D01*
X139001619Y-59285238D01*
X139096857Y-59190000D01*
X139239714Y-59142380D01*
X139334952Y-59142380D01*
X139477809Y-59190000D01*
X139525428Y-59237619D01*
X139906380Y-60094761D02*
X140049238Y-60142380D01*
X140287333Y-60142380D01*
X140382571Y-60094761D01*
X140430190Y-60047142D01*
X140477809Y-59951904D01*
X140477809Y-59856666D01*
X140430190Y-59761428D01*
X140382571Y-59713809D01*
X140287333Y-59666190D01*
X140096857Y-59618571D01*
X140001619Y-59570952D01*
X139954000Y-59523333D01*
X139906380Y-59428095D01*
X139906380Y-59332857D01*
X139954000Y-59237619D01*
X140001619Y-59190000D01*
X140096857Y-59142380D01*
X140334952Y-59142380D01*
X140477809Y-59190000D01*
X140906380Y-60142380D02*
X140906380Y-59142380D01*
X141287333Y-59142380D01*
X141382571Y-59190000D01*
X141430190Y-59237619D01*
X141477809Y-59332857D01*
X141477809Y-59475714D01*
X141430190Y-59570952D01*
X141382571Y-59618571D01*
X141287333Y-59666190D01*
X140906380Y-59666190D01*
X129317714Y-66238380D02*
X128746285Y-66238380D01*
X129032000Y-66238380D02*
X129032000Y-65238380D01*
X128936761Y-65381238D01*
X128841523Y-65476476D01*
X128746285Y-65524095D01*
X124714000Y-105156000D02*
X127762000Y-105156000D01*
X124714000Y-69342000D02*
X124714000Y-105156000D01*
X122174000Y-69342000D02*
X124714000Y-69342000D01*
X122174000Y-110490000D02*
X122174000Y-69342000D01*
X127762000Y-110490000D02*
X122174000Y-110490000D01*
X127762000Y-110490000D02*
X127762000Y-105156000D01*
X135930285Y-115197380D02*
X135930285Y-114197380D01*
X136501714Y-115197380D02*
X136073142Y-114625952D01*
X136501714Y-114197380D02*
X135930285Y-114768809D01*
X136930285Y-115197380D02*
X136930285Y-114197380D01*
X136930285Y-114673571D02*
X137501714Y-114673571D01*
X137501714Y-115197380D02*
X137501714Y-114197380D01*
X138311238Y-114673571D02*
X137977904Y-114673571D01*
X137977904Y-115197380D02*
X137977904Y-114197380D01*
X138454095Y-114197380D01*
X139549333Y-114292619D02*
X139596952Y-114245000D01*
X139692190Y-114197380D01*
X139930285Y-114197380D01*
X140025523Y-114245000D01*
X140073142Y-114292619D01*
X140120761Y-114387857D01*
X140120761Y-114483095D01*
X140073142Y-114625952D01*
X139501714Y-115197380D01*
X140120761Y-115197380D01*
X140739809Y-114197380D02*
X140835047Y-114197380D01*
X140930285Y-114245000D01*
X140977904Y-114292619D01*
X141025523Y-114387857D01*
X141073142Y-114578333D01*
X141073142Y-114816428D01*
X141025523Y-115006904D01*
X140977904Y-115102142D01*
X140930285Y-115149761D01*
X140835047Y-115197380D01*
X140739809Y-115197380D01*
X140644571Y-115149761D01*
X140596952Y-115102142D01*
X140549333Y-115006904D01*
X140501714Y-114816428D01*
X140501714Y-114578333D01*
X140549333Y-114387857D01*
X140596952Y-114292619D01*
X140644571Y-114245000D01*
X140739809Y-114197380D01*
X141454095Y-114292619D02*
X141501714Y-114245000D01*
X141596952Y-114197380D01*
X141835047Y-114197380D01*
X141930285Y-114245000D01*
X141977904Y-114292619D01*
X142025523Y-114387857D01*
X142025523Y-114483095D01*
X141977904Y-114625952D01*
X141406476Y-115197380D01*
X142025523Y-115197380D01*
X142644571Y-114197380D02*
X142739809Y-114197380D01*
X142835047Y-114245000D01*
X142882666Y-114292619D01*
X142930285Y-114387857D01*
X142977904Y-114578333D01*
X142977904Y-114816428D01*
X142930285Y-115006904D01*
X142882666Y-115102142D01*
X142835047Y-115149761D01*
X142739809Y-115197380D01*
X142644571Y-115197380D01*
X142549333Y-115149761D01*
X142501714Y-115102142D01*
X142454095Y-115006904D01*
X142406476Y-114816428D01*
X142406476Y-114578333D01*
X142454095Y-114387857D01*
X142501714Y-114292619D01*
X142549333Y-114245000D01*
X142644571Y-114197380D01*
X144025523Y-114197380D02*
X144358857Y-115197380D01*
X144692190Y-114197380D01*
X144930285Y-114197380D02*
X145549333Y-114197380D01*
X145216000Y-114578333D01*
X145358857Y-114578333D01*
X145454095Y-114625952D01*
X145501714Y-114673571D01*
X145549333Y-114768809D01*
X145549333Y-115006904D01*
X145501714Y-115102142D01*
X145454095Y-115149761D01*
X145358857Y-115197380D01*
X145073142Y-115197380D01*
X144977904Y-115149761D01*
X144930285Y-115102142D01*
X136954095Y-116847380D02*
X136954095Y-115847380D01*
X137525523Y-116847380D01*
X137525523Y-115847380D01*
X137954095Y-116561666D02*
X138430285Y-116561666D01*
X137858857Y-116847380D02*
X138192190Y-115847380D01*
X138525523Y-116847380D01*
X138858857Y-116847380D02*
X138858857Y-115847380D01*
X139430285Y-116847380D01*
X139430285Y-115847380D01*
X140096952Y-115847380D02*
X140287428Y-115847380D01*
X140382666Y-115895000D01*
X140477904Y-115990238D01*
X140525523Y-116180714D01*
X140525523Y-116514047D01*
X140477904Y-116704523D01*
X140382666Y-116799761D01*
X140287428Y-116847380D01*
X140096952Y-116847380D01*
X140001714Y-116799761D01*
X139906476Y-116704523D01*
X139858857Y-116514047D01*
X139858857Y-116180714D01*
X139906476Y-115990238D01*
X140001714Y-115895000D01*
X140096952Y-115847380D01*
X141573142Y-115847380D02*
X141906476Y-116847380D01*
X142239809Y-115847380D01*
X142477904Y-115847380D02*
X143096952Y-115847380D01*
X142763619Y-116228333D01*
X142906476Y-116228333D01*
X143001714Y-116275952D01*
X143049333Y-116323571D01*
X143096952Y-116418809D01*
X143096952Y-116656904D01*
X143049333Y-116752142D01*
X143001714Y-116799761D01*
X142906476Y-116847380D01*
X142620761Y-116847380D01*
X142525523Y-116799761D01*
X142477904Y-116752142D01*
X143525523Y-116752142D02*
X143573142Y-116799761D01*
X143525523Y-116847380D01*
X143477904Y-116799761D01*
X143525523Y-116752142D01*
X143525523Y-116847380D01*
X144525523Y-116847380D02*
X143954095Y-116847380D01*
X144239809Y-116847380D02*
X144239809Y-115847380D01*
X144144571Y-115990238D01*
X144049333Y-116085476D01*
X143954095Y-116133095D01*
X139454095Y-109942380D02*
X139454095Y-110751904D01*
X139501714Y-110847142D01*
X139549333Y-110894761D01*
X139644571Y-110942380D01*
X139835047Y-110942380D01*
X139930285Y-110894761D01*
X139977904Y-110847142D01*
X140025523Y-110751904D01*
X140025523Y-109942380D01*
X140454095Y-110894761D02*
X140596952Y-110942380D01*
X140835047Y-110942380D01*
X140930285Y-110894761D01*
X140977904Y-110847142D01*
X141025523Y-110751904D01*
X141025523Y-110656666D01*
X140977904Y-110561428D01*
X140930285Y-110513809D01*
X140835047Y-110466190D01*
X140644571Y-110418571D01*
X140549333Y-110370952D01*
X140501714Y-110323333D01*
X140454095Y-110228095D01*
X140454095Y-110132857D01*
X140501714Y-110037619D01*
X140549333Y-109990000D01*
X140644571Y-109942380D01*
X140882666Y-109942380D01*
X141025523Y-109990000D01*
X141787428Y-110418571D02*
X141930285Y-110466190D01*
X141977904Y-110513809D01*
X142025523Y-110609047D01*
X142025523Y-110751904D01*
X141977904Y-110847142D01*
X141930285Y-110894761D01*
X141835047Y-110942380D01*
X141454095Y-110942380D01*
X141454095Y-109942380D01*
X141787428Y-109942380D01*
X141882666Y-109990000D01*
X141930285Y-110037619D01*
X141977904Y-110132857D01*
X141977904Y-110228095D01*
X141930285Y-110323333D01*
X141882666Y-110370952D01*
X141787428Y-110418571D01*
X141454095Y-110418571D01*
X157908666Y-68032380D02*
X158575333Y-69032380D01*
X158575333Y-68032380D02*
X157908666Y-69032380D01*
X157908666Y-70572380D02*
X158575333Y-71572380D01*
X158575333Y-70572380D02*
X157908666Y-71572380D01*
X157908666Y-73112380D02*
X158575333Y-74112380D01*
X158575333Y-73112380D02*
X157908666Y-74112380D01*
X157908666Y-75398380D02*
X158575333Y-76398380D01*
X158575333Y-75398380D02*
X157908666Y-76398380D01*
X158313619Y-79192380D02*
X157980285Y-78716190D01*
X157742190Y-79192380D02*
X157742190Y-78192380D01*
X158123142Y-78192380D01*
X158218380Y-78240000D01*
X158266000Y-78287619D01*
X158313619Y-78382857D01*
X158313619Y-78525714D01*
X158266000Y-78620952D01*
X158218380Y-78668571D01*
X158123142Y-78716190D01*
X157742190Y-78716190D01*
X158742190Y-78668571D02*
X159075523Y-78668571D01*
X159218380Y-79192380D02*
X158742190Y-79192380D01*
X158742190Y-78192380D01*
X159218380Y-78192380D01*
X159599333Y-79144761D02*
X159742190Y-79192380D01*
X159980285Y-79192380D01*
X160075523Y-79144761D01*
X160123142Y-79097142D01*
X160170761Y-79001904D01*
X160170761Y-78906666D01*
X160123142Y-78811428D01*
X160075523Y-78763809D01*
X159980285Y-78716190D01*
X159789809Y-78668571D01*
X159694571Y-78620952D01*
X159646952Y-78573333D01*
X159599333Y-78478095D01*
X159599333Y-78382857D01*
X159646952Y-78287619D01*
X159694571Y-78240000D01*
X159789809Y-78192380D01*
X160027904Y-78192380D01*
X160170761Y-78240000D01*
X160599333Y-78668571D02*
X160932666Y-78668571D01*
X161075523Y-79192380D02*
X160599333Y-79192380D01*
X160599333Y-78192380D01*
X161075523Y-78192380D01*
X161361238Y-78192380D02*
X161932666Y-78192380D01*
X161646952Y-79192380D02*
X161646952Y-78192380D01*
X158432571Y-81732380D02*
X158099238Y-81256190D01*
X157861142Y-81732380D02*
X157861142Y-80732380D01*
X158242095Y-80732380D01*
X158337333Y-80780000D01*
X158384952Y-80827619D01*
X158432571Y-80922857D01*
X158432571Y-81065714D01*
X158384952Y-81160952D01*
X158337333Y-81208571D01*
X158242095Y-81256190D01*
X157861142Y-81256190D01*
X158861142Y-81208571D02*
X159194476Y-81208571D01*
X159337333Y-81732380D02*
X158861142Y-81732380D01*
X158861142Y-80732380D01*
X159337333Y-80732380D01*
X160099238Y-81208571D02*
X159765904Y-81208571D01*
X159765904Y-81732380D02*
X159765904Y-80732380D01*
X160242095Y-80732380D01*
X158035714Y-83986666D02*
X158511904Y-83986666D01*
X157940476Y-84272380D02*
X158273809Y-83272380D01*
X158607142Y-84272380D01*
X158845238Y-83272380D02*
X159511904Y-83272380D01*
X159083333Y-84272380D01*
X158035714Y-86526666D02*
X158511904Y-86526666D01*
X157940476Y-86812380D02*
X158273809Y-85812380D01*
X158607142Y-86812380D01*
X159369047Y-85812380D02*
X159178571Y-85812380D01*
X159083333Y-85860000D01*
X159035714Y-85907619D01*
X158940476Y-86050476D01*
X158892857Y-86240952D01*
X158892857Y-86621904D01*
X158940476Y-86717142D01*
X158988095Y-86764761D01*
X159083333Y-86812380D01*
X159273809Y-86812380D01*
X159369047Y-86764761D01*
X159416666Y-86717142D01*
X159464285Y-86621904D01*
X159464285Y-86383809D01*
X159416666Y-86288571D01*
X159369047Y-86240952D01*
X159273809Y-86193333D01*
X159083333Y-86193333D01*
X158988095Y-86240952D01*
X158940476Y-86288571D01*
X158892857Y-86383809D01*
X158035714Y-89066666D02*
X158511904Y-89066666D01*
X157940476Y-89352380D02*
X158273809Y-88352380D01*
X158607142Y-89352380D01*
X159416666Y-88352380D02*
X158940476Y-88352380D01*
X158892857Y-88828571D01*
X158940476Y-88780952D01*
X159035714Y-88733333D01*
X159273809Y-88733333D01*
X159369047Y-88780952D01*
X159416666Y-88828571D01*
X159464285Y-88923809D01*
X159464285Y-89161904D01*
X159416666Y-89257142D01*
X159369047Y-89304761D01*
X159273809Y-89352380D01*
X159035714Y-89352380D01*
X158940476Y-89304761D01*
X158892857Y-89257142D01*
X158035714Y-91606666D02*
X158511904Y-91606666D01*
X157940476Y-91892380D02*
X158273809Y-90892380D01*
X158607142Y-91892380D01*
X159369047Y-91225714D02*
X159369047Y-91892380D01*
X159130952Y-90844761D02*
X158892857Y-91559047D01*
X159511904Y-91559047D01*
X158035714Y-94146666D02*
X158511904Y-94146666D01*
X157940476Y-94432380D02*
X158273809Y-93432380D01*
X158607142Y-94432380D01*
X158845238Y-93432380D02*
X159464285Y-93432380D01*
X159130952Y-93813333D01*
X159273809Y-93813333D01*
X159369047Y-93860952D01*
X159416666Y-93908571D01*
X159464285Y-94003809D01*
X159464285Y-94241904D01*
X159416666Y-94337142D01*
X159369047Y-94384761D01*
X159273809Y-94432380D01*
X158988095Y-94432380D01*
X158892857Y-94384761D01*
X158845238Y-94337142D01*
X158035714Y-96686666D02*
X158511904Y-96686666D01*
X157940476Y-96972380D02*
X158273809Y-95972380D01*
X158607142Y-96972380D01*
X158892857Y-96067619D02*
X158940476Y-96020000D01*
X159035714Y-95972380D01*
X159273809Y-95972380D01*
X159369047Y-96020000D01*
X159416666Y-96067619D01*
X159464285Y-96162857D01*
X159464285Y-96258095D01*
X159416666Y-96400952D01*
X158845238Y-96972380D01*
X159464285Y-96972380D01*
X158035714Y-99226666D02*
X158511904Y-99226666D01*
X157940476Y-99512380D02*
X158273809Y-98512380D01*
X158607142Y-99512380D01*
X159464285Y-99512380D02*
X158892857Y-99512380D01*
X159178571Y-99512380D02*
X159178571Y-98512380D01*
X159083333Y-98655238D01*
X158988095Y-98750476D01*
X158892857Y-98798095D01*
X158035714Y-101512666D02*
X158511904Y-101512666D01*
X157940476Y-101798380D02*
X158273809Y-100798380D01*
X158607142Y-101798380D01*
X159130952Y-100798380D02*
X159226190Y-100798380D01*
X159321428Y-100846000D01*
X159369047Y-100893619D01*
X159416666Y-100988857D01*
X159464285Y-101179333D01*
X159464285Y-101417428D01*
X159416666Y-101607904D01*
X159369047Y-101703142D01*
X159321428Y-101750761D01*
X159226190Y-101798380D01*
X159130952Y-101798380D01*
X159035714Y-101750761D01*
X158988095Y-101703142D01*
X158940476Y-101607904D01*
X158892857Y-101417428D01*
X158892857Y-101179333D01*
X158940476Y-100988857D01*
X158988095Y-100893619D01*
X159035714Y-100846000D01*
X159130952Y-100798380D01*
X157527809Y-65238380D02*
X158146857Y-65238380D01*
X157813523Y-65619333D01*
X157956380Y-65619333D01*
X158051619Y-65666952D01*
X158099238Y-65714571D01*
X158146857Y-65809809D01*
X158146857Y-66047904D01*
X158099238Y-66143142D01*
X158051619Y-66190761D01*
X157956380Y-66238380D01*
X157670666Y-66238380D01*
X157575428Y-66190761D01*
X157527809Y-66143142D01*
X158623047Y-66190761D02*
X158623047Y-66238380D01*
X158575428Y-66333619D01*
X158527809Y-66381238D01*
X158956380Y-65238380D02*
X159575428Y-65238380D01*
X159242095Y-65619333D01*
X159384952Y-65619333D01*
X159480190Y-65666952D01*
X159527809Y-65714571D01*
X159575428Y-65809809D01*
X159575428Y-66047904D01*
X159527809Y-66143142D01*
X159480190Y-66190761D01*
X159384952Y-66238380D01*
X159099238Y-66238380D01*
X159004000Y-66190761D01*
X158956380Y-66143142D01*
X159861142Y-65238380D02*
X160194476Y-66238380D01*
X160527809Y-65238380D01*
X158305523Y-62698380D02*
X157829333Y-62698380D01*
X157781714Y-63174571D01*
X157829333Y-63126952D01*
X157924571Y-63079333D01*
X158162666Y-63079333D01*
X158257904Y-63126952D01*
X158305523Y-63174571D01*
X158353142Y-63269809D01*
X158353142Y-63507904D01*
X158305523Y-63603142D01*
X158257904Y-63650761D01*
X158162666Y-63698380D01*
X157924571Y-63698380D01*
X157829333Y-63650761D01*
X157781714Y-63603142D01*
X158638857Y-62698380D02*
X158972190Y-63698380D01*
X159305523Y-62698380D01*
D11*
X121666095Y-44592857D02*
X123189904Y-44592857D01*
X122428000Y-45354761D02*
X122428000Y-43830952D01*
D10*
X116133714Y-104338380D02*
X116133714Y-103338380D01*
X116371809Y-103338380D01*
X116514666Y-103386000D01*
X116609904Y-103481238D01*
X116657523Y-103576476D01*
X116705142Y-103766952D01*
X116705142Y-103909809D01*
X116657523Y-104100285D01*
X116609904Y-104195523D01*
X116514666Y-104290761D01*
X116371809Y-104338380D01*
X116133714Y-104338380D01*
X117657523Y-104338380D02*
X117086095Y-104338380D01*
X117371809Y-104338380D02*
X117371809Y-103338380D01*
X117276571Y-103481238D01*
X117181333Y-103576476D01*
X117086095Y-103624095D01*
X117990857Y-103338380D02*
X118609904Y-103338380D01*
X118276571Y-103719333D01*
X118419428Y-103719333D01*
X118514666Y-103766952D01*
X118562285Y-103814571D01*
X118609904Y-103909809D01*
X118609904Y-104147904D01*
X118562285Y-104243142D01*
X118514666Y-104290761D01*
X118419428Y-104338380D01*
X118133714Y-104338380D01*
X118038476Y-104290761D01*
X117990857Y-104243142D01*
X116133714Y-101798380D02*
X116133714Y-100798380D01*
X116371809Y-100798380D01*
X116514666Y-100846000D01*
X116609904Y-100941238D01*
X116657523Y-101036476D01*
X116705142Y-101226952D01*
X116705142Y-101369809D01*
X116657523Y-101560285D01*
X116609904Y-101655523D01*
X116514666Y-101750761D01*
X116371809Y-101798380D01*
X116133714Y-101798380D01*
X117657523Y-101798380D02*
X117086095Y-101798380D01*
X117371809Y-101798380D02*
X117371809Y-100798380D01*
X117276571Y-100941238D01*
X117181333Y-101036476D01*
X117086095Y-101084095D01*
X118038476Y-100893619D02*
X118086095Y-100846000D01*
X118181333Y-100798380D01*
X118419428Y-100798380D01*
X118514666Y-100846000D01*
X118562285Y-100893619D01*
X118609904Y-100988857D01*
X118609904Y-101084095D01*
X118562285Y-101226952D01*
X117990857Y-101798380D01*
X118609904Y-101798380D01*
X116133714Y-99258380D02*
X116133714Y-98258380D01*
X116371809Y-98258380D01*
X116514666Y-98306000D01*
X116609904Y-98401238D01*
X116657523Y-98496476D01*
X116705142Y-98686952D01*
X116705142Y-98829809D01*
X116657523Y-99020285D01*
X116609904Y-99115523D01*
X116514666Y-99210761D01*
X116371809Y-99258380D01*
X116133714Y-99258380D01*
X117657523Y-99258380D02*
X117086095Y-99258380D01*
X117371809Y-99258380D02*
X117371809Y-98258380D01*
X117276571Y-98401238D01*
X117181333Y-98496476D01*
X117086095Y-98544095D01*
X118609904Y-99258380D02*
X118038476Y-99258380D01*
X118324190Y-99258380D02*
X118324190Y-98258380D01*
X118228952Y-98401238D01*
X118133714Y-98496476D01*
X118038476Y-98544095D01*
X116133714Y-96718380D02*
X116133714Y-95718380D01*
X116371809Y-95718380D01*
X116514666Y-95766000D01*
X116609904Y-95861238D01*
X116657523Y-95956476D01*
X116705142Y-96146952D01*
X116705142Y-96289809D01*
X116657523Y-96480285D01*
X116609904Y-96575523D01*
X116514666Y-96670761D01*
X116371809Y-96718380D01*
X116133714Y-96718380D01*
X117657523Y-96718380D02*
X117086095Y-96718380D01*
X117371809Y-96718380D02*
X117371809Y-95718380D01*
X117276571Y-95861238D01*
X117181333Y-95956476D01*
X117086095Y-96004095D01*
X118276571Y-95718380D02*
X118371809Y-95718380D01*
X118467047Y-95766000D01*
X118514666Y-95813619D01*
X118562285Y-95908857D01*
X118609904Y-96099333D01*
X118609904Y-96337428D01*
X118562285Y-96527904D01*
X118514666Y-96623142D01*
X118467047Y-96670761D01*
X118371809Y-96718380D01*
X118276571Y-96718380D01*
X118181333Y-96670761D01*
X118133714Y-96623142D01*
X118086095Y-96527904D01*
X118038476Y-96337428D01*
X118038476Y-96099333D01*
X118086095Y-95908857D01*
X118133714Y-95813619D01*
X118181333Y-95766000D01*
X118276571Y-95718380D01*
X116101904Y-94178380D02*
X116101904Y-93178380D01*
X116340000Y-93178380D01*
X116482857Y-93226000D01*
X116578095Y-93321238D01*
X116625714Y-93416476D01*
X116673333Y-93606952D01*
X116673333Y-93749809D01*
X116625714Y-93940285D01*
X116578095Y-94035523D01*
X116482857Y-94130761D01*
X116340000Y-94178380D01*
X116101904Y-94178380D01*
X117149523Y-94178380D02*
X117340000Y-94178380D01*
X117435238Y-94130761D01*
X117482857Y-94083142D01*
X117578095Y-93940285D01*
X117625714Y-93749809D01*
X117625714Y-93368857D01*
X117578095Y-93273619D01*
X117530476Y-93226000D01*
X117435238Y-93178380D01*
X117244761Y-93178380D01*
X117149523Y-93226000D01*
X117101904Y-93273619D01*
X117054285Y-93368857D01*
X117054285Y-93606952D01*
X117101904Y-93702190D01*
X117149523Y-93749809D01*
X117244761Y-93797428D01*
X117435238Y-93797428D01*
X117530476Y-93749809D01*
X117578095Y-93702190D01*
X117625714Y-93606952D01*
X116101904Y-91638380D02*
X116101904Y-90638380D01*
X116340000Y-90638380D01*
X116482857Y-90686000D01*
X116578095Y-90781238D01*
X116625714Y-90876476D01*
X116673333Y-91066952D01*
X116673333Y-91209809D01*
X116625714Y-91400285D01*
X116578095Y-91495523D01*
X116482857Y-91590761D01*
X116340000Y-91638380D01*
X116101904Y-91638380D01*
X117244761Y-91066952D02*
X117149523Y-91019333D01*
X117101904Y-90971714D01*
X117054285Y-90876476D01*
X117054285Y-90828857D01*
X117101904Y-90733619D01*
X117149523Y-90686000D01*
X117244761Y-90638380D01*
X117435238Y-90638380D01*
X117530476Y-90686000D01*
X117578095Y-90733619D01*
X117625714Y-90828857D01*
X117625714Y-90876476D01*
X117578095Y-90971714D01*
X117530476Y-91019333D01*
X117435238Y-91066952D01*
X117244761Y-91066952D01*
X117149523Y-91114571D01*
X117101904Y-91162190D01*
X117054285Y-91257428D01*
X117054285Y-91447904D01*
X117101904Y-91543142D01*
X117149523Y-91590761D01*
X117244761Y-91638380D01*
X117435238Y-91638380D01*
X117530476Y-91590761D01*
X117578095Y-91543142D01*
X117625714Y-91447904D01*
X117625714Y-91257428D01*
X117578095Y-91162190D01*
X117530476Y-91114571D01*
X117435238Y-91066952D01*
X116101904Y-89098380D02*
X116101904Y-88098380D01*
X116340000Y-88098380D01*
X116482857Y-88146000D01*
X116578095Y-88241238D01*
X116625714Y-88336476D01*
X116673333Y-88526952D01*
X116673333Y-88669809D01*
X116625714Y-88860285D01*
X116578095Y-88955523D01*
X116482857Y-89050761D01*
X116340000Y-89098380D01*
X116101904Y-89098380D01*
X117006666Y-88098380D02*
X117673333Y-88098380D01*
X117244761Y-89098380D01*
X116101904Y-86558380D02*
X116101904Y-85558380D01*
X116340000Y-85558380D01*
X116482857Y-85606000D01*
X116578095Y-85701238D01*
X116625714Y-85796476D01*
X116673333Y-85986952D01*
X116673333Y-86129809D01*
X116625714Y-86320285D01*
X116578095Y-86415523D01*
X116482857Y-86510761D01*
X116340000Y-86558380D01*
X116101904Y-86558380D01*
X117530476Y-85558380D02*
X117340000Y-85558380D01*
X117244761Y-85606000D01*
X117197142Y-85653619D01*
X117101904Y-85796476D01*
X117054285Y-85986952D01*
X117054285Y-86367904D01*
X117101904Y-86463142D01*
X117149523Y-86510761D01*
X117244761Y-86558380D01*
X117435238Y-86558380D01*
X117530476Y-86510761D01*
X117578095Y-86463142D01*
X117625714Y-86367904D01*
X117625714Y-86129809D01*
X117578095Y-86034571D01*
X117530476Y-85986952D01*
X117435238Y-85939333D01*
X117244761Y-85939333D01*
X117149523Y-85986952D01*
X117101904Y-86034571D01*
X117054285Y-86129809D01*
X116101904Y-84018380D02*
X116101904Y-83018380D01*
X116340000Y-83018380D01*
X116482857Y-83066000D01*
X116578095Y-83161238D01*
X116625714Y-83256476D01*
X116673333Y-83446952D01*
X116673333Y-83589809D01*
X116625714Y-83780285D01*
X116578095Y-83875523D01*
X116482857Y-83970761D01*
X116340000Y-84018380D01*
X116101904Y-84018380D01*
X117578095Y-83018380D02*
X117101904Y-83018380D01*
X117054285Y-83494571D01*
X117101904Y-83446952D01*
X117197142Y-83399333D01*
X117435238Y-83399333D01*
X117530476Y-83446952D01*
X117578095Y-83494571D01*
X117625714Y-83589809D01*
X117625714Y-83827904D01*
X117578095Y-83923142D01*
X117530476Y-83970761D01*
X117435238Y-84018380D01*
X117197142Y-84018380D01*
X117101904Y-83970761D01*
X117054285Y-83923142D01*
X116101904Y-81478380D02*
X116101904Y-80478380D01*
X116340000Y-80478380D01*
X116482857Y-80526000D01*
X116578095Y-80621238D01*
X116625714Y-80716476D01*
X116673333Y-80906952D01*
X116673333Y-81049809D01*
X116625714Y-81240285D01*
X116578095Y-81335523D01*
X116482857Y-81430761D01*
X116340000Y-81478380D01*
X116101904Y-81478380D01*
X117530476Y-80811714D02*
X117530476Y-81478380D01*
X117292380Y-80430761D02*
X117054285Y-81145047D01*
X117673333Y-81145047D01*
X116101904Y-78938380D02*
X116101904Y-77938380D01*
X116340000Y-77938380D01*
X116482857Y-77986000D01*
X116578095Y-78081238D01*
X116625714Y-78176476D01*
X116673333Y-78366952D01*
X116673333Y-78509809D01*
X116625714Y-78700285D01*
X116578095Y-78795523D01*
X116482857Y-78890761D01*
X116340000Y-78938380D01*
X116101904Y-78938380D01*
X117006666Y-77938380D02*
X117625714Y-77938380D01*
X117292380Y-78319333D01*
X117435238Y-78319333D01*
X117530476Y-78366952D01*
X117578095Y-78414571D01*
X117625714Y-78509809D01*
X117625714Y-78747904D01*
X117578095Y-78843142D01*
X117530476Y-78890761D01*
X117435238Y-78938380D01*
X117149523Y-78938380D01*
X117054285Y-78890761D01*
X117006666Y-78843142D01*
X116101904Y-76398380D02*
X116101904Y-75398380D01*
X116340000Y-75398380D01*
X116482857Y-75446000D01*
X116578095Y-75541238D01*
X116625714Y-75636476D01*
X116673333Y-75826952D01*
X116673333Y-75969809D01*
X116625714Y-76160285D01*
X116578095Y-76255523D01*
X116482857Y-76350761D01*
X116340000Y-76398380D01*
X116101904Y-76398380D01*
X117054285Y-75493619D02*
X117101904Y-75446000D01*
X117197142Y-75398380D01*
X117435238Y-75398380D01*
X117530476Y-75446000D01*
X117578095Y-75493619D01*
X117625714Y-75588857D01*
X117625714Y-75684095D01*
X117578095Y-75826952D01*
X117006666Y-76398380D01*
X117625714Y-76398380D01*
X116101904Y-71318380D02*
X116101904Y-70318380D01*
X116340000Y-70318380D01*
X116482857Y-70366000D01*
X116578095Y-70461238D01*
X116625714Y-70556476D01*
X116673333Y-70746952D01*
X116673333Y-70889809D01*
X116625714Y-71080285D01*
X116578095Y-71175523D01*
X116482857Y-71270761D01*
X116340000Y-71318380D01*
X116101904Y-71318380D01*
X117292380Y-70318380D02*
X117387619Y-70318380D01*
X117482857Y-70366000D01*
X117530476Y-70413619D01*
X117578095Y-70508857D01*
X117625714Y-70699333D01*
X117625714Y-70937428D01*
X117578095Y-71127904D01*
X117530476Y-71223142D01*
X117482857Y-71270761D01*
X117387619Y-71318380D01*
X117292380Y-71318380D01*
X117197142Y-71270761D01*
X117149523Y-71223142D01*
X117101904Y-71127904D01*
X117054285Y-70937428D01*
X117054285Y-70699333D01*
X117101904Y-70508857D01*
X117149523Y-70413619D01*
X117197142Y-70366000D01*
X117292380Y-70318380D01*
X116101904Y-73858380D02*
X116101904Y-72858380D01*
X116340000Y-72858380D01*
X116482857Y-72906000D01*
X116578095Y-73001238D01*
X116625714Y-73096476D01*
X116673333Y-73286952D01*
X116673333Y-73429809D01*
X116625714Y-73620285D01*
X116578095Y-73715523D01*
X116482857Y-73810761D01*
X116340000Y-73858380D01*
X116101904Y-73858380D01*
X117625714Y-73858380D02*
X117054285Y-73858380D01*
X117340000Y-73858380D02*
X117340000Y-72858380D01*
X117244761Y-73001238D01*
X117149523Y-73096476D01*
X117054285Y-73144095D01*
X120713809Y-121626380D02*
X120713809Y-122435904D01*
X120761428Y-122531142D01*
X120809047Y-122578761D01*
X120904285Y-122626380D01*
X121094761Y-122626380D01*
X121190000Y-122578761D01*
X121237619Y-122531142D01*
X121285238Y-122435904D01*
X121285238Y-121626380D01*
X122142380Y-122578761D02*
X122047142Y-122626380D01*
X121856666Y-122626380D01*
X121761428Y-122578761D01*
X121713809Y-122483523D01*
X121713809Y-122102571D01*
X121761428Y-122007333D01*
X121856666Y-121959714D01*
X122047142Y-121959714D01*
X122142380Y-122007333D01*
X122190000Y-122102571D01*
X122190000Y-122197809D01*
X121713809Y-122293047D01*
X123332857Y-121721619D02*
X123380476Y-121674000D01*
X123475714Y-121626380D01*
X123713809Y-121626380D01*
X123809047Y-121674000D01*
X123856666Y-121721619D01*
X123904285Y-121816857D01*
X123904285Y-121912095D01*
X123856666Y-122054952D01*
X123285238Y-122626380D01*
X123904285Y-122626380D01*
X124809047Y-121626380D02*
X124332857Y-121626380D01*
X124285238Y-122102571D01*
X124332857Y-122054952D01*
X124428095Y-122007333D01*
X124666190Y-122007333D01*
X124761428Y-122054952D01*
X124809047Y-122102571D01*
X124856666Y-122197809D01*
X124856666Y-122435904D01*
X124809047Y-122531142D01*
X124761428Y-122578761D01*
X124666190Y-122626380D01*
X124428095Y-122626380D01*
X124332857Y-122578761D01*
X124285238Y-122531142D01*
X125142380Y-121626380D02*
X125475714Y-122626380D01*
X125809047Y-121626380D01*
X123769428Y-113553714D02*
X123769428Y-112791809D01*
X124150380Y-113172761D02*
X123388476Y-113172761D01*
X123150380Y-111839428D02*
X123150380Y-112315619D01*
X123626571Y-112363238D01*
X123578952Y-112315619D01*
X123531333Y-112220380D01*
X123531333Y-111982285D01*
X123578952Y-111887047D01*
X123626571Y-111839428D01*
X123721809Y-111791809D01*
X123959904Y-111791809D01*
X124055142Y-111839428D01*
X124102761Y-111887047D01*
X124150380Y-111982285D01*
X124150380Y-112220380D01*
X124102761Y-112315619D01*
X124055142Y-112363238D01*
X123150380Y-111506095D02*
X124150380Y-111172761D01*
X123150380Y-110839428D01*
X120658000Y-113029904D02*
X120610380Y-113125142D01*
X120610380Y-113268000D01*
X120658000Y-113410857D01*
X120753238Y-113506095D01*
X120848476Y-113553714D01*
X121038952Y-113601333D01*
X121181809Y-113601333D01*
X121372285Y-113553714D01*
X121467523Y-113506095D01*
X121562761Y-113410857D01*
X121610380Y-113268000D01*
X121610380Y-113172761D01*
X121562761Y-113029904D01*
X121515142Y-112982285D01*
X121181809Y-112982285D01*
X121181809Y-113172761D01*
X121610380Y-112553714D02*
X120610380Y-112553714D01*
X121610380Y-111982285D01*
X120610380Y-111982285D01*
X121610380Y-111506095D02*
X120610380Y-111506095D01*
X120610380Y-111268000D01*
X120658000Y-111125142D01*
X120753238Y-111029904D01*
X120848476Y-110982285D01*
X121038952Y-110934666D01*
X121181809Y-110934666D01*
X121372285Y-110982285D01*
X121467523Y-111029904D01*
X121562761Y-111125142D01*
X121610380Y-111268000D01*
X121610380Y-111506095D01*
D12*
%TO.C,A1*%
X149513001Y-61867001D02*
X131473001Y-61867001D01*
X149513001Y-105307001D02*
X149513001Y-61867001D01*
X131473001Y-105307001D02*
X149513001Y-105307001D01*
X134143001Y-102637001D02*
X131473001Y-102637001D01*
X134143001Y-67077001D02*
X134143001Y-102637001D01*
X134143001Y-67077001D02*
X131473001Y-67077001D01*
X146843001Y-102637001D02*
X149513001Y-102637001D01*
X146843001Y-64537001D02*
X146843001Y-102637001D01*
X146843001Y-64537001D02*
X149513001Y-64537001D01*
X131473001Y-61867001D02*
X131473001Y-64537001D01*
X131473001Y-67077001D02*
X131473001Y-105307001D01*
X134143001Y-64537001D02*
X131473001Y-64537001D01*
X134143001Y-67077001D02*
X134143001Y-64537001D01*
%TO.C,C1*%
X125803000Y-46288354D02*
X124803000Y-46288354D01*
X125303000Y-45788354D02*
X125303000Y-46788354D01*
X123027000Y-56349000D02*
X121829000Y-56349000D01*
X123290000Y-56309000D02*
X121566000Y-56309000D01*
X123490000Y-56269000D02*
X121366000Y-56269000D01*
X123658000Y-56229000D02*
X121198000Y-56229000D01*
X123806000Y-56189000D02*
X121050000Y-56189000D01*
X123938000Y-56149000D02*
X120918000Y-56149000D01*
X124058000Y-56109000D02*
X120798000Y-56109000D01*
X124170000Y-56069000D02*
X120686000Y-56069000D01*
X124274000Y-56029000D02*
X120582000Y-56029000D01*
X124372000Y-55989000D02*
X120484000Y-55989000D01*
X124465000Y-55949000D02*
X120391000Y-55949000D01*
X124553000Y-55909000D02*
X120303000Y-55909000D01*
X124637000Y-55869000D02*
X120219000Y-55869000D01*
X124717000Y-55829000D02*
X120139000Y-55829000D01*
X124793000Y-55789000D02*
X120063000Y-55789000D01*
X124867000Y-55749000D02*
X119989000Y-55749000D01*
X124938000Y-55709000D02*
X119918000Y-55709000D01*
X125007000Y-55669000D02*
X119849000Y-55669000D01*
X125073000Y-55629000D02*
X119783000Y-55629000D01*
X125137000Y-55589000D02*
X119719000Y-55589000D01*
X125198000Y-55549000D02*
X119658000Y-55549000D01*
X125258000Y-55509000D02*
X119598000Y-55509000D01*
X125317000Y-55469000D02*
X119539000Y-55469000D01*
X125373000Y-55429000D02*
X119483000Y-55429000D01*
X125428000Y-55389000D02*
X119428000Y-55389000D01*
X125482000Y-55349000D02*
X119374000Y-55349000D01*
X125534000Y-55309000D02*
X119322000Y-55309000D01*
X125584000Y-55269000D02*
X119272000Y-55269000D01*
X125634000Y-55229000D02*
X119222000Y-55229000D01*
X125682000Y-55189000D02*
X119174000Y-55189000D01*
X125729000Y-55149000D02*
X119127000Y-55149000D01*
X125775000Y-55109000D02*
X119081000Y-55109000D01*
X125820000Y-55069000D02*
X119036000Y-55069000D01*
X125864000Y-55029000D02*
X118992000Y-55029000D01*
X121187000Y-54989000D02*
X118950000Y-54989000D01*
X125906000Y-54989000D02*
X123669000Y-54989000D01*
X121187000Y-54949000D02*
X118908000Y-54949000D01*
X125948000Y-54949000D02*
X123669000Y-54949000D01*
X121187000Y-54909000D02*
X118867000Y-54909000D01*
X125989000Y-54909000D02*
X123669000Y-54909000D01*
X121187000Y-54869000D02*
X118827000Y-54869000D01*
X126029000Y-54869000D02*
X123669000Y-54869000D01*
X121187000Y-54829000D02*
X118788000Y-54829000D01*
X126068000Y-54829000D02*
X123669000Y-54829000D01*
X121187000Y-54789000D02*
X118749000Y-54789000D01*
X126107000Y-54789000D02*
X123669000Y-54789000D01*
X121187000Y-54749000D02*
X118712000Y-54749000D01*
X126144000Y-54749000D02*
X123669000Y-54749000D01*
X121187000Y-54709000D02*
X118675000Y-54709000D01*
X126181000Y-54709000D02*
X123669000Y-54709000D01*
X121187000Y-54669000D02*
X118639000Y-54669000D01*
X126217000Y-54669000D02*
X123669000Y-54669000D01*
X121187000Y-54629000D02*
X118604000Y-54629000D01*
X126252000Y-54629000D02*
X123669000Y-54629000D01*
X121187000Y-54589000D02*
X118570000Y-54589000D01*
X126286000Y-54589000D02*
X123669000Y-54589000D01*
X121187000Y-54549000D02*
X118536000Y-54549000D01*
X126320000Y-54549000D02*
X123669000Y-54549000D01*
X121187000Y-54509000D02*
X118503000Y-54509000D01*
X126353000Y-54509000D02*
X123669000Y-54509000D01*
X121187000Y-54469000D02*
X118471000Y-54469000D01*
X126385000Y-54469000D02*
X123669000Y-54469000D01*
X121187000Y-54429000D02*
X118439000Y-54429000D01*
X126417000Y-54429000D02*
X123669000Y-54429000D01*
X121187000Y-54389000D02*
X118408000Y-54389000D01*
X126448000Y-54389000D02*
X123669000Y-54389000D01*
X121187000Y-54349000D02*
X118378000Y-54349000D01*
X126478000Y-54349000D02*
X123669000Y-54349000D01*
X121187000Y-54309000D02*
X118348000Y-54309000D01*
X126508000Y-54309000D02*
X123669000Y-54309000D01*
X121187000Y-54269000D02*
X118318000Y-54269000D01*
X126538000Y-54269000D02*
X123669000Y-54269000D01*
X121187000Y-54229000D02*
X118290000Y-54229000D01*
X126566000Y-54229000D02*
X123669000Y-54229000D01*
X121187000Y-54189000D02*
X118262000Y-54189000D01*
X126594000Y-54189000D02*
X123669000Y-54189000D01*
X121187000Y-54149000D02*
X118234000Y-54149000D01*
X126622000Y-54149000D02*
X123669000Y-54149000D01*
X121187000Y-54109000D02*
X118207000Y-54109000D01*
X126649000Y-54109000D02*
X123669000Y-54109000D01*
X121187000Y-54069000D02*
X118181000Y-54069000D01*
X126675000Y-54069000D02*
X123669000Y-54069000D01*
X121187000Y-54029000D02*
X118155000Y-54029000D01*
X126701000Y-54029000D02*
X123669000Y-54029000D01*
X121187000Y-53989000D02*
X118130000Y-53989000D01*
X126726000Y-53989000D02*
X123669000Y-53989000D01*
X121187000Y-53949000D02*
X118105000Y-53949000D01*
X126751000Y-53949000D02*
X123669000Y-53949000D01*
X121187000Y-53909000D02*
X118081000Y-53909000D01*
X126775000Y-53909000D02*
X123669000Y-53909000D01*
X121187000Y-53869000D02*
X118057000Y-53869000D01*
X126799000Y-53869000D02*
X123669000Y-53869000D01*
X121187000Y-53829000D02*
X118033000Y-53829000D01*
X126823000Y-53829000D02*
X123669000Y-53829000D01*
X121187000Y-53789000D02*
X118011000Y-53789000D01*
X126845000Y-53789000D02*
X123669000Y-53789000D01*
X121187000Y-53749000D02*
X117988000Y-53749000D01*
X126868000Y-53749000D02*
X123669000Y-53749000D01*
X121187000Y-53709000D02*
X117966000Y-53709000D01*
X126890000Y-53709000D02*
X123669000Y-53709000D01*
X121187000Y-53669000D02*
X117945000Y-53669000D01*
X126911000Y-53669000D02*
X123669000Y-53669000D01*
X121187000Y-53629000D02*
X117924000Y-53629000D01*
X126932000Y-53629000D02*
X123669000Y-53629000D01*
X121187000Y-53589000D02*
X117903000Y-53589000D01*
X126953000Y-53589000D02*
X123669000Y-53589000D01*
X121187000Y-53549000D02*
X117883000Y-53549000D01*
X126973000Y-53549000D02*
X123669000Y-53549000D01*
X121187000Y-53509000D02*
X117864000Y-53509000D01*
X126992000Y-53509000D02*
X123669000Y-53509000D01*
X121187000Y-53469000D02*
X117844000Y-53469000D01*
X127012000Y-53469000D02*
X123669000Y-53469000D01*
X121187000Y-53429000D02*
X117825000Y-53429000D01*
X127031000Y-53429000D02*
X123669000Y-53429000D01*
X121187000Y-53389000D02*
X117807000Y-53389000D01*
X127049000Y-53389000D02*
X123669000Y-53389000D01*
X121187000Y-53349000D02*
X117789000Y-53349000D01*
X127067000Y-53349000D02*
X123669000Y-53349000D01*
X121187000Y-53309000D02*
X117771000Y-53309000D01*
X127085000Y-53309000D02*
X123669000Y-53309000D01*
X121187000Y-53269000D02*
X117754000Y-53269000D01*
X127102000Y-53269000D02*
X123669000Y-53269000D01*
X121187000Y-53229000D02*
X117738000Y-53229000D01*
X127118000Y-53229000D02*
X123669000Y-53229000D01*
X121187000Y-53189000D02*
X117721000Y-53189000D01*
X127135000Y-53189000D02*
X123669000Y-53189000D01*
X121187000Y-53149000D02*
X117705000Y-53149000D01*
X127151000Y-53149000D02*
X123669000Y-53149000D01*
X121187000Y-53109000D02*
X117690000Y-53109000D01*
X127166000Y-53109000D02*
X123669000Y-53109000D01*
X121187000Y-53069000D02*
X117674000Y-53069000D01*
X127182000Y-53069000D02*
X123669000Y-53069000D01*
X121187000Y-53029000D02*
X117660000Y-53029000D01*
X127196000Y-53029000D02*
X123669000Y-53029000D01*
X121187000Y-52989000D02*
X117645000Y-52989000D01*
X127211000Y-52989000D02*
X123669000Y-52989000D01*
X121187000Y-52949000D02*
X117631000Y-52949000D01*
X127225000Y-52949000D02*
X123669000Y-52949000D01*
X121187000Y-52909000D02*
X117617000Y-52909000D01*
X127239000Y-52909000D02*
X123669000Y-52909000D01*
X121187000Y-52869000D02*
X117604000Y-52869000D01*
X127252000Y-52869000D02*
X123669000Y-52869000D01*
X121187000Y-52829000D02*
X117591000Y-52829000D01*
X127265000Y-52829000D02*
X123669000Y-52829000D01*
X121187000Y-52789000D02*
X117578000Y-52789000D01*
X127278000Y-52789000D02*
X123669000Y-52789000D01*
X121187000Y-52749000D02*
X117566000Y-52749000D01*
X127290000Y-52749000D02*
X123669000Y-52749000D01*
X121187000Y-52709000D02*
X117554000Y-52709000D01*
X127302000Y-52709000D02*
X123669000Y-52709000D01*
X121187000Y-52669000D02*
X117543000Y-52669000D01*
X127313000Y-52669000D02*
X123669000Y-52669000D01*
X121187000Y-52629000D02*
X117531000Y-52629000D01*
X127325000Y-52629000D02*
X123669000Y-52629000D01*
X121187000Y-52589000D02*
X117521000Y-52589000D01*
X127335000Y-52589000D02*
X123669000Y-52589000D01*
X121187000Y-52549000D02*
X117510000Y-52549000D01*
X127346000Y-52549000D02*
X123669000Y-52549000D01*
X127356000Y-52509000D02*
X117500000Y-52509000D01*
X127366000Y-52469000D02*
X117490000Y-52469000D01*
X127375000Y-52429000D02*
X117481000Y-52429000D01*
X127384000Y-52389000D02*
X117472000Y-52389000D01*
X127393000Y-52349000D02*
X117463000Y-52349000D01*
X127402000Y-52309000D02*
X117454000Y-52309000D01*
X127410000Y-52269000D02*
X117446000Y-52269000D01*
X127418000Y-52229000D02*
X117438000Y-52229000D01*
X127425000Y-52189000D02*
X117431000Y-52189000D01*
X127432000Y-52149000D02*
X117424000Y-52149000D01*
X127439000Y-52109000D02*
X117417000Y-52109000D01*
X127446000Y-52069000D02*
X117410000Y-52069000D01*
X127452000Y-52029000D02*
X117404000Y-52029000D01*
X127458000Y-51989000D02*
X117398000Y-51989000D01*
X127463000Y-51948000D02*
X117393000Y-51948000D01*
X127468000Y-51908000D02*
X117388000Y-51908000D01*
X127473000Y-51868000D02*
X117383000Y-51868000D01*
X127478000Y-51828000D02*
X117378000Y-51828000D01*
X127482000Y-51788000D02*
X117374000Y-51788000D01*
X127486000Y-51748000D02*
X117370000Y-51748000D01*
X127490000Y-51708000D02*
X117366000Y-51708000D01*
X127493000Y-51668000D02*
X117363000Y-51668000D01*
X127496000Y-51628000D02*
X117360000Y-51628000D01*
X127498000Y-51588000D02*
X117358000Y-51588000D01*
X127501000Y-51548000D02*
X117355000Y-51548000D01*
X127503000Y-51508000D02*
X117353000Y-51508000D01*
X127505000Y-51468000D02*
X117351000Y-51468000D01*
X127506000Y-51428000D02*
X117350000Y-51428000D01*
X127507000Y-51388000D02*
X117349000Y-51388000D01*
X127508000Y-51348000D02*
X117348000Y-51348000D01*
X127508000Y-51308000D02*
X117348000Y-51308000D01*
X127508000Y-51268000D02*
X117348000Y-51268000D01*
X127548000Y-51268000D02*
G75*
G03*
X127548000Y-51268000I-5120000J0D01*
G01*
%TO.C,S1*%
X152171400Y-121259600D02*
X152171400Y-111302800D01*
X152171400Y-111302800D02*
X156108400Y-111302800D01*
X156108400Y-111302800D02*
X156108400Y-121259600D01*
X156108400Y-121259600D02*
X152171400Y-121285000D01*
%TO.C,7805*%
X150400000Y-48187000D02*
X151910000Y-48187000D01*
X150400000Y-51888000D02*
X151910000Y-51888000D01*
X151910000Y-55158000D02*
X151910000Y-44918000D01*
X150400000Y-44918000D02*
X155041000Y-44918000D01*
X150400000Y-55158000D02*
X155041000Y-55158000D01*
X155041000Y-55158000D02*
X155041000Y-44918000D01*
X150400000Y-55158000D02*
X150400000Y-44918000D01*
%TO.C,A1*%
D10*
X131873714Y-60110666D02*
X132349904Y-60110666D01*
X131778476Y-60396380D02*
X132111809Y-59396380D01*
X132445142Y-60396380D01*
X133302285Y-60396380D02*
X132730857Y-60396380D01*
X133016571Y-60396380D02*
X133016571Y-59396380D01*
X132921333Y-59539238D01*
X132826095Y-59634476D01*
X132730857Y-59682095D01*
%TO.C,C1*%
X129035142Y-51434666D02*
X129082761Y-51482285D01*
X129130380Y-51625142D01*
X129130380Y-51720380D01*
X129082761Y-51863238D01*
X128987523Y-51958476D01*
X128892285Y-52006095D01*
X128701809Y-52053714D01*
X128558952Y-52053714D01*
X128368476Y-52006095D01*
X128273238Y-51958476D01*
X128178000Y-51863238D01*
X128130380Y-51720380D01*
X128130380Y-51625142D01*
X128178000Y-51482285D01*
X128225619Y-51434666D01*
X129130380Y-50482285D02*
X129130380Y-51053714D01*
X129130380Y-50768000D02*
X128130380Y-50768000D01*
X128273238Y-50863238D01*
X128368476Y-50958476D01*
X128416095Y-51053714D01*
%TO.C,S1*%
X150582761Y-117093904D02*
X150630380Y-116951047D01*
X150630380Y-116712952D01*
X150582761Y-116617714D01*
X150535142Y-116570095D01*
X150439904Y-116522476D01*
X150344666Y-116522476D01*
X150249428Y-116570095D01*
X150201809Y-116617714D01*
X150154190Y-116712952D01*
X150106571Y-116903428D01*
X150058952Y-116998666D01*
X150011333Y-117046285D01*
X149916095Y-117093904D01*
X149820857Y-117093904D01*
X149725619Y-117046285D01*
X149678000Y-116998666D01*
X149630380Y-116903428D01*
X149630380Y-116665333D01*
X149678000Y-116522476D01*
X150630380Y-115570095D02*
X150630380Y-116141523D01*
X150630380Y-115855809D02*
X149630380Y-115855809D01*
X149773238Y-115951047D01*
X149868476Y-116046285D01*
X149916095Y-116141523D01*
%TO.C,7805*%
X157440380Y-51799904D02*
X157440380Y-51133238D01*
X158440380Y-51561809D01*
X157868952Y-50609428D02*
X157821333Y-50704666D01*
X157773714Y-50752285D01*
X157678476Y-50799904D01*
X157630857Y-50799904D01*
X157535619Y-50752285D01*
X157488000Y-50704666D01*
X157440380Y-50609428D01*
X157440380Y-50418952D01*
X157488000Y-50323714D01*
X157535619Y-50276095D01*
X157630857Y-50228476D01*
X157678476Y-50228476D01*
X157773714Y-50276095D01*
X157821333Y-50323714D01*
X157868952Y-50418952D01*
X157868952Y-50609428D01*
X157916571Y-50704666D01*
X157964190Y-50752285D01*
X158059428Y-50799904D01*
X158249904Y-50799904D01*
X158345142Y-50752285D01*
X158392761Y-50704666D01*
X158440380Y-50609428D01*
X158440380Y-50418952D01*
X158392761Y-50323714D01*
X158345142Y-50276095D01*
X158249904Y-50228476D01*
X158059428Y-50228476D01*
X157964190Y-50276095D01*
X157916571Y-50323714D01*
X157868952Y-50418952D01*
X157440380Y-49609428D02*
X157440380Y-49514190D01*
X157488000Y-49418952D01*
X157535619Y-49371333D01*
X157630857Y-49323714D01*
X157821333Y-49276095D01*
X158059428Y-49276095D01*
X158249904Y-49323714D01*
X158345142Y-49371333D01*
X158392761Y-49418952D01*
X158440380Y-49514190D01*
X158440380Y-49609428D01*
X158392761Y-49704666D01*
X158345142Y-49752285D01*
X158249904Y-49799904D01*
X158059428Y-49847523D01*
X157821333Y-49847523D01*
X157630857Y-49799904D01*
X157535619Y-49752285D01*
X157488000Y-49704666D01*
X157440380Y-49609428D01*
X157440380Y-48371333D02*
X157440380Y-48847523D01*
X157916571Y-48895142D01*
X157868952Y-48847523D01*
X157821333Y-48752285D01*
X157821333Y-48514190D01*
X157868952Y-48418952D01*
X157916571Y-48371333D01*
X158011809Y-48323714D01*
X158249904Y-48323714D01*
X158345142Y-48371333D01*
X158392761Y-48418952D01*
X158440380Y-48514190D01*
X158440380Y-48752285D01*
X158392761Y-48847523D01*
X158345142Y-48895142D01*
%TD*%
M02*
