<?xml version="1.0" encoding="UTF-8" standalone="no"?>
<!-- Created with Inkscape (http://www.inkscape.org/) -->

<svg
   xmlns:dc="http://purl.org/dc/elements/1.1/"
   xmlns:cc="http://creativecommons.org/ns#"
   xmlns:rdf="http://www.w3.org/1999/02/22-rdf-syntax-ns#"
   xmlns:svg="http://www.w3.org/2000/svg"
   xmlns="http://www.w3.org/2000/svg"
   xmlns:sodipodi="http://sodipodi.sourceforge.net/DTD/sodipodi-0.dtd"
   xmlns:inkscape="http://www.inkscape.org/namespaces/inkscape"
   width="145.0mm"
   height="145.0mm"
   viewBox="0 0 145.0 145.0"
   version="1.1"
   id="svg1055"
   inkscape:version="0.92.2 (5c3e80d, 2017-08-06)"
   sodipodi:docname="Fledermaus3_3.svg">
  <sodipodi:namedview
     id="base"
     pagecolor="#ffffff"
     bordercolor="#666666"
     borderopacity="1.0"
     inkscape:pageopacity="0.0"
     inkscape:pageshadow="2"
     inkscape:zoom="2.9541417"
     inkscape:cx="255.5635"
     inkscape:cy="288.36734"
     inkscape:document-units="mm"
     inkscape:current-layer="g1654"
     showgrid="false"
     inkscape:window-width="1920"
     inkscape:window-height="1017"
     inkscape:window-x="-8"
     inkscape:window-y="-8"
     inkscape:window-maximized="1"
     inkscape:measure-start="82.1658,484.405"
     inkscape:measure-end="623.549,458.414"
     borderlayer="true"
     inkscape:snap-global="false">
    <inkscape:grid
       spacingx="2.54"
       spacingy="2.54"
       empspacing="1"
       type="xygrid"
       units="mm"
       id="grid1629" />
  </sodipodi:namedview>
  <defs
     id="defs1049" />
  <metadata
     id="metadata1052">
    <rdf:RDF>
      <cc:Work
         rdf:about="">
        <dc:format>image/svg+xml</dc:format>
        <dc:type
           rdf:resource="http://purl.org/dc/dcmitype/StillImage" />
        <dc:title />
      </cc:Work>
    </rdf:RDF>
  </metadata>
  <g
     inkscape:label="Ebene 1"
     inkscape:groupmode="layer"
     id="layer1" />
  <g
     inkscape:label="[fixed] BG"
     inkscape:groupmode="layer"
     sodipodi:insensitive="true"
     id="g1638">
    <rect
       x="0"
       y="0"
       width="145.0"
       height="145.0"
       style="stroke:none;fill-opacity:1;fill:#FFFFFF"
       id="rect1636" />
  </g>
  <g
     inkscape:label="F.Cu"
     inkscape:groupmode="layer"
     id="g1640" />
  <g
     inkscape:label="B.Cu-disabled"
     inkscape:groupmode="layer"
     id="g1642" />
  <g
     inkscape:label="B.Adhes-disabled"
     inkscape:groupmode="layer"
     id="g1644" />
  <g
     inkscape:label="F.Adhes-disabled"
     inkscape:groupmode="layer"
     id="g1646" />
  <g
     inkscape:label="B.Paste-disabled"
     inkscape:groupmode="layer"
     id="g1648" />
  <g
     inkscape:label="F.Paste-disabled"
     inkscape:groupmode="layer"
     id="g1650" />
  <g
     inkscape:label="B.SilkS-disabled"
     inkscape:groupmode="layer"
     id="g1652" />
  <g
     inkscape:label="F.SilkS"
     inkscape:groupmode="layer"
     id="g1654"
     style="display:inline;opacity:1">
    <path
       style="display:inline;fill:#000000;stroke-width:0.24488986"
       d="m 71.733031,121.22324 c -1.688843,-2.99245 -2.237277,-3.81428 -3.465791,-5.19343 -1.616677,-1.81492 -4.211092,-3.57469 -5.976068,-4.05353 -2.384354,-0.64686 -2.876453,-0.82917 -4.331005,-1.60443 -2.721112,-1.45034 -5.140474,-3.89805 -6.208201,-6.28093 -1.35219,-3.01771 -1.688824,-7.849638 -0.849571,-12.194641 l 0.42127,-2.181058 -1.292369,-1.308621 c -0.710807,-0.719751 -1.365223,-1.308631 -1.454255,-1.308631 -0.08905,0 -0.407969,0.578551 -0.708763,1.285671 -0.65045,1.529136 -1.148073,2.142781 -1.737611,2.142781 -0.598721,0 -1.411698,-1.103681 -1.722677,-2.338692 l -0.259431,-1.030281 -1.912864,-0.166865 c -1.999021,-0.174375 -2.468026,-0.434257 -2.810584,-1.557373 -0.101681,-0.333369 -0.04787,-0.711925 0.132076,-0.928716 0.230051,-0.277194 0.234962,-0.434726 0.02026,-0.64945 -0.422217,-0.42222 -0.346027,-0.842862 0.253918,-1.401794 0.416606,-0.388126 0.471651,-0.566424 0.244888,-0.793187 -0.160874,-0.160884 -0.292509,-0.601078 -0.292509,-0.978208 0,-0.632326 0.07338,-0.685691 0.943342,-0.685691 1.394365,0 2.425783,0.829137 3.497589,2.81167 l 0.924291,1.709664 0.403908,-0.974995 c 1.096811,-2.647574 1.647338,-3.569844 2.346833,-3.931566 1.509147,-0.780408 3.122574,0.395232 4.474736,3.260549 0.392444,0.831624 0.808162,1.45356 0.923812,1.382084 0.115651,-0.07148 0.551359,-0.805634 0.968233,-1.631456 0.75453,-1.494724 0.755983,-1.505161 0.320304,-2.314158 -0.240703,-0.446962 -1.104005,-1.485248 -1.918443,-2.307302 -3.885915,-3.922249 -8.811475,-6.078219 -13.899589,-6.084005 -1.840363,-0.0022 -4.354281,0.684118 -5.612452,1.531995 -0.96552,0.650664 -2.508471,2.599131 -3.092439,3.905185 -0.374596,0.837765 -0.963952,1.345954 -1.240372,1.069534 -0.06325,-0.06324 0.03067,-0.699494 0.208782,-1.41388 0.497306,-1.995042 0.407338,-4.994321 -0.18992,-6.331576 -1.051818,-2.355014 -2.899872,-3.75311 -6.020995,-4.555029 -2.603904,-0.669026 -6.802699,-0.07287 -8.82658,1.253234 -0.896696,0.587541 -0.975303,0.145612 -0.278923,-1.568189 1.162051,-2.859831 1.643344,-5.498772 1.521339,-8.341623 -0.130655,-3.044462 -0.63443,-4.344607 -2.26627,-5.848789 -1.741891,-1.605616 -2.877189,-2.064365 -5.3902066,-2.17807 -1.8913666,-0.08558 -2.4389982,-0.01382 -3.8605566,0.505999 -2.1866182,0.799551 -2.3648528,0.431263 -0.5583806,-1.153769 2.594903,-2.276816 5.6103212,-4.282692 8.8269518,-5.871744 6.819496,-3.368909 13.433689,-4.799922 22.185398,-4.799922 4.671689,0 7.196412,0.341147 9.274001,1.253127 2.458031,1.078976 2.645333,1.883675 1.289521,5.540157 -1.430712,3.858489 -1.651627,4.97119 -1.617135,8.144994 0.05312,4.885858 1.55673,9.052245 4.153105,11.507784 1.513962,1.431844 1.626966,1.410406 1.92541,-0.365297 0.230174,-1.369505 0.696198,-1.927008 1.484801,-1.776259 0.477901,0.09136 0.604998,0.03562 0.506155,-0.221976 -0.645884,-1.683132 -1.799345,-7.422647 -2.231144,-11.10187 -0.443551,-3.779389 -0.46934,-13.444468 -0.03917,-14.671404 0.698462,-1.992041 1.42794,-1.639565 4.646015,2.244896 7.203817,8.69553 10.441842,13.946883 12.992889,21.07155 0.145614,0.406672 0.228522,0.389346 1.017888,-0.212732 0.984227,-0.750713 1.077119,-0.541449 0.493685,1.112178 -0.363177,1.029363 -0.31846,1.474053 0.148224,1.474053 0.133891,0 0.642902,0.271451 1.13116,0.603222 l 0.887715,0.603226 1.023077,-0.943032 c 0.56268,-0.518666 1.262452,-1.071148 1.555037,-1.227735 0.292587,-0.156588 0.467286,-0.389375 0.388221,-0.517305 -0.07912,-0.127934 0.138248,-0.232604 0.482917,-0.232604 0.419874,0 0.626678,-0.133749 0.626678,-0.405291 0,-0.372633 0.03726,-0.37161 0.461877,0.01271 0.445597,0.403259 0.509136,0.319741 1.801714,-2.368331 2.476902,-5.151032 5.084427,-8.590246 11.153443,-14.710919 3.887263,-3.920339 4.848606,-4.685648 5.548531,-4.417063 0.614897,0.235958 0.708792,1.153179 0.533758,5.214199 -0.230021,5.336811 -0.7496,9.950961 -1.87583,16.658328 -0.532975,3.174204 -0.969484,5.852449 -0.97002,5.951659 -4.86e-4,0.09921 0.412289,0.355866 0.917373,0.570345 l 0.918338,0.389967 -1.10201,0.964392 c -0.903326,0.790526 -1.035774,1.007112 -0.734666,1.201353 0.806184,0.520061 1.422371,0.234639 2.897274,-1.342028 4.733259,-5.059857 6.350972,-7.773395 6.885842,-11.550243 0.41465,-2.928028 -0.33632,-5.598112 -2.745173,-9.760462 -1.598919,-2.76284 -1.705827,-3.853352 -0.49635,-5.062837 0.63201,-0.631996 1.06539,-0.821473 2.20401,-0.963604 2.717923,-0.33927 5.419413,-0.216802 9.164413,0.415456 6.18812,1.044719 11.68203,2.95936 17.23168,6.005279 2.85813,1.568683 14.81584,9.452896 14.81584,9.768703 0,0.10267 -0.5094,0.314946 -1.13201,0.47172 -1.58099,0.398098 -3.31734,1.321446 -4.26268,2.266795 -1.21366,1.21365 -1.69551,2.494942 -1.70174,4.525069 -0.009,2.804528 0.58777,4.261702 3.29668,8.055188 1.30717,1.830495 2.31255,3.392273 2.23421,3.470615 -0.0783,0.07835 -0.88769,-0.200151 -1.79857,-0.618879 -5.24557,-2.41139 -10.88465,-1.974205 -14.29672,1.108397 -1.73402,1.566577 -2.06209,2.477244 -1.99227,5.530145 0.0404,1.764799 -0.0234,2.59474 -0.19127,2.490968 -0.13849,-0.08559 -1.32283,-1.098377 -2.63188,-2.250633 -1.80522,-1.589014 -2.97154,-2.381858 -4.82896,-3.282681 -2.87418,-1.393926 -4.47375,-1.843531 -7.91729,-2.225382 -5.759763,-0.638701 -10.913902,0.79945 -14.651202,4.088106 l -1.161019,1.021647 1.355096,2.673927 c 0.7453,1.470661 1.426852,2.949436 1.514554,3.286156 0.159087,0.610779 0.161639,0.609804 1.0814,-0.416454 1.125102,-1.255386 2.63811,-2.277335 3.371608,-2.277335 0.82785,0 1.79965,1.146836 2.23198,2.633986 l 0.388,1.334657 0.536573,-0.889061 c 0.59699,-0.98918 2.68313,-2.589803 3.37536,-2.589803 0.55115,0 0.59153,0.889908 0.0716,1.577367 -0.48934,0.646956 -0.45161,0.849756 0.12979,0.697711 0.57105,-0.149331 1.71467,0.523258 1.71467,1.00842 0,0.460473 -1.09292,1.13397 -2.1073,1.298579 -1.15843,0.18799 -1.24829,0.467515 -0.11557,0.359488 1.49594,-0.142662 2.16715,0.835269 1.30449,1.900616 -0.3174,0.391965 -0.76834,0.554588 -1.73803,0.626783 -1.78451,0.13286 -2.40545,0.615365 -3.256633,2.530602 -1.09308,2.459531 -1.28537,2.80934 -1.60172,2.913946 -0.57949,0.191621 -1.09998,-1.118892 -1.23671,-3.113854 l -0.13518,-1.972132 -0.883039,0.154539 c -1.049954,0.183757 -2.228487,0.811801 -2.484001,1.323745 -0.100831,0.202035 -0.31375,1.075994 -0.473142,1.942125 -0.668682,3.633496 -2.640222,6.826066 -5.733234,9.283976 -1.003174,0.79718 -3.433105,2.46662 -5.399849,3.70985 -2.041988,1.29081 -3.949969,2.69529 -4.447936,3.27418 -1.197174,1.39171 -2.385232,3.57269 -3.578222,6.56868 -0.553298,1.38953 -1.087839,2.62002 -1.187868,2.73445 -0.100038,0.11441 -0.48349,-0.32638 -0.852123,-0.97957 z m 1.123355,-3.54758 c 0.309115,-0.82658 1.149056,-2.47661 1.866524,-3.66674 0.717476,-1.19012 1.304503,-2.20549 1.304503,-2.25634 0,-0.0508 -0.578551,-0.003 -1.285671,0.10692 -1.064831,0.16517 -1.421224,0.3587 -2.074799,1.12667 -0.58627,0.68888 -0.696427,0.94759 -0.42855,1.00641 0.477719,0.10491 0.455352,0.36675 -0.129219,1.51261 -0.269377,0.52802 -0.489777,1.1445 -0.489777,1.36995 0,0.39895 0.513539,2.30339 0.621126,2.30339 0.02962,0 0.306737,-0.67629 0.615863,-1.50287 z m -11.001131,-6.96145 c -0.271633,-0.34533 -0.437418,-0.77498 -0.368413,-0.9548 0.06899,-0.17981 0.0077,-0.39968 -0.136127,-0.4886 -0.143876,-0.0889 -0.26159,-0.54086 -0.26159,-1.00433 0,-1.06631 0.584799,-1.13515 0.941871,-0.11086 0.286738,0.82257 1.744777,3.03033 1.899239,2.87586 0.05504,-0.055 0.132162,-0.57876 0.171336,-1.16379 0.03918,-0.58502 0.191373,-1.10372 0.33822,-1.15267 0.146838,-0.0489 0.609097,0.46701 1.027243,1.14658 1.026889,1.6689 1.749917,1.67938 0.888125,0.0129 -0.592912,-1.14656 0.04233,-1.16101 1.197576,-0.0272 l 1.030347,1.01121 -0.10042,-0.86018 c -0.128531,-1.10098 0.233575,-1.10202 1.071768,-0.003 0.877414,1.15034 1.166904,1.09496 0.960187,-0.18367 l -0.168269,-1.04079 1.208497,1.1756 c 1.044126,1.0157 1.250222,1.12532 1.515291,0.80592 0.191066,-0.23021 0.245099,-0.65061 0.143244,-1.11437 -0.135629,-0.61751 -0.08705,-0.74507 0.284446,-0.74691 0.246417,-9.5e-4 0.72578,0.33563 1.065261,0.74855 0.907139,1.10335 1.464326,0.79386 1.464326,-0.81334 v -1.23905 l 0.83265,0.95914 c 0.45796,0.52752 0.908028,0.88559 1.000145,0.79569 0.09211,-0.0899 0.227844,-0.61334 0.301597,-1.16322 0.07376,-0.54988 0.225912,-0.99979 0.338133,-0.99979 0.30023,0 0.709824,0.86251 0.719188,1.51446 l 0.0086,0.5671 0.473811,-0.56847 c 0.260596,-0.31266 0.545596,-0.95111 0.633328,-1.41878 0.188401,-1.00425 0.678962,-0.97517 0.793304,0.047 0.110214,0.9853 0.431732,1.23857 0.76999,0.60653 0.155761,-0.29104 0.57922,-0.71613 0.94102,-0.94463 0.594575,-0.37551 0.657818,-0.55671 0.657818,-1.8848 0,-1.14281 0.08159,-1.46933 0.367333,-1.46933 0.231703,0 0.415517,0.31649 0.497822,0.85711 0.122387,0.80399 0.140961,0.77479 0.299599,-0.47102 0.09306,-0.73048 0.286844,-1.44586 0.43072,-1.58974 0.404816,-0.40482 0.758457,0.32231 0.671614,1.38093 -0.125368,1.52841 0.267142,0.66645 0.583949,-1.28233 0.16395,-1.0085 0.393083,-1.94291 0.509174,-2.07648 0.289404,-0.33293 0.671996,0.31538 0.676725,1.14673 0.0057,1.04875 0.39401,1.00618 0.719111,-0.0789 0.248663,-0.82996 0.382803,-0.97354 0.806146,-0.86284 0.498998,0.13049 0.504922,0.084 0.340293,-2.669674 -0.0922,-1.541366 -0.07291,-2.802483 0.0429,-2.802483 0.115746,0 0.398166,0.358154 0.627595,0.795896 l 0.417143,0.795883 -0.121987,-1.591779 c -0.06708,-0.875484 -0.192566,-1.894834 -0.278817,-2.265233 -0.120476,-0.517325 -0.06688,-0.673449 0.231226,-0.673449 0.213434,0 0.546924,0.303058 0.741086,0.673449 0.345845,0.659776 0.352217,0.647354 0.313932,-0.611955 -0.02351,-0.773171 -0.149952,-1.285518 -0.317285,-1.28567 -0.296246,-2.87e-4 -2.293144,-3.198937 -2.293144,-3.673168 0,-0.576223 0.877395,-0.08465 1.462386,0.819378 0.840485,1.298789 0.915021,0.700613 0.12466,-1.000394 -0.606469,-1.305234 -0.672273,-1.368296 -0.876191,-0.839706 -0.12125,0.31433 -0.358351,0.526079 -0.526888,0.470553 -0.439223,-0.144718 -1.934258,-2.158334 -1.831458,-2.466743 0.183939,-0.5518 0.656193,-0.400513 1.541729,0.493893 l 0.921547,0.930785 -0.766349,-1.102004 c -0.42149,-0.606103 -0.986339,-1.377505 -1.255219,-1.714229 -0.47343,-0.592871 -0.484418,-0.594806 -0.34766,-0.06123 0.177795,0.693673 -0.239252,0.717457 -1.073526,0.06123 -0.905955,-0.712624 -1.142378,-0.599789 -0.516636,0.246572 0.397029,0.537005 0.471241,0.809518 0.274135,1.006623 -0.197105,0.197106 -0.420753,0.0972 -0.826124,-0.369015 -0.417821,-0.48053 -0.788154,-0.63929 -1.49126,-0.63929 -0.51592,0 -0.935393,-0.120566 -0.935393,-0.268855 0,-0.147871 0.688755,-0.891399 1.53056,-1.652286 2.974886,-2.68891 6.055744,-5.759062 6.650758,-6.627644 0.843237,-1.230941 1.02816,-2.723317 0.429123,-3.463105 -0.379123,-0.468187 -0.753603,-0.591019 -2.054409,-0.673849 -2.134506,-0.135915 -3.154391,0.345662 -6.042674,2.85328 -2.462636,2.13808 -3.700676,2.715882 -5.884161,2.746178 -0.91826,0.01274 -1.020028,0.05522 -0.567772,0.236997 0.587971,0.236338 0.754578,0.72897 0.244888,0.724132 -0.168364,-0.0017 -0.912222,-0.165592 -1.653012,-0.364428 -0.740792,-0.198836 -1.386646,-0.362829 -1.435242,-0.364428 -0.04863,-0.0017 0.171805,0.208006 0.489778,0.465792 0.317973,0.257786 0.504645,0.542495 0.41482,0.632688 -0.278416,0.279559 -2.20675,-0.718749 -3.96734,-2.053905 -1.491824,-1.131343 -1.726901,-1.235762 -2.081564,-0.924628 -0.900097,0.789629 -2.492523,1.387366 -3.69607,1.387366 -1.571397,0 -1.585911,-0.356554 -0.02971,-0.729883 0.66248,-0.158927 1.406328,-0.454416 1.653003,-0.656643 0.432029,-0.354175 0.431226,-0.362146 -0.02169,-0.216953 -1.266006,0.405841 -2.666707,0.614228 -3.210774,0.477676 -0.648158,-0.162677 -0.796648,-0.483594 -0.300316,-0.649036 0.167361,-0.05579 -0.217668,-0.172968 -0.855601,-0.260405 -1.414307,-0.193853 -3.262238,-1.105523 -4.142776,-2.043824 -0.359374,-0.382956 -1.052534,-1.541494 -1.540352,-2.574526 -0.917268,-1.942492 -2.316382,-3.494422 -3.394208,-3.764939 -1.076937,-0.270295 -2.21018,0.210568 -2.723605,1.155683 -0.44103,0.811869 -0.450383,0.977655 -0.130357,2.311682 0.21288,0.887356 0.78437,2.093612 1.493994,3.153345 2.027665,3.028108 6.380358,7.471171 7.31921,7.471171 0.209135,0 0.55906,-0.303051 0.777606,-0.673447 l 0.397363,-0.673447 -1.823346,-2.037222 c -1.00284,-1.12047 -2.407916,-2.943382 -3.122403,-4.050915 -0.714476,-1.107535 -1.762978,-2.381133 -2.329987,-2.830219 -1.158391,-0.917456 -1.305612,-1.796771 -0.324146,-1.936018 0.735077,-0.104291 1.664852,0.904221 3.244227,3.518966 2.749527,4.551973 4.773905,6.466594 6.8501,6.47869 0.471412,0.0028 1.276765,0.07434 1.789675,0.159092 0.859794,0.142078 0.998176,0.284418 1.773727,1.824439 0.462642,0.918688 1.072399,1.794093 1.355019,1.945344 0.829402,0.443885 3.916691,0.568108 6.118348,0.246183 4.309268,-0.630096 6.468693,-1.869006 11.134956,-6.388365 1.944223,-1.883014 3.473874,-3.174666 3.759629,-3.174666 1.006843,0 1.715052,1.483917 0.864056,1.810474 -0.213052,0.08176 -0.696724,0.148645 -1.074825,0.148645 -0.538936,0 -1.182766,0.490193 -2.979874,2.268789 -4.878942,4.828676 -9.220198,6.747196 -14.659346,6.478357 -1.570679,-0.07763 -2.782979,-0.289384 -3.731748,-0.651814 -0.772905,-0.295254 -1.706053,-0.501833 -2.073653,-0.459063 -0.827204,0.09624 -1.617766,1.209751 -2.143946,3.019764 -0.397756,1.368231 -0.906079,2.078237 -1.487879,2.078237 -0.187731,0 -0.741326,-0.351204 -1.230205,-0.780451 l -0.888889,-0.780452 0.08446,-2.033119 c 0.08772,-2.11114 0.01175,-2.283334 -1.006748,-2.283334 -0.241411,0 -0.913005,0.48918 -1.492435,1.087065 -1.333808,1.376297 -1.58741,1.807181 -1.037438,1.762618 0.587017,-0.04757 0.992683,1.159389 0.563493,1.676528 -0.214839,0.258871 -0.408075,0.309881 -0.568013,0.149948 -0.159927,-0.159932 -0.40278,-0.0385 -0.713836,0.356957 -0.259298,0.329643 -0.683854,0.599351 -0.943457,0.599351 -0.55303,0 -0.573955,0.08829 -0.173056,0.730237 0.239538,0.383557 0.222053,0.765757 -0.088,1.922849 -0.354874,1.324444 -0.354282,1.441786 0.0067,1.415864 0.258572,-0.01854 0.372694,0.140159 0.331856,0.461514 -0.292977,2.30571 -0.416043,2.870884 -0.706527,3.244599 -0.315222,0.405561 -0.354892,0.402255 -0.733519,-0.06105 -0.352992,-0.431912 -0.381923,-0.436785 -0.244889,-0.04118 0.08542,0.246724 0.155389,1.224472 0.155389,2.172777 0,1.455869 0.0537,1.679594 0.345271,1.437629 0.272617,-0.226247 0.418613,-0.181828 0.693848,0.211122 0.334828,0.478025 0.348587,0.468815 0.348587,-0.233213 0,-1.318701 0.655858,-1.284199 0.948875,0.04988 0.121182,0.55172 0.06726,0.850937 -0.187093,1.037972 -0.19655,0.144535 -0.432209,0.829467 -0.523687,1.522072 -0.146063,1.10584 -0.114198,1.25504 0.261495,1.22445 0.337742,-0.0275 0.461247,0.22923 0.586577,1.2194 0.0922,0.72836 0.4026,1.58541 0.740342,2.04414 l 0.581579,0.78992 0.122445,-0.80023 c 0.06736,-0.44013 0.24935,-0.84212 0.404472,-0.8933 0.288822,-0.0953 1.152496,2.23321 1.444384,3.89419 0.08714,0.49575 0.326153,0.96573 0.531179,1.04442 0.289576,0.11111 0.338114,0.0192 0.217505,-0.41161 -0.08542,-0.30505 -0.223868,-1.02299 -0.307693,-1.59542 -0.366052,-2.49965 1.267755,-0.23809 1.808814,2.5038 0.156526,0.79325 0.99532,2.08789 1.352745,2.08789 0.119129,0 -0.0057,-0.28255 -0.27726,-0.62786 z m 11.536656,-2.36304 c -0.145089,-0.17483 -0.33971,-0.6203 -0.432487,-0.98993 -0.241038,-0.96037 0.46592,-0.89841 0.869618,0.0763 0.345166,0.83329 0.03468,1.48224 -0.437131,0.91372 z m -3.585092,-0.47748 c -0.395329,-0.56441 -0.317085,-0.93965 0.19593,-0.93965 0.258992,0 0.881972,0.95953 0.881972,1.35842 0,0.33096 -0.759432,0.0359 -1.077902,-0.41877 z m -7.562198,-0.73441 c -0.362737,-0.74899 -0.328951,-1.42968 0.07099,-1.42968 0.219798,0 1.222447,1.61836 1.222447,1.97311 0,0.56936 -0.947202,0.17138 -1.29341,-0.54343 z m 3.989784,0.41011 c -0.323553,-0.38987 -0.177288,-1.10513 0.225999,-1.10513 0.33372,0 0.808458,0.93332 0.625398,1.22952 -0.210175,0.34006 -0.501224,0.29755 -0.851397,-0.12439 z m 10.201158,-0.28882 c -0.08981,-0.0898 -0.163262,-0.42041 -0.163262,-0.73468 0,-0.7032 0.63996,-0.76583 0.856413,-0.0838 0.230528,0.72629 -0.235295,1.27634 -0.693151,0.81849 z m 5.387571,-0.73468 c -0.08981,-0.0898 -0.163252,-0.64079 -0.163252,-1.22444 0,-1.30753 0.601893,-1.47838 0.834781,-0.23695 0.219272,1.1688 -0.153307,1.97961 -0.671529,1.46139 z m -21.464939,-1.2991 c -0.306183,-0.57211 -0.325723,-1.47631 -0.03191,-1.47631 0.244679,0 1.007723,1.08622 1.007723,1.43453 0,0.46568 -0.732173,0.49704 -0.975819,0.0418 z m 3.424725,-0.49675 c 0,-0.27211 0.163262,-0.48979 0.367332,-0.48979 0.204071,0 0.367334,0.21768 0.367334,0.48979 0,0.27209 -0.163263,0.48977 -0.367334,0.48977 -0.20407,0 -0.367332,-0.21768 -0.367332,-0.48977 z m -5.464105,-0.89283 c -0.242414,-0.24242 -0.207433,-1.25813 0.04883,-1.41648 0.313759,-0.19392 0.817133,0.49795 0.721414,0.99157 -0.08934,0.46069 -0.505056,0.69004 -0.770191,0.42491 z m -2.37844,-1.20468 c -0.318211,-0.83698 -0.302599,-1.75241 0.03345,-1.9601 0.410024,-0.2534 0.699343,0.38298 0.703546,1.54748 0.0038,1.16165 -0.372101,1.37232 -0.736988,0.41262 z m 27.5163,-0.73435 c -0.188745,-0.49184 0.332419,-1.65129 0.653145,-1.45307 0.41203,0.25465 0.299054,1.83603 -0.131178,1.83603 -0.206259,0 -0.441143,-0.17233 -0.521967,-0.38296 z m -23.809919,-1.17633 c -0.209937,-0.25296 -0.19678,-0.40216 0.05379,-0.6101 0.392596,-0.325832 0.653938,-0.127618 0.653938,0.49597 0,0.53111 -0.318957,0.58254 -0.707702,0.11413 z m 28.30473,-0.32568 c -0.287455,-0.469309 -0.450966,-2.961229 -0.204309,-3.113676 0.402093,-0.248509 1.050891,1.253729 0.96719,2.239428 -0.07042,0.829698 -0.493341,1.314308 -0.762881,0.874248 z M 53.401301,96.261309 c -0.235152,-0.612794 -0.176553,-0.837083 0.218689,-0.837083 0.22856,0 0.367333,0.231282 0.367333,0.612222 0,0.683968 -0.357252,0.821041 -0.586022,0.224861 z m 32.911485,-1.592161 c 0,-0.93694 0.57685,-0.852877 0.689711,0.100516 0.05494,0.463884 -0.0342,0.654562 -0.306115,0.654562 -0.26526,0 -0.383596,-0.232929 -0.383596,-0.755078 z m -31.817311,0.164991 c -0.388259,-0.46783 -0.24466,-1.24659 0.229868,-1.24659 0.416034,0 0.642683,1.043704 0.300871,1.385516 -0.139443,0.139434 -0.344192,0.0858 -0.530739,-0.138926 z m 34.157646,-0.933748 c -0.448835,-0.6408 -0.495013,-1.169952 -0.102101,-1.169952 0.376342,0 0.92793,0.756383 0.937542,1.285669 0.0107,0.590666 -0.378427,0.536758 -0.835441,-0.115717 z m 0.139997,-2.234077 c -0.150382,-0.181206 -0.342949,-0.677108 -0.427929,-1.102008 -0.194918,-0.974577 0.421384,-1.082862 0.846963,-0.148807 0.539262,1.18354 0.247621,2.054075 -0.419034,1.250815 z M 87.09643,90.722341 c -0.351386,-0.351395 -0.391765,-1.175475 -0.05761,-1.175475 0.129944,0 0.360559,0.232229 0.51246,0.516072 0.326247,0.609595 -0.01299,1.101321 -0.454874,0.659403 z M 56.43622,90.179124 c 0,-0.845387 0.243589,-1.366924 0.638431,-1.366924 0.362202,0 0.429066,0.504033 0.186776,1.408115 -0.198815,0.741889 -0.825207,0.710617 -0.825207,-0.04118 z m -1.863036,-1.714651 c -0.135,-0.351815 0.700661,-2.204173 1.107942,-2.455887 0.47257,-0.292064 0.549954,0.42486 0.156947,1.453946 -0.420687,1.10154 -1.038785,1.591155 -1.264889,1.001941 z m 32.492041,-1.27709 c -0.611172,-0.776982 -0.675714,-1.430794 -0.12019,-1.21762 0.213052,0.08176 0.430624,0.148645 0.48349,0.148645 0.206622,0 0.814888,1.416196 0.670353,1.56074 -0.277356,0.277355 -0.519149,0.162316 -1.033653,-0.491765 z M 68.91061,86.290365 c -1.107082,-0.314837 -2.325344,-1.042783 -2.896098,-1.730506 -0.532028,-0.641053 0.159737,-0.702545 1.628582,-0.144764 1.922429,0.730016 5.053488,0.895116 7.236285,0.381565 2.026356,-0.476741 2.127589,-0.479532 2.127589,-0.05859 0,0.183641 -0.65905,0.629653 -1.464546,0.991139 -1.77605,0.797044 -4.879066,1.059608 -6.631812,0.561154 z M 57.905562,109.50538 c -0.167677,-0.20202 -0.429124,-0.36382 -0.580987,-0.35955 -0.151874,0.004 -0.0622,0.16959 0.199236,0.36734 0.610674,0.46189 0.768872,0.45867 0.381751,-0.008 z m -1.38934,-1.04078 c -0.231588,-0.37039 -0.992731,-1.28549 -1.691423,-2.03354 -1.383808,-1.48158 -2.415005,-3.29468 -2.681364,-4.71445 -0.16417,-0.87514 -0.433146,-1.13613 -0.7097,-0.68865 -0.183604,0.29707 0.711468,2.8286 1.439149,4.07028 0.514075,0.8772 3.602682,4.03981 3.945279,4.03981 0.06554,0 -0.07032,-0.30305 -0.301941,-0.67345 z m 31.971057,-4.4327 c 1.188317,-1.18677 1.48141,-1.61021 1.224453,-1.76908 -0.248414,-0.15359 -0.484885,0.0805 -0.893437,0.88412 -0.317954,0.62547 -0.946457,1.34241 -1.469342,1.67608 -0.502553,0.3207 -1.189225,0.89134 -1.525945,1.26809 l -0.61223,0.68501 0.857119,-0.59199 c 0.471414,-0.3256 1.560132,-1.2941 2.419382,-2.15223 z m -4.18559,1.64421 c -0.06115,-0.1834 -0.172139,-0.0724 -0.258734,0.25874 -0.106526,0.40734 -0.07463,0.50295 0.107071,0.32123 0.142309,-0.1423 0.210559,-0.40329 0.151663,-0.57997 z m -30.141166,-3.45334 c -0.05857,-0.30462 -0.108724,-0.11306 -0.111447,0.4257 -0.0028,0.53875 0.04519,0.788 0.106507,0.55386 0.06125,-0.23414 0.06354,-0.67494 0.0048,-0.97956 z m 36.857184,-2.288897 c -0.191936,-0.342958 -0.255217,-0.295719 -0.396714,0.296157 -0.09258,0.38732 -0.225302,0.92461 -0.294917,1.194 -0.07749,0.29973 0.07643,0.18482 0.396704,-0.29616 0.374059,-0.56181 0.458161,-0.9023 0.294927,-1.193997 z M 92.27992,97.2609 c 0.153249,-0.692319 0.141229,-0.707263 -0.208465,-0.259306 -0.2041,0.261447 -0.364114,0.812452 -0.355572,1.224443 0.0129,0.622761 0.04806,0.666493 0.208476,0.259307 0.106115,-0.269378 0.266129,-0.820382 0.355561,-1.224444 z m 7.73306,-4.149809 c 0.88189,-0.861152 1.1383,-0.972121 2.46834,-1.068328 1.70812,-0.123563 1.89723,-0.615413 0.28239,-0.734475 -2.04596,-0.150842 -1.72707,-1.761536 0.42058,-2.124379 1.25829,-0.212594 1.34008,-0.671174 0.0872,-0.488506 -0.50508,0.07367 -1.0817,0.02503 -1.28136,-0.10796 -0.30515,-0.203287 -0.24944,-0.360425 0.34948,-0.985555 0.39188,-0.40903 0.64866,-0.807554 0.57062,-0.885595 -0.28841,-0.288412 -1.50612,1.597482 -2.29642,3.556535 -0.44797,1.110445 -0.942123,2.172793 -1.098123,2.360754 -0.64139,0.772828 -0.88424,0.352036 -1.03941,-1.801045 -0.0849,-1.178533 -0.2985,-2.638683 -0.4746,-3.24479 -0.44171,-1.520272 -1.21417,-1.613696 -2.652104,-0.320744 -1.713714,1.540916 -2.424675,2.87157 -2.424675,4.538104 v 1.427683 l 0.722512,-0.37362 c 0.397374,-0.205495 0.906777,-0.37363 1.131983,-0.37363 0.336223,0 0.354941,-0.06574 0.104625,-0.367333 -0.396801,-0.47812 0.07453,-1.101999 0.832611,-1.101999 1.471558,0 2.344188,1.555975 2.364718,4.21648 l 0.0138,1.783324 0.46693,-1.471979 c 0.32646,-1.029166 0.76297,-1.761061 1.451043,-2.432942 z M 46.752682,87.745668 c 0.650977,-1.767516 2.656579,-3.855943 2.264996,-2.358532 -0.09817,0.375384 0.114362,0.657887 0.889779,1.182776 1.617889,1.095162 1.607369,1.092677 1.900739,0.448804 0.21119,-0.46351 0.179076,-0.915767 -0.143904,-2.026779 -0.794995,-2.734694 -1.961327,-4.505995 -2.967013,-4.505995 -0.813646,0 -1.442197,0.971446 -2.305795,3.563657 -0.423945,1.272536 -0.86938,2.313699 -0.989855,2.313699 -0.325407,0 -1.029689,-1.166569 -0.86508,-1.432909 0.07815,-0.126497 -0.01805,-0.291467 -0.213825,-0.366597 -0.195787,-0.07513 -0.633864,-0.684981 -0.973497,-1.355222 -0.578475,-1.141569 -1.116618,-1.781109 -1.116618,-1.327015 0,0.110038 0.28241,0.730578 0.627575,1.378975 0.801226,1.505081 0.526592,2.00239 -0.990905,1.794396 -1.103605,-0.151267 -1.761327,0.107746 -1.470107,0.578939 0.134378,0.21743 0.656948,0.265607 1.821713,0.167958 0.8983,-0.07531 1.74641,-0.06244 1.884668,0.02861 0.138267,0.09105 0.617324,0.91402 1.064583,1.828835 0.447258,0.914812 0.887772,1.576022 0.978914,1.469342 0.09116,-0.106679 0.362786,-0.729 0.603632,-1.382938 z m 44.977572,-1.302781 c -0.288688,-0.496443 -0.358399,-0.337543 -0.122082,0.278279 0.08398,0.218857 0.204282,0.346337 0.267333,0.283287 0.06306,-0.06305 -0.0019,-0.315757 -0.145251,-0.561566 z M 61.721249,84.955182 c 0.630366,-2.799013 1.125017,-3.691219 2.542572,-4.586081 1.092014,-0.689357 1.095235,-0.695357 0.734933,-1.368596 -0.393847,-0.735906 -0.809852,-0.573809 -1.926747,0.750769 -1.104064,1.309355 -1.923605,1.648349 -1.628094,0.673446 0.41738,-1.376993 0.335028,-1.43024 -0.284112,-0.183666 -0.511829,1.030544 -0.666301,1.692001 -0.657654,2.816232 0.01643,2.133867 0.867535,3.458914 1.219102,1.897896 z M 41.98063,83.923966 c 0.198128,-0.125303 0.300287,-0.287778 0.227012,-0.361053 -0.07329,-0.07328 -0.345587,0.02742 -0.605133,0.223784 -0.51632,0.39062 -0.202589,0.504515 0.378121,0.137269 z m -0.843543,-0.94183 c -0.07538,-0.07539 -0.273008,-1.56e-4 -0.439118,0.167207 -0.240064,0.241858 -0.211934,0.269986 0.137083,0.137089 0.241516,-0.09196 0.377432,-0.228896 0.302035,-0.304296 z m 0.426735,-1.922158 c -0.165794,-0.06709 -0.496399,-0.07117 -0.734666,-0.009 -0.238276,0.06208 -0.102618,0.116973 0.301453,0.121965 0.404062,0.005 0.599008,-0.04581 0.433213,-0.112892 z m 48.819181,-1.78287 c 1.651437,-1.509322 4.171219,-2.786104 6.642834,-3.365949 2.62233,-0.615203 9.645093,-0.629448 12.354563,-0.02506 2.67809,0.597389 5.60799,1.78329 7.43854,3.010809 0.86593,0.580669 1.57441,0.949221 1.57441,0.819006 0,-0.271229 -1.96335,-3.643777 -4.61275,-7.923562 -3.18568,-5.146044 -8.91816,-14.1012 -8.9802,-14.028675 -0.0329,0.03848 -0.6088,1.349886 -1.27971,2.914246 -0.67092,1.564361 -1.64138,3.492867 -2.15656,4.285571 -0.51518,0.792706 -2.728133,3.223 -4.917671,5.400653 -2.189542,2.177653 -4.197591,4.381662 -4.462345,4.897796 -0.264753,0.516136 -1.208315,1.696411 -2.096793,2.622839 -1.817175,1.894781 -1.978009,2.348591 -0.91508,2.581824 0.04844,0.01062 0.6833,-0.524642 1.410762,-1.189501 z m -34.191672,0.189508 c 0,-0.140662 -0.743858,-1.114518 -1.653003,-2.16412 C 53.629173,76.25289 52.33432,74.754451 51.660871,73.972628 50.987422,73.190805 50.157362,71.994704 49.816295,71.314629 49.398522,70.481599 48.799209,69.798449 47.97962,69.221012 45.216591,67.274336 41.847112,63.059241 41.225861,60.772313 40.779194,59.128066 40.163236,57.4663 40.000452,57.4663 c -0.671729,0 -3.654078,5.459113 -6.154102,11.264931 -1.499582,3.482483 -1.590124,3.801041 -1.009041,3.550391 2.122362,-0.915479 3.226559,-1.132004 5.819006,-1.141062 4.038333,-0.0141 7.975881,0.942603 10.877082,2.642817 1.660112,0.972894 4.350736,3.401894 5.366416,4.844618 0.847633,1.204016 1.291518,1.492242 1.291518,0.838621 z M 120.634,78.005382 c 2.49911,-4.688787 8.05828,-6.652803 14.1556,-5.001065 0.73451,0.19898 1.3857,0.311582 1.44705,0.250227 0.17064,-0.170643 -5.14166,-5.494232 -8.17014,-8.187491 -5.9461,-5.287928 -14.10357,-11.458916 -19.2564,-14.567141 -1.26164,-0.761036 -2.90001,-1.763097 -3.6408,-2.226795 -0.74079,-0.4637 -1.37884,-0.74822 -1.41787,-0.632267 -0.0391,0.115953 0.27609,0.803759 0.7003,1.528456 0.4242,0.7247 0.86661,1.482934 0.98312,1.684969 0.66532,1.153583 7.49503,14.728597 10.63204,21.132654 2.02035,4.124432 3.69444,7.503576 3.72022,7.50921 0.0258,0.0056 0.40687,-0.665206 0.84688,-1.490757 z M 79.350198,74.738066 c 1.550003,-0.462432 2.87567,-1.567104 3.786603,-3.155352 0.787437,-1.372933 0.872369,-2.149956 0.450172,-4.118577 -0.233815,-1.090252 -0.510129,-1.523311 -1.775457,-2.782656 -1.24898,-1.243081 -1.745905,-1.56023 -2.983935,-1.904422 -2.778929,-0.772579 -5.335842,-0.359285 -7.36838,1.191007 -0.832726,0.635151 -0.859393,0.703904 -0.695806,1.79348 0.269913,1.797694 0.171747,3.631177 -0.236701,4.421023 -0.548338,1.060377 -0.478417,1.364697 0.541698,2.357633 2.167185,2.109436 5.560101,3.009864 8.281806,2.197864 z m -7.621333,-4.796721 c -0.491411,-0.543004 -0.340818,-1.056014 0.457894,-1.559828 0.502648,-0.317064 1.227138,0.06513 1.35477,0.714709 0.07099,0.361315 -0.03268,0.408989 -0.612222,0.281644 l -0.697689,-0.153293 0.551005,0.395421 c 0.303048,0.217482 0.550994,0.492182 0.550994,0.610441 0,0.416728 -1.154158,0.208806 -1.604752,-0.289094 z m -5.956394,2.334064 c 1.457284,-0.508701 3.505883,-1.946638 3.850323,-2.702592 0.469044,-1.02944 0.349113,-3.424064 -0.228168,-4.555619 -1.064401,-2.0864 -2.852231,-3.129032 -5.379955,-3.137503 -2.073872,-0.007 -3.693482,0.773355 -5.336443,2.571012 -1.383292,1.513539 -1.662912,2.466241 -1.229289,4.188319 0.365824,1.452798 1.884822,3.049037 3.416241,3.58994 1.406204,0.496678 3.559132,0.517052 4.907291,0.04645 z M 66.52896,69.64397 c -0.703804,-0.749169 -0.685946,-1.296934 0.05819,-1.784517 1.182001,-0.774474 2.40332,0.279342 1.796267,1.549906 -0.414294,0.867116 -1.170392,0.962772 -1.854465,0.234611 z m 28.123361,0.845286 c 3.575886,-2.269148 8.395139,-9.753665 8.779649,-13.635181 0.12333,-1.245107 0.22333,-1.480454 0.6552,-1.542173 0.58033,-0.08294 0.60704,-0.04701 4.15034,5.582856 1.31394,2.087686 2.72112,4.320412 3.12706,4.961614 0.40596,0.641203 0.7849,1.119012 0.84211,1.061798 0.16666,-0.166655 -5.55922,-11.358969 -8.34341,-16.308785 -2.947,-5.239277 -3.11284,-5.632466 -2.37567,-5.632466 1.45511,0 9.43819,5.069837 16.90575,10.736391 4.66369,3.538901 4.52815,3.194512 -0.41889,-1.064455 -5.52689,-4.758168 -10.62494,-8.434791 -14.22612,-10.259646 -1.40518,-0.71206 -1.61273,-1.254297 -0.62401,-1.630214 1.24912,-0.474907 8.70765,0.815281 14.26561,2.467685 1.28853,0.383086 2.3758,0.663503 2.41614,0.623152 0.15321,-0.153199 -5.50392,-2.143893 -7.7534,-2.728356 -5.43784,-1.41287 -10.92015,-1.763593 -12.977313,-0.830206 l -1.07369,0.487161 0.15744,1.160467 c 0.0866,0.638257 0.81403,2.537972 1.61655,4.221589 1.696843,3.559821 1.951073,4.515305 1.959193,7.363469 0.0125,4.378141 -1.36412,7.033887 -6.469151,12.480205 -1.416925,1.511647 -2.516764,2.844638 -2.4441,2.962206 0.225053,0.364155 0.700068,0.24036 1.830712,-0.477111 z M 32.926111,65.69558 c 0.778552,-2.169041 2.198973,-5.913322 3.156484,-8.320629 1.821751,-4.580126 2.721552,-7.231337 2.721552,-8.01889 0,-0.423275 -0.154969,-0.388897 -1.653004,0.366686 -2.094071,1.056212 -6.115758,3.705893 -9.669234,6.370554 -3.185999,2.389104 -9.107147,7.508316 -9.316978,8.055131 -0.117533,0.306282 0.209918,0.40038 1.86082,0.534752 4.760052,0.387427 8.06324,2.060122 10.014304,5.071131 l 0.779745,1.203342 0.345377,-0.659185 c 0.189958,-0.362551 0.982383,-2.433854 1.760934,-4.602892 z m 53.771608,3.862165 c 0.66377,-0.218863 1.386932,-0.577015 1.607046,-0.795893 1.117897,-1.11165 3.162704,-10.572444 4.009266,-18.549832 0.434054,-4.090152 0.488001,-9.783631 0.09497,-10.02651 -0.683577,-0.422475 -8.666146,8.361743 -11.699135,12.87402 -1.726336,2.568316 -4.682496,7.576666 -4.682496,7.933107 0,0.08085 0.201186,0.14701 0.447087,0.14701 0.625293,0 1.182546,-0.689031 3.168877,-3.918237 1.843726,-2.997358 4.692958,-6.565368 7.571972,-9.48216 2.21748,-2.24657 3.159075,-2.392585 2.130294,-0.330347 -0.29103,0.583379 -0.323401,0.865213 -0.122445,1.066163 0.421938,0.421945 0.325665,0.664981 -0.263434,0.664981 -0.520429,0 -0.522446,0.01034 -0.06678,0.343513 0.266616,0.194957 0.486279,0.67153 0.507931,1.102004 0.04472,0.889443 -0.32105,0.968755 -1.737783,0.37681 -0.502418,-0.209924 -0.959136,-0.336035 -1.014926,-0.280244 -0.0558,0.05579 0.388248,0.288443 0.986739,0.517011 0.598502,0.228569 1.23461,0.593393 1.413581,0.810722 0.291583,0.354074 0.236309,0.379178 -0.531714,0.241533 -0.471413,-0.08448 -1.132612,-0.217555 -1.469341,-0.295712 -0.33672,-0.07816 -0.198969,0.03954 0.306116,0.261552 0.86375,0.379658 1.269895,1.085936 0.62447,1.085936 -0.228569,0 -0.228569,0.06531 0,0.293869 0.5318,0.531803 0.308037,0.751868 -0.62447,0.614145 l -0.918338,-0.13563 0.795893,0.392909 c 1.119235,0.552532 1.001597,0.887764 -0.244889,0.697859 l -1.040782,-0.158566 1.313686,0.76045 c 0.931036,0.53894 1.237561,0.836581 1.052323,1.021823 -0.185248,0.185242 -0.632592,0.107109 -1.535785,-0.268242 -0.700919,-0.291288 -1.31575,-0.488273 -1.366275,-0.43774 -0.05055,0.05054 0.242252,0.230279 0.650642,0.39944 0.40839,0.169159 0.74252,0.47144 0.74252,0.671735 0,0.361717 -0.154769,0.354547 -1.836675,-0.08509 -0.269378,-0.07042 0.08084,0.208023 0.778283,0.618753 2.070251,1.219191 2.124943,1.898419 0.08456,1.050488 -0.676622,-0.281188 -1.230215,-0.478731 -1.230215,-0.438987 0,0.03975 0.551004,0.414793 1.224453,0.83343 1.873614,1.164702 1.483024,1.78784 -0.489787,0.78139 -1.405574,-0.71707 -1.490497,-0.597696 -0.17039,0.239497 0.632478,0.4011 1.149954,0.849328 1.149954,0.996059 0,0.248672 -0.143789,0.22946 -1.469341,-0.196309 -0.202036,-0.0649 0.04596,0.174604 0.551004,0.532214 0.505084,0.357613 0.918337,0.756431 0.918337,0.886265 0,0.310203 -0.645291,0.301131 -1.240552,-0.01744 -0.806538,-0.431647 -0.521108,-0.06064 0.383433,0.498395 1.035459,0.639946 1.133721,1.102036 0.183671,0.863732 l -0.673449,-0.168926 0.551005,0.586718 c 0.644182,0.685936 0.691277,0.922485 0.18367,0.922485 -0.229783,0 -0.367342,0.232138 -0.367342,0.619909 0,0.340953 -0.164896,0.683189 -0.366435,0.760525 -0.290026,0.111294 -0.336825,0.428829 -0.224442,1.522877 0.234111,2.27893 0.13393,2.197134 1.955375,1.596549 z M 46.940481,65.455824 c -3.399423,-3.513944 -4.662774,-6.468269 -4.882668,-11.417981 -0.145977,-3.286039 0.319999,-5.705537 1.776499,-9.224053 1.353595,-3.269941 1.02301,-4.084867 -1.969036,-4.853939 -5.272781,-1.355307 -14.018709,-0.950298 -21.482923,0.994837 -2.369171,0.617394 -7.144587,2.291797 -6.986647,2.449729 0.03975,0.03978 1.385681,-0.309643 2.990891,-0.776498 6.157437,-1.790809 12.790099,-2.67747 18.563367,-2.48157 3.971583,0.134766 5.149351,0.363065 6.010131,1.165002 1.586129,1.477704 0.477948,2.558609 -10.359758,10.104775 -0.538755,0.375132 -2.246861,1.897558 -3.795794,3.38317 l -2.81623,2.701114 2.935722,-2.250681 c 4.049636,-3.104667 9.598682,-6.764259 10.959998,-7.228105 2.102794,-0.716494 2.65441,0.296411 1.688461,3.100426 -0.25086,0.728204 -1.524568,4.008325 -2.830486,7.289153 -1.305907,3.28083 -2.335968,6.003551 -2.289026,6.050492 0.04691,0.04694 0.852314,-1.477621 1.789704,-3.387918 1.108028,-2.258028 2.065645,-3.851823 2.736964,-4.555222 0.967592,-1.01382 1.066292,-1.059597 1.567316,-0.726929 0.340207,0.225887 0.903222,1.329915 1.547853,3.035189 0.557234,1.474093 1.376737,3.358018 1.82113,4.186499 1.076201,2.006397 3.812085,4.713218 4.781014,4.730211 0.32684,0.0057 -0.193809,-0.672379 -1.756482,-2.287701 z m 85.702099,-0.468928 c -0.0635,-1.878344 0.0181,-2.529736 0.46623,-3.72753 0.64803,-1.732037 2.58393,-3.809353 3.97912,-4.269808 0.50709,-0.167355 0.87995,-0.431603 0.8286,-0.587216 -0.20522,-0.621773 -9.67256,-5.882183 -13.51203,-7.507788 -3.0351,-1.285045 -6.64966,-2.466035 -9.68448,-3.16423 -1.27956,-0.294374 -3.04277,-0.757202 -3.91824,-1.028507 -0.87548,-0.271304 -2.3632,-0.555866 -3.30602,-0.632361 l -1.71423,-0.139079 0.97957,0.79443 c 0.53875,0.436936 1.20394,0.881121 1.47818,0.987077 2.22234,0.858612 14.32261,11.300851 21.53762,18.58645 1.61418,1.629958 2.93658,2.963806 2.93869,2.964107 0.002,2.45e-4 -0.0308,-1.023693 -0.073,-2.275545 z M 57.422129,63.703345 c 0.213377,-0.257107 0.108532,-0.414339 -0.478799,-0.718064 -0.854799,-0.442031 -0.940686,-0.731835 -0.323439,-1.091348 0.356145,-0.207437 0.296523,-0.25087 -0.352885,-0.257059 -0.926574,-0.0088 -1.239856,-0.36564 -0.631828,-0.719619 0.394639,-0.22975 0.396408,-0.253165 0.01959,-0.25994 -0.669091,-0.01202 -0.767544,-0.482051 -0.152637,-0.728665 0.555858,-0.222933 0.553804,-0.227593 -0.106708,-0.242818 -0.370399,-0.0086 -0.673448,-0.122205 -0.673448,-0.252592 0,-0.130388 0.303049,-0.409485 0.673448,-0.620215 l 0.673449,-0.383147 -0.795893,0.149894 c -0.956489,0.180138 -1.12194,-0.381602 -0.244889,-0.831484 0.471442,-0.241829 0.400718,-0.261805 -0.489786,-0.138343 -0.807981,0.112021 -1.040783,0.06569 -1.040783,-0.207142 0,-0.19329 0.247957,-0.471019 0.551005,-0.617177 0.303049,-0.146155 0.413253,-0.273197 0.244889,-0.282311 -0.569847,-0.03085 -0.310339,-0.445151 0.489777,-0.781945 l 0.795893,-0.335013 -0.805524,-0.123255 c -1.016513,-0.155537 -1.01099,-0.52882 0.01328,-0.900516 0.435717,-0.158116 0.59937,-0.295866 0.363664,-0.306113 -0.235706,-0.01023 -0.42856,-0.123355 -0.42856,-0.251352 0,-0.127996 0.192854,-0.345046 0.42856,-0.482332 0.34014,-0.198113 0.213826,-0.25115 -0.612222,-0.257058 -0.572417,-0.0041 -1.040763,-0.117648 -1.040763,-0.252337 0,-0.13469 0.132239,-0.24489 0.293867,-0.24489 0.228559,0 0.228559,-0.06531 0,-0.293868 -0.43029,-0.430289 -0.362413,-0.673922 0.257128,-0.922951 0.533806,-0.214562 0.530443,-0.22196 -0.107988,-0.236997 -1.33997,-0.03156 -0.824806,-0.943646 0.581676,-1.029834 0.32513,-0.01993 0.171804,-0.09829 -0.359346,-0.183668 -1.128771,-0.181436 -1.172456,-0.543731 -0.110673,-0.917781 l 0.792225,-0.279086 -1.224444,-0.08825 c -1.258975,-0.09074 -1.56617,-0.475279 -0.567926,-0.71093 0.385592,-0.09103 0.467304,-0.192037 0.259345,-0.320566 -0.51419,-0.317788 -0.339739,-0.624111 0.492242,-0.864337 L 54.59952,46.49043 53.558738,46.46834 c -1.169628,-0.02483 -1.395073,-0.424394 -0.367333,-0.651067 1.170659,-0.258193 1.190332,-0.311409 0.122444,-0.331246 -1.109528,-0.02061 -1.409787,-0.453611 -0.489778,-0.706309 0.512413,-0.140744 0.500958,-0.160578 -0.163462,-0.283186 -0.868634,-0.16029 -1.156672,-0.744067 -0.367133,-0.744067 0.54616,0 0.446877,-0.362505 -0.102035,-0.372576 -0.324642,-0.0059 -0.255322,-1.336276 0.0879,-1.686363 0.316119,-0.322477 0.863121,0.203146 2.491482,2.394099 1.95075,2.624733 4.74871,7.195078 7.571867,12.368287 1.352363,2.478086 2.525689,4.350117 2.755012,4.395574 0.602209,0.119371 0.501779,-0.292835 -0.728952,-2.992013 -1.628859,-3.572321 -4.293282,-8.431406 -6.325448,-11.535665 -2.929711,-4.475324 -7.677084,-10.051682 -8.152749,-9.576396 -0.103841,0.103757 -0.226056,2.466192 -0.271594,5.249857 -0.08991,5.494266 0.305303,9.515241 1.561717,15.890689 0.972208,4.933304 1.111191,5.24163 3.128002,6.939282 l 1.746994,1.470534 0.546619,-1.132623 c 0.30065,-0.622941 0.669569,-1.280757 0.819837,-1.461811 z m -7.087412,0.44051 c 0.552763,-0.144548 0.569789,-0.279339 0.111648,-0.883972 -0.31697,-0.418327 -0.360789,-0.38274 -0.603069,0.48978 -0.143694,0.517487 -0.246866,1.106188 -0.229276,1.308221 0.01758,0.202035 0.08141,0.106626 0.141821,-0.21202 0.06039,-0.318644 0.320916,-0.63455 0.578876,-0.702009 z M 24.903526,55.199511 c 3.5933,-3.082635 4.315105,-3.66064 10.783655,-8.635289 3.131986,-2.408657 4.463863,-3.577735 4.463863,-3.918236 0,-0.361043 -0.31351,-0.596784 -1.224452,-0.92072 -1.087878,-0.386857 -1.92093,-0.422679 -7.469135,-0.321181 -6.672324,0.122063 -8.30574,0.341079 -12.825547,1.719703 -2.128238,0.649156 -6.826728,2.695848 -9.0228716,3.930431 l -1.155229,0.64942 2.1616896,1.082147 c 4.447849,2.226599 5.943419,5.180247 5.568145,10.996697 -0.08724,1.352543 -0.229936,2.78977 -0.317037,3.193838 -0.13735,0.637137 0.235994,0.354995 2.812217,-2.125247 1.633827,-1.572954 4.434941,-4.116158 6.224702,-5.651563 z m 31.956152,4.322842 c -0.08141,-0.08138 -0.292596,-0.09008 -0.469378,-0.01932 -0.195347,0.07817 -0.137321,0.136202 0.147956,0.147952 0.25816,0.01062 0.4028,-0.04724 0.321422,-0.128621 z M 54.783217,47.508521 c -0.168365,-0.06793 -0.443867,-0.06793 -0.612232,0 -0.168355,0.06793 -0.03058,0.12352 0.306116,0.12352 0.336729,0 0.474471,-0.05558 0.306116,-0.12352 z"
       id="path872"
       inkscape:connector-curvature="0"
       sodipodi:nodetypes="ccccccccscsccccccscsscccsccccscccccssssscccssscsccsccscccccscccscssccccsccccccccscsssscccccccccccccccccssccsccscccsscccccccccccccccsccccssccccsccccscccsccccccccsccccscccccccssccccccccccsccccscccscsccccccccccccsscccsccccscscccssccsccccscccsccsccccccccssscssccccscccscccccscccccccsccscccsccccccccccsccccccccssccsscccscccsccccscccssccsssssccccccccccccscccsccsccscsscscsscscccscccccccscccsscssccccccsccccccssccccccccccccscsccccccscccccccccccccccccccccccccsccccccsccscscccccccccsscscccscccscsccccccccsccccccccccccccccccccssssccccscccccscscscssscccscccsccccccccsccccscccsccccccscccccscscccccccsccscccscsccscssccscccsssssscccccscccccssccccscccccccccscsccsccccccscccscccsccscscccsscccccccsscssscccssccccccccccccsccccccccccccccccccccsccccsscccccccsscssccsccccsccscccsscsccccscsccssccccccccccscscscccsacssacccaccsc" />
  </g>
  <g
     inkscape:label="B.Mask-disabled"
     inkscape:groupmode="layer"
     id="g1656" />
  <g
     inkscape:label="F.Mask-disabled"
     inkscape:groupmode="layer"
     id="g1658" />
  <g
     inkscape:label="Dwgs.User-disabled"
     inkscape:groupmode="layer"
     id="g1660" />
  <g
     inkscape:label="Cmts.User-disabled"
     inkscape:groupmode="layer"
     id="g1662" />
  <g
     inkscape:label="Eco1.User-disabled"
     inkscape:groupmode="layer"
     id="g1664" />
  <g
     inkscape:label="Eco2.User-disabled"
     inkscape:groupmode="layer"
     id="g1666" />
  <g
     inkscape:label="Edge.Cuts"
     inkscape:groupmode="layer"
     id="g1668"
     style="display:inline;opacity:1">
    <path
       style="opacity:1;fill:none;fill-opacity:1;stroke:#000000;stroke-width:0.38703877;stroke-linecap:round;stroke-linejoin:round;stroke-miterlimit:4;stroke-dasharray:none;stroke-dashoffset:0;stroke-opacity:1;paint-order:markers stroke fill"
       d="M1.9854279 49.952257L2.8877856 49.11055L3.8064156 48.302642L4.741112 47.528196L5.6916687 46.786873L6.6578799 46.078335L7.6395396 45.402245L8.6364418 44.758266L9.6483807 44.146059L10.67515 43.565287L11.716545 43.015612L12.772358 42.496695L13.842384 42.0082L14.926416 41.549788L16.024251 41.121123L17.135679 40.721865L18.260497 40.351678L19.398498 40.010223L20.549477 39.697163L21.713226 39.41216L22.889541 39.154876L24.078216 38.924974L25.279043 38.722114L26.491819 38.545962L27.716336 38.396177L28.952387 38.272423L30.19977 38.174363L31.458276 38.101653L32.727699 38.053963L34.007834 38.030953L35.298476 38.032353L36.599417 38.057683L37.910453 38.106683L39.601729 38.389309L40.435478 38.548138L41.244436 38.725592L42.015957 38.92688L42.73739 39.157211L43.075373 39.284896L43.39609 39.421796L43.697962 39.568561L43.979408 39.725842L44.238846 39.894292L44.474696 40.074561L44.685376 40.2673L44.869306 40.47316L45.024904 40.692794L45.15059 40.926852L45.24479 41.175984L45.3059 41.440843L45.33236 41.722079L45.32256 42.020345L45.27496 42.33629L45.18797 42.670566L45.060001 43.023825L44.889471 43.396717L44.6748 43.789894L44.414408 44.204006L44.060497 45.271825L43.747169 46.309818L43.473579 47.318605L43.238887 48.298806L43.042247 49.251041L42.882819 50.175927L42.759759 51.074084L42.672229 51.946132L42.619379 52.792689L42.600369 53.614376L42.614359 54.411812L42.660509 55.185614L42.737969 55.936404L42.845897 56.664799L42.983452 57.371419L43.149794 58.056885L43.344077 58.721814L43.565462 59.366827L43.813103 59.992542L44.086158 60.599578L44.383787 61.188555L44.705146 61.760093L45.04939 62.314809L45.41568 62.853324L45.803172 63.376258L46.211022 63.884228L46.63839 64.377855L47.084431 64.857757L47.548304 65.324555L48.029166 65.778867L48.526175 66.221311L49.038487 66.652509L49.16056 65.737207L49.290352 64.768938L49.367132 64.296031L49.456622 63.847191L49.562434 63.434854L49.688155 63.071454L49.837381 62.769431L49.921931 62.645321L50.013711 62.541217L50.113161 62.458677L50.220735 62.399247L50.336883 62.364487L50.462052 62.355987L50.596695 62.375247L50.741259 62.423827L50.896193 62.503307L51.06195 62.615223L51.238975 62.761139L51.427721 62.942606L51.628636 63.161179L51.842169 63.418415L51.395589 61.834179L50.983815 60.277416L50.606925 58.744084L50.264994 57.230138L49.9581 55.731537L49.68632 54.244236L49.44973 52.764193L49.248405 51.287365L49.082423 49.80971L48.951861 48.327183L48.856791 46.835742L48.797291 45.331344L48.773451 43.809946L48.785331 42.267504L48.833011 40.699976L48.916571 39.103319L48.909571 38.212066L48.941541 37.449177L49.010461 36.809562L49.114384 36.288125L49.178854 36.070131L49.251344 35.879773L49.331604 35.716412L49.419394 35.579413L49.514474 35.468137L49.616588 35.381957L49.725494 35.320227L49.840951 35.282307L49.962713 35.267557L50.090536 35.275357L50.224175 35.305057L50.363387 35.356027L50.507925 35.427627L50.657548 35.519217L50.971063 35.75984L51.301977 36.0728L51.648335 36.453004L52.00818 36.895356L52.379558 37.394765L53.823964 39.135323L55.16561 40.781551L56.410638 42.345071L57.565191 43.83751L58.635413 45.27049L59.627446 46.655634L60.547432 48.004568L61.401515 49.328914L62.195838 50.640295L62.936543 51.950336L63.629774 53.270661L64.281672 54.612893L64.898381 55.988656L65.486045 57.409574L66.050806 58.88727L66.598806 60.433369L68.307685 59.082943L67.294181 61.729407L68.063982 62.069635L68.448882 62.253416L68.833783 62.458023L69.218684 62.69224L69.603584 62.964855L69.988485 63.284652L70.373385 63.660418L70.550061 63.345635L70.75993 63.04712L70.996739 62.764528L71.254236 62.497511L71.526169 62.245726L71.806289 62.008827L72.366075 61.578301L72.883582 61.203171L73.308796 60.880671L73.471164 60.738293L73.591703 60.608036L73.664163 60.489554L73.682293 60.382502L74.610526 61.261357L74.704256 59.950458L75.308002 61.103828L75.598316 60.298741L75.904588 59.509047L76.226381 58.73422L76.563265 57.973741L76.9148 57.227085L77.280556 56.493729L77.660096 55.77315L78.052985 55.064827L78.458788 54.368236L78.877072 53.682855L79.307401 53.008159L79.749342 52.343628L80.666316 51.042966L81.624515 49.776684L82.620464 48.540603L83.650685 47.330538L84.711698 46.142306L85.800028 44.971728L86.912195 43.814619L88.044725 42.666796L90.356954 40.382282L90.791016 39.957871L91.203414 39.575094L91.591839 39.239877L91.953983 38.958147L92.287539 38.735833L92.590198 38.578862L92.729219 38.526732L92.859652 38.493152L92.981206 38.478882L93.093593 38.484682L93.196526 38.511232L93.289716 38.559302L93.372876 38.629632L93.445706 38.722972L93.507936 38.840055L93.559266 38.981624L93.599416 39.148419L93.628086 39.341183L93.649846 39.807575L93.622236 40.386729L93.542956 41.084573L93.409706 41.907031L93.437366 43.421527L93.424686 44.939691L93.374516 46.461263L93.289696 47.985985L93.173067 49.513599L93.027469 51.043846L92.855746 52.576469L92.660739 54.111207L92.44529 55.647805L92.21224 57.186002L91.704707 60.266163L91.160876 63.349625L90.603481 66.43432L92.402837 67.167926L90.123691 69.027956L92.068809 70.187644L94.169268 68.000578L95.200364 66.891739L96.20477 65.761548L97.172036 64.601644L97.638475 64.007937L98.091707 63.403667L98.530435 62.787788L98.953342 62.159256L99.359123 61.517025L99.746481 60.860051L100.00731 60.255074L100.23897 59.668284L100.44263 59.099201L100.61945 58.547339L100.77058 58.012214L100.89719 57.493344L101.00043 56.990246L101.08153 56.502434L101.14153 56.029427L101.18173 55.570739L101.20313 55.125888L101.20713 54.69439L101.19453 54.275762L101.16673 53.86952L101.12483 53.47518L101.07003 53.092259L100.92632 52.358739L100.74485 51.665091L100.53491 51.007447L100.30577 50.381939L99.82707 49.211855L99.383011 48.12389L99.147517 47.666604L98.870504 47.209317L98.250903 46.294744L97.937789 45.837457L97.642118 45.380171L97.378631 44.922884L97.162066 44.465597L97.075986 44.236954L97.007156 44.008311L96.957436 43.779667L96.928656 43.551024L96.922656 43.322381L96.941296 43.093737L96.986406 42.865094L97.059816 42.63645L97.163389 42.407807L97.298959 42.179164L97.468369 41.950521L97.673461 41.721878L97.916072 41.493233L98.198059 41.26459L98.521255 41.035947L98.887501 40.807304L99.819412 40.761474L100.73965 40.732594L101.64834 40.720274L102.54562 40.724174L103.43163 40.743894L104.30651 40.779084L105.17039 40.829374L106.02341 40.894394L106.86573 40.973784L107.69744 41.067164L108.51872 41.174182L109.32969 41.294462L110.92127 41.573344L112.47327 41.900875L113.98678 42.274115L115.46293 42.690125L116.9028 43.145968L118.3075 43.638705L119.67813 44.165397L121.01579 44.723107L122.32157 45.308896L123.59658 45.919826L124.84192 46.552958L126.05869 47.205354L127.24799 47.874075L128.41093 48.556184L129.54859 49.248742L130.6621 49.948811L132.821 51.359726L134.89645 52.765423L136.89724 54.142396L138.83221 55.467138L140.71012 56.716141L140.12055 56.850429L139.5546 57.00182L139.01249 57.170194L138.49441 57.355435L138.00059 57.55742L137.53124 57.776033L137.08657 58.011154L136.6668 58.262666L136.27214 58.530447L135.9028 58.81438L135.55899 59.114345L135.24092 59.430226L134.94881 59.761901L134.68288 60.109253L134.44332 60.472161L134.23037 60.850508L134.04423 61.244175L133.8851 61.653044L133.75321 62.076993L133.64877 62.515906L133.57207 62.969664L133.52307 63.438146L133.50227 63.921235L133.51027 64.418812L133.54627 64.930758L133.61097 65.456954L133.70467 65.99728L133.82746 66.551618L133.97963 67.11985L134.16137 67.701857L134.3729 68.297519L134.61442 68.906718L139.2479 75.430629L138.4075 74.983277L137.58063 74.586869L136.76781 74.239684L135.96952 73.940008L135.18625 73.68612L134.41851 73.476304L133.66677 73.308841L132.93155 73.182012L132.21331 73.094102L131.51257 73.043392L130.8298 73.028162L130.16552 73.046692L129.5202 73.097272L128.89435 73.178182L128.28844 73.2877L127.70298 73.424108L127.13846 73.585691L126.59537 73.770729L126.07422 73.977505L125.57547 74.204301L125.09963 74.4494L124.6472 74.711083L124.21868 74.987632L123.81453 75.27733L123.43527 75.578457L123.08138 75.889297L122.75336 76.208132L122.4517 76.533243L122.17689 76.862913L121.92943 77.195424L121.7098 77.529057L121.51851 77.862095L121.32634 78.264931L121.1771 78.665845L121.06653 79.064412L120.99043 79.460206L120.94433 79.852801L120.92413 80.24177L120.9251 80.626689L120.9439 81.007131L121.0163 81.75288L121.1069 82.47561L121.1815 83.171913L121.2021 83.50909L121.2061 83.838382L120.39135 83.179451L119.65071 82.529221L118.31049 81.281718L117.67033 80.697872L117.02309 80.149579L116.69047 79.890863L116.34846 79.643553L115.99454 79.408486L115.62616 79.186505L114.49927 78.567205L113.39551 78.009641L112.31455 77.512081L111.25605 77.072794L110.21968 76.690048L109.20512 76.362113L108.21202 76.087257L107.24005 75.863747L106.28888 75.689855L105.35818 75.563848L104.44762 75.483988L103.55686 75.448558L102.68557 75.455858L101.83341 75.504078L101.00006 75.591528L100.18518 75.716472L99.388442 75.877182L98.609507 76.071926L97.848047 76.298974L97.103731 76.556593L96.37622 76.843053L95.665184 77.156621L94.970292 77.495568L94.291209 77.858161L93.627603 78.242668L92.979142 78.64736L92.345493 79.070504L91.726322 79.510369L91.121298 79.965224L90.530087 80.433338L89.952357 80.912978L89.387775 81.402415L89.983972 82.384526L90.421962 83.106026L90.92038 83.969037L91.392255 84.847974L91.827016 85.749179L92.027176 86.210114L92.214096 86.678994L92.386451 87.156611L92.542922 87.643759L92.682188 88.14123L92.802928 88.649817L93.491414 87.793086L94.147084 87.042399L94.769715 86.402001L95.068569 86.124487L95.359079 85.876137L95.641216 85.657482L95.914951 85.469053L96.180256 85.311381L96.437105 85.184994L96.685467 85.090424L96.925315 85.028204L97.15662 84.998864L97.379355 85.002964L97.593492 85.040974L97.798999 85.113454L97.995857 85.220935L98.184025 85.363948L98.363486 85.543024L98.534199 85.758694L98.696155 86.011487L98.849306 86.301937L98.993633 86.63057L99.129106 86.99792L99.255707 87.404518L99.373386 87.850893L99.482134 88.337576L99.581924 88.865097L99.672684 89.433988L99.754444 90.044779L99.900541 89.457915L100.0631 88.969765L100.23899 88.561693L100.42513 88.215071L100.6184 87.911266L100.81571 87.631645L101.20999 87.07043L102.22533 86.289721L102.64973 85.99045L103.0174 85.753224L103.32742 85.579034L103.57892 85.468872L103.77097 85.423732L103.84437 85.425832L103.90267 85.444572L103.94567 85.480072L103.97317 85.532452L103.98517 85.601822L103.98117 85.688312L103.92637 85.91316L103.80759 86.207986L103.62392 86.573779L103.37447 87.011533L103.05831 87.522237L102.67455 88.106884L104.26254 87.614018L104.57956 87.745326L104.91895 87.897925L105.07699 87.983575L105.21659 88.076205L105.32971 88.176345L105.40841 88.284551L105.44461 88.401373L105.43021 88.527357L105.35731 88.663054L105.21786 88.809011L105.00386 88.965778L104.70728 89.133903L104.32011 89.313934L103.83434 89.506421L101.88066 89.627006L101.88066 90.787353L103.22418 90.541579L103.5312 90.424327L103.81148 90.361317L104.06329 90.347537L104.28491 90.377997L104.47459 90.447677L104.6306 90.551575L104.75122 90.684687L104.83472 90.842007L104.87932 91.018528L104.88332 91.209247L104.84502 91.409157L104.76272 91.613253L104.63459 91.816529L104.45896 92.01398L104.23406 92.200601L103.95818 92.371385L103.58538 92.345085L103.23115 92.335285L102.8953 92.341885L102.57764 92.364595L102.27797 92.403295L101.99611 92.457825L101.73186 92.528015L101.48504 92.613685L101.25545 92.714674L101.04289 92.83081L100.84718 92.961925L100.66814 93.107846L100.50556 93.268405L100.35926 93.443432L100.22904 93.632757L100.11472 93.836209L98.773827 96.396091L98.655848 96.796715L98.543965 97.127199L98.437858 97.391343L98.33718 97.592951L98.24158 97.735822L98.15082 97.823762L98.06451 97.860562L97.98226 97.850032L97.90379 97.795972L97.8288 97.702182L97.75694 97.572464L97.68787 97.410619L97.556788 97.005751L97.432916 96.517992L97.067218 92.861017L96.48339 92.854917L95.923026 92.903527L95.385967 93.006516L95.126125 93.078286L94.872049 93.163506L94.623717 93.262126L94.38111 93.374107L93.912988 93.637951L93.467521 93.954656L93.044546 94.323843L92.939261 95.273278L92.794892 96.17788L92.613026 97.039474L92.395256 97.859881L92.143169 98.640924L91.858355 99.384428L91.542403 100.09221L91.196903 100.76611L90.823443 101.40793L90.423616 102.01951L89.999007 102.60266L89.551208 103.15921L89.081807 103.69099L88.592395 104.19981L88.084561 104.68749L87.559893 105.15587L87.01998 105.60676L86.466414 106.04199L85.900783 106.46338L85.324677 106.87276L84.147395 107.66276L82.947284 108.42656L80.529432 109.93396L79.337124 110.70671L78.172845 111.51163L77.618117 112.06089L77.105852 112.63139L76.632569 113.22137L76.194787 113.82911L75.789026 114.45286L75.411806 115.09087L75.059645 115.74143L74.729064 116.40276L74.41658 117.07315L74.118714 117.75085L73.552915 119.1212L73.003819 120.49991L72.443582 121.87306L72.055028 121.08922L71.652556 120.31669L71.233817 119.55738L70.796461 118.81319L70.338142 118.08604L69.856508 117.37783L69.349211 116.69047L68.813904 116.02587L68.248236 115.38593L67.64986 114.77258L67.016425 114.18771L66.345585 113.63323L65.63499 113.11105L64.88229 112.62308L64.085138 112.17123L63.241183 111.75741L62.123044 111.47791L61.063866 111.1638L60.062646 110.8158L59.118377 110.43461L58.230055 110.02097L57.396675 109.57558L56.617232 109.09916L55.890719 108.59244L55.216134 108.05613L54.59247 107.49095L54.018723 106.89761L53.493887 106.27683L53.016958 105.62933L52.586928 104.95583L52.202796 104.25704L51.863555 103.53367L51.568199 102.78647L51.315725 102.01612L51.105125 101.22336L50.935397 100.40891L50.805535 99.573462L50.714535 98.717766L50.661385 97.842516L50.645095 96.948439L50.664645 96.03625L50.719035 95.106667L50.807265 94.160408L50.92832 93.19819L51.0812 92.22073L51.264901 91.228746L51.478417 90.222956L51.720742 89.204076L51.473577 89.062688L51.238803 88.908908L50.801415 88.569187L50.398558 88.194936L50.020204 87.79618L49.758251 87.495244L49.296916 86.965252L48.931932 86.553128L48.551356 86.156597L48.218317 86.822672L48.021276 87.216751L47.833192 87.592917L47.627195 88.004909L47.332358 88.59458L47.235698 88.966691L47.116829 89.2944L46.972371 89.57093L46.889481 89.687886L46.798931 89.789508L46.700291 89.874948L46.593134 89.943358L46.477039 89.993898L46.351584 90.025708L46.216343 90.037948L46.070895 90.029848L45.914816 90.000408L45.747681 89.948868L45.567511 89.791249L45.407879 89.624827L45.267137 89.45031L45.143638 89.268402L45.035733 89.079812L44.941783 88.885243L44.78912 88.480999L44.672471 88.06132L44.578651 87.631856L44.406787 86.76617L43.921561875 86.61693925L43.442855 86.456301L42.899025 86.299034L42.57211625 86.233219125L42.229642 86.194645L41.877626625 86.1903025L41.502989 86.225545L41.196131 86.28407175L40.871711 86.373329L40.789221 86.404149L40.709261 86.415369L40.631651 86.408669L40.556231 86.385699L40.41123 86.297659L40.272883 86.164616L40.139811 85.999926L40.010633 85.816948L39.75844 85.449563L39.67761 85.198781L39.63253 84.98733L39.61985 84.811511L39.63619 84.667621L39.67819 84.551961L39.74249 84.460831L39.82572 84.390521L39.92452 84.337341L40.155378 84.267571L40.408142 84.221891L40.655897 84.170701L40.769486 84.133791L40.871729 84.084391L40.573087 83.976791L40.314246 83.867533L40.094156 83.75666L39.911766 83.644215L39.766025 83.530244L39.655885 83.414789L39.580285 83.297896L39.538195 83.179606L39.528495 83.059965L39.550245 82.939015L39.602345 82.8168L39.683735 82.693365L39.793372 82.568753L39.930202 82.443008L40.281243 82.188294L42.090678 82.499703L41.682164 82.338341L41.333642 82.179977L41.0402 82.024368L40.796924 81.871267L40.598901 81.720429L40.441219 81.571608L40.318963 81.424559L40.227223 81.279034L40.161083 81.13479L40.115623 80.99158L40.067123 80.707282L40.042423 80.424173L40.002213 80.140288L40.322147 80.092628L40.623626 80.069268L40.907501 80.069058L41.17462 80.090838L41.425836 80.133438L41.661997 80.195698L41.883954 80.276478L42.092558 80.374598L42.288657 80.488903L42.473103 80.618232L42.646747 80.761426L42.810437 80.917323L43.111358 81.26259L43.38267 81.644749L43.631174 82.054517L43.86367 82.482615L44.307847 83.356663L44.533132 83.784049L44.769615 84.192635L45.0241 84.573135L45.303386 84.916269L45.537823 84.452391L45.728242875 84.073484L45.91469 83.674717L46.085723125 83.259967L46.247028 82.796575L46.3650785 82.3883305L46.47382 81.933535L46.604412 81.528164L46.757015 81.140584L46.931721 80.777018L47.128626 80.443687L47.347825 80.146813L47.589411 79.892618L47.85348 79.687326L47.993975 79.604966L48.140126 79.537156L48.291946 79.484686L48.449444 79.448336L48.612634 79.428876L48.781527 79.427076L48.956136 79.443726L49.136471 79.479606L49.322546 79.535486L49.51437 79.612146L49.711958 79.710366L49.915319 79.830926L50.124466 79.974599L50.339412 80.142165L50.560166 80.3344L50.786742 80.552082L51.257407 81.066901L51.5220351406 81.33444175L51.758274375 81.6019825L51.9683399219 81.86952325L52.154447 82.137064L52.41904325 82.5860685L52.632869 83.035073L52.756596125 83.3457355L52.864499 83.656398L53.058735 84.322749L53.243022 85.03815L53.38192225 84.442125625L53.538332 83.853884L53.7410295 83.2337155L53.8602251562 82.9315631562L53.993893 82.635843L54.1318440937 82.3692307031L54.28530125 82.109509875L54.4557845312 81.8573563594L54.644814 81.613446L54.988168125 81.24343175L55.1808808594 81.0677740312L55.388643 80.898805L55.126889 80.411368L54.813096 79.90613L54.449551 79.386461L54.03856 78.855734L53.582431 78.31732L53.083468 77.774591L52.543979 77.230917L51.96627 76.689674L51.352649 76.15423L50.70542 75.627958L50.02689 75.11423L49.319367 74.616417L48.585155 74.137892L47.826563 73.682026L47.045896 73.252191L46.24546 72.851759L45.427563 72.4841L44.59451 72.152589L43.748608 71.860594L42.892164 71.61149L42.027484 71.408648L41.156874 71.255438L40.282641 71.155233L39.844886 71.126063L39.407091 71.111403L38.969543 71.111685L38.532531 71.127325L38.096343 71.158745L37.661267 71.206365L37.227592 71.270615L36.795605 71.351905L36.365596 71.450655L35.937853 71.567297L35.512664 71.702249L35.090316 71.85593L34.671099 72.028764L34.255301 72.221171L33.84321 72.433573L33.435115 72.66639L33.031303 72.920047L32.632063 73.194961L32.372077 73.397588L32.123731 73.621016L31.88528 73.863861L31.654984 74.124738L31.211883 74.695044L30.780488 75.320855L29.897055 76.694662L29.41714 77.420495L28.893172 78.157505L29.069428 77.583115L29.222125 77.02278L29.351759 76.476436L29.458828 75.944018L29.543828 75.425465L29.607258 74.92071L29.649608 74.429692L29.671388 73.952345L29.673088 73.488606L29.655198 73.038412L29.618228 72.601698L29.562668 72.178401L29.489018 71.768457L29.397768 71.371802L29.289419 70.988372L29.164469 70.618104L29.023415 70.260934L28.866753 69.916797L28.694981 69.585631L28.508595 69.267372L28.308094 68.961953L28.093972 68.669315L27.866728 68.389392L27.626859 68.122119L27.374862 67.867434L27.111233 67.625272L26.83647 67.39557L26.551068 67.178264L26.255528 66.97329L25.950344 66.780585L25.636012 66.600084L25.313032 66.431724L24.643112 66.131171L23.944557 65.878416L23.221345 65.672947L22.477452 65.514256L21.716853 65.401832L20.943524 65.335162L20.161443 65.313742L19.374583 65.337052L18.586922 65.404592L17.802436 65.515844L17.025099 65.670299L16.258889 65.867449L15.507783 66.106781L14.775754 66.387787L14.06678 66.709955L13.384836 67.072776L13.741973 66.230072L14.070979 65.386545L14.370927 64.544019L14.640894 63.704322L14.879958 62.86928L15.087194 62.040719L15.261678 61.220466L15.402487 60.410348L15.508697 59.61219L15.579377 58.827819L15.613617 58.059062L15.610517 57.307744L15.569097 56.575694L15.488457 55.864736L15.367673 55.176698L15.205823 54.513407L15.001985 53.876686L14.755232 53.268366L14.464643 52.69027L14.129293 52.144226L13.944704 51.883574L13.748418 51.63184L13.540481 51.389033L13.320776 51.155379L13.089189 50.931109L12.845602 50.716449L12.589902 50.511629L12.321972 50.316877L12.041107 50.132301L11.748373 49.958369L11.443062 49.79519L11.12506 49.642991L10.794251 49.502002L10.45052 49.37245L10.093752 49.254564L9.7238305 49.148573L9.3406403 49.054703L8.944066 48.973183L8.5339921 48.904243L8.1103032 48.848113L7.2216184 48.775183L6.2770878 48.756223L6.0318 48.767153L5.7860059 48.794453L5.2907109 48.891443L4.786827 49.033715L4.2699786 49.207779L3.1798859 49.597342L2.5978904 49.78587L1.9854279 49.952249L1.9854279 49.952249"
       id="path1790"
       inkscape:connector-curvature="0"
       sodipodi:nodetypes="cccccccccccccccccccccccccccscscccccccccccccccccccccccccccccccccccsccsccccccccccccccccccccccccccccccccccccccccccccccccccccccccccccccccccccccccccccccccccccccccccccccccccccccccccccccccccccccccccccccccccccccccccccccccccccccccccccccccccccccccccccccccccccccccccccccccccccccccccccccccccccccccccccccccccccccccccccccccccccccccccccccccccccccccccccccccccccccccccccccccccccccccccccccccccccccccccccccccccccccccccccccccccccccccccccccccccccccccccccccccccccccccccccccccccccccccccccccccccccccccccccccccccccccccccccccccccccccccccccccccccccccccccccccccccccccccccccccccccccccccccccccccccccccccccccccccccccccccccccccccccccccccccccccccccccccccccccccccccccccccccccccccccccccccccccccccccccccccccccccccccccccccccccccccccccccccccccccccccccccccccccsssscccccccccccccccccccccccccccccccccccccccccccccccccccccccccccccccccccccccccssscccccccccccccccccccccccccsssscssscccccccccccccccccccccccccccccccccccccccccccccccccccccccccccccccccccccccccccccccccccccccccccccccccccccccccccccccccccccccccccccccccccccccccccccccccccccc" />
  </g>
  <g
     inkscape:label="Margin-disabled"
     inkscape:groupmode="layer"
     id="g1670" />
  <g
     inkscape:label="B.CrtYd-disabled"
     inkscape:groupmode="layer"
     id="g1672" />
  <g
     inkscape:label="F.CrtYd-disabled"
     inkscape:groupmode="layer"
     id="g1674" />
  <g
     inkscape:label="B.Fab-disabled"
     inkscape:groupmode="layer"
     id="g1676" />
  <g
     inkscape:label="F.Fab-disabled"
     inkscape:groupmode="layer"
     id="g1678" />
  <g
     inkscape:label="Drill"
     inkscape:groupmode="layer"
     id="g1680" />
</svg>
